<?xml version="1.0" encoding="UTF-8" standalone="no"?>
<!DOCTYPE svg  PUBLIC '-//W3C//DTD SVG 1.1//EN'  'http://www.w3.org/Graphics/SVG/1.1/DTD/svg11.dtd'>
<svg xmlns="http://www.w3.org/2000/svg">
<defs>
<font id="NoeDisplay-Regular" horiz-adv-x="540">
<font-face underline-position="-84" font-weight="400" descent="-200" panose-1="2 10 5 0 9 4 0 0 0 2" units-per-em="1000" unicode-range="U+0020-25CA" bbox="-225 -250 995 928" x-height="487" underline-thickness="17" font-family="NoeDisplay" ascent="800" cap-height="703"/>
<missing-glyph horiz-adv-x="1000"/>
<glyph glyph-name=".notdef" horiz-adv-x="1000"/>
<glyph glyph-name=".null" horiz-adv-x="0"/>
<glyph glyph-name="nonmarkingreturn" horiz-adv-x="333"/>
<glyph glyph-name="space" horiz-adv-x="200" unicode=" "/>
<glyph glyph-name="exclam" horiz-adv-x="240" unicode="!" d="M57 54q0 27 18 45.5t44 18.5q27 0 45 -18.5t18 -45.5q0 -26 -18 -44t-45 -18q-26 0 -44 18t-18 44zM185 703l-67 -489h-2l-61 489h130z"/>
<glyph glyph-name="quotedbl" horiz-adv-x="351" unicode='&quot;' d="M297 632l-41 -153h-2l-41 153q-4 13 -4 30q0 51 46 51t46 -51q0 -17 -4 -30zM138 632l-41 -153h-2l-41 153q-4 16 -4 30q0 51 46 51t46 -51q0 -15 -4 -30z"/>
<glyph glyph-name="numbersign" horiz-adv-x="588" unicode="#" d="M245 437l-59 -204h152l58 204h-151zM491 216h-140l-55 -190l-16 5l53 185h-152l-55 -190l-16 5l53 185h-128v17h133l58 204h-128v17h133l57 199l18 -5l-56 -194h151l57 199l18 -5l-56 -194h133v-17h-138l-59 -204h135v-17z"/>
<glyph glyph-name="dollar" horiz-adv-x="523" unicode="$" d="M127 559q0 -84 99 -131l25 -12v279q-57 -7 -90.5 -43t-33.5 -93zM268 288v-280q57 7 92.5 40.5t35.5 93.5q0 50 -31 82.5t-97 63.5zM245 -10q-101 0 -185 27v209h2l91 -196q8 -17 22 -19q32 -5 58 -5h18v289l-68 33q-59 28 -98 77t-39 117q0 80 57.5 133.5t147.5 57.5v80 h17v-80q74 -1 166 -24v-204h-2l-94 192q-7 15 -19 16q-20 4 -44 4h-7v-289l62 -30q75 -35 114 -76.5t39 -105.5q0 -84 -58 -141t-157 -64v-95h-17v94h-6z"/>
<glyph glyph-name="percent" horiz-adv-x="640" unicode="%" d="M448 286q61 0 92.5 -41t31.5 -108q0 -66 -31.5 -106.5t-92.5 -40.5q-60 0 -92 41t-32 107t32 107t92 41zM448 272q-33 0 -44 -31t-11 -103t11 -103t44 -31q34 0 44.5 30.5t10.5 102.5q0 74 -10.5 104.5t-44.5 30.5zM189 713q61 0 92.5 -41t31.5 -108q0 -66 -31.5 -106.5 t-92.5 -40.5q-60 0 -92 41t-32 107t32 107t92 41zM189 699q-33 0 -44 -31t-11 -103t11 -103t44 -31q34 0 44.5 30.5t10.5 102.5q0 74 -10.5 104.5t-44.5 30.5zM579 701l-503 -711l-15 13l503 710z"/>
<glyph glyph-name="ampersand" horiz-adv-x="745" unicode="&amp;" d="M208 586q0 -78 56 -148l21 -26q99 70 99 172q0 57 -22 86.5t-59 29.5q-44 0 -69.5 -31t-25.5 -83zM213 356q-80 -64 -80 -162q0 -69 43 -113.5t100 -44.5q54 0 84 14t65 49q-4 4 -212 257zM236 -10q-92 0 -144 46.5t-52 119.5q0 68 48.5 120t118.5 86l-6 7 q-79 93 -79 182q0 73 50 117.5t130 44.5q74 0 120 -33.5t46 -98.5q0 -27 -11 -51t-25 -40t-41.5 -32.5t-47 -26t-53.5 -24.5l197 -231q43 62 78 134q7 15 -5 27l-82 82v2h229v-2l-106 -89q-13 -11 -24 -33q-37 -69 -80 -133q46 -51 78.5 -70.5t71.5 -19.5q38 0 67.5 29 t32.5 84h2q2 -22 2 -31q0 -75 -43 -120.5t-104 -45.5q-83 0 -169 98q-48 -50 -93 -74t-106 -24z"/>
<glyph glyph-name="quotesingle" horiz-adv-x="192" unicode="&apos;" d="M142 662q0 -14 -4 -30l-41 -153h-2l-41 153q-4 17 -4 30q0 51 46 51t46 -51z"/>
<glyph glyph-name="parenleft" horiz-adv-x="318" unicode="(" d="M53 292q0 253 149 382q45 39 104 64l2 -2q-48 -40 -81 -94q-80 -132 -80 -350t80 -350q33 -54 81 -94l-2 -2q-59 25 -104 64q-149 129 -149 382z"/>
<glyph glyph-name="parenright" horiz-adv-x="318" unicode=")" d="M265 292q0 -253 -149 -382q-45 -39 -104 -64l-2 2q48 40 81 94q80 132 80 350t-80 350q-33 54 -81 94l2 2q59 -25 104 -64q149 -129 149 -382z"/>
<glyph glyph-name="asterisk" horiz-adv-x="346" unicode="*" d="M316 565h-142l113 -82l-73 -54l-43 134l-44 -133l-73 54l114 81h-138l28 87l111 -83l-41 134h91l-46 -134l115 81z"/>
<glyph glyph-name="plus" d="M50 314v17h211v212h18v-212h211v-17h-211v-211h-18v211h-211z" unicode="+"/>
<glyph glyph-name="comma" horiz-adv-x="225" unicode="," d="M43 -133l-1 2q37 19 55.5 54.5t18.5 65.5q0 11 -11 12q-21 2 -36.5 19.5t-15.5 41.5q0 26 17.5 43.5t42.5 17.5q28 0 46 -20t18 -60q0 -56 -38.5 -108.5t-95.5 -67.5z"/>
<glyph glyph-name="hyphen" horiz-adv-x="351" unicode="-" d="M46 234v18h260v-18h-260z"/>
<glyph glyph-name="period" horiz-adv-x="225" unicode="." d="M50 54q0 27 18 45.5t44 18.5q27 0 45 -18.5t18 -45.5q0 -26 -18 -44t-45 -18q-26 0 -44 18t-18 44z"/>
<glyph glyph-name="slash" horiz-adv-x="380" unicode="/" d="M347 732l-297 -885l-17 6l297 885z"/>
<glyph glyph-name="zero" horiz-adv-x="627" unicode="0" d="M313 713q128 0 197 -91.5t69 -270.5q0 -177 -69 -269t-197 -92q-127 0 -196 92.5t-69 270.5q0 177 69 268.5t196 91.5zM313 8q157 0 157 343q0 99 -12 168.5t-34.5 106.5t-49 53t-61.5 16q-34 0 -61 -16t-49 -53t-34 -106t-12 -167q0 -345 156 -345z"/>
<glyph glyph-name="one" horiz-adv-x="393" unicode="1" d="M39 652l220 61v-634q0 -9 2.5 -12.5t11.5 -8.5l101 -56v-2h-325v2l102 56q13 8 13 21v522q0 17 -13 21l-112 28v2z"/>
<glyph glyph-name="two" horiz-adv-x="527" unicode="2" d="M466 518q0 -41 -16.5 -82.5t-39 -75.5t-68.5 -79t-81.5 -76t-100.5 -85l-47 -39h240q22 0 29 3t17 16l71 92h2l-18 -192h-436v2l112 121q46 49 98 114q70 87 99 149.5t29 135.5q0 175 -129 175q-25 0 -45 -5q-9 -2 -11.5 -4.5t-7.5 -13.5l-65 -155h-2l-53 149 q90 45 197 45q104 0 165 -52t61 -143z"/>
<glyph glyph-name="three" horiz-adv-x="531" unicode="3" d="M487 199q0 -94 -72 -151.5t-196 -57.5q-96 0 -192 34l62 167h2l48 -162q5 -15 15 -17q28 -6 55 -6q83 0 126 52.5t43 129.5t-47 123.5t-139 46.5v2q158 35 158 186q0 69 -34 110t-98 41q-18 0 -38 -3q-9 -1 -12.5 -4t-8.5 -15l-65 -155h-2l-53 149q89 44 198 44 q96 0 157.5 -44t61.5 -121q0 -128 -152 -171v-2q80 -8 131.5 -55.5t51.5 -120.5z"/>
<glyph glyph-name="four" horiz-adv-x="565" unicode="4" d="M42 198h259v430zM396 180v-102q0 -13 13 -21l80 -55v-2h-286v2l85 55q13 8 13 21v102h-292v1l314 522h73v-505h35q16 0 25 13l94 161h2l-15 -192h-141z"/>
<glyph glyph-name="five" horiz-adv-x="546" unicode="5" d="M508 210q0 -101 -71 -160.5t-197 -59.5q-104 0 -193 35l62 166h2l48 -162q4 -11 8 -14t18 -5q24 -4 48 -4q80 0 123 54.5t43 142.5q0 80 -45 126.5t-125 46.5q-68 0 -131 -41l-2 1l7 367l173 -4q30 -1 74 -1q63 0 85 22l29 28h2l-12 -76q-6 -38 -26 -51t-70 -13 q-35 0 -83 2l-156 5l-4 -253q80 57 177 57q99 0 157.5 -58.5t58.5 -150.5z"/>
<glyph glyph-name="six" horiz-adv-x="578" unicode="6" d="M308 404q-83 0 -155 -82q4 -158 44 -237t104 -79q53 0 92 52t39 159q0 89 -32 138t-92 49zM344 437q85 0 137.5 -56t52.5 -155q0 -104 -67 -170t-167 -66q-120 0 -186 96t-66 266q0 172 71.5 266.5t218.5 94.5q77 0 170 -30l-50 -152h-2l-67 150q-5 12 -21 14 q-22 2 -32 2q-96 0 -139.5 -84t-43.5 -260v-19q34 50 84.5 76.5t106.5 26.5z"/>
<glyph glyph-name="seven" horiz-adv-x="479" unicode="7" d="M413 611q-58 -147 -164 -611h-123q59 169 140.5 347t133.5 274h-278q-15 0 -20 -3t-16 -15l-59 -73h-2l21 173h440v-2l-53 -61q-15 -18 -20 -29z"/>
<glyph glyph-name="eight" horiz-adv-x="564" unicode="8" d="M156 573q0 -47 24.5 -80t80.5 -64l64 -36q78 49 78 157q0 71 -34 108.5t-86 37.5q-54 0 -90.5 -34.5t-36.5 -88.5zM320 283l-94 53q-98 -54 -98 -169q0 -68 45.5 -114t110.5 -46q64 0 107.5 36.5t43.5 99.5q0 47 -27.5 77t-87.5 63zM278 -10q-105 0 -169.5 51.5 t-64.5 121.5q0 73 43 111t130 67l-30 17q-118 67 -118 174q0 81 60.5 131t153.5 50q86 0 144.5 -45.5t58.5 -117.5q0 -119 -152 -162l52 -28q75 -42 108.5 -82t33.5 -99q0 -76 -69 -132.5t-181 -56.5z"/>
<glyph glyph-name="nine" horiz-adv-x="578" unicode="9" d="M280 301q75 0 144 81q-7 315 -147 315q-53 0 -92 -51.5t-39 -160.5q0 -184 134 -184zM240 269q-81 0 -138.5 57.5t-57.5 158.5q0 99 67.5 163.5t167.5 64.5q122 0 186.5 -94t64.5 -272q0 -165 -72 -261t-208 -96q-89 0 -182 31l59 167h2l55 -166q4 -12 20 -14 q13 -2 40 -2q94 0 137.5 85t43.5 256v23q-75 -101 -185 -101z"/>
<glyph glyph-name="colon" horiz-adv-x="225" unicode=":" d="M50 382q0 27 18 45.5t44 18.5q27 0 45 -18.5t18 -45.5q0 -26 -18 -44t-45 -18q-26 0 -44 18t-18 44zM50 54q0 27 18 45.5t44 18.5q27 0 45 -18.5t18 -45.5q0 -26 -18 -44t-45 -18q-26 0 -44 18t-18 44z"/>
<glyph glyph-name="semicolon" horiz-adv-x="225" unicode=";" d="M50 382q0 27 18 45.5t44 18.5q27 0 45 -18.5t18 -45.5q0 -26 -18 -44t-45 -18q-26 0 -44 18t-18 44zM53 62q0 26 17.5 43.5t42.5 17.5q28 0 46 -20t18 -60q0 -56 -38.5 -108.5t-95.5 -67.5l-1 2q37 19 55.5 54.5t18.5 65.5q0 11 -11 12q-21 2 -36.5 19.5t-15.5 41.5z"/>
<glyph glyph-name="less" d="M71 324l390 179l7 -16l-357 -164l357 -164l-7 -16l-390 179v2z" unicode="&lt;"/>
<glyph glyph-name="equal" d="M50 226v17h440v-17h-440zM50 404v17h440v-17h-440z" unicode="="/>
<glyph glyph-name="greater" d="M79 503l390 -179v-2l-390 -179l-7 16l357 164l-357 164z" unicode="&gt;"/>
<glyph glyph-name="question" horiz-adv-x="430" unicode="?" d="M131 54q0 27 18 45.5t44 18.5q27 0 45 -18.5t18 -45.5q0 -26 -18 -44t-45 -18q-26 0 -44 18t-18 44zM415 566q0 -66 -72 -136l-83 -83q-32 -32 -46 -55t-14 -52q0 -12 3 -27l-1 -2q-57 31 -57 85q0 20 11.5 42t22.5 34.5t34 38.5l56 61q51 55 51 116q0 49 -32 79t-83 30 q-23 0 -40 -4q-14 -3 -17 -5.5t-7 -11.5l-66 -157h-2l-53 149q93 45 199 45q85 0 140.5 -39t55.5 -108z"/>
<glyph glyph-name="at" horiz-adv-x="1007" unicode="@" d="M535 162q17 35 45.5 125.5t41.5 146.5q-14 30 -57 30q-56 0 -102 -67q-33 -48 -54.5 -120t-21.5 -137q0 -93 48 -93q52 0 100 115zM957 335q0 -153 -74 -248t-177 -95q-69 0 -111.5 35t-42.5 105q0 29 7 60h-2q-34 -99 -73.5 -149.5t-90.5 -50.5q-45 0 -72 37.5 t-27 110.5q0 84 34 166t92.5 135.5t123.5 53.5q68 0 82 -57l99 57l2 -1l-73 -264q-17 -61 -17 -111q0 -53 21 -81t60 -28q89 0 155 90.5t66 232.5q0 158 -108.5 256.5t-281.5 98.5q-212 0 -346.5 -139t-134.5 -357q0 -191 120.5 -297.5t307.5 -106.5q113 0 247 77l8 -15 q-125 -79 -256 -79q-193 0 -319 111t-126 309q0 227 140 370.5t360 143.5q179 0 293 -104t114 -266z"/>
<glyph glyph-name="A" horiz-adv-x="621" unicode="A" d="M276 599l-113 -335h225zM157 246l-48 -143q-3 -7 -3 -12q0 -7 18 -21l85 -68v-2h-225v2l80 68q20 18 26 36l168 498q4 14 4 16q0 8 -12 21l-55 60v2h153l210 -621q8 -23 23 -38l43 -42v-2h-249v2l71 54q11 8 4 25l-56 165h-237z"/>
<glyph glyph-name="B" horiz-adv-x="613" unicode="B" d="M221 662v-290h60q67 0 108.5 39.5t41.5 121.5q0 78 -39 115t-106 37h-47q-18 0 -18 -23zM283 355h-62v-313q0 -16 5.5 -20t29.5 -4h26q178 0 178 170q0 83 -41.5 125t-135.5 42zM18 703h285q114 0 177 -44t63 -127q0 -62 -48 -106.5t-119 -53.5v-3q87 -5 142 -50.5 t55 -117.5q0 -95 -71 -148t-188 -53h-296v2l86 47q13 7 13 20v565q0 13 -13 20l-86 47v2z"/>
<glyph glyph-name="C" horiz-adv-x="595" unicode="C" d="M372 -10q-170 0 -253.5 97t-83.5 262q0 164 86 264t238 100q87 0 181 -22v-211h-2l-101 194q-6 11 -11.5 14.5t-20.5 5.5q-21 3 -41 3q-209 0 -209 -346q0 -345 216 -345q13 0 35 2q21 2 30 18l102 201h2v-220q-80 -17 -168 -17z"/>
<glyph glyph-name="D" horiz-adv-x="672" unicode="D" d="M248 18h21q120 0 185 78t65 260q0 175 -62.5 252t-167.5 77h-52q-9 0 -12.5 -4t-3.5 -16v-623q0 -16 4.5 -20t22.5 -4zM18 0v2l86 47q13 7 13 20v565q0 13 -13 20l-86 47v2h291q162 0 245.5 -90t83.5 -252q0 -165 -85 -263t-245 -98h-290z"/>
<glyph glyph-name="E" horiz-adv-x="593" unicode="E" d="M540 0h-522v2l86 47q13 7 13 20v565q0 13 -13 20l-86 47v2h512v-216h-2l-84 180q-9 18 -29 18h-178q-10 0 -13 -4.5t-3 -18.5v-294h123q16 1 28 19l64 89h2v-234h-2l-64 90q-13 18 -29 18h-122v-309q0 -14 3 -18.5t13 -4.5h178q26 0 34 13l89 182h2v-213z"/>
<glyph glyph-name="F" horiz-adv-x="561" unicode="F" d="M349 0h-331v2l86 47q13 7 13 20v565q0 13 -13 20l-86 47v2h512v-216h-2l-84 180q-8 18 -29 18h-177q-10 0 -13.5 -4.5t-3.5 -17.5v-295h123q16 1 28 19l64 89h2v-234h-2l-64 90q-13 18 -29 18h-122v-274q0 -15 13 -20l115 -54v-2z"/>
<glyph glyph-name="G" horiz-adv-x="644" unicode="G" d="M348 -10q-159 0 -236.5 96.5t-77.5 262.5q0 162 86 263t235 101q97 0 192 -22v-211h-2l-100 192q-6 12 -10.5 15.5t-16.5 5.5q-24 4 -49 4q-213 0 -213 -346q0 -345 193 -345q41 0 83 15q11 4 11 16v199q0 9 -1 13t-2.5 6t-7.5 5l-79 48v2h284v-2l-78 -47q-8 -5 -10 -8.5 t-2 -16.5v-246l-96 19q-59 -19 -103 -19z"/>
<glyph glyph-name="H" horiz-adv-x="742" unicode="H" d="M625 634v-565q0 -9 2 -12.5t11 -7.5l86 -47v-2h-302v2l86 47q13 7 13 20v282h-300v-282q0 -9 2 -12.5t11 -7.5l86 -47v-2h-302v2l86 47q13 7 13 20v565q0 13 -13 20l-86 47v2h302v-2l-86 -47q-9 -5 -11 -8.5t-2 -11.5v-265h300v265q0 14 -13 20l-86 47v2h302v-2l-86 -47 q-9 -5 -11 -8.5t-2 -11.5z"/>
<glyph glyph-name="I" horiz-adv-x="338" unicode="I" d="M221 69q0 -9 2 -12.5t11 -7.5l86 -47v-2h-302v2l86 47q13 7 13 20v565q0 13 -13 20l-86 47v2h302v-2l-86 -47q-9 -5 -11 -8.5t-2 -11.5v-565z"/>
<glyph glyph-name="J" horiz-adv-x="308" unicode="J" d="M206 634v-607q0 -102 -61 -162t-160 -76l-1 2q62 29 90 91.5t28 141.5v610q0 13 -13 20l-86 47v2h302v-2l-86 -47q-9 -5 -11 -8.5t-2 -11.5z"/>
<glyph glyph-name="K" horiz-adv-x="647" unicode="K" d="M508 611l-193 -199l239 -322q13 -16 32 -32l70 -56v-2h-164l-261 353l257 264q8 8 8 13q0 4 -12 13l-86 58v2h262v-2l-110 -60q-25 -13 -42 -30zM221 634v-565q0 -9 2 -12.5t11 -7.5l86 -47v-2h-302v2l86 47q13 7 13 20v565q0 13 -13 20l-86 47v2h302v-2l-86 -47 q-9 -5 -11 -8.5t-2 -11.5z"/>
<glyph glyph-name="L" horiz-adv-x="555" unicode="L" d="M117 69v565q0 13 -13 20l-86 47v2h302v-2l-86 -47q-9 -5 -11 -8.5t-2 -11.5v-593q0 -14 3 -18.5t13 -4.5h158q27 0 34 13l94 193h2v-224h-507v2l86 47q13 7 13 20z"/>
<glyph glyph-name="M" horiz-adv-x="856" unicode="M" d="M738 634v-565q0 -9 2 -12.5t11 -7.5l86 -47v-2h-302v2l86 47q13 7 13 20v480q0 27 4 69l-243 -623h-2l-231 555q-8 17 -24 66v-515q0 -12 2.5 -17t13.5 -13l94 -69v-2h-240v2l95 69q11 8 13.5 13t2.5 17v521q0 18 -12 25l-85 54v2h190l226 -546l213 546h186v-2l-86 -47 q-9 -5 -11 -8.5t-2 -11.5z"/>
<glyph glyph-name="N" horiz-adv-x="682" unicode="N" d="M576 602v-602h-69l-367 600v-499q0 -19 16 -30l95 -69v-2h-241v2l95 69q16 11 16 30v507q0 22 -13 34l-84 59v2h175l358 -587v486q0 18 -16 30l-95 69v2h241v-2l-95 -69q-16 -11 -16 -30z"/>
<glyph glyph-name="O" horiz-adv-x="689" unicode="O" d="M345 713q147 0 227.5 -96t80.5 -265t-80.5 -265.5t-227.5 -96.5t-228 96.5t-81 265.5t81 265t228 96zM345 6q86 0 137.5 83t51.5 263t-51.5 262t-137.5 83q-86 0 -137.5 -82.5t-51.5 -262.5t51.5 -262.5t137.5 -83.5z"/>
<glyph glyph-name="P" horiz-adv-x="589" unicode="P" d="M221 664v-373h68q67 0 113 47t46 152q0 101 -43.5 148t-114.5 47h-50q-11 0 -15 -4.5t-4 -16.5zM306 273h-85v-192q0 -24 11 -29l124 -50v-2h-338v2l86 47q13 7 13 20v565q0 13 -13 20l-86 47v2h302q110 0 175.5 -52.5t65.5 -160.5q0 -100 -73.5 -158.5t-181.5 -58.5z "/>
<glyph glyph-name="Q" horiz-adv-x="690" unicode="Q" d="M343 6q86 0 137.5 83t51.5 263t-51.5 262t-137.5 83q-86 0 -137.5 -82.5t-51.5 -262.5t51.5 -262.5t137.5 -83.5zM504 -236q-70 0 -134 25l-208 79q-29 11 -54 11q-14 0 -29 -3l-1 1l156 129q-97 32 -148.5 121.5t-51.5 224.5q0 169 81 265t228 96t227.5 -96t80.5 -265 t-80.5 -265.5t-227.5 -96.5q-47 0 -91 11l-64 -56l222 -77q56 -20 125 -20q79 0 126 42l35 31l2 -1l-47 -80q-21 -35 -60.5 -55.5t-86.5 -20.5z"/>
<glyph glyph-name="R" horiz-adv-x="637" unicode="R" d="M221 664v-328h49q167 0 167 171q0 99 -40 138.5t-116 39.5h-41q-11 0 -15 -4.5t-4 -16.5zM256 318h-35v-251q0 -9 2 -12.5t11 -7.5l89 -45v-2h-305v2l86 47q13 7 13 20v565q0 13 -13 20l-86 47v2h303q102 0 167 -49t65 -142q0 -65 -44.5 -114.5t-118.5 -68.5v-2l28 -40 l2 -3l148 -206q15 -21 33 -35l51 -41v-2h-156l-210 301q-12 17 -30 17z"/>
<glyph glyph-name="S" horiz-adv-x="515" unicode="S" d="M245 -10q-101 0 -185 27v209h2l91 -196q8 -17 22 -19q32 -5 58 -5q71 0 117 33.5t46 102.5q0 50 -30.5 82t-96.5 63l-86 41q-59 28 -98 77t-39 117q0 83 61 137t155 54q77 0 172 -24v-204h-2l-94 192q-7 15 -19 16q-20 4 -44 4q-67 0 -107.5 -37.5t-40.5 -100.5 q0 -84 99 -131l104 -50q75 -35 114 -76.5t39 -105.5q0 -89 -65 -147.5t-173 -58.5z"/>
<glyph glyph-name="T" horiz-adv-x="602" unicode="T" d="M582 703v-228h-2l-87 191q-5 12 -9.5 15.5t-16.5 3.5h-114v-616q0 -9 2 -12.5t11 -7.5l91 -47v-2h-312v2l91 47q13 7 13 20v616h-114q-12 0 -16 -3t-10 -16l-87 -191h-2v228h562z"/>
<glyph glyph-name="U" horiz-adv-x="652" unicode="U" d="M554 248q0 -120 -52 -189t-166 -69q-239 0 -239 214v427q0 8 -2 11.5t-11 8.5l-79 50v2h293v-2l-84 -50q-9 -4 -11 -7.5t-2 -12.5v-405q0 -101 43 -154.5t125 -53.5q80 0 123 60t43 169v355q0 19 -16 30l-95 69v2h242v-2l-96 -69q-16 -11 -16 -30v-354z"/>
<glyph glyph-name="V" horiz-adv-x="596" unicode="V" d="M524 597l-194 -597h-61l-215 621q-8 23 -23 38l-43 42v2h250v-2l-71 -54q-10 -7 -4 -24l180 -522l160 494q3 7 3 13q0 11 -16 23l-87 70v2h225v-2l-76 -65q-10 -9 -14 -13t-7.5 -10t-6.5 -16z"/>
<glyph glyph-name="W" horiz-adv-x="960" unicode="W" d="M634 0l-154 476l-155 -476h-61l-210 621q-8 23 -23 38l-43 42v2h249v-2l-71 -54q-10 -7 -4 -24l176 -520l132 404l-37 114q-8 23 -23 38l-37 42v2h244v-2l-71 -54q-10 -7 -5 -23l168 -520l158 491q3 7 3 13q0 11 -16 23l-87 70v2h225v-2l-76 -65q-10 -9 -14 -13t-7.5 -10 t-6.5 -16l-193 -597h-61z"/>
<glyph glyph-name="X" horiz-adv-x="654" unicode="X" d="M575 76q11 -18 32 -33l56 -41v-2h-269v2l58 40q11 8 11 14q0 4 -6 13l-160 251l-153 -229q-8 -11 -8 -16t8 -10l96 -63v-2h-249v2l92 57q25 14 38 33l165 245l-183 290q-11 18 -32 33l-56 41v2h269v-2l-58 -40q-11 -7 -11 -13q0 -5 6 -14l136 -215l129 193q8 11 8 16 t-8 10l-96 63v2h249v-2l-92 -57q-25 -14 -38 -33l-141 -209z"/>
<glyph glyph-name="Y" horiz-adv-x="596" unicode="Y" d="M355 287v-218q0 -9 2 -12.5t11 -7.5l91 -47v-2h-312v2l91 47q13 7 13 20v207q0 16 -8 30l-177 317q-11 20 -27 33l-51 45v2h260v-2l-65 -51q-9 -8 -4 -18l167 -299l143 270q8 15 -3 24l-85 74v2h227v-2l-88 -69q-23 -19 -34 -39l-143 -270q-8 -14 -8 -36z"/>
<glyph glyph-name="Z" horiz-adv-x="575" unicode="Z" d="M546 701l-404 -683h244q27 0 34 13l103 198h2v-229h-510v2l402 683h-222q-27 0 -34 -13l-99 -201h-2v232h486v-2z"/>
<glyph glyph-name="bracketleft" horiz-adv-x="340" unicode="[" d="M160 653v-721q0 -9 1.5 -11t10.5 -4l158 -43v-2l-250 -15v871l250 -15v-2l-158 -43q-9 -2 -10.5 -4t-1.5 -11z"/>
<glyph glyph-name="backslash" horiz-adv-x="380" unicode="\" d="M330 -153l-297 885l17 6l297 -885z"/>
<glyph glyph-name="bracketright" horiz-adv-x="340" unicode="]" d="M180 -68v721q0 9 -1.5 11t-10.5 4l-158 43v2l250 15v-871l-250 15v2l158 43q9 2 10.5 4t1.5 11z"/>
<glyph glyph-name="asciicircum" d="M271 714l179 -390l-16 -8l-164 358l-164 -358l-16 8l179 390h2z" unicode="^"/>
<glyph glyph-name="underscore" horiz-adv-x="500" unicode="_" d="M495 -91h-490v17h490v-17z"/>
<glyph glyph-name="grave" horiz-adv-x="310" unicode="`" d="M50 703h121l89 -161l-2 -2l-208 161v2z"/>
<glyph glyph-name="a" horiz-adv-x="465" unicode="a" d="M241 242q-52 0 -81 -31t-29 -76q0 -39 21.5 -63t54.5 -24q56 0 90 58v3l2 123q-29 10 -58 10zM299 238l2 106v3q0 60 -27 95.5t-80 35.5q-19 0 -24 -2t-9 -12l-61 -132h-2l-45 130q80 33 168 33q89 0 127 -39q45 -47 45 -164v-14l-4 -163v-6q0 -61 36 -61q25 0 33 29h2 q0 -16 -6 -31q-9 -23 -29 -38.5t-48 -15.5q-35 0 -57.5 27t-22.5 79q-15 -50 -50.5 -78t-83.5 -28q-54 0 -92 35t-38 96q0 69 48.5 107.5t113.5 38.5q62 0 104 -31z"/>
<glyph glyph-name="b" horiz-adv-x="512" unicode="b" d="M263 445q-61 0 -107 -69v-310q31 -37 88 -37q63 0 97.5 54t34.5 158q0 98 -30 151t-83 53zM156 723v-338q50 110 149 110q81 0 127 -65t46 -174q0 -116 -52 -190t-144 -74q-48 0 -80 18.5t-47 45.5l-92 -64h-2v646q0 16 -11 23l-68 40v2z"/>
<glyph glyph-name="c" horiz-adv-x="440" unicode="c" d="M233 -8q-84 0 -143.5 62.5t-59.5 184.5q0 67 20 118t54 80t74.5 43.5t85.5 14.5q69 0 145 -28l-47 -145h-2l-59 144q-5 11 -12 12q-9 2 -21 2q-69 0 -105 -55t-36 -156q0 -111 40.5 -165.5t104.5 -54.5q94 0 141 113h2q-15 -79 -60 -124.5t-122 -45.5z"/>
<glyph glyph-name="d" horiz-adv-x="536" unicode="d" d="M256 41q53 0 99 69v284q-42 61 -98 61q-53 0 -87.5 -52.5t-34.5 -152.5q0 -103 35 -156t86 -53zM450 723v-649q0 -14 11 -22l68 -50v-2h-174v103q-20 -56 -58.5 -83.5t-85.5 -27.5q-79 0 -128.5 69t-49.5 178q0 116 55.5 186t137.5 70q91 0 129 -92v235q0 16 -11 23 l-68 40v2z"/>
<glyph glyph-name="e" horiz-adv-x="464" unicode="e" d="M242 480q-49 0 -78.5 -47.5t-35.5 -130.5h206v2q0 176 -92 176zM429 285h-302v-28q0 -98 40.5 -153t104.5 -55q109 0 159 123l2 -1q-16 -89 -65.5 -134t-128.5 -45q-89 0 -148.5 62.5t-59.5 184.5q0 68 19 119.5t51 80t68 42.5t74 14q78 0 133 -47t55 -137q0 -10 -2 -26z "/>
<glyph glyph-name="f" horiz-adv-x="322" unicode="f" d="M339 469h-146v-402q0 -9 2.5 -12t11.5 -8l90 -45v-2h-278v2l68 40q11 6 11 22v405h-70v18h70v37q0 100 39 144.5t121 44.5q64 0 127 -26l-51 -122h-2l-49 120q-4 10 -7 11.5t-17 1.5q-66 0 -66 -117v-94h146v-18z"/>
<glyph glyph-name="g" horiz-adv-x="480" unicode="g" d="M146 333q0 -147 88 -147t88 147t-88 147t-88 -147zM167 -12q-5 0 -17 2q-60 -27 -60 -90q0 -56 46.5 -87.5t108.5 -31.5q63 0 106.5 29t43.5 84q0 84 -124 90zM45 333q0 76 53.5 119t130.5 43q63 0 113 -32q12 -8 18 2l97 131l2 -1v-150h-92q56 -44 56 -116 q0 -73 -56 -115.5t-135 -42.5q-34 0 -59 7q-57 -16 -57 -54q0 -21 22 -34.5t64 -13.5h81q85 0 132 -37t47 -103q0 -81 -69.5 -126.5t-167.5 -45.5q-82 0 -143 31.5t-61 87.5q0 39 30.5 67.5t88.5 41.5q-40 7 -62 31.5t-22 56.5q0 35 28 62.5t76 38.5q-52 16 -83.5 55.5 t-31.5 96.5z"/>
<glyph glyph-name="h" horiz-adv-x="547" unicode="h" d="M465 64q0 -15 12 -22l68 -40v-2h-253v2l64 40q13 8 13 20q0 2 0.5 44t1.5 90.5t1 66.5q0 91 -21 132.5t-65 41.5q-66 0 -105 -74v-299q0 -14 12 -21l67 -41v-2h-253v2l68 40q11 6 11 22v574q0 16 -11 23l-68 40v2l174 20v-354q35 126 148 126q138 0 138 -200 q0 -71 -2 -231z"/>
<glyph glyph-name="i" horiz-adv-x="285" unicode="i" d="M23 487h174v-423q0 -14 12 -21l67 -41v-2h-253v2l68 40q11 6 11 22v348q0 15 -11 23l-68 50v2zM142 562q-25 0 -42 17.5t-17 41.5q0 26 17 43.5t42 17.5t42.5 -17.5t17.5 -43.5q0 -24 -17.5 -41.5t-42.5 -17.5z"/>
<glyph glyph-name="j" horiz-adv-x="259" unicode="j" d="M74 621q0 26 17 43.5t42 17.5t42.5 -17.5t17.5 -43.5q0 -24 -17.5 -41.5t-42.5 -17.5t-42 17.5t-17 41.5zM14 487h174v-467q0 -101 -47.5 -167t-141.5 -66q-12 0 -38 4v2q66 6 99 52t33 150v417q0 15 -11 23l-68 50v2z"/>
<glyph glyph-name="k" horiz-adv-x="505" unicode="k" d="M205 265q-11 0 -24 -10v-191q0 -14 12 -21l67 -41v-2h-253v2l68 40q11 6 11 22v574q0 16 -11 23l-68 40v2l174 20v-459l194 147q8 7 0 14l-74 60v2h200v-2l-196 -148q-10 -7 -5 -16l136 -252q8 -17 23 -27l58 -40v-2h-156l-129 247q-10 18 -27 18z"/>
<glyph glyph-name="l" horiz-adv-x="267" unicode="l" d="M181 723v-659q0 -14 12 -21l67 -41v-2h-253v2l68 40q11 6 11 22v574q0 16 -11 23l-68 40v2z"/>
<glyph glyph-name="m" horiz-adv-x="849" unicode="m" d="M483 295q0 -71 -2 -231q0 -15 12 -22l68 -40v-2h-253v2l64 40q13 8 13 20q0 2 0.5 44t1.5 90.5t1 66.5q0 91 -21 132.5t-65 41.5q-66 0 -105 -74v-299q0 -14 12 -21l67 -41v-2h-253v2l68 40q11 6 11 22v348q0 15 -11 23l-68 50v2h174v-118q35 126 148 126q108 0 131 -124 q17 60 58 92t98 32q136 0 136 -200q0 -71 -2 -231q0 -15 12 -22l68 -40v-2h-253v2l64 40q13 8 13 20q0 2 1 44t1.5 89.5t0.5 65.5q0 92 -20.5 134t-66.5 42q-66 0 -109 -71q6 -31 6 -71z"/>
<glyph glyph-name="n" horiz-adv-x="564" unicode="n" d="M483 295q0 -71 -2 -231q0 -15 12 -22l68 -40v-2h-253v2l64 40q13 8 13 20q0 2 0.5 44t1.5 90.5t1 66.5q0 91 -21 132.5t-65 41.5q-66 0 -105 -74v-299q0 -14 12 -21l67 -41v-2h-253v2l68 40q11 6 11 22v348q0 15 -11 23l-68 50v2h174v-118q35 126 148 126q138 0 138 -200 z"/>
<glyph glyph-name="o" horiz-adv-x="508" unicode="o" d="M254 -8q-103 0 -162.5 66.5t-59.5 185.5t59.5 185t162.5 66t162.5 -66t59.5 -185t-59.5 -185.5t-162.5 -66.5zM254 480q-113 0 -113 -236q0 -237 113 -237t113 237q0 236 -113 236z"/>
<glyph glyph-name="p" horiz-adv-x="538" unicode="p" d="M289 445q-64 0 -107 -79v-287q36 -47 97 -47q59 0 90.5 56.5t31.5 162.5q0 86 -30.5 140t-81.5 54zM87 -164v576q0 15 -11 23l-68 50v2h174v-110q26 62 62 90t88 28q80 0 125.5 -65.5t45.5 -172.5q0 -121 -52 -193t-137 -72q-94 0 -132 78v-230q0 -14 14 -21l90 -45v-2 h-278v2l68 40q11 6 11 22z"/>
<glyph glyph-name="q" horiz-adv-x="510" unicode="q" d="M256 42q57 0 100 68v309q-48 40 -92 40q-56 0 -92 -55t-36 -157q0 -91 33.5 -148t86.5 -57zM356 -160v263q-44 -111 -147 -111q-71 0 -123 67t-52 175q0 120 55 190.5t143 70.5q82 0 124 -67l95 67v-659q0 -14 11 -22l58 -40v-2h-268v2l90 45q14 7 14 21z"/>
<glyph glyph-name="r" horiz-adv-x="398" unicode="r" d="M197 324v-257q0 -16 13 -21l106 -44v-2h-293v2l68 40q11 6 11 22v348q0 15 -11 23l-68 50v2h174v-153q12 61 53 111t104 50q30 0 49 -12l-50 -148h-2l-50 111q-3 6 -12 1q-22 -13 -41 -36t-27 -39z"/>
<glyph glyph-name="s" horiz-adv-x="416" unicode="s" d="M299 100q0 20 -6.5 34.5t-22.5 26.5t-27.5 18t-36.5 17l-62 28q-94 43 -94 131q0 64 50 102t116 38q83 0 151 -25l-38 -127h-2l-64 122q-5 8 -8 10.5t-14 3.5q-9 1 -26 1q-37 0 -63 -23.5t-26 -64.5q0 -33 19.5 -52t57.5 -35l67 -29q54 -23 84 -52.5t30 -80.5 q0 -72 -55.5 -111.5t-133.5 -39.5q-77 0 -157 30l42 139h2l56 -138q4 -10 19 -13q18 -3 40 -3q49 0 75.5 27.5t26.5 65.5z"/>
<glyph glyph-name="t" horiz-adv-x="309" unicode="t" d="M170 469v-354q0 -33 15 -52t42 -19q26 0 47 17t30 42h2q-7 -48 -38.5 -79.5t-85.5 -31.5q-107 0 -107 113v364h-70v18h55q16 0 24 14l84 148h2v-162h142v-18h-142z"/>
<glyph glyph-name="u" d="M259 50q59 0 99 74v288q0 15 -11 23l-68 50v2h174v-412q0 -15 11 -23l68 -50v-2h-174v116q-40 -124 -145 -124q-135 0 -135 200q0 60 2 220q0 15 -11 23l-68 50v2h175l-2 -119q-1 -119 -1 -142q0 -91 20.5 -133.5t65.5 -42.5z" unicode="u"/>
<glyph glyph-name="v" horiz-adv-x="437" unicode="v" d="M239 0h-46l-159 418q-6 17 -15 28l-31 39v2h201v-2l-48 -46q-10 -9 -4 -24l120 -316l103 288q3 9 3 14t-9 17l-57 67v2h155v-2l-57 -69q-12 -14 -17 -30z"/>
<glyph glyph-name="w" horiz-adv-x="702" unicode="w" d="M717 485l-57 -69q-12 -14 -17 -30l-139 -386h-46l-112 303l-113 -303h-46l-154 418q-6 17 -15 28l-31 39v2h200v-2l-48 -46q-10 -9 -4 -24l115 -318l87 231l-33 90q-6 17 -15 28l-31 39v2h199v-2l-48 -46q-10 -9 -4 -24l116 -318l104 290q3 9 3 14t-9 17l-57 67v2h155v-2 z"/>
<glyph glyph-name="x" horiz-adv-x="476" unicode="x" d="M201 215l-137 200q-18 25 -33 37l-41 33v2h240v-2l-61 -38q-7 -5 -7 -8.5t7 -13.5l94 -137l85 115q7 10 7 13.5t-8 12.5l-55 56v2h183v-2l-82 -61q-16 -11 -30 -30l-90 -120l139 -202q18 -25 33 -37l41 -33v-2h-240v2l61 38q11 7 0 22l-96 139l-87 -117q-7 -10 -7 -13.5 t8 -12.5l55 -56v-2h-183v2l82 61q16 11 30 30z"/>
<glyph glyph-name="y" horiz-adv-x="435" unicode="y" d="M56 -236q-24 0 -42 10l35 151h2l58 -100q8 -12 12 -12q5 0 12 9q33 40 61 117l13 36l-173 443q-9 21 -19 34l-25 33v2h198v-2l-48 -46q-10 -9 -4 -24l120 -310l107 279q4 9 4 16q0 6 -7 14l-60 71v2h155v-2l-56 -69q-10 -11 -19 -34l-170 -446q-26 -67 -50 -105 q-42 -67 -104 -67z"/>
<glyph glyph-name="z" horiz-adv-x="433" unicode="z" d="M299 32l100 154h2l-16 -186h-370v2l288 468h-147q-13 0 -16.5 -2t-10.5 -13l-89 -144h-3v176h380v-2l-286 -468h141q13 0 16.5 2t10.5 13z"/>
<glyph glyph-name="braceleft" horiz-adv-x="351" unicode="{" d="M276 -142q-66 0 -120 44.5t-54 115.5q0 14 1 21l20 170v8q0 30 -23.5 50.5t-64.5 24.5v2q41 4 64.5 24.5t23.5 50.5v8l-20 170q-1 7 -1 21q0 71 54 115.5t120 44.5q31 0 65 -8v-2q-2 0 -7 0.5t-8 0.5q-69 0 -103.5 -42t-34.5 -93q0 -9 1 -14l19 -173q0 -2 0.5 -5.5 t0.5 -4.5q0 -33 -22.5 -58.5t-52.5 -34.5v-2q30 -9 52.5 -34.5t22.5 -58.5q0 -1 -0.5 -4.5t-0.5 -5.5l-19 -173q-1 -5 -1 -14q0 -51 34.5 -93t103.5 -42q3 0 8 0.5t7 0.5v-2q-34 -8 -65 -8z"/>
<glyph glyph-name="bar" horiz-adv-x="218" unicode="|" d="M118 -250h-18v1000h18v-1000z"/>
<glyph glyph-name="braceright" horiz-adv-x="351" unicode="}" d="M75 -142q-31 0 -65 8v2q2 0 7 -0.5t8 -0.5q69 0 103.5 42t34.5 93q0 9 -1 14l-19 173q0 2 -0.5 5.5t-0.5 4.5q0 33 22.5 58.5t52.5 34.5v2q-30 9 -52.5 34.5t-22.5 58.5q0 1 0.5 4.5t0.5 5.5l19 173q1 5 1 14q0 51 -34.5 93t-103.5 42q-3 0 -8 -0.5t-7 -0.5v2q34 8 65 8 q66 0 120 -44.5t54 -115.5q0 -14 -1 -21l-20 -170v-8q0 -30 23.5 -50.5t64.5 -24.5v-2q-41 -4 -64.5 -24.5t-23.5 -50.5v-8l20 -170q1 -7 1 -21q0 -71 -54 -115.5t-120 -44.5z"/>
<glyph glyph-name="asciitilde" horiz-adv-x="502" unicode="~" d="M364 277q-46 0 -116.5 33t-110.5 33q-61 0 -97 -59l-15 9q40 67 112 67q46 0 116.5 -33t110.5 -33q62 0 98 59l15 -9q-40 -67 -113 -67z"/>
<glyph glyph-name="uni00A0" horiz-adv-x="0" unicode=" "/>
<glyph glyph-name="exclamdown" horiz-adv-x="240" unicode="¡" d="M183 432q0 -27 -18 -45.5t-44 -18.5q-27 0 -45 18.5t-18 45.5q0 26 18 44t45 18q26 0 44 -18t18 -44zM124 272l61 -489h-130l67 489h2z"/>
<glyph glyph-name="cent" horiz-adv-x="438" unicode="¢" d="M128 267q0 -94 30.5 -147t81.5 -67v425q-53 -7 -82.5 -62t-29.5 -149zM257 -105h-17v97h-7q-90 0 -146 62.5t-56 185.5q0 124 59 186.5t150 67.5v111h17v-110q79 0 154 -24v-2l-56 -149h-2l-54 147q-3 7 -10 9.5t-32 2.5v-429q5 -1 17 -1q45 0 78.5 23.5t58.5 89.5h2 q-25 -156 -156 -169v-98z"/>
<glyph glyph-name="sterling" horiz-adv-x="517" unicode="£" d="M398 297h-180q14 -49 14 -87q0 -53 -33 -84.5t-82 -42.5v-2h240q22 0 29 3t17 16l71 92h2l-18 -192h-436v2l71 76q48 51 48 119q0 35 -23 100h-100v17h94q-45 124 -45 181q0 100 56.5 159t165.5 59q89 0 179 -30l-50 -152h-2l-67 149q-6 13 -21 14q-22 2 -43 2 q-66 0 -96 -47.5t-30 -122.5q0 -38 7.5 -71.5t25.5 -81.5t21 -59h185v-17z"/>
<glyph glyph-name="currency" horiz-adv-x="664" unicode="¤" d="M332 137q94 0 157 59t63 156t-63 156.5t-157 59.5t-156.5 -59.5t-62.5 -156.5t62.5 -156t156.5 -59zM332 120q-96 0 -162 57l-112 -112l-11 12l111 111q-63 65 -63 164q0 100 64 164l-112 113l11 12l113 -113q66 57 161 57t161 -58l114 114l11 -12l-113 -113 q65 -65 65 -164q0 -97 -64 -163l112 -112l-11 -12l-113 112q-65 -57 -162 -57z"/>
<glyph glyph-name="yen" horiz-adv-x="601" unicode="¥" d="M357 166v-97q0 -9 2 -12.5t11 -7.5l91 -47v-2h-312v2l91 47q13 7 13 20v97h-155v17h155v91h-155v17h154l-3.5 7t-3.5 8l-177 317q-11 20 -27 33l-51 45v2h260v-2l-65 -51q-9 -8 -4 -18l167 -299l143 270q8 15 -3 24l-85 74v2h227v-2l-88 -69q-23 -19 -34 -39l-143 -270 q-8 -13 -8 -32h154v-17h-154v-91h154v-17h-154z"/>
<glyph glyph-name="brokenbar" horiz-adv-x="218" unicode="¦" d="M118 322h-18v428h18v-428zM118 -250h-18v438h18v-438z"/>
<glyph glyph-name="section" horiz-adv-x="484" unicode="§" d="M169 422l-4 3q-17 -9 -29.5 -36t-12.5 -49q0 -69 70 -118q75 -52 122 -89l3 -3q17 9 30 36t13 49q0 69 -70 118q-75 52 -122 89zM429 257q0 -85 -104 -133q70 -62 70 -137q0 -68 -52.5 -106.5t-120.5 -38.5q-65 0 -138 16l23 197h2l73 -180q6 -14 13 -16q11 -3 28 -3 q46 0 72 30.5t26 71.5q0 76 -95 138l-50 34q-64 42 -92.5 80.5t-28.5 87.5q0 85 104 132q-70 62 -70 138q0 68 52.5 106.5t120.5 38.5q65 0 138 -16l-23 -197h-2l-73 180q-6 14 -13 16q-11 3 -28 3q-46 0 -72 -30.5t-26 -71.5q0 -76 95 -138l50 -34q64 -42 92.5 -80.5 t28.5 -87.5z"/>
<glyph glyph-name="dieresis" horiz-adv-x="368" unicode="¨" d="M214 623q0 22 15 37.5t36 15.5q22 0 37.5 -15.5t15.5 -37.5q0 -21 -16 -36.5t-37 -15.5t-36 15.5t-15 36.5zM50 623q0 22 15 37.5t37 15.5t37 -15.5t15 -37.5q0 -21 -15.5 -36.5t-36.5 -15.5t-36.5 15.5t-15.5 36.5z"/>
<glyph glyph-name="copyright" horiz-adv-x="813" unicode="©" d="M66 351q0 -155 97.5 -249.5t242.5 -94.5t243 94.5t98 249.5q0 154 -98 249.5t-243 95.5q-144 0 -242 -95.5t-98 -249.5zM48 351q0 161 103.5 261.5t254.5 100.5q152 0 255.5 -100.5t103.5 -261.5q0 -162 -103.5 -261.5t-255.5 -99.5t-255 99.5t-103 261.5zM317 353 q0 -92 31 -143t82 -51q9 0 14 1q7 1 15 11l76 108h1v-124q-47 -11 -105 -11q-99 0 -154 57.5t-55 150.5q0 91 56.5 149.5t143.5 58.5q67 0 114 -13v-118h-1l-79 105q-7 10 -18 11q-9 1 -17 1q-47 0 -75.5 -54.5t-28.5 -138.5z"/>
<glyph glyph-name="ordfeminine" horiz-adv-x="402" unicode="ª" d="M239 446l1 83q-17 8 -39 8q-36 0 -56 -21t-20 -52q0 -27 14.5 -43t37.5 -16q35 0 62 37v4zM169 558q42 0 71 -23l2 74v6q0 82 -79 82q-13 0 -18 -9l-42 -93h-1l-31 95q56 23 117 23t87 -27q31 -33 31 -110v-13l-3 -113v-5q0 -41 25 -41q15 0 22 20h2q0 -14 -4 -23 q-14 -36 -53 -36q-23 0 -39 16.5t-17 49.5q-11 -31 -35.5 -48.5t-56.5 -17.5q-38 0 -64 24.5t-26 66.5q0 47 33.5 74.5t78.5 27.5z"/>
<glyph glyph-name="guillemotleft" horiz-adv-x="433" unicode="«" d="M200 251l202 199l1 -1l-98 -199l98 -199l-1 -1l-202 199v2zM30 251l202 199l1 -1l-98 -199l98 -199l-1 -1l-202 199v2z"/>
<glyph glyph-name="logicalnot" d="M501 109h-18v208h-443v17h461v-225z" unicode="¬"/>
<glyph glyph-name="uni00AD" horiz-adv-x="351" unicode="­" d="M46 234v18h260v-18h-260z"/>
<glyph glyph-name="registered" horiz-adv-x="813" unicode="®" d="M366 517v-168h25q83 0 83 89q0 53 -20 71.5t-55 18.5h-23q-10 0 -10 -11zM233 163l49 24q7 3 7 11v310q0 8 -7 11l-49 24v2h197q56 0 91.5 -26.5t35.5 -77.5q0 -35 -24.5 -63t-66.5 -38v-2l16 -21l83 -113q9 -12 18 -20l28 -21v-2h-103l-109 161q-7 10 -17 10h-16v-134 q0 -7 7 -11l48 -24v-2h-188v2zM66 351q0 -155 97.5 -249.5t242.5 -94.5t243 94.5t98 249.5q0 154 -98 249.5t-243 95.5q-144 0 -242 -95.5t-98 -249.5zM48 351q0 161 103.5 261.5t254.5 100.5q152 0 255.5 -100.5t103.5 -261.5q0 -162 -103.5 -261.5t-255.5 -99.5t-255 99.5 t-103 261.5z"/>
<glyph glyph-name="macron" horiz-adv-x="346" unicode="¯" d="M296 591h-246v18h246v-18z"/>
<glyph glyph-name="degree" horiz-adv-x="324" unicode="°" d="M53 589q0 -44 33 -73t76 -29q44 0 76.5 29t32.5 73q0 45 -32.5 75t-76.5 30q-43 0 -76 -30t-33 -75zM35 589q0 54 37 88t90 34t90 -34t37 -88q0 -53 -37 -86t-90 -33t-90 33t-37 86z"/>
<glyph glyph-name="plusminus" d="M50 106v17h440v-17h-440zM50 366v17h211v161h18v-161h211v-17h-211v-163h-18v163h-211z" unicode="±"/>
<glyph glyph-name="twosuperior" horiz-adv-x="280" unicode="²" d="M247 631q0 -43 -36 -75t-127 -81v-2h101q17 0 25 7l39 38h2l-10 -97h-231v3q82 72 105 94q64 60 64 115q0 66 -63 66q-11 0 -16 -1q-8 -2 -11 -9l-37 -86h-2l-32 91q55 19 104 19q59 0 92 -21t33 -61z"/>
<glyph glyph-name="threesuperior" horiz-adv-x="280" unicode="³" d="M258 502q0 -38 -34 -61.5t-97 -23.5q-58 0 -110 18l46 94h2l21 -88q2 -6 8 -7q13 -3 31 -3q30 0 49.5 19.5t19.5 51.5q0 66 -89 67v2q80 13 80 74q0 54 -53 54q-15 0 -22 -1q-8 -1 -12 -9l-37 -86h-2l-33 91q55 19 110 19q110 0 110 -69q0 -51 -72 -69v-2q84 -5 84 -71z "/>
<glyph glyph-name="acute" horiz-adv-x="310" unicode="´" d="M139 703h121v-2l-208 -161l-2 2z"/>
<glyph glyph-name="mu" horiz-adv-x="545" unicode="µ" d="M178 4v-159q0 -16 14 -23l90 -48v-2h-278v2l69 40q11 6 11 22v581q0 13 -11 23l-67 45v2h175v-279q0 -92 19 -124.5t64 -32.5q61 0 99 74v292q0 15 -11 23l-68 45v2h174v-417q0 -15 11 -23l68 -45v-2h-174v118q-17 -59 -53.5 -92.5t-83.5 -33.5q-30 0 -48 12z"/>
<glyph glyph-name="paragraph" horiz-adv-x="602" unicode="¶" d="M335 14h78v672h-78v-672zM431 -250h-18v250h-75q-266 0 -266 342q0 99 22 172t61 112.5t84.5 58t98.5 18.5h190v-17h-97v-672h97v-14h-97v-250z"/>
<glyph glyph-name="periodcentered" horiz-adv-x="225" unicode="·" d="M50 425q0 27 18 45.5t44 18.5q27 0 45 -18.5t18 -45.5q0 -26 -18 -44t-45 -18q-26 0 -44 18t-18 44z"/>
<glyph glyph-name="cedilla" horiz-adv-x="365" unicode="¸" d="M280 -143q0 -40 -29 -66.5t-80 -26.5q-46 0 -75 25t-34 60l2 1q8 -25 30 -40.5t47 -15.5q28 0 47 16t19 42q0 28 -18 44.5t-48 16.5q-18 0 -37 -6l-1 2l67 91h2l-10 -63q14 3 25 3q39 0 66 -24t27 -59z"/>
<glyph glyph-name="onesuperior" horiz-adv-x="240" unicode="¹" d="M156 715v-252q0 -5 8 -8l66 -32v-2h-208v2l67 32q7 3 7 8v192q0 7 -7 9l-73 24v2z"/>
<glyph glyph-name="ordmasculine" horiz-adv-x="399" unicode="º" d="M199 365q-71 0 -112 46t-41 129q0 82 41 127.5t112 45.5t112.5 -45.5t41.5 -127.5q0 -83 -41.5 -129t-112.5 -46zM199 698q-78 0 -78 -158q0 -160 78 -160q79 0 79 160q0 158 -79 158z"/>
<glyph glyph-name="guillemotright" horiz-adv-x="433" unicode="»" d="M403 249l-202 -199l-1 1l98 199l-98 199l1 1l202 -199v-2zM233 249l-202 -199l-1 1l98 199l-98 199l1 1l202 -199v-2z"/>
<glyph glyph-name="onequarter" horiz-adv-x="456" unicode="¼" d="M229 86v158l-114 -158h114zM359 72h-70v-33q0 -5 7 -10l45 -28v-2h-167v2l48 28q7 4 7 10v33h-143v2l155 213h48v-201h13q12 0 16 8l46 84h2zM335 423v-2h-208v2l67 32q7 3 7 8v192q0 7 -7 9l-73 24v2l140 25v-252q0 -5 8 -8zM60 343v17h336v-17h-336z"/>
<glyph glyph-name="onehalf" horiz-adv-x="456" unicode="½" d="M342 209q0 -43 -36 -75t-127 -81v-2h101q17 0 25 7l39 38h2l-10 -97h-231v3q82 72 105 94q64 60 64 115q0 66 -63 66q-11 0 -16 -1q-8 -2 -11 -9l-37 -86h-2l-32 91q55 19 104 19q59 0 92 -21t33 -61zM261 715v-252q0 -5 8 -8l66 -32v-2h-208v2l67 32q7 3 7 8v192 q0 7 -7 9l-73 24v2zM60 343v17h336v-17h-336z"/>
<glyph glyph-name="threequarters" horiz-adv-x="456" unicode="¾" d="M115 86h114v158zM174 -1v2l48 28q7 4 7 10v33h-143v2l155 213h48v-201h13q12 0 16 8l46 84h2l-7 -106h-70v-33q0 -5 7 -10l45 -28v-2h-167zM349 502q0 -38 -34 -61.5t-97 -23.5q-58 0 -110 18l46 94h2l21 -88q2 -6 8 -7q14 -3 31 -3q30 0 49.5 19.5t19.5 51.5 q0 66 -89 67v2q80 13 80 74q0 54 -53 54q-15 0 -22 -1q-8 -1 -12 -9l-37 -86h-2l-33 91q55 19 110 19q110 0 110 -69q0 -51 -72 -69v-2q84 -5 84 -71zM60 343v17h336v-17h-336z"/>
<glyph glyph-name="questiondown" horiz-adv-x="393" unicode="¿" d="M299 432q0 -27 -18 -45.5t-44 -18.5q-27 0 -45 18.5t-18 45.5q0 26 18 44t45 18q26 0 44 -18t18 -44zM228 275q57 -31 57 -85q0 -20 -11.5 -42t-22.5 -34.5t-34 -38.5l-56 -61q-51 -55 -51 -116q0 -49 32 -79t83 -30q23 0 40 4q14 3 17 5.5t7 11.5l66 157h2l53 -149 q-93 -45 -199 -45q-85 0 -140.5 39t-55.5 108q0 66 72 136l83 83q32 32 46 55t14 52q0 12 -3 27z"/>
<glyph glyph-name="Agrave" horiz-adv-x="621" unicode="À" d="M148 919h121l89 -161l-2 -2l-208 161v2zM276 599l-113 -335h225zM157 246l-48 -143q-3 -7 -3 -12q0 -7 18 -21l85 -68v-2h-225v2l80 68q20 18 26 36l168 498q4 14 4 16q0 8 -12 21l-55 60v2h153l210 -621q8 -23 23 -38l43 -42v-2h-249v2l71 54q11 8 4 25l-56 165h-237z "/>
<glyph glyph-name="Aacute" horiz-adv-x="621" unicode="Á" d="M324 919h121v-2l-208 -161l-2 2zM276 599l-113 -335h225zM157 246l-48 -143q-3 -7 -3 -12q0 -7 18 -21l85 -68v-2h-225v2l80 68q20 18 26 36l168 498q4 14 4 16q0 8 -12 21l-55 60v2h153l210 -621q8 -23 23 -38l43 -42v-2h-249v2l71 54q11 8 4 25l-56 165h-237z"/>
<glyph glyph-name="Acircumflex" horiz-adv-x="621" unicode="Â" d="M296 829l-141 -76l-1 2l141 173h2l141 -173l-1 -2zM276 599l-113 -335h225zM157 246l-48 -143q-3 -7 -3 -12q0 -7 18 -21l85 -68v-2h-225v2l80 68q20 18 26 36l168 498q4 14 4 16q0 8 -12 21l-55 60v2h153l210 -621q8 -23 23 -38l43 -42v-2h-249v2l71 54q11 8 4 25 l-56 165h-237z"/>
<glyph glyph-name="Atilde" horiz-adv-x="621" unicode="Ã" d="M428 888l2 -1q0 -21 -3 -37q-14 -73 -70 -73q-22 0 -66.5 23.5t-65.5 23.5q-40 0 -60 -48l-2 1q0 17 3 34q14 76 70 76q22 0 66 -23.5t65 -23.5q41 0 61 48zM276 599l-113 -335h225zM157 246l-48 -143q-3 -7 -3 -12q0 -7 18 -21l85 -68v-2h-225v2l80 68q20 18 26 36 l168 498q4 14 4 16q0 8 -12 21l-55 60v2h153l210 -621q8 -23 23 -38l43 -42v-2h-249v2l71 54q11 8 4 25l-56 165h-237z"/>
<glyph glyph-name="Adieresis" horiz-adv-x="621" unicode="Ä" d="M326 839q0 22 15 37.5t36 15.5q22 0 37.5 -15.5t15.5 -37.5q0 -21 -16 -36.5t-37 -15.5t-36 15.5t-15 36.5zM162 839q0 22 15 37.5t37 15.5t37 -15.5t15 -37.5q0 -21 -15.5 -36.5t-36.5 -15.5t-36.5 15.5t-15.5 36.5zM276 599l-113 -335h225zM157 246l-48 -143 q-3 -7 -3 -12q0 -7 18 -21l85 -68v-2h-225v2l80 68q20 18 26 36l168 498q4 14 4 16q0 8 -12 21l-55 60v2h153l210 -621q8 -23 23 -38l43 -42v-2h-249v2l71 54q11 8 4 25l-56 165h-237z"/>
<glyph glyph-name="Aring" horiz-adv-x="621" unicode="Å" d="M359 838q0 26 -18 44.5t-44 18.5t-44 -18.5t-18 -44.5t18 -44.5t44 -18.5t44 18.5t18 44.5zM378 838q0 -34 -23.5 -57.5t-57.5 -23.5t-57.5 23.5t-23.5 57.5t23.5 57.5t57.5 23.5t57.5 -23.5t23.5 -57.5zM276 599l-113 -335h225zM157 246l-48 -143q-3 -7 -3 -12 q0 -7 18 -21l85 -68v-2h-225v2l80 68q20 18 26 36l168 498q4 14 4 16q0 8 -12 21l-55 60v2h153l210 -621q8 -23 23 -38l43 -42v-2h-249v2l71 54q11 8 4 25l-56 165h-237z"/>
<glyph glyph-name="AE" horiz-adv-x="911" unicode="Æ" d="M435 263v374l-226 -374h226zM858 0h-522v2l86 47q13 7 13 20v176h-237l-82 -136q-10 -16 -10 -24t11 -16l84 -67v-2h-226v2l74 58q28 22 39 39l306 505q10 18 10 22q0 5 -10 15l-63 60v2h517v-216h-2l-84 180q-9 18 -29 18h-178q-10 0 -13 -4.5t-3 -18.5v-294h123 q16 1 28 19l64 89h2v-234h-2l-64 90q-13 18 -29 18h-122v-309q0 -14 3 -18.5t13 -4.5h178q26 0 34 13l89 182h2v-213z"/>
<glyph glyph-name="Ccedilla" horiz-adv-x="595" unicode="Ç" d="M455 -143q0 -40 -29 -66.5t-80 -26.5q-46 0 -75 25t-34 60l2 1q8 -25 30 -40.5t47 -15.5q28 0 47 16t19 42q0 27 -17.5 44t-46.5 17h-2q-18 0 -37 -6l-1 2l60 82q-153 9 -228 105t-75 253q0 164 86 264t238 100q87 0 181 -22v-211h-2l-101 194q-6 11 -11.5 14.5 t-20.5 5.5q-21 3 -41 3q-209 0 -209 -346q0 -345 216 -345q13 0 35 2q21 2 30 18l102 201h2v-220q-80 -17 -168 -17q-4 0 -13 0.5t-14 0.5l-8 -54q13 3 25 3q39 0 66 -24t27 -59z"/>
<glyph glyph-name="Egrave" horiz-adv-x="593" unicode="È" d="M164 919h121l89 -161l-2 -2l-208 161v2zM540 0h-522v2l86 47q13 7 13 20v565q0 13 -13 20l-86 47v2h512v-216h-2l-84 180q-9 18 -29 18h-178q-10 0 -13 -4.5t-3 -18.5v-294h123q16 1 28 19l64 89h2v-234h-2l-64 90q-13 18 -29 18h-122v-309q0 -14 3 -18.5t13 -4.5h178 q26 0 34 13l89 182h2v-213z"/>
<glyph glyph-name="Eacute" horiz-adv-x="593" unicode="É" d="M340 919h121v-2l-208 -161l-2 2zM540 0h-522v2l86 47q13 7 13 20v565q0 13 -13 20l-86 47v2h512v-216h-2l-84 180q-9 18 -29 18h-178q-10 0 -13 -4.5t-3 -18.5v-294h123q16 1 28 19l64 89h2v-234h-2l-64 90q-13 18 -29 18h-122v-309q0 -14 3 -18.5t13 -4.5h178 q26 0 34 13l89 182h2v-213z"/>
<glyph glyph-name="Ecircumflex" horiz-adv-x="593" unicode="Ê" d="M312 829l-141 -76l-1 2l141 173h2l141 -173l-1 -2zM540 0h-522v2l86 47q13 7 13 20v565q0 13 -13 20l-86 47v2h512v-216h-2l-84 180q-9 18 -29 18h-178q-10 0 -13 -4.5t-3 -18.5v-294h123q16 1 28 19l64 89h2v-234h-2l-64 90q-13 18 -29 18h-122v-309q0 -14 3 -18.5 t13 -4.5h178q26 0 34 13l89 182h2v-213z"/>
<glyph glyph-name="Edieresis" horiz-adv-x="593" unicode="Ë" d="M342 839q0 22 15 37.5t36 15.5q22 0 37.5 -15.5t15.5 -37.5q0 -21 -16 -36.5t-37 -15.5t-36 15.5t-15 36.5zM178 839q0 22 15 37.5t37 15.5t37 -15.5t15 -37.5q0 -21 -15.5 -36.5t-36.5 -15.5t-36.5 15.5t-15.5 36.5zM540 0h-522v2l86 47q13 7 13 20v565q0 13 -13 20 l-86 47v2h512v-216h-2l-84 180q-9 18 -29 18h-178q-10 0 -13 -4.5t-3 -18.5v-294h123q16 1 28 19l64 89h2v-234h-2l-64 90q-13 18 -29 18h-122v-309q0 -14 3 -18.5t13 -4.5h178q26 0 34 13l89 182h2v-213z"/>
<glyph glyph-name="Igrave" horiz-adv-x="338" unicode="Ì" d="M20 919h121l89 -161l-2 -2l-208 161v2zM221 69q0 -9 2 -12.5t11 -7.5l86 -47v-2h-302v2l86 47q13 7 13 20v565q0 13 -13 20l-86 47v2h302v-2l-86 -47q-9 -5 -11 -8.5t-2 -11.5v-565z"/>
<glyph glyph-name="Iacute" horiz-adv-x="338" unicode="Í" d="M196 919h121v-2l-208 -161l-2 2zM221 69q0 -9 2 -12.5t11 -7.5l86 -47v-2h-302v2l86 47q13 7 13 20v565q0 13 -13 20l-86 47v2h302v-2l-86 -47q-9 -5 -11 -8.5t-2 -11.5v-565z"/>
<glyph glyph-name="Icircumflex" horiz-adv-x="338" unicode="Î" d="M168 829l-141 -76l-1 2l141 173h2l141 -173l-1 -2zM221 69q0 -9 2 -12.5t11 -7.5l86 -47v-2h-302v2l86 47q13 7 13 20v565q0 13 -13 20l-86 47v2h302v-2l-86 -47q-9 -5 -11 -8.5t-2 -11.5v-565z"/>
<glyph glyph-name="Idieresis" horiz-adv-x="338" unicode="Ï" d="M198 839q0 22 15 37.5t36 15.5q22 0 37.5 -15.5t15.5 -37.5q0 -21 -16 -36.5t-37 -15.5t-36 15.5t-15 36.5zM34 839q0 22 15 37.5t37 15.5t37 -15.5t15 -37.5q0 -21 -15.5 -36.5t-36.5 -15.5t-36.5 15.5t-15.5 36.5zM221 69q0 -9 2 -12.5t11 -7.5l86 -47v-2h-302v2l86 47 q13 7 13 20v565q0 13 -13 20l-86 47v2h302v-2l-86 -47q-9 -5 -11 -8.5t-2 -11.5v-565z"/>
<glyph glyph-name="Eth" horiz-adv-x="674" unicode="Ð" d="M291 685h-52q-9 0 -12.5 -4t-3.5 -16v-301h125v-17h-125v-305q0 -16 4.5 -20t22.5 -4h21q250 0 250 338q0 175 -62.5 252t-167.5 77zM30 347v17h89v266q0 13 -2 17.5t-11 8.5l-89 45v2h294q162 0 245.5 -90t83.5 -252q0 -165 -85 -263t-245 -98h-293v2l89 45q9 4 11 9 t2 18v273h-89z"/>
<glyph glyph-name="Ntilde" horiz-adv-x="682" unicode="Ñ" d="M479 888l2 -1q0 -21 -3 -37q-14 -73 -70 -73q-22 0 -66.5 23.5t-65.5 23.5q-40 0 -60 -48l-2 1q0 17 3 34q14 76 70 76q22 0 66 -23.5t65 -23.5q41 0 61 48zM576 602v-602h-69l-367 600v-499q0 -19 16 -30l95 -69v-2h-241v2l95 69q16 11 16 30v507q0 22 -13 34l-84 59v2 h175l358 -587v486q0 18 -16 30l-95 69v2h241v-2l-95 -69q-16 -11 -16 -30z"/>
<glyph glyph-name="Ograve" horiz-adv-x="689" unicode="Ò" d="M196 919h121l89 -161l-2 -2l-208 161v2zM345 713q147 0 227.5 -96t80.5 -265t-80.5 -265.5t-227.5 -96.5t-228 96.5t-81 265.5t81 265t228 96zM345 6q86 0 137.5 83t51.5 263t-51.5 262t-137.5 83q-86 0 -137.5 -82.5t-51.5 -262.5t51.5 -262.5t137.5 -83.5z"/>
<glyph glyph-name="Oacute" horiz-adv-x="689" unicode="Ó" d="M372 919h121v-2l-208 -161l-2 2zM345 713q147 0 227.5 -96t80.5 -265t-80.5 -265.5t-227.5 -96.5t-228 96.5t-81 265.5t81 265t228 96zM345 6q86 0 137.5 83t51.5 263t-51.5 262t-137.5 83q-86 0 -137.5 -82.5t-51.5 -262.5t51.5 -262.5t137.5 -83.5z"/>
<glyph glyph-name="Ocircumflex" horiz-adv-x="689" unicode="Ô" d="M344 829l-141 -76l-1 2l141 173h2l141 -173l-1 -2zM345 713q147 0 227.5 -96t80.5 -265t-80.5 -265.5t-227.5 -96.5t-228 96.5t-81 265.5t81 265t228 96zM345 6q86 0 137.5 83t51.5 263t-51.5 262t-137.5 83q-86 0 -137.5 -82.5t-51.5 -262.5t51.5 -262.5t137.5 -83.5z "/>
<glyph glyph-name="Otilde" horiz-adv-x="689" unicode="Õ" d="M476 888l2 -1q0 -21 -3 -37q-14 -73 -70 -73q-22 0 -66.5 23.5t-65.5 23.5q-40 0 -60 -48l-2 1q0 17 3 34q14 76 70 76q22 0 66 -23.5t65 -23.5q41 0 61 48zM345 713q147 0 227.5 -96t80.5 -265t-80.5 -265.5t-227.5 -96.5t-228 96.5t-81 265.5t81 265t228 96zM345 6 q86 0 137.5 83t51.5 263t-51.5 262t-137.5 83q-86 0 -137.5 -82.5t-51.5 -262.5t51.5 -262.5t137.5 -83.5z"/>
<glyph glyph-name="Odieresis" horiz-adv-x="689" unicode="Ö" d="M374 839q0 22 15 37.5t36 15.5q22 0 37.5 -15.5t15.5 -37.5q0 -21 -16 -36.5t-37 -15.5t-36 15.5t-15 36.5zM210 839q0 22 15 37.5t37 15.5t37 -15.5t15 -37.5q0 -21 -15.5 -36.5t-36.5 -15.5t-36.5 15.5t-15.5 36.5zM345 713q147 0 227.5 -96t80.5 -265t-80.5 -265.5 t-227.5 -96.5t-228 96.5t-81 265.5t81 265t228 96zM345 6q86 0 137.5 83t51.5 263t-51.5 262t-137.5 83q-86 0 -137.5 -82.5t-51.5 -262.5t51.5 -262.5t137.5 -83.5z"/>
<glyph glyph-name="multiply" d="M121 161l-12 12l149 149l-150 150l12 12l150 -150l150 150l12 -12l-150 -150l149 -149l-12 -12l-149 149z" unicode="×"/>
<glyph glyph-name="Oslash" horiz-adv-x="689" unicode="Ø" d="M345 6q86 0 137.5 83t51.5 263t-55 267l-248 -563q44 -50 114 -50zM156 352q0 -193 62 -279l249 563q-48 61 -122 61q-86 0 -137.5 -82.5t-51.5 -262.5zM345 713q79 0 142 -30l43 96l17 -7l-43 -98q72 -41 110.5 -124t38.5 -198q0 -169 -80.5 -265.5t-227.5 -96.5 q-73 0 -132 25l-43 -97l-17 7l43 98q-78 41 -119 125t-41 204q0 169 81 265t228 96z"/>
<glyph glyph-name="Ugrave" horiz-adv-x="652" unicode="Ù" d="M213 919h121l89 -161l-2 -2l-208 161v2zM554 248q0 -120 -52 -189t-166 -69q-239 0 -239 214v427q0 8 -2 11.5t-11 8.5l-79 50v2h293v-2l-84 -50q-9 -4 -11 -7.5t-2 -12.5v-405q0 -101 43 -154.5t125 -53.5q80 0 123 60t43 169v355q0 19 -16 30l-95 69v2h242v-2l-96 -69 q-16 -11 -16 -30v-354z"/>
<glyph glyph-name="Uacute" horiz-adv-x="652" unicode="Ú" d="M389 919h121v-2l-208 -161l-2 2zM554 248q0 -120 -52 -189t-166 -69q-239 0 -239 214v427q0 8 -2 11.5t-11 8.5l-79 50v2h293v-2l-84 -50q-9 -4 -11 -7.5t-2 -12.5v-405q0 -101 43 -154.5t125 -53.5q80 0 123 60t43 169v355q0 19 -16 30l-95 69v2h242v-2l-96 -69 q-16 -11 -16 -30v-354z"/>
<glyph glyph-name="Ucircumflex" horiz-adv-x="652" unicode="Û" d="M361 829l-141 -76l-1 2l141 173h2l141 -173l-1 -2zM554 248q0 -120 -52 -189t-166 -69q-239 0 -239 214v427q0 8 -2 11.5t-11 8.5l-79 50v2h293v-2l-84 -50q-9 -4 -11 -7.5t-2 -12.5v-405q0 -101 43 -154.5t125 -53.5q80 0 123 60t43 169v355q0 19 -16 30l-95 69v2h242 v-2l-96 -69q-16 -11 -16 -30v-354z"/>
<glyph glyph-name="Udieresis" horiz-adv-x="652" unicode="Ü" d="M391 839q0 22 15 37.5t36 15.5q22 0 37.5 -15.5t15.5 -37.5q0 -21 -15.5 -36.5t-37.5 -15.5q-21 0 -36 15.5t-15 36.5zM227 839q0 22 15 37.5t37 15.5t37 -15.5t15 -37.5q0 -21 -15.5 -36.5t-36.5 -15.5t-36.5 15.5t-15.5 36.5zM554 248q0 -120 -52 -189t-166 -69 q-239 0 -239 214v427q0 8 -2 11.5t-11 8.5l-79 50v2h293v-2l-84 -50q-9 -4 -11 -7.5t-2 -12.5v-405q0 -101 43 -154.5t125 -53.5q80 0 123 60t43 169v355q0 19 -16 30l-95 69v2h242v-2l-96 -69q-16 -11 -16 -30v-354z"/>
<glyph glyph-name="Yacute" horiz-adv-x="596" unicode="Ý" d="M353 919h121v-2l-208 -161l-2 2zM355 287v-218q0 -9 2 -12.5t11 -7.5l91 -47v-2h-312v2l91 47q13 7 13 20v207q0 16 -8 30l-177 317q-11 20 -27 33l-51 45v2h260v-2l-65 -51q-9 -8 -4 -18l167 -299l143 270q8 15 -3 24l-85 74v2h227v-2l-88 -69q-23 -19 -34 -39 l-143 -270q-8 -14 -8 -36z"/>
<glyph glyph-name="Thorn" horiz-adv-x="586" unicode="Þ" d="M221 171h68q67 0 113 47t46 152q0 101 -43.5 148t-114.5 47h-69v-394zM221 153v-82q0 -9 2 -12.5t11 -7.5l112 -49v-2h-328v2l86 47q9 4 11 7.5t2 12.5v565q0 14 -13 20l-86 47v2h203v-120h99q110 0 175.5 -52.5t65.5 -160.5q0 -100 -73.5 -158.5t-181.5 -58.5h-85z"/>
<glyph glyph-name="germandbls" horiz-adv-x="571" unicode="ß" d="M471 589q0 -55 -71 -106l-54 -38q-37 -27 -37 -59q0 -46 76 -81l71 -32q100 -44 100 -130q0 -71 -52.5 -111t-124.5 -40q-86 0 -159 35l51 135h2l48 -138q3 -10 20 -14q18 -3 40 -3q43 0 66.5 28t23.5 67q0 32 -21 53.5t-60 39.5l-63 30q-89 42 -89 105q0 30 14.5 50.5 t48.5 47.5l42 35q48 41 48 130q0 44 -26.5 74.5t-75.5 30.5q-96 0 -96 -152v-546h-174v2l68 41q11 6 11 21v406h-70v17h70v8q0 121 48 169.5t147 48.5q71 0 124.5 -32t53.5 -92z"/>
<glyph glyph-name="agrave" horiz-adv-x="465" unicode="à" d="M77 703h121l89 -161l-2 -2l-208 161v2zM241 242q-52 0 -81 -31t-29 -76q0 -39 21.5 -63t54.5 -24q56 0 90 58v3l2 123q-29 10 -58 10zM301 344v3q0 60 -27 95.5t-80 35.5q-19 0 -24 -2t-9 -12l-61 -132h-2l-45 130q80 33 168 33q89 0 127 -39q45 -47 45 -164v-14l-4 -163 v-6q0 -61 36 -61q25 0 33 29h2q0 -16 -6 -31q-9 -23 -29 -38.5t-48 -15.5q-35 0 -57.5 27t-22.5 79q-15 -50 -50.5 -78t-83.5 -28q-54 0 -92 35t-38 96q0 69 48.5 107.5t113.5 38.5q62 0 104 -31z"/>
<glyph glyph-name="aacute" horiz-adv-x="465" unicode="á" d="M253 703h121v-2l-208 -161l-2 2zM241 242q-52 0 -81 -31t-29 -76q0 -39 21.5 -63t54.5 -24q56 0 90 58v3l2 123q-29 10 -58 10zM301 344v3q0 60 -27 95.5t-80 35.5q-19 0 -24 -2t-9 -12l-61 -132h-2l-45 130q80 33 168 33q89 0 127 -39q45 -47 45 -164v-14l-4 -163v-6 q0 -61 36 -61q25 0 33 29h2q0 -16 -6 -31q-9 -23 -29 -38.5t-48 -15.5q-35 0 -57.5 27t-22.5 79q-15 -50 -50.5 -78t-83.5 -28q-54 0 -92 35t-38 96q0 69 48.5 107.5t113.5 38.5q62 0 104 -31z"/>
<glyph glyph-name="acircumflex" horiz-adv-x="465" unicode="â" d="M225 613l-141 -76l-1 2l141 173h2l141 -173l-1 -2zM241 242q-52 0 -81 -31t-29 -76q0 -39 21.5 -63t54.5 -24q56 0 90 58v3l2 123q-29 10 -58 10zM301 344v3q0 60 -27 95.5t-80 35.5q-19 0 -24 -2t-9 -12l-61 -132h-2l-45 130q80 33 168 33q89 0 127 -39q45 -47 45 -164 v-14l-4 -163v-6q0 -61 36 -61q25 0 33 29h2q0 -16 -6 -31q-9 -23 -29 -38.5t-48 -15.5q-35 0 -57.5 27t-22.5 79q-15 -50 -50.5 -78t-83.5 -28q-54 0 -92 35t-38 96q0 69 48.5 107.5t113.5 38.5q62 0 104 -31z"/>
<glyph glyph-name="atilde" horiz-adv-x="465" unicode="ã" d="M357 672l2 -1q0 -21 -3 -37q-14 -73 -70 -73q-22 0 -66.5 23.5t-65.5 23.5q-40 0 -60 -48l-2 1q0 17 3 34q14 76 70 76q22 0 66 -23.5t65 -23.5q41 0 61 48zM241 242q-52 0 -81 -31t-29 -76q0 -39 21.5 -63t54.5 -24q56 0 90 58v3l2 123q-29 10 -58 10zM301 344v3 q0 60 -27 95.5t-80 35.5q-19 0 -24 -2t-9 -12l-61 -132h-2l-45 130q80 33 168 33q89 0 127 -39q45 -47 45 -164v-14l-4 -163v-6q0 -61 36 -61q25 0 33 29h2q0 -16 -6 -31q-9 -23 -29 -38.5t-48 -15.5q-35 0 -57.5 27t-22.5 79q-15 -50 -50.5 -78t-83.5 -28q-54 0 -92 35 t-38 96q0 69 48.5 107.5t113.5 38.5q62 0 104 -31z"/>
<glyph glyph-name="adieresis" horiz-adv-x="465" unicode="ä" d="M255 623q0 22 15 37.5t36 15.5q22 0 37.5 -15.5t15.5 -37.5q0 -21 -15.5 -36.5t-37.5 -15.5q-21 0 -36 15.5t-15 36.5zM91 623q0 22 15 37.5t37 15.5t37 -15.5t15 -37.5q0 -21 -15.5 -36.5t-36.5 -15.5t-36.5 15.5t-15.5 36.5zM241 242q-52 0 -81 -31t-29 -76 q0 -39 21.5 -63t54.5 -24q56 0 90 58v3l2 123q-29 10 -58 10zM301 344v3q0 60 -27 95.5t-80 35.5q-19 0 -24 -2t-9 -12l-61 -132h-2l-45 130q80 33 168 33q89 0 127 -39q45 -47 45 -164v-14l-4 -163v-6q0 -61 36 -61q25 0 33 29h2q0 -16 -6 -31q-9 -23 -29 -38.5t-48 -15.5 q-35 0 -57.5 27t-22.5 79q-15 -50 -50.5 -78t-83.5 -28q-54 0 -92 35t-38 96q0 69 48.5 107.5t113.5 38.5q62 0 104 -31z"/>
<glyph glyph-name="aring" horiz-adv-x="465" unicode="å" d="M288 622q0 26 -18 44.5t-44 18.5t-44 -18.5t-18 -44.5t18 -44.5t44 -18.5t44 18.5t18 44.5zM307 622q0 -34 -23.5 -57.5t-57.5 -23.5t-57.5 23.5t-23.5 57.5t23.5 57.5t57.5 23.5t57.5 -23.5t23.5 -57.5zM241 242q-52 0 -81 -31t-29 -76q0 -39 21.5 -63t54.5 -24 q56 0 90 58v3l2 123q-29 10 -58 10zM301 344v3q0 60 -27 95.5t-80 35.5q-19 0 -24 -2t-9 -12l-61 -132h-2l-45 130q80 33 168 33q89 0 127 -39q45 -47 45 -164v-14l-4 -163v-6q0 -61 36 -61q25 0 33 29h2q0 -16 -6 -31q-9 -23 -29 -38.5t-48 -15.5q-35 0 -57.5 27t-22.5 79 q-15 -50 -50.5 -78t-83.5 -28q-54 0 -92 35t-38 96q0 69 48.5 107.5t113.5 38.5q62 0 104 -31z"/>
<glyph glyph-name="ae" horiz-adv-x="732" unicode="æ" d="M217 48q68 0 109 56q-27 56 -27 129q-36 9 -57 9q-52 0 -81.5 -29.5t-29.5 -73.5q0 -41 23 -66t63 -25zM510 480q-49 0 -79.5 -48t-35.5 -130h207q0 178 -92 178zM190 269q66 0 109 -31v26l2 80v6q0 58 -28 92.5t-81 34.5q-17 0 -22 -2t-9 -11l-61 -131h-2l-49 135 q84 27 176 27q83 0 121 -39q12 -14 17 -23q59 62 148 62q78 0 133 -47t55 -137q0 -10 -2 -26h-303v-28q0 -98 41 -153t105 -55q110 0 159 122h2q-16 -89 -65.5 -134t-128.5 -45q-57 0 -104.5 27t-74.5 81q-16 -50 -58 -79t-99 -29q-60 0 -99 36.5t-39 99.5q0 66 48.5 103.5 t108.5 37.5z"/>
<glyph glyph-name="ccedilla" horiz-adv-x="440" unicode="ç" d="M345 -143q0 -40 -29 -66.5t-80 -26.5q-46 0 -75 25t-34 60l2 1q8 -25 30 -40.5t47 -15.5q28 0 47 16t19 42q0 27 -17.5 44t-46.5 17h-2q-18 0 -37 -6l-1 2l61 83q-83 2 -141 64t-58 183q0 67 20 118t54 80t74.5 43.5t85.5 14.5q69 0 145 -28l-47 -145h-2l-59 144 q-5 11 -12 12q-9 2 -21 2q-69 0 -105 -55t-36 -156q0 -111 40.5 -165.5t104.5 -54.5q94 0 141 113h2q-15 -78 -59.5 -123.5t-120.5 -46.5l-8 -55q13 3 25 3q39 0 66 -24t27 -59z"/>
<glyph glyph-name="egrave" horiz-adv-x="464" unicode="è" d="M97 703h121l89 -161l-2 -2l-208 161v2zM242 480q-49 0 -78.5 -47.5t-35.5 -130.5h206v2q0 176 -92 176zM429 285h-302v-28q0 -98 40.5 -153t104.5 -55q109 0 159 123l2 -1q-16 -89 -65.5 -134t-128.5 -45q-89 0 -148.5 62.5t-59.5 184.5q0 68 19 119.5t51 80t68 42.5 t74 14q78 0 133 -47t55 -137q0 -10 -2 -26z"/>
<glyph glyph-name="eacute" horiz-adv-x="464" unicode="é" d="M273 703h121v-2l-208 -161l-2 2zM242 480q-49 0 -78.5 -47.5t-35.5 -130.5h206v2q0 176 -92 176zM429 285h-302v-28q0 -98 40.5 -153t104.5 -55q109 0 159 123l2 -1q-16 -89 -65.5 -134t-128.5 -45q-89 0 -148.5 62.5t-59.5 184.5q0 68 19 119.5t51 80t68 42.5t74 14 q78 0 133 -47t55 -137q0 -10 -2 -26z"/>
<glyph glyph-name="ecircumflex" horiz-adv-x="464" unicode="ê" d="M245 613l-141 -76l-1 2l141 173h2l141 -173l-1 -2zM242 480q-49 0 -78.5 -47.5t-35.5 -130.5h206v2q0 176 -92 176zM429 285h-302v-28q0 -98 40.5 -153t104.5 -55q109 0 159 123l2 -1q-16 -89 -65.5 -134t-128.5 -45q-89 0 -148.5 62.5t-59.5 184.5q0 68 19 119.5t51 80 t68 42.5t74 14q78 0 133 -47t55 -137q0 -10 -2 -26z"/>
<glyph glyph-name="edieresis" horiz-adv-x="464" unicode="ë" d="M275 623q0 22 15 37.5t36 15.5q22 0 37.5 -15.5t15.5 -37.5q0 -21 -15.5 -36.5t-37.5 -15.5q-21 0 -36 15.5t-15 36.5zM111 623q0 22 15 37.5t37 15.5t37 -15.5t15 -37.5q0 -21 -15.5 -36.5t-36.5 -15.5t-36.5 15.5t-15.5 36.5zM242 480q-49 0 -78.5 -47.5t-35.5 -130.5 h206v2q0 176 -92 176zM429 285h-302v-28q0 -98 40.5 -153t104.5 -55q109 0 159 123l2 -1q-16 -89 -65.5 -134t-128.5 -45q-89 0 -148.5 62.5t-59.5 184.5q0 68 19 119.5t51 80t68 42.5t74 14q78 0 133 -47t55 -137q0 -10 -2 -26z"/>
<glyph glyph-name="igrave" horiz-adv-x="286" unicode="ì" d="M-2 703h121l89 -161l-2 -2l-208 161v2zM198 487v-423q0 -14 12 -21l67 -41v-2h-253v2l68 40q11 6 11 22v348q0 15 -11 23l-68 50v2h174z"/>
<glyph glyph-name="iacute" horiz-adv-x="286" unicode="í" d="M174 703h121v-2l-208 -161l-2 2zM198 487v-423q0 -14 12 -21l67 -41v-2h-253v2l68 40q11 6 11 22v348q0 15 -11 23l-68 50v2h174z"/>
<glyph glyph-name="icircumflex" horiz-adv-x="286" unicode="î" d="M132 613l-141 -76l-1 2l141 173h2l141 -173l-1 -2zM198 487v-423q0 -14 12 -21l67 -41v-2h-253v2l68 40q11 6 11 22v348q0 15 -11 23l-68 50v2h174z"/>
<glyph glyph-name="idieresis" horiz-adv-x="286" unicode="ï" d="M162 623q0 22 15 37.5t36 15.5q22 0 37.5 -15.5t15.5 -37.5q0 -21 -16 -36.5t-37 -15.5t-36 15.5t-15 36.5zM-2 623q0 22 15 37.5t37 15.5t37 -15.5t15 -37.5q0 -21 -15.5 -36.5t-36.5 -15.5t-36.5 15.5t-15.5 36.5zM198 487v-423q0 -14 12 -21l67 -41v-2h-253v2l68 40 q11 6 11 22v348q0 15 -11 23l-68 50v2h174z"/>
<glyph glyph-name="eth" horiz-adv-x="499" unicode="ð" d="M365 258q0 83 -13 149q-40 52 -97 52q-39 0 -66.5 -35.5t-39 -84.5t-11.5 -104q0 -97 28 -162.5t77 -65.5q122 0 122 251zM132 711l1 2l14 -3q88 -18 152 -65l113 68l8 -15l-107 -63q77 -61 115.5 -154.5t38.5 -202.5q0 -286 -223 -286q-89 0 -150.5 66t-61.5 175 q0 118 57 186.5t142 68.5q79 0 118 -63q-24 107 -82 182l-121 -72l-7 15l117 70q-48 55 -124 91z"/>
<glyph glyph-name="ntilde" horiz-adv-x="564" unicode="ñ" d="M416 672l2 -1q0 -21 -3 -37q-14 -73 -70 -73q-22 0 -66.5 23.5t-65.5 23.5q-40 0 -60 -48l-2 1q0 17 3 34q14 76 70 76q22 0 66 -23.5t65 -23.5q41 0 61 48zM483 295q0 -71 -2 -231q0 -15 12 -22l68 -40v-2h-253v2l64 40q13 8 13 20q0 2 0.5 44t1.5 90.5t1 66.5 q0 91 -21 132.5t-65 41.5q-66 0 -105 -74v-299q0 -14 12 -21l67 -41v-2h-253v2l68 40q11 6 11 22v348q0 15 -11 23l-68 50v2h174v-118q35 126 148 126q138 0 138 -200z"/>
<glyph glyph-name="ograve" horiz-adv-x="508" unicode="ò" d="M105 703h121l89 -161l-2 -2l-208 161v2zM254 -8q-103 0 -162.5 66.5t-59.5 185.5t59.5 185t162.5 66t162.5 -66t59.5 -185t-59.5 -185.5t-162.5 -66.5zM254 480q-113 0 -113 -236q0 -237 113 -237t113 237q0 236 -113 236z"/>
<glyph glyph-name="oacute" horiz-adv-x="508" unicode="ó" d="M281 703h121v-2l-208 -161l-2 2zM254 -8q-103 0 -162.5 66.5t-59.5 185.5t59.5 185t162.5 66t162.5 -66t59.5 -185t-59.5 -185.5t-162.5 -66.5zM254 480q-113 0 -113 -236q0 -237 113 -237t113 237q0 236 -113 236z"/>
<glyph glyph-name="ocircumflex" horiz-adv-x="508" unicode="ô" d="M253 613l-141 -76l-1 2l141 173h2l141 -173l-1 -2zM254 -8q-103 0 -162.5 66.5t-59.5 185.5t59.5 185t162.5 66t162.5 -66t59.5 -185t-59.5 -185.5t-162.5 -66.5zM254 480q-113 0 -113 -236q0 -237 113 -237t113 237q0 236 -113 236z"/>
<glyph glyph-name="otilde" horiz-adv-x="508" unicode="õ" d="M385 672l2 -1q0 -21 -3 -37q-14 -73 -70 -73q-22 0 -66.5 23.5t-65.5 23.5q-40 0 -60 -48l-2 1q0 17 3 34q14 76 70 76q22 0 66 -23.5t65 -23.5q41 0 61 48zM254 -8q-103 0 -162.5 66.5t-59.5 185.5t59.5 185t162.5 66t162.5 -66t59.5 -185t-59.5 -185.5t-162.5 -66.5z M254 480q-113 0 -113 -236q0 -237 113 -237t113 237q0 236 -113 236z"/>
<glyph glyph-name="odieresis" horiz-adv-x="508" unicode="ö" d="M283 623q0 22 15 37.5t36 15.5q22 0 37.5 -15.5t15.5 -37.5q0 -21 -15.5 -36.5t-37.5 -15.5q-21 0 -36 15.5t-15 36.5zM119 623q0 22 15 37.5t37 15.5t37 -15.5t15 -37.5q0 -21 -15.5 -36.5t-36.5 -15.5t-36.5 15.5t-15.5 36.5zM254 -8q-103 0 -162.5 66.5t-59.5 185.5 t59.5 185t162.5 66t162.5 -66t59.5 -185t-59.5 -185.5t-162.5 -66.5zM254 480q-113 0 -113 -236q0 -237 113 -237t113 237q0 236 -113 236z"/>
<glyph glyph-name="divide" d="M50 304v17h440v-17h-440zM211 148q0 26 17 43.5t42 17.5t42.5 -17.5t17.5 -43.5q0 -24 -17.5 -41.5t-42.5 -17.5t-42 17.5t-17 41.5zM211 468q0 26 17 43.5t42 17.5t42.5 -17.5t17.5 -43.5q0 -24 -17.5 -41.5t-42.5 -17.5t-42 17.5t-17 41.5z" unicode="÷"/>
<glyph glyph-name="oslash" horiz-adv-x="508" unicode="ø" d="M366 244q0 114 -25 173l-163 -369q25 -41 76 -41q55 0 83.5 55.5t28.5 181.5zM254 480q-56 0 -84 -55t-28 -181q0 -121 25 -175l163 369q-28 42 -76 42zM398 545l-33 -74q112 -56 112 -227q0 -125 -59.5 -188.5t-163.5 -63.5q-55 0 -94 16l-40 -90l-16 8l39 89 q-112 56 -112 229q0 125 59.5 188t163.5 63q53 0 94 -16l33 73z"/>
<glyph glyph-name="ugrave" d="M106 703h121l89 -161l-2 -2l-208 161v2zM259 50q59 0 99 74v288q0 15 -11 23l-68 50v2h174v-412q0 -15 11 -23l68 -50v-2h-174v116q-40 -124 -145 -124q-135 0 -135 200q0 60 2 220q0 15 -11 23l-68 50v2h175l-2 -119q-1 -119 -1 -142q0 -91 20.5 -133.5t65.5 -42.5z" unicode="ù"/>
<glyph glyph-name="uacute" d="M282 703h121v-2l-208 -161l-2 2zM259 50q59 0 99 74v288q0 15 -11 23l-68 50v2h174v-412q0 -15 11 -23l68 -50v-2h-174v116q-40 -124 -145 -124q-135 0 -135 200q0 60 2 220q0 15 -11 23l-68 50v2h175l-2 -119q-1 -119 -1 -142q0 -91 20.5 -133.5t65.5 -42.5z" unicode="ú"/>
<glyph glyph-name="ucircumflex" d="M254 613l-141 -76l-1 2l141 173h2l141 -173l-1 -2zM259 50q59 0 99 74v288q0 15 -11 23l-68 50v2h174v-412q0 -15 11 -23l68 -50v-2h-174v116q-40 -124 -145 -124q-135 0 -135 200q0 60 2 220q0 15 -11 23l-68 50v2h175l-2 -119q-1 -119 -1 -142q0 -91 20.5 -133.5 t65.5 -42.5z" unicode="û"/>
<glyph glyph-name="udieresis" d="M284 623q0 22 15 37.5t36 15.5q22 0 37.5 -15.5t15.5 -37.5q0 -21 -16 -36.5t-37 -15.5t-36 15.5t-15 36.5zM120 623q0 22 15 37.5t37 15.5t37 -15.5t15 -37.5q0 -21 -15.5 -36.5t-36.5 -15.5t-36.5 15.5t-15.5 36.5zM259 50q59 0 99 74v288q0 15 -11 23l-68 50v2h174 v-412q0 -15 11 -23l68 -50v-2h-174v116q-40 -124 -145 -124q-135 0 -135 200q0 60 2 220q0 15 -11 23l-68 50v2h175l-2 -119q-1 -119 -1 -142q0 -91 20.5 -133.5t65.5 -42.5z" unicode="ü"/>
<glyph glyph-name="yacute" horiz-adv-x="435" unicode="ý" d="M270 703h121v-2l-208 -161l-2 2zM56 -236q-24 0 -42 10l35 151h2l58 -100q8 -12 12 -12q5 0 12 9q33 40 61 117l13 36l-173 443q-9 21 -19 34l-25 33v2h198v-2l-48 -46q-10 -9 -4 -24l120 -310l107 279q4 9 4 16q0 6 -7 14l-60 71v2h155v-2l-56 -69q-10 -11 -19 -34 l-170 -446q-26 -67 -50 -105q-42 -67 -104 -67z"/>
<glyph glyph-name="thorn" horiz-adv-x="523" unicode="þ" d="M274 437q-66 0 -107 -73v-271q35 -60 97 -60q60 0 90.5 56.5t30.5 161.5q0 99 -27.5 142.5t-83.5 43.5zM317 495q82 0 127 -63t45 -175q0 -121 -49 -193t-138 -72q-98 0 -135 92v-239q0 -16 14 -23l90 -48v-2h-278v2l68 40q11 6 11 22v793q0 14 -11 22l-68 50v2h174v-333 q45 125 150 125z"/>
<glyph glyph-name="OE" horiz-adv-x="961" unicode="Œ" d="M485 61v576q0 16 -13 25q-49 35 -112 35q-70 0 -117 -47t-67 -121.5t-20 -174.5q0 -349 216 -349q44 0 100 36q13 9 13 20zM804 240l-54 90q-11 18 -29 18h-132v-306q0 -17 4.5 -20.5t26.5 -3.5h163q26 0 34 13l89 172h2v-203h-404q-70 -10 -131 -10q-170 0 -253.5 98 t-83.5 264q0 161 86.5 261t237.5 100q84 0 138 -10h393v-206h-2l-86 170q-9 18 -29 18h-169q-10 0 -13 -4.5t-3 -18.5v-297h133q17 1 28 19l54 89h2v-233h-2z"/>
<glyph glyph-name="oe" horiz-adv-x="813" unicode="œ" d="M477 302h206v4q-2 174 -92 174q-49 0 -79 -47.5t-35 -130.5zM254 480q-113 0 -113 -236q0 -237 113 -237t113 237q0 236 -113 236zM254 -8q-103 0 -162.5 66.5t-59.5 185.5t59.5 185t162.5 66q115 0 175 -82q59 82 163 82q78 0 133 -47t55 -137q0 -10 -2 -26h-302v-38 q0 -93 41 -145.5t104 -52.5q110 0 159 122h2q-16 -89 -65.5 -134t-128.5 -45q-105 0 -162 79q-58 -79 -172 -79z"/>
<glyph glyph-name="Scaron" horiz-adv-x="515" unicode="Š" d="M259 844l141 76l1 -2l-141 -173h-2l-141 173l1 2zM245 -10q-101 0 -185 27v209h2l91 -196q8 -17 22 -19q32 -5 58 -5q71 0 117 33.5t46 102.5q0 50 -30.5 82t-96.5 63l-86 41q-59 28 -98 77t-39 117q0 83 61 137t155 54q77 0 172 -24v-204h-2l-94 192q-7 15 -19 16 q-20 4 -44 4q-67 0 -107.5 -37.5t-40.5 -100.5q0 -84 99 -131l104 -50q75 -35 114 -76.5t39 -105.5q0 -89 -65 -147.5t-173 -58.5z"/>
<glyph glyph-name="scaron" horiz-adv-x="416" unicode="š" d="M212 628l141 76l1 -2l-141 -173h-2l-141 173l1 2zM299 100q0 20 -6.5 34.5t-22.5 26.5t-27.5 18t-36.5 17l-62 28q-94 43 -94 131q0 64 50 102t116 38q83 0 151 -25l-38 -127h-2l-64 122q-5 8 -8 10.5t-14 3.5q-9 1 -26 1q-37 0 -63 -23.5t-26 -64.5q0 -33 19.5 -52 t57.5 -35l67 -29q54 -23 84 -52.5t30 -80.5q0 -72 -55.5 -111.5t-133.5 -39.5q-77 0 -157 30l42 139h2l56 -138q4 -10 19 -13q18 -3 40 -3q49 0 75.5 27.5t26.5 65.5z"/>
<glyph glyph-name="Ydieresis" horiz-adv-x="596" unicode="Ÿ" d="M355 839q0 22 15 37.5t36 15.5q22 0 37.5 -15.5t15.5 -37.5q0 -21 -15.5 -36.5t-37.5 -15.5q-21 0 -36 15.5t-15 36.5zM191 839q0 22 15 37.5t37 15.5t37 -15.5t15 -37.5q0 -21 -15.5 -36.5t-36.5 -15.5t-36.5 15.5t-15.5 36.5zM355 287v-218q0 -9 2 -12.5t11 -7.5 l91 -47v-2h-312v2l91 47q13 7 13 20v207q0 16 -8 30l-177 317q-11 20 -27 33l-51 45v2h260v-2l-65 -51q-9 -8 -4 -18l167 -299l143 270q8 15 -3 24l-85 74v2h227v-2l-88 -69q-23 -19 -34 -39l-143 -270q-8 -14 -8 -36z"/>
<glyph glyph-name="circumflex" horiz-adv-x="384" unicode="ˆ" d="M192 613l-141 -76l-1 2l141 173h2l141 -173l-1 -2z"/>
<glyph glyph-name="tilde" horiz-adv-x="367" unicode="˜" d="M315 672l2 -1q0 -21 -3 -37q-14 -73 -70 -73q-22 0 -66.5 23.5t-65.5 23.5q-40 0 -60 -48l-2 1q0 17 3 34q14 76 70 76q22 0 66 -23.5t65 -23.5q41 0 61 48z"/>
<glyph glyph-name="uni0394" horiz-adv-x="638" unicode="Δ" d="M507 18l-214 576l-235 -576h449zM31 0l244 599q6 13 6 22q0 12 -15 27l-56 53v2h155l257 -703h-591z"/>
<glyph glyph-name="uni03BC" horiz-adv-x="542" unicode="μ" d="M174 4v-159q0 -16 14 -23l90 -48v-2h-278v2l69 40q11 6 11 22v581q0 13 -11 23l-67 45v2h175v-279q0 -92 19 -124.5t64 -32.5q61 0 99 74v292q0 15 -11 23l-68 45v2h174v-417q0 -15 11 -23l68 -45v-2h-174v118q-17 -59 -53.5 -92.5t-83.5 -33.5q-30 0 -48 12z"/>
<glyph glyph-name="pi" horiz-adv-x="583" unicode="π" d="M481 64q0 -16 11 -22l68 -40v-2h-253v2l67 41q12 7 12 21v405h-189v-405q0 -14 12 -21l67 -41v-2h-253v2l68 40q11 6 11 22v348q0 15 -11 23l-68 50v2h537v-2l-68 -50q-11 -8 -11 -23v-348z"/>
<glyph glyph-name="endash" horiz-adv-x="500" unicode="–" d="M495 234h-490v17h490v-17z"/>
<glyph glyph-name="emdash" horiz-adv-x="1000" unicode="—" d="M995 234h-990v17h990v-17z"/>
<glyph glyph-name="quoteleft" horiz-adv-x="199" unicode="‘" d="M160 716l1 -2q-27 -15 -42 -42.5t-15 -55.5q0 -8 10 -9q19 -2 32.5 -18t13.5 -39q0 -24 -16.5 -41t-40.5 -17q-26 0 -43.5 18t-17.5 48q0 49 33 96t85 62z"/>
<glyph glyph-name="quotesinglbase" horiz-adv-x="199" unicode="‚" d="M41 -89l-1 2q27 15 42 42.5t15 55.5q0 8 -10 9q-19 2 -32.5 18t-13.5 39q0 24 16.5 41t40.5 17q26 0 43.5 -18t17.5 -48q0 -49 -33 -96t-85 -62z"/>
<glyph glyph-name="quotedblleft" horiz-adv-x="360" unicode="“" d="M160 716l1 -2q-27 -15 -42 -42.5t-15 -55.5q0 -8 10 -9q19 -2 32.5 -18t13.5 -39q0 -24 -16.5 -41t-40.5 -17q-26 0 -43.5 18t-17.5 48q0 49 33 96t85 62zM321 716l1 -2q-27 -15 -42 -42.5t-15 -55.5q0 -8 10 -9q19 -2 32.5 -18t13.5 -39q0 -24 -16.5 -41t-40.5 -17 q-26 0 -43.5 18t-17.5 48q0 49 33 96t85 62z"/>
<glyph glyph-name="quotedblright" horiz-adv-x="360" unicode="”" d="M202 489l-1 2q27 15 42 42.5t15 55.5q0 8 -10 9q-19 2 -32.5 18t-13.5 39q0 24 16.5 41t40.5 17q26 0 43.5 -18t17.5 -48q0 -49 -33 -96t-85 -62zM41 489l-1 2q27 15 42 42.5t15 55.5q0 8 -10 9q-19 2 -32.5 18t-13.5 39q0 24 16.5 41t40.5 17q26 0 43.5 -18t17.5 -48 q0 -49 -33 -96t-85 -62z"/>
<glyph glyph-name="dagger" horiz-adv-x="430" unicode="†" d="M55 514v17h151v172h18v-172h151v-17h-151v-384h-18v384h-151z"/>
<glyph glyph-name="daggerdbl" horiz-adv-x="430" unicode="‡" d="M55 514v17h151v172h18v-172h151v-17h-151v-195h151v-17h-151v-172h-18v172h-151v17h151v195h-151z"/>
<glyph glyph-name="ellipsis" horiz-adv-x="595" unicode="…" d="M420 53q0 27 18 45.5t44 18.5q27 0 45 -18.5t18 -45.5q0 -26 -18 -44t-45 -18q-26 0 -44 18t-18 44zM235 53q0 27 18 45.5t44 18.5q27 0 45 -18.5t18 -45.5q0 -26 -18 -44t-45 -18q-26 0 -44 18t-18 44zM50 53q0 27 18 45.5t44 18.5q27 0 45 -18.5t18 -45.5 q0 -26 -18 -44t-45 -18q-26 0 -44 18t-18 44z"/>
<glyph glyph-name="perthousand" horiz-adv-x="895" unicode="‰" d="M448 286q61 0 92.5 -41t31.5 -108q0 -66 -31.5 -106.5t-92.5 -40.5q-60 0 -92 41t-32 107t32 107t92 41zM448 272q-33 0 -44 -31t-11 -103t11 -103t44 -31q34 0 44.5 30.5t10.5 102.5q0 74 -10.5 104.5t-44.5 30.5zM189 713q61 0 92.5 -41t31.5 -108q0 -66 -31.5 -106.5 t-92.5 -40.5q-60 0 -92 41t-32 107t32 107t92 41zM189 699q-33 0 -44 -31t-11 -103t11 -103t44 -31q34 0 44.5 30.5t10.5 102.5q0 74 -10.5 104.5t-44.5 30.5zM579 701l-503 -711l-15 13l503 710zM746 286q61 0 92.5 -41t31.5 -108q0 -66 -31.5 -106.5t-92.5 -40.5 q-60 0 -92 41t-32 107t32 107t92 41zM746 272q-33 0 -44 -31t-11 -103t11 -103t44 -31q34 0 44.5 30.5t10.5 102.5q0 74 -10.5 104.5t-44.5 30.5z"/>
<glyph glyph-name="guilsinglleft" horiz-adv-x="263" unicode="‹" d="M30 251l202 199l1 -1l-98 -199l98 -199l-1 -1l-202 199v2z"/>
<glyph glyph-name="guilsinglright" horiz-adv-x="263" unicode="›" d="M233 249l-202 -199l-1 1l98 199l-98 199l1 1l202 -199v-2z"/>
<glyph glyph-name="fraction" horiz-adv-x="48" unicode="⁄" d="M293 701l-503 -711l-15 13l503 710z"/>
<glyph glyph-name="Euro" horiz-adv-x="665" unicode="€" d="M40 396v17h69q16 137 100 218.5t220 81.5q87 0 181 -22v-210h-2l-101 194q-6 11 -11.5 14t-20.5 5q-23 3 -48 3q-93 0 -142 -76.5t-58 -207.5h238v-17h-239q-1 -15 -1 -45q0 -36 1 -52h239v-17h-238q20 -276 214 -276q9 0 35 2q22 3 30 18l102 201h2v-220 q-80 -17 -168 -17q-152 0 -234.5 78t-98.5 214h-69v17h67q-2 16 -2 50q0 31 2 47h-67z"/>
<glyph glyph-name="trademark" horiz-adv-x="804" unicode="™" d="M207 397q0 -6 5 -10l39 -22v-2h-160v2l41 22q6 4 6 10v289h-52q-10 0 -14 -8l-45 -87h-2l5 112h284l5 -112h-2l-45 87q-5 8 -15 8h-50v-289zM418 408q0 -9 8 -14l45 -29v-2h-123v2l46 29q7 5 7 14v259q0 9 -5 12l-43 22v2h119l94 -231l90 231h118v-2l-43 -21 q-7 -4 -7 -10v-273q0 -7 7 -10l43 -22v-2h-167v2l43 22q6 3 6 10v231q0 12 2 32l-117 -300h-1l-112 269q-1 3 -10 29v-250z"/>
<glyph glyph-name="uni2190" horiz-adv-x="706" unicode="←" d="M651 241h-562l229 -229l-12 -14l-251 251l251 251l13 -13l-230 -229h562v-17z"/>
<glyph glyph-name="uni2191" horiz-adv-x="612" unicode="↑" d="M314 -49h-18v562l-228 -230l-13 13l251 251l251 -251l-13 -13l-230 230v-562z"/>
<glyph glyph-name="uni2192" horiz-adv-x="706" unicode="→" d="M55 258h562l-230 229l13 13l251 -251l-251 -251l-12 14l229 229h-562v17z"/>
<glyph glyph-name="uni2193" horiz-adv-x="612" unicode="↓" d="M296 530h18v-562l230 230l13 -13l-251 -251l-251 251l13 13l228 -230v562z"/>
<glyph glyph-name="partialdiff" horiz-adv-x="499" unicode="∂" d="M365 258q0 83 -13 149q-40 52 -97 52q-39 0 -66.5 -35.5t-39 -84.5t-11.5 -104q0 -97 28 -162.5t77 -65.5q122 0 122 251zM244 -8q-89 0 -150.5 66t-61.5 175q0 118 57 186.5t142 68.5q79 0 118 -63q-45 207 -217 286l1 2l14 -3q158 -42 239 -159t81 -273 q0 -286 -223 -286z"/>
<glyph glyph-name="product" horiz-adv-x="742" unicode="∏" d="M625 634v-565q0 -9 2 -12.5t11 -7.5l86 -47v-2h-302v2l86 47q9 4 11 7.5t2 12.5v616h-300v-616q0 -9 2 -12.5t11 -7.5l86 -47v-2h-302v2l86 47q9 4 11 7.5t2 12.5v565q0 14 -13 20l-86 47v2h706v-2l-86 -47q-13 -6 -13 -20z"/>
<glyph glyph-name="summation" horiz-adv-x="596" unicode="∑" d="M543 0h-525v2l282 292l-187 343q-7 12 -27 22l-78 42v2h516l12 -206h-2l-96 170q-10 18 -29 18h-215l186 -335l-321 -332h359q26 0 34 13l89 172h2v-203z"/>
<glyph glyph-name="minus" d="M50 314v17h440v-17h-440z" unicode="−"/>
<glyph glyph-name="radical" d="M480 750l-263 -750h-2l-157 444l17 7l141 -400l247 704z" unicode="√"/>
<glyph glyph-name="infinity" horiz-adv-x="762" unicode="∞" d="M68 325q0 -49 31.5 -86.5t82.5 -37.5q21 0 40 5.5t40.5 21.5t32.5 25t38 36l36 36q-12 11 -37 36t-37.5 36t-32.5 25.5t-39 20.5t-41 6q-51 0 -82.5 -37.5t-31.5 -86.5zM580 201q51 0 82.5 37.5t31.5 86.5t-31.5 86.5t-82.5 37.5q-22 0 -41 -5.5t-40 -21t-32 -25.5 t-37.5 -36.5t-36.5 -35.5q10 -9 36.5 -35.5t37.5 -36.5t32 -25.5t40 -21t41 -5.5zM50 325q0 55 37.5 98t94.5 43q23 0 43.5 -6t43.5 -23t34.5 -26.5t40.5 -38t37 -36.5l37 37t40 38t34.5 26.5t43 22.5t44.5 6q57 0 94.5 -43t37.5 -98t-37.5 -98t-94.5 -43q-24 0 -44.5 6.5 t-42.5 22.5t-35 27t-39.5 37.5t-37.5 36.5q-11 -10 -37.5 -36.5t-39.5 -37.5t-35 -27t-43 -22.5t-44 -6.5q-57 0 -94.5 43t-37.5 98z"/>
<glyph glyph-name="approxequal" d="M383 192q-46 0 -116.5 33t-110.5 33q-61 0 -97 -59l-15 9q40 67 112 67q46 0 116.5 -33t110.5 -33q62 0 98 59l15 -9q-40 -67 -113 -67zM383 370q-46 0 -116.5 33t-110.5 33q-61 0 -97 -59l-15 9q40 67 112 67q46 0 116.5 -33t110.5 -33q62 0 98 59l15 -9 q-40 -67 -113 -67z" unicode="≈"/>
<glyph glyph-name="notequal" d="M50 404v17h264l57 103l16 -9l-52 -94h155v-17h-165l-89 -161h254v-17h-264l-59 -107l-16 9l54 98h-155v17h165l89 161h-254z" unicode="≠"/>
<glyph glyph-name="lessequal" d="M71 374l387 128l6 -17l-345 -112l345 -112l-6 -17l-387 128v2zM50 106v17h440v-17h-440z" unicode="≤"/>
<glyph glyph-name="greaterequal" d="M82 502l387 -128v-2l-387 -128l-6 17l345 112l-345 112zM490 123v-17h-440v17h440z" unicode="≥"/>
<glyph glyph-name="lozenge" d="M270 691l-199 -367l199 -367l199 367zM271 -81h-2l-219 405l219 405h2l219 -405z" unicode="◊"/>
</font>
</defs>
</svg>
