<svg version="1.1" xmlns="http://www.w3.org/2000/svg" viewBox="0 0 1390.4830049161837 1172.9267911831084">
  <!-- svg-source:excalidraw -->
  <defs>
    <style>
      @font-face {
        font-family: "Virgil";
        src: url("https://excalidraw.com/FG_Virgil.woff2");
      }
      @font-face {
        font-family: "Cascadia";
        src: url("https://excalidraw.com/Cascadia.woff2");
      }
    </style>
  </defs>
  <rect x="0" y="0" width="1390.4830049161837" height="1172.9267911831084" fill="#ffffff"></rect><g transform="translate(370.6715802490435 393.134686720573) rotate(0 139.8152212078653 264.65089796665654)"><path d="M1.197206763410208 1.4005698185434035 C105.67796932910763 -1.1493809412339366, 210.5041146331911 0.8517704267806865, 280.6057248679968 -0.3539924063711516 M0.354391831059425 0.33173861726226894 C93.03492924647765 0.10749128570397604, 187.8751276729356 1.082129340762004, 279.45931851610464 -0.15155342682995535 M279.8108195273143 -0.21644673123955727 C278.4373405131452 109.85021004465553, 278.7208721551054 219.45656637499397, 280.13453457038224 529.5341931342253 M279.31043374556424 0.06148241050541401 C279.35143952455206 188.57771573298396, 279.4983961233108 376.17151749113145, 279.44775129574657 529.0187431956747 M279.9848974183211 529.6139036229807 C198.55488474489417 527.3819866203592, 117.12868424297255 528.9948818570539, -1.1210898349963618 528.5677321315026 M280.331648881793 529.4155281419893 C186.28530287797804 531.1528692849328, 93.31288802598577 530.2395019631044, -0.6479095282328545 528.5415375426836 M-0.6428421400487423 529.0688536404738 C-0.23000340734878438 338.3059202846489, -1.2257701662675466 145.5599814051424, -0.008584799617528916 0.0031376622617244722 M-0.25997871048748494 529.4694619919279 C-0.4708075928750738 406.35771518073994, 0.06205064772932689 283.42121746928336, 0.323325015231967 0.02181026227772236" stroke="#862e9c" stroke-width="1" fill="none"></path></g><g transform="translate(318.57026293017407 255.94701676749423) rotate(0 372.6137149909123 400.62627745631846)"><path d="M0.7301803372800351 0.13506084457039833 C194.40586110701804 -2.499670930489243, 390.3329845952619 -1.8172394472205051, 745.0428777436878 0.27891291156411174 M0.17295033223927023 -0.31451247818768024 C167.92446028220908 -1.0647423028433476, 336.5888780233166 -1.466100370832697, 745.1484183318134 -0.37135767824947835 M745.0109832505848 -0.10016366466879845 C744.4385485382141 199.1971193294419, 744.3944375963272 398.531594858953, 745.4598271827366 801.6978401472372 M745.2889123923297 -0.18256249316036702 C743.0509301197596 236.69039423142175, 742.3929088008471 473.269309131663, 744.944377244186 801.2138563716364 M745.3901458243992 801.3089918424887 C524.3442521037276 801.8711884109026, 304.8349085234368 801.3566457120425, -0.3827006317675114 801.5103588630957 M745.2867237216946 801.0206721866084 C554.2333322917045 803.7074402025572, 362.3741230669149 803.6391029170386, -0.3963570546358824 801.5011705839587 M-0.23294229283928872 801.6951372673316 C-1.0213198740611646 534.8697389440607, -2.0785396416316604 269.5847069843152, 0.0031376622617244722 -0.5419049642980099 M0.16766605861485007 801.0608703100634 C0.5385017564513859 550.6546118845907, 0.5386339714744267 299.6976465957147, 0.02181026227772236 0.003170407935976982" stroke="#087f5b" stroke-width="1" fill="none"></path></g><g transform="translate(349.1468078739963 280.3538786519946) rotate(0 165.42749297752835 368.9934162007686)"><path d="M0.23023312636961976 -0.8147803969136725 C102.54653887479454 -1.095416197816154, 206.55295759799753 -2.373693231243701, 331.33043827299866 -1.0140113451370374 M-0.5361375561194812 -0.3951996920784647 C91.27335903912143 -0.5044547975071094, 181.3304389650161 -1.1101211564905973, 330.2219465309604 -0.3519902248175945 M330.75482229038744 0.19974277243018151 C331.70393359842546 198.78758397783966, 332.02465777578595 397.496301495505, 331.30027118965654 737.9503917928868 M330.67242346189585 0.3258926559239626 C328.4577582122852 163.44373886731452, 328.3106729867031 327.2686823229678, 330.81628741405575 737.9695597671055 M330.95119186020816 737.0783170874931 C245.32032110673077 738.9705807029611, 159.0277453329896 737.7933125044759, 0.4394686683128372 737.3978589630898 M330.45970422011317 738.6498298963384 C214.09784647109672 738.1725187241647, 97.6835315226239 737.6455918122225, 0.42380575550934774 738.2034444710738 M0.4425823546946049 738.679675864809 C1.8188607691198262 476.7560183018472, 2.3634603737264546 216.25709447301614, -0.5419049642980099 0.10546837076544763 M-0.191684602573514 737.9793815754437 C2.2597822884758396 529.1545883230104, 2.24193366567692 320.35879172890253, 0.003170407935976982 0.23876147754490376" stroke="#2b8a3e" stroke-width="1" fill="none"></path></g><g transform="translate(702.7194904582684 281.67278665761273) rotate(0 165.42749297752835 367.3362973810796)"><path d="M-0.8147803969136725 -0.29656464461434684 C126.03339632623872 0.4858816702227232, 249.82483782346836 0.09458342898538813, 329.8409746099192 -0.350984014430929 M-0.3951996920784647 0.5320991565503128 C115.00970516241712 1.6217570358727658, 228.9427657858099 1.140798411903066, 330.50299573023864 -0.2103294889289223 M331.0547287274864 0.1833679772913456 C330.2155303772617 237.47063565868498, 330.2922957476307 474.3783722426665, 330.8185453464058 734.0479745964833 M331.1808786109802 -0.0356058944016695 C330.9745517126501 161.4436872943284, 331.02362763800033 323.2140582876239, 330.8377133206245 734.5052581086137 M329.9464706410121 734.55338416071 C224.4809053856094 733.8354136508343, 116.40466374822047 735.2712144474611, -0.5889734384474122 735.3750102311652 M331.51798344985735 734.2132782341737 C201.2120467548648 732.7889769130461, 71.19090864867245 733.7885911890396, 0.21661206953661438 735.0372824694115 M0.6928434632718563 734.1194103579351 C0.49130528925179573 573.2970444154024, 0.8588192558121596 411.39675870358286, 0.10546837076544763 -0.1362747810781002 M-0.007450826093554497 735.0137684001901 C-1.239115194431675 562.3439498029335, -1.209986321083439 389.37182522117996, 0.23876147754490376 -0.3447174299508333" stroke="#2b8a3e" stroke-width="1" fill="none"></path></g><g transform="translate(392.7576847468481 583.7222274708938) rotate(0 117 48)"><text x="117" y="19" font-family="Cascadia, Segoe UI Emoji" font-size="20px" fill="#5f3dc4" text-anchor="middle" style="white-space: pre;" direction="ltr">sticky content block</text><text x="117" y="43" font-family="Cascadia, Segoe UI Emoji" font-size="20px" fill="#5f3dc4" text-anchor="middle" style="white-space: pre;" direction="ltr"></text><text x="117" y="67" font-family="Cascadia, Segoe UI Emoji" font-size="20px" fill="#5f3dc4" text-anchor="middle" style="white-space: pre;" direction="ltr">stay fixed</text><text x="117" y="91" font-family="Cascadia, Segoe UI Emoji" font-size="20px" fill="#5f3dc4" text-anchor="middle" style="white-space: pre;" direction="ltr">while scrolling</text></g><g transform="translate(729.4158563290548 312.3260521070506) rotate(0 139.8152212078653 334.7027422873415)"><path d="M1.08434662512232 0.9752824522664134 C88.25603078338081 1.0015498243952923, 176.0790635894298 0.07162962492994263, 280.3392260778492 0.6634772345245379 M0.5299526484631234 -0.17112389962575528 C61.75076344266697 -2.386529698558358, 123.40856835893945 -1.9108892991369966, 279.80343443259403 -0.20758485515081562 M279.78607424627364 0.5040921546518803 C280.53138415348724 192.8856672964561, 280.26254634392456 384.2561439580357, 278.9904250753981 669.5284493956938 M279.2983137527418 -0.1826911199837923 C281.5289329906731 170.23086328161, 281.79471309387975 340.3717869916755, 279.7228391209555 669.4868424959704 M280.22106078854745 668.2843947396866 C193.0345604313212 669.7124371322941, 107.24408313298188 670.0083093389857, 1.4024129321252259 669.6329489920353 M279.4630911370738 668.7575750464501 C211.1914186173649 668.4371418704948, 144.51664718038654 668.370621238386, -0.6165225585188719 669.1820795279049 M-0.3643763042986393 669.3968997750654 C-2.3158284090677683 431.0085522869118, -2.213497700564045 193.55915514665855, -0.5199574209749699 0.33533211722970013 M-0.007318611070513726 669.7288095899149 C0.0716865007940978 500.6656906780212, 0.2886377160612792 331.5748385355367, 0.14493884332478046 0.34290613047778606" stroke="#862e9c" stroke-width="1" fill="none"></path></g><g stroke-opacity="0.6" fill-opacity="0.6" transform="translate(285.5076869153163 514.0493497608422) rotate(0 403.16580048179867 205.34803535512071)"><path d="M0.5084588147699833 -0.18455223813652993 C194.00292817740885 -2.874018343602471, 387.2421340207606 -1.909651502286248, 806.6775016280761 -0.6290249563753605 M-0.08921462185680867 -0.07901165001094342 C194.79423206796162 -2.4342863619247277, 390.20779464828297 -2.137611025563796, 806.2233775979778 -0.05008183233439922 M807.0231974910746 0.3188407033576702 C807.4591194719679 133.41302246634743, 805.9912472729432 266.0479543203421, 806.5003043294963 410.19513220067677 M806.0809552373833 -0.3883383001244005 C806.0778828186183 156.64583208759495, 805.9013958982877 313.4658240538164, 806.4432211412295 410.7347854416122 M805.7471261712661 410.31337007847384 C618.4076477079016 411.5919755026973, 430.38014205337487 412.66862414332996, 0.11858747974038125 410.2323052581842 M805.9938164479038 410.2997136556055 C486.27872092605134 410.1196346283783, 165.94254500563926 409.6711431861748, -0.11647114641964436 410.9173618875887 M-0.01177804008608198 410.70037547139384 C0.8150132202201692 252.06343735704291, 1.3715234209165086 92.42804317910722, 0.46006375161252816 -0.5259689296383129 M0.4435904342437434 410.72599361524084 C-1.918028721125487 288.5798280120073, -2.3953184754168824 166.0072917280307, 0.47045502870958755 -0.5188436343985542" stroke="#1864ab" stroke-width="4" fill="none"></path></g><g stroke-opacity="0.2" fill-opacity="0.2" transform="translate(367.5682352307267 396.04388020873466) rotate(0 139.8152212078653 60.678452114268225)"><path d="M0 0 C0 0, 0 0, 0 0 M0 0 C0 0, 0 0, 0 0 M0.24731815013570102 7.074563487668626 C1.4662917438962257 5.159953336743137, 3.332476241410868 3.1258644054211664, 4.942076178225226 0.6985535491106324 M-0.26431694809811807 6.736736642991297 C0.9935869821819613 5.133717200420566, 2.1406706133190334 3.6398011548110287, 4.947179721253461 0.6516790650633388 M0.1706644588242876 11.924270500659524 C4.527498090855548 7.889065839706413, 5.715988809187694 4.810848243775088, 10.421024936390054 0.9933153818443183 M-0.15702957053672206 11.40577921536523 C3.8196383116987533 7.266348838836779, 7.878896030652966 4.490069314840259, 11.160065483254325 0.01955306707767268 M-1.97818313264756 19.282320850436264 C4.5436160093887334 14.105579169308966, 7.752355543641834 8.846262241709997, 13.941248071848829 1.0236415515583923 M-0.9523676690226655 18.420565487724417 C2.8516884052013727 14.346756535160381, 6.053522070189356 9.75334229111353, 14.957867581866164 0.2640095983562043 M0.8659219576231454 24.879173613800763 C5.130499893758031 14.266283908891428, 15.226365496665101 7.9986871255024425, 22.381243225464488 -1.2110418086708066 M-0.2876834373735573 23.19315172796613 C6.440803014601992 17.350796521130256, 12.080746548435137 9.733597444137187, 21.06879034945544 -0.6238196413800594 M0.017856187238301402 31.07650965428745 C5.826747216650185 22.544661217745308, 14.623636849857855 15.203559061561187, 27.890725233268352 -0.8656886691215693 M0.13037036178162253 30.248229034941843 C7.783747814275185 20.610883343387297, 15.97203921474708 13.251382419318848, 25.30860148337892 -0.5612195819604455 M-0.7115972937178334 38.8076687080798 C13.673087402918389 21.3168072631185, 24.08912674290652 10.562116921900188, 30.270520649335182 0.9980967511668091 M0.5079321031365076 36.71118426397567 C7.033899711136989 28.558764028213155, 13.345722866982307 21.06821093792361, 31.138131199820734 -0.5730207607836242 M1.9629540398390048 43.87513113636129 C7.417888470192699 33.23978544704706, 13.791802634805695 26.522902063911307, 38.60932928677772 -0.23081082095387373 M0.9544604738847369 42.88220895789169 C10.042278633008113 31.018431774789953, 18.53415838719211 21.081237533346336, 37.578543911503004 0.7283392931428274 M-0.22916499897845455 47.27714666598372 C12.807727732917995 32.275184524902805, 25.30060454163547 18.085717107435357, 41.46969644967072 -0.688234354522919 M0.5458073867484146 47.96917808768235 C10.557463580105926 36.86456870229805, 19.937663859190913 26.909697737473426, 42.491060459609855 -0.4261105825797671 M-1.584784106095448 55.98726732790779 C13.439223153659068 39.26077469399914, 24.793101357054105 27.390800800703726, 48.57704070112693 2.0654821273114727 M-0.05211881708832067 55.27343299094896 C15.110566882851385 36.96222192338527, 31.93595930179216 18.79676521107428, 48.359735881863415 0.5445514580410169 M-0.7378597183992355 61.0545240989853 C12.777848293140218 44.17043798609633, 29.203143028101348 27.304759633180346, 53.0056260952211 1.0702969055100091 M-0.8005755999033539 61.69620801368396 C19.874557394692946 36.9779521131086, 41.6318301493803 12.012224957789073, 53.571181644447805 -0.9977863723934881 M0.8704381891944379 66.38295984039972 C13.38104486258559 49.71436183630979, 28.285362717567473 37.27053692553741, 56.86758994506599 2.0666472069244826 M0.33567697549694486 66.92441344871143 C23.097490505118426 40.9011183545455, 44.915815606916105 14.542190741540516, 58.19734341008515 0.5961571471091354 M-0.03895098323017265 71.05825803833453 C18.977824454279727 50.28973070493885, 35.403997548851706 28.9311890870052, 65.49891505473633 -0.4797274374844065 M0.45144915880620573 73.16351427635549 C23.879381122139836 43.76868399511851, 48.42292919513763 16.306283174152135, 63.27522326995958 -0.30587039584978726 M-1.6136555475603274 77.67437154464153 C19.859085272762034 55.98542494803749, 38.14421126184384 33.24103006178329, 69.14845748734488 -1.277608550864862 M-0.23580557475345643 79.87040890510855 C23.22255759438221 54.09466352183081, 43.81429947798511 29.824695628928197, 68.58965751179322 0.888771594722165 M-1.339958324721266 83.11305551528142 C22.994608186805355 62.49026436501525, 41.75394485788463 37.54169904985135, 73.1639187969664 -0.1854753522561623 M1.2376726785020935 85.93921211007194 C16.45847674706831 64.34010748405476, 34.14168111956901 45.40653602755812, 73.95303885177019 -0.571309918573661 M-0.3537688766002489 90.644044052106 C23.129766333085445 62.50588560276037, 46.397042876560384 35.39657474085053, 79.68087379671363 -0.1113281148065397 M-0.6352719812050296 92.20768167473808 C19.71647484057737 68.68184288667288, 40.7261301013184 45.69516128071738, 78.98809420261261 0.7248850352551273 M0.08928969688697919 96.70458314129874 C23.957500039980676 70.3277006177422, 47.156876933201296 38.62092600061397, 85.80874279066131 1.012135192444731 M-0.20904805418119565 97.64300132943109 C32.3755721480477 61.42361992974319, 64.35493695532159 24.079151300055898, 84.40760690550462 -1.21817720619012 M1.5832036708246733 103.22605939404312 C30.508684772825763 73.18455180420814, 58.864240543581985 40.81014494107602, 89.3198193419222 0.32769554634943177 M-0.6222437282327746 104.07465949197504 C28.88556432744519 71.16392095005554, 57.37340226395419 39.405731208272954, 89.79719449816832 -0.29613729691699575 M1.5408916083255733 107.96062878719093 C19.826065509579806 85.29319504885007, 41.1456689316492 61.7753378328456, 94.83524250457108 -1.9215637721317194 M-0.7345539656376516 109.92732800836237 C19.278360316999986 86.13104572297216, 39.12317811945711 64.47551455802264, 94.8950309467879 0.126330475675843 M-1.2758824365355608 117.2607496017029 C31.293475002690357 78.07388640827443, 60.3914590152355 44.85158162059987, 99.51402459172064 -0.2920805361469334 M-0.5031173002116915 115.40664509119442 C31.4559986820724 79.72259261844926, 62.48528981640621 45.34858138964756, 101.37462441408539 0.7219448325808102 M-1.067481150645989 120.1793590644308 C36.28815142800125 85.04381843718363, 66.84603202064707 43.9709722189171, 107.23902340744567 -0.11499021473550641 M0.8002619307672205 122.0056419614636 C32.78810643710868 84.4202474995781, 66.87461152334885 45.426129550857596, 106.12453949124497 0.6318908613992349 M6.438050501993104 122.45702006455316 C26.69370579788498 95.61223999921081, 49.32116419187721 70.20526332091303, 110.30597001485891 0.6040506689543506 M5.117308050407274 120.89813956498905 C28.937444135090047 94.05654175682922, 51.63618943746537 67.78299713564297, 111.03117496598877 0.972246658123531 M9.928596352570409 122.73512772070397 C37.89042178696637 90.413672696253, 65.54405274436992 58.72536253840998, 114.95338193904462 -0.0356025238938642 M11.640635114506537 122.5582051395454 C36.76017008249979 92.17299094053905, 63.352426996994026 62.00511320650373, 115.6024270255104 0.019766265577821684 M16.439357955160688 122.46770281384391 C43.5876601542077 88.49413806174434, 72.49781477339357 55.89100869406444, 122.33188608008703 -1.5029538070967021 M15.838885839249144 121.07819564773393 C49.80608327084626 83.45809756589905, 81.8131650485918 45.16169797060245, 122.03076216950348 0.9447584140861807 M19.79341012287665 122.05924507082477 C51.428933003804744 88.40125219020402, 79.46536621817324 53.75402795514418, 127.47354162609889 -0.5087378288023459 M21.991037137357182 121.71286106054708 C59.381449442263445 75.753247539798, 97.3621167090831 31.620536725888442, 127.25629012319013 0.5439652621410502 M26.787673159793094 120.88955652260731 C65.11389989674535 80.14891947696964, 100.58684730918344 40.33391245292803, 130.82175325615498 -0.22588693305009144 M26.46612235001482 121.31041771558623 C50.06220365602099 91.87147387527199, 75.0292909742129 64.710674174222, 132.5904270402545 -0.5736546651562406 M30.881940629022743 123.41391814604324 C58.722804698027424 90.48771169908026, 86.38903838083255 58.81013458921287, 137.92029890836804 1.8106454820118216 M31.506009014944162 121.81897495884371 C69.327804782488 75.41984559724219, 110.05389526425341 30.79333477276201, 138.49867327091872 0.5195001656866935 M38.384851584640344 123.18791322209336 C72.67622230924297 76.89865008819527, 112.01303887023795 34.080446160576244, 143.5993020118128 -0.2712916776558387 M38.505121098329326 120.71760850292094 C70.5382936016016 85.39665551775924, 101.8117831389307 47.5765995113526, 142.88033559386687 0.5007476547712457 M42.142918339758666 120.9676039776094 C64.7133324550553 95.04688726744038, 87.77201640169798 67.64473793671249, 147.664259254602 -0.5808705602013333 M41.793216762892456 122.52278706881029 C81.76348611598513 75.83050628577797, 122.15919932965758 30.494780992081544, 147.8513049843211 0.30354871058978006 M47.72649869845245 120.73435494355206 C74.3520693497602 91.11885509823557, 100.37969165342159 61.30011062591164, 155.08201281581046 0.5605389903360702 M47.91511059981767 121.21944574411307 C72.91085589100334 94.49000823575128, 95.51105169604665 67.13561028001641, 154.02377884596558 0.548580608243654 M55.118823723834446 119.79500959677318 C74.46295414353818 95.24006488026635, 98.97854536828089 66.29050119969385, 159.66977813355084 0.7195460758081538 M53.41345139682709 121.76741262482176 C80.41847269616488 91.27455421397603, 107.92330085293325 60.67294924250735, 159.28903877902235 0.05016363122527423 M56.90196996997939 120.80671371823342 C81.92377754021543 91.61728123462666, 107.18753397125775 65.71172534412312, 164.28111613689794 1.3755621021756355 M58.108444370104834 120.53248217353763 C99.65880982025855 76.0598185772663, 137.57225783546392 31.12813006682933, 165.0971728121756 -0.7526655703640159 M63.945887250000055 121.87709203478462 C93.9586062143529 85.5479993011285, 123.52097421850479 51.74453836591381, 168.49496101396448 0.020977421290297116 M62.88062893237304 120.79284186125315 C92.88107831178979 89.12344306503776, 122.3357649241872 54.64746954426293, 169.2398531706474 0.7102726619681903 M67.5943708679712 120.58907157738746 C107.86189764671272 77.55678306758386, 146.00528809851997 33.2604360225764, 176.80159244382526 0.18598468911287114 M68.95060092481584 121.17014552556962 C104.2704829692852 81.67240248307507, 137.3040500537483 42.127341957925054, 174.13005850812192 0.5713743533232503 M73.35408938700552 120.10105832289372 C105.04359636474548 87.31552357049503, 129.42907803810039 57.66384794873139, 178.29166336459298 -0.4612444925049033 M73.66179038515533 121.13594001247947 C102.61041010704375 88.68187844100234, 130.07995529533986 55.318069097621645, 179.58485167482127 1.0316785371935282 M79.08055686117783 121.17176055226413 C117.11739704031852 81.43738214156404, 151.6993222662614 39.250597953962924, 186.84217220534245 -0.08973621760225114 M79.76018377957567 121.44273853458402 C112.60645458230098 83.34599669957612, 145.6796630357503 45.070716328030926, 185.1051019494296 -0.20805938631957588 M84.66716060360082 120.26036549235047 C126.30576749286038 74.82866268777471, 162.9509738488706 31.688305461217354, 188.80549065418637 -0.6055376343274474 M85.17710177079894 121.6304473128757 C112.22897387628613 88.63834350171277, 140.76349224210952 57.5593282307664, 190.65826280716902 0.559058991276288 M90.2311334183493 121.55136267411346 C116.12377044686401 89.65930268758116, 143.37361397884726 59.85304203750919, 195.1953358901995 -1.6268935867197172 M90.30892145000932 120.45743893495585 C128.4818495395748 76.85192191640073, 167.85625832563142 33.91859215235263, 196.95809415172363 0.47714844508251986 M93.80258136853597 123.05472057440488 C121.93913227622248 91.72830682227128, 146.35180188644804 61.21175480138831, 201.37579835149455 -0.38406997292732115 M95.79985410492888 121.40697899681686 C122.05010538796894 93.01127635950336, 147.75803278768797 62.61933051923704, 202.24744008331555 0.6339667585914839 M100.85439697924511 121.38541955440822 C136.91071839357127 77.39572675124727, 177.02682575346256 35.16451185978961, 207.24731396714634 -1.694530386989527 M101.16560842275129 121.87300904128286 C139.17001348908565 75.982294309435, 179.4864857907597 31.48883756415613, 206.57795113062895 -0.5080119180954625 M105.27158215056096 122.09008060030695 C137.56260490856116 85.99324113588249, 167.0456121048324 50.40432293427948, 212.93569192526758 -1.8627594770545528 M105.85646340317015 120.89302529867794 C127.56510863059077 95.05450087428777, 148.24895931544168 69.87426933943168, 212.5928620188859 -0.6051704264859126 M112.32057107059626 119.97359406395287 C137.41981359491157 95.74670640292773, 158.92121899075738 66.5779522221946, 218.97808690493304 1.3445604128383337 M111.32034127140759 121.88095742749454 C134.1635070992456 94.77832976532869, 158.96397864814202 66.77448403093749, 217.8067139017706 -0.0016752414785088376 M118.1791434184258 121.87865260130667 C152.40126936298623 79.18213610709998, 188.4634776718531 39.415125356570854, 222.01202684425547 0.7987258845408718 M116.62647068114775 120.81295145283394 C148.8018776935065 85.7252078153943, 179.15655181646866 51.14560478885544, 223.38813212950512 0.7769501704191129 M121.62545213216228 122.78592781422017 C161.01378170457406 76.40287568848123, 197.34999210530663 33.09041488084266, 226.9613851723096 -1.9661641559861636 M121.24816448261274 122.73379640818862 C152.16792714191666 86.96954525877464, 181.12531610201995 51.44841006954023, 228.4395484807736 0.4548987093083525 M128.2239956408805 119.83889360865406 C166.86947923169433 77.87148250983037, 207.57444737610575 30.754431384301782, 234.7254085772082 -0.6530318568910332 M127.34254195448669 121.18799769365988 C153.42557887417684 89.48174044602885, 181.42391816311218 59.2519704785165, 232.77997893079817 -0.48749371631842564 M134.01464563269315 120.44400283646013 C161.36836726311384 87.02614444938747, 192.78848557908233 51.910203518475754, 237.7086302090355 -1.4222874819902387 M132.53330657199172 122.72620371774013 C162.53147667173133 89.08524271138432, 192.59857598820764 54.8114971697847, 238.5686868542724 0.37203474886290167 M137.698619286675 120.2955106535991 C162.0982890498858 91.50184939487809, 186.72532585062777 63.59239485911378, 242.79019259287577 1.434799329899704 M138.19046823881195 122.33627925553073 C179.8881700379075 73.77000189911595, 220.22946676942425 26.138162734487565, 244.36825593839 0.13055064767644353 M144.32750704093883 123.47565116192274 C180.28002781032885 79.66337975487835, 218.49243517346179 33.58670270568976, 248.29317054184173 -0.17727169436942347 M142.2131210551695 121.94973209052407 C167.504033583857 91.34789452307633, 194.71754649584457 61.49699223458082, 248.20766309587304 0.2928039511146068 M149.48924482455936 120.47946076739179 C180.22805959051922 84.26585936216436, 211.8711314348828 48.591259729363074, 253.51448436000817 0.6213014761630973 M149.3091655497485 121.8727863728215 C173.74933918439072 92.36536491450313, 197.99469038999428 64.17776547573627, 254.20594166790568 -0.04298900322126542 M154.99714182564935 120.31495482185801 C191.62223821347692 76.37063215724629, 232.1064021091337 32.093732741510195, 260.4139276104878 -0.21420018165096621 M153.7780864477711 121.29280926091542 C192.23739532117497 78.28517938783034, 231.6054233344843 31.790963208948924, 260.35495919221 -0.6787188693387805 M161.0758527232836 120.52795098128215 C199.43548625425083 77.71100018150543, 235.4140705304817 32.167238328351715, 263.8001393473554 -1.6281933868508247 M159.79067490292144 121.7093842799072 C183.45494310656576 93.4274651354101, 205.7259610135112 67.66393140360177, 265.7991396349702 0.11469006536347592 M166.05040545557475 123.30224584751595 C187.37428943221195 93.54892944712299, 208.6892225517028 70.89156577222512, 269.0196318837238 0.6353840874151899 M164.17180626542157 121.44073796328921 C198.82828637569236 82.13011469886722, 235.0572406238137 39.194047473363554, 270.61824115890835 1.1037065218777968 M170.53217345159766 121.48443832652013 C194.82176302396414 92.81673847465507, 217.90445338944753 65.813503848437, 274.14276302366756 -1.9421032278921473 M170.6801623139557 121.0548132111628 C196.11383431356998 93.14375932880625, 220.35310128450726 64.7153038459716, 275.10707835520856 0.5232655878055823 M173.107903399465 122.68410627014654 C210.7567045167358 77.23886654239084, 250.1872625916946 38.013719213352786, 278.996704801309 0.20089772430176822 M174.79100902374586 121.87569593202042 C197.00034900383986 96.2308066189602, 217.9613168246012 70.84592571665053, 280.90224098260245 0.3379049393620619 M182.5256874782515 123.29862983435581 C205.86171675794603 92.14300329564247, 231.8382544948223 61.021330238225055, 280.72717959677993 5.749790206294193 M179.97591879847621 121.41468840096334 C210.28184285796846 86.88105366586349, 241.69182961574785 53.39572119272434, 279.63758008333116 5.691676520485117 M185.38399112607004 120.61336812099977 C221.99678601470538 81.31102985107492, 257.74460136930657 41.99053035908538, 279.2965504261265 11.029231883377548 M186.48554823836895 121.87673590148403 C215.59479832411802 86.45941646329088, 246.31855299801774 52.43131162805325, 280.53604827305026 12.829800740607794 M190.31762527199527 122.82648253603915 C217.5816902362431 94.41100388197432, 241.01487675683862 65.80334692958625, 282.5486125934236 17.12214978651255 M191.62936037210812 121.59150008368383 C212.20504591652812 96.38923205458872, 233.8187034341274 71.82641899891053, 280.56824139294406 18.623931437331436 M195.68677410413997 121.14911343132567 C218.88900439822618 99.65139468537106, 235.07748193739138 74.54282100529745, 280.49003466178385 26.686949892551 M196.5584024249159 121.51978560605508 C230.0022570070291 83.33568197221469, 261.69574176945434 46.36082127197972, 280.82758948073445 24.795615456648463 M201.76296730157887 119.8302034628201 C220.7050054258339 102.03962452183966, 235.8410272945447 82.76270226462802, 278.8202716562916 32.737050062676346 M202.54502805047636 120.68461349369917 C220.9450921457417 99.93694676259194, 240.63939329081336 78.59448165721102, 279.1540199736152 31.102075591382956 M206.41810780242474 120.25667423237421 C236.5483556163866 89.06106809911932, 263.9200847870544 56.241369749709776, 279.90088797703106 36.96750878307209 M207.76567509901167 120.67764778010853 C224.92435062769056 102.04638813591758, 240.80131698804982 83.72660438502763, 281.19703062127996 37.06908932185904 M212.6543850067618 123.73295922617152 C233.07368727687364 97.24459121212033, 252.25970736796037 78.46568695409965, 281.724880312115 42.081653905590045 M212.92452882021541 121.84497844560727 C232.49576092915274 99.50005317389991, 253.24131777176638 76.63922875281074, 280.4787623989508 42.72386755656915 M219.5735976896743 119.80763255539543 C239.96327096609514 99.43043308276611, 258.1909607985971 74.86911907769627, 281.44659084061806 50.57061558619087 M217.31659477628122 122.02000015801943 C242.3104134414548 93.61302328618575, 266.66982680719 65.71913527737476, 280.01766271031175 48.780837570614565 M223.34647691427506 120.60003769689779 C237.71129918097608 107.80568352945488, 248.8283808587775 91.75493839105557, 279.07073500065314 56.81350292672637 M221.89077175493128 122.25629101333747 C242.4295811841772 99.62037485039632, 262.75570013596564 77.75798954877757, 281.1112631555851 55.14806964748773 M226.74259923463876 121.5798204316393 C246.7682835840735 101.0775103211049, 266.98080723211524 77.65608405114293, 280.98231469230444 61.85693691338007 M227.87351497234965 122.01339547416275 C244.7107203042673 101.27096757457824, 263.1459741265077 80.05786873842212, 280.9598427344644 61.11306001751278 M232.81941446387816 123.66710548647174 C243.69513530436592 109.15201847394061, 252.76763527738893 98.66219492455247, 278.9159411906562 65.74167915733538 M232.55161384125847 122.66325101148763 C247.63348808024924 104.87586950355139, 264.0938529097259 86.57186259667102, 280.7295007591433 68.07560959851376 M239.10821790606806 121.25731989235581 C251.22113030557853 107.67217712880877, 261.56954314993817 95.54774330624588, 278.9251580588212 73.82926063544413 M238.5519142028419 121.92126146291346 C253.73494282492538 104.75471302812633, 266.83316377795165 88.81146624681553, 280.6152297673439 73.28070273648312 M243.30317812432114 120.32136962614335 C251.52054773635064 113.85553898715625, 260.08451609118856 104.7426459715416, 278.9123543508741 81.58151462866705 M243.62409609482202 121.35272367443271 C256.58675796733723 108.58024943861568, 269.5475677690237 93.70402578189949, 280.46457872525036 79.00429014402222 M249.4473091727122 122.430462968795 C257.5198396204223 111.71294018908416, 265.43482173255467 104.2628409904021, 282.31779237992777 84.66075336385587 M249.920395983383 120.80390085864663 C257.6447635280936 111.74782868569291, 265.7762110002515 102.32248681326053, 279.56043079558475 86.05971554212341 M253.62149836435393 122.85628714716259 C263.8768631299972 112.13198780910055, 274.2482352778345 99.28528757618028, 279.6495209210663 91.70930095219411 M253.77838453124687 121.90844923654768 C263.10293859375696 111.87207773778017, 269.80106433690753 103.81373777186477, 279.24466654054066 92.98349859861084 M258.13047850332117 122.59583169220684 C263.4768735114818 115.00795679007162, 270.4225500318092 112.81960044523649, 281.45269812437414 98.67612212986528 M261.0006888295979 120.51849139573721 C264.9235693491997 115.8683670587156, 271.13677514804516 108.86083783725277, 279.98123683481185 97.76821366880863 M265.1918556527266 122.47156508077951 C270.49554036481874 116.44488173112778, 273.44418166963305 112.15664788973471, 281.2789144279639 105.1434509987211 M264.6377701661581 122.2110429322076 C269.71671987829114 115.61101216482798, 273.8314287026748 110.79663210833687, 279.41923577862036 104.59536853620914 M271.03121034409645 122.7211286539174 C273.53335068898315 119.96679947016887, 274.24983797695234 115.32686285405539, 279.56194999850993 109.35351713124275 M270.3903840119464 120.89324943995656 C273.08306737874506 118.61275288291755, 275.4021273962925 115.28111755821354, 280.1622936033149 110.03966467088632 M275.84356640516995 122.29990717152101 C277.582055325972 120.62949458447095, 279.1126231714144 118.0533542733281, 280.7718702856748 115.99583715402423 M275.75718240011696 121.6575992596612 C277.17472389044605 119.59884170764677, 279.13623490950107 118.1541814577192, 280.15766390085395 116.83943546611717" stroke="#7950f2" stroke-width="0.5" fill="none"></path><path d="M-0.3539924063711516 0.5349870244300281 C76.66714315207605 -1.7585264930731, 156.32503554641914 -0.7001160835132403, 278.42390024521444 -0.889370813189809 M-0.15155342682995535 -0.7123067131306504 C105.31426982946797 0.24184820389326106, 211.5936624359084 0.27092966245173433, 279.534379704584 0.1915647986222107 M280.211435418011 1.113213086500764 C279.7754283585312 37.62714211171206, 278.26648652932664 78.68479710433058, 278.71762994992855 122.98636750815638 M278.9228105716345 -0.09674635250121355 C278.5796081710048 34.90847435547853, 278.85378152014687 70.8570267819031, 279.7009885780451 120.69070532204785 M278.89637861391986 121.85140183916631 C197.52297955301438 120.57981981311882, 118.14337545752605 120.0169144131498, -0.8895554452396022 122.84893631487992 M278.87018402510097 121.83377766362142 C214.82145731653122 119.95550475126143, 148.9084784985567 119.32174690150725, 0.42446191478818646 122.0213809297638 M0.00784415565431118 120.00214181779154 C0.8164156802125948 93.00073935279923, -0.7471487991384489 66.16427867552665, -0.9584230128675699 -0.037254130467772484 M0.0545256556943059 121.3648302483765 C0.6191077934315155 73.73709525614458, 0.3845512078812072 28.698138759701237, -0.9454392669722438 0.7011439828202128" stroke="transparent" stroke-width="1" fill="none"></path></g><g><g stroke-opacity="0.6" fill-opacity="0.6" transform="translate(279.4672381209348 395.78802877940143) rotate(0 189.10575016016946 -1.0009892267379428)"><path d="M-0.27682835720479493 0.4183693673461675 C62.66323003156378 -0.11213663981667821, 315.1197107947565 -2.0851775833125736, 378.4883286775436 -2.4203478208220988" stroke="#5f3dc4" stroke-width="2.5" fill="none" stroke-dasharray="3 6"></path></g></g><g transform="translate(117.65656031378239 382.0486835021866) rotate(0 64.5 12)"><text x="64.5" y="19" font-family="Cascadia, Segoe UI Emoji" font-size="20px" fill="#5f3dc4" text-anchor="middle" style="white-space: pre;" direction="ltr">top: offset</text></g><g><g transform="translate(201.4312998971145 924.4100116271884) rotate(0 83.31896202700818 0.10500311516227612)"><path d="M-0.8922688331454992 -0.3088447663933038 C27.075568040915687 -0.29209782816469665, 139.70941907767633 0.583294167742133, 167.53019288716231 0.5188509967178105" stroke="#5f3dc4" stroke-width="2.5" fill="none" stroke-dasharray="12 8"></path></g><g transform="translate(201.4312998971145 924.4100116271884) rotate(0 83.31896202700818 0.10500311516227612)"><path d="M138.79000495450015 11.607502668991641 C147.95055937414824 6.506048706541545, 153.74313505290772 6.824366751744259, 168.91163420652364 0.07277788743376723" stroke="#5f3dc4" stroke-width="2.5" fill="none"></path></g><g transform="translate(201.4312998971145 924.4100116271884) rotate(0 83.31896202700818 0.10500311516227612)"><path d="M138.85966586644912 -8.913587695391685 C148.07247398543885 -8.332634161833901, 153.845758400265 -2.3313906517848055, 168.91163420652364 0.07277788743376723" stroke="#5f3dc4" stroke-width="2.5" fill="none"></path></g></g><g transform="translate(31.448878022114513 904.9637225646884) rotate(0 88 24)"><text x="88" y="19" font-family="Cascadia, Segoe UI Emoji" font-size="20px" fill="#5f3dc4" text-anchor="middle" style="white-space: pre;" direction="ltr">Aligned to</text><text x="88" y="43" font-family="Cascadia, Segoe UI Emoji" font-size="20px" fill="#5f3dc4" text-anchor="middle" style="white-space: pre;" direction="ltr">viewport bottom</text></g><g transform="translate(656.652809679239 1107.3699276676352) rotate(0 35 12)"><text x="35" y="19" font-family="Cascadia, Segoe UI Emoji" font-size="20px" fill="#000000" text-anchor="middle" style="white-space: pre;" direction="ltr">fig. 3</text></g><g transform="translate(10 10) rotate(0 685.2415024580919 576.4633955915542)"><path d="M0.5521619103848935 0.6075761891901493 C532.8872091899785 4.026888494939788, 1065.326580047453 3.057725434751495, 1370.585545029961 -0.6861678741872311 M0.3210663724690676 -0.2051345456391573 C341.35137761037527 -0.23785690574558488, 681.9435468347316 0.4360085675248314, 1370.5847516709048 0.2175971280783415 M1371.014453759514 0.7671163894236088 C1372.6255469525772 240.12573593971808, 1371.6978498900849 479.5725734160379, 1370.0703518298494 1152.149660732055 M1370.502558963843 -0.10656545050442219 C1366.547667104018 452.15113667967387, 1366.928301638377 904.1076436651989, 1370.6325851255137 1153.3130757382307 M1370.2212393191683 1152.4396576421502 C980.0690754110205 1155.1417234865266, 587.7282175026287 1154.6372073379596, -0.27224707379937174 1153.6882918136362 M1370.456737022944 1152.9493166020306 C959.9874602347592 1155.3359228222114, 549.0753783470868 1155.0534047810775, 0.004092817381024361 1152.8911789825354 M0.02034573778510094 1152.6358998077158 C-3.1751764502712136 759.2521915862372, -3.885415932197178 367.08800011890895, 0.2551790498197079 -0.6520861528813839 M0.3731635380536318 1153.1039365699683 C1.2331854762640369 814.597192802316, 1.327784091433562 475.99352635094806, -0.18069930784404278 -0.13628893978893758" stroke="transparent" stroke-width="2" fill="none"></path></g></svg>