<svg version="1.1" xmlns="http://www.w3.org/2000/svg" viewBox="0 0 1390.4830049161837 1172.9267911831084">
  <!-- svg-source:excalidraw -->
  <defs>
    <style>
      @font-face {
        font-family: "Virgil";
        src: url("https://excalidraw.com/FG_Virgil.woff2");
      }
      @font-face {
        font-family: "Cascadia";
        src: url("https://excalidraw.com/Cascadia.woff2");
      }
    </style>
  </defs>
  <rect x="0" y="0" width="1390.4830049161837" height="1172.9267911831084" fill="#ffffff"></rect><g transform="translate(374.0599762142592 289.7918717151498) rotate(0 139.8152212078653 226.8131701020732)"><path d="M-1.3988031593278814 -0.9122048333173185 C98.91545240089232 -0.20037868498663025, 197.84076485836496 -0.4084784781154443, 280.7229273136064 0.9879055143098375 M-0.19231700051716175 0.34240887175785073 C108.2585261932986 0.6484659238623711, 215.88762399006185 1.5066178560453556, 280.05410485376404 0.4352332128651154 M279.38951488132574 -0.6817269593992564 C279.40264222900646 160.9464267121293, 278.39947943572565 321.31796135135113, 279.27221157693236 454.3578913139809 M279.83569938853526 -0.2819561958180957 C279.19664971717225 117.71739270138345, 278.63860032768355 235.89082516615366, 279.8787360452378 453.86355022375875 M280.8300606285689 454.80859663334536 C213.24158463595592 454.20258432006193, 143.795032837139 453.2327614409663, -1.2088477659887573 454.99597515240447 M279.93295410277443 453.94252114387535 C222.8764930478197 452.26639277977455, 165.6382045827092 451.34708206488784, 0.06732322788933967 453.3319083793948 M0.17132248954414764 454.0994443818534 C0.8586240096901843 320.2038433152791, -0.18144186567117998 188.7595318880517, 0.631191690309493 0.006469593942212292 M0.12656465129115244 453.53507675614225 C1.314088849564374 354.03814094803926, 0.8700738249311657 254.7791076826624, 0.21250380337392816 0.19772318360482022" stroke="#862e9c" stroke-width="1" fill="none"></path></g><g transform="translate(317.7329045850456 235.06109831379456) rotate(0 372.6137149909123 405.0248777167353)"><path d="M-0.4755736015737057 0.3866784356534481 C277.78642060629 3.495817526554387, 555.709581958929 3.286881908153813, 745.7424697692659 0.6855795882642269 M0.17851321808993817 0.21155041940510275 C149.94204358879816 0.8421427973345957, 300.581185455478 0.9680657991008006, 745.4543367236074 0.21533260829746725 M744.6560262496736 0.17044534906744957 C746.3799538466839 226.21142235488318, 746.2655408475308 453.4633391495173, 745.8405948694017 809.7320436770922 M744.9911024897511 0.23563013561069968 C748.0933441206813 216.0317184435781, 748.1778594657779 432.73577069502693, 745.4262525289472 809.8129275998926 M745.8437936837937 810.542013197661 C506.2500326507444 811.7705396469655, 266.59248759059545 811.7499112185063, 0.7140525914728642 809.2823984200961 M745.3922693937238 810.213007231698 C474.5150769453208 811.2990718033861, 202.99589345382702 811.2601747062754, -0.15350061543285848 810.0215478739595 M0.396542177349329 810.7371982629305 C-2.2850783106001566 568.28940163673, -1.0741998668822 327.4267147212228, 0.005422625690698624 -0.6444352842867375 M-0.07649437077343464 810.3899838290072 C0.4685704088048393 600.985274260301, 0.7093487238721305 392.16277179913874, 0.16572582833468916 -0.24854045622050763" stroke="#087f5b" stroke-width="1" fill="none"></path></g><g transform="translate(348.3094495288642 259.4679601982958) rotate(0 165.42749297752835 377.1517820861853)"><path d="M0.6591561412442057 -0.41803871442096907 C96.41975660927119 0.7381274375575493, 191.1562734651754 2.2190769698604846, 332.02366761466925 -1.3427537748211487 M0.36062201890832907 -0.4256625162135087 C82.03203585358087 -0.6698153291118562, 164.11686787559685 -0.6200080696032246, 331.2220553286807 -0.13580170345882828 M331.0254313041237 0.36744483485817914 C329.422994893528 244.8203830847539, 329.79311277244193 489.747867385675, 330.53727419867784 754.039372030033 M331.0906160906669 -0.29772393591701984 C331.9205824117714 299.7259131276319, 332.3608055691773 600.0770659840275, 330.61815812147825 754.3872095291896 M331.6941191945216 754.601087805446 C226.83563942672657 755.4773226153571, 123.82028802611183 757.2589160373709, -1.3080845510246586 755.1722726751096 M331.1332751365797 754.8619301121047 C262.3855557801212 754.9746103243347, 193.72368144804426 754.9715851745283, -0.04808436252673254 754.2914522764862 M0.6874428294599056 753.8563850314749 C-0.7258908285832785 485.99073922523496, -0.012534119102992847 216.15593829814532, -0.6444352842867375 -0.3356078051030636 M0.34022839553654194 754.2684451167864 C-0.8321185443664757 539.9438153409598, -0.6220719311500755 325.3384738189173, -0.24854045622050763 0.3036377798765898" stroke="#2b8a3e" stroke-width="1" fill="none"></path></g><g transform="translate(701.8821321131327 260.7868682039135) rotate(0 165.42749297752835 376.5810890477462)"><path d="M-0.41803871442096907 1.327075087083838 C68.49363079969093 -0.1195150584669985, 139.07119176897174 0.07825618034531878, 329.51223218023506 -0.71663550403249 M-0.4256625162135087 0.1618600220447864 C91.3003146070623 -0.8166197174852992, 182.3134443708158 -0.826066556385503, 330.7191842515974 0.16521140771940682 M331.2224307899144 -0.6703765608370305 C328.9562193933684 206.63684344777735, 329.3163524452406 413.5564925030226, 330.5907938127187 753.9432753191021 M330.5572620191392 -0.2321106504648924 C328.861848077499 258.5503524767768, 329.2738792154423 516.4476521060938, 330.93863131187527 753.2071971070644 M331.15250958813164 752.1230184640211 C205.16889875629636 753.4760110410532, 81.82877988756718 753.2422506252564, 0.8687085027391078 751.8983850930633 M331.41335189479037 753.28831583864 C218.2948144540325 754.1427430570895, 105.99025936148725 754.0348273654096, -0.01211189588431768 753.54894413747 M-0.4471791408956051 752.9778679237393 C-0.7296035471733968 514.2235423120031, -1.4878802243050497 273.5823781687728, -0.3356078051030636 -0.12436012998223306 M-0.03511905558407307 753.1302459967014 C0.7817859285208602 507.41724840355414, 0.7418524973723312 261.06754922654466, 0.3036377798765898 0.09927242286503316" stroke="#2b8a3e" stroke-width="1" fill="none"></path></g><g transform="translate(407.64608071206385 375.45313947123157) rotate(0 105.5 72)"><text x="105.5" y="19" font-family="Cascadia, Segoe UI Emoji" font-size="20px" fill="#5f3dc4" text-anchor="middle" style="white-space: pre;" direction="ltr">smallest </text><text x="105.5" y="43" font-family="Cascadia, Segoe UI Emoji" font-size="20px" fill="#5f3dc4" text-anchor="middle" style="white-space: pre;" direction="ltr">sticky block</text><text x="105.5" y="67" font-family="Cascadia, Segoe UI Emoji" font-size="20px" fill="#5f3dc4" text-anchor="middle" style="white-space: pre;" direction="ltr"></text><text x="105.5" y="91" font-family="Cascadia, Segoe UI Emoji" font-size="20px" fill="#5f3dc4" text-anchor="middle" style="white-space: pre;" direction="ltr"></text><text x="105.5" y="115" font-family="Cascadia, Segoe UI Emoji" font-size="20px" fill="#5f3dc4" text-anchor="middle" style="white-space: pre;" direction="ltr">stays relative</text><text x="105.5" y="139" font-family="Cascadia, Segoe UI Emoji" font-size="20px" fill="#5f3dc4" text-anchor="middle" style="white-space: pre;" direction="ltr">until it reach top</text></g><g transform="translate(728.5784979839191 288.44013365335206) rotate(0 139.8152212078653 345.0339597352581)"><path d="M-0.6784840556190572 1.092484897876059 C98.39292099332849 -0.7727667427288427, 193.29914160189216 -2.894157640244023, 279.24580841469606 0.6848177435157015 M0.37918923841389973 0.42366243803366643 C99.11335028045478 -0.09625164851811219, 197.20342775164886 -0.3233856606192652, 279.4367718265142 -0.5480090195489175 M279.8834742514354 -0.300258681923151 C281.51141676686154 221.40502251157662, 280.6340597369467 444.2265657595197, 279.97452327887834 689.5952644863698 M279.41723382490994 0.2081125069409609 C277.77476759250493 247.4337473689347, 277.6595904022011 495.38616941659734, 279.9431500079048 690.376101321501 M278.99539818246296 688.8590717045275 C179.9046625913756 686.9612089988295, 78.41709843412274 687.0110466016686, 0.6050233740880481 690.7002813499741 M279.33941454092775 690.1352426984056 C184.03433472538475 690.4107001347677, 89.0134621735543 690.9000011965118, 0.13771828769174888 690.4482262091527 M0.7636993028223515 690.5969660082434 C1.548342522632914 423.1053279600344, 1.2073120918391518 157.30724688814377, 0.21216562762856483 -0.15298874154686928 M0.2056592594832182 690.2460339849416 C0.40807116454139636 424.1038279099675, 0.545983116083297 158.73608968472476, -0.020875881984829904 0.30030071027576927" stroke="#862e9c" stroke-width="1" fill="none"></path></g><g stroke-opacity="0.6" fill-opacity="0.6" transform="translate(290.2307182971963 210.0880451720834) rotate(0 403.16580048179867 205.3480353551207)"><path d="M-0.4203973509371281 -0.20052708610892298 C294.1681137712153 3.5988172776810927, 587.1227648774986 3.3656191833131115, 806.7269779342165 0.4417487479746342 M0.0969173837453127 -0.10096923001110554 C287.35429751583854 0.7275857200717113, 575.4637211812569 0.3071747651194713, 806.4581168814501 -0.1501293409615755 M807.4032386046227 0.4720667201987695 C804.7880451213639 155.33342481607494, 804.6195776418763 308.7368497998672, 805.7465717395601 411.26711664220716 M806.3933654480998 0.4290237070102447 C805.4199844126107 143.96041101316015, 805.1168979336466 286.8272880928461, 806.1044878469776 410.2637462054738 M805.590226544713 411.011496735781 C492.7914033415021 413.077137045202, 179.24695254429702 412.8986249249551, -0.30345196500420574 410.7662679922278 M806.5584881587824 410.7678694770183 C595.5734910109115 410.9825009855428, 384.1952493104284 410.5466244849363, 0.3818496514111758 410.96059397910494 M-0.17061768023686466 410.98715441381387 C1.6056737562228451 288.14243065715846, 1.7192046812498056 163.63404610786938, 0.5643143952530634 0.4887335719594124 M0.1361982373542458 410.66742974180835 C1.8124290002318546 270.2185030308392, 1.0414801521844241 129.78404782776363, 0.4663092799295294 0.21731590191622727" stroke="#1864ab" stroke-width="4" fill="none"></path></g><g transform="translate(654.5560213693243 181.59270329713627) rotate(0.1231156796210457 37.5 9.5)"><text x="37.5" y="15" font-family="Cascadia, Segoe UI Emoji" font-size="16px" fill="#1864ab" text-anchor="middle" style="white-space: pre;" direction="ltr">viewport</text></g><g stroke-opacity="0.2" fill-opacity="0.2" transform="translate(374.1385973417782 622.2664948908115) rotate(0 139.8152212078653 60.67845211426828)"><path d="M0 0 C0 0, 0 0, 0 0 M0 0 C0 0, 0 0, 0 0 M-1.0338781505497048 5.647933102448575 C1.92037422708154 5.469908094218251, 2.78669161041033 3.849350175324407, 4.285987499686426 1.0419518027303032 M-0.5358915086509535 6.361124197070591 C1.1201126527729515 4.458451270858773, 2.493665759469062 3.0103274325044533, 4.978836185442752 0.7408619463292174 M1.1301751815806735 11.666368674158631 C3.626486502175528 7.840463431768314, 7.75429467670881 4.493716403484081, 12.226176318478716 1.4556801836088065 M-0.1308241098095072 12.36957397875148 C3.0499306979628567 9.456253788185656, 5.632188139650971 5.535757065064611, 10.728589621883762 -0.5517511513933777 M1.046790755302622 17.796866093669706 C4.2864064255961605 13.8914616972193, 8.644489933170403 10.530624876347751, 16.331153185575683 0.13338626054348257 M0.4986615925514837 19.054050933477157 C5.9111874365864265 12.50086540714161, 10.295189050589691 6.037117400017257, 15.048058847434302 -0.11341016209451649 M-0.05940902026376982 22.22754003451681 C7.382032292844859 18.63635087392879, 13.05676964972902 9.828381195275195, 21.680603757778073 -1.7787864995956895 M-0.3436995044165041 23.241579497880398 C4.596081842977417 18.90850036192319, 8.898682491732393 13.475381132409444, 20.754252189116443 0.3046426348551634 M1.3742645634849922 30.265239458296648 C8.417750217619123 21.359574166098866, 13.529855844882494 16.04055030481924, 24.74674653695187 0.13866143804162157 M0.8753286041831032 30.127547996815494 C9.71550354852013 20.8117777833557, 17.785173696014596 10.69690636538461, 27.07551515628806 0.12868541516482246 M-0.5014395230543336 35.3334164058802 C6.505100828809067 30.06276583327073, 13.653784237076971 21.9528552795089, 31.65865514748434 -0.3615430908963795 M-0.10204392961231079 36.5581074457628 C9.106758810410327 27.205957242486132, 17.10913468586962 16.392667471515637, 32.233359117477036 -0.8262075734079595 M1.3958683155150169 42.08013229313843 C10.863784007154212 32.401199202621086, 19.71808872570697 22.35259471586723, 35.41530772280072 1.1542744451296052 M0.10994773373464284 43.40772917270266 C8.972283255245724 33.47493981916968, 16.844411960678823 22.425292168446298, 36.68736401274924 0.5834465502854904 M-0.8254587873817272 47.57968665161066 C12.316651052609394 34.15383813771078, 25.117822186535506 19.751412463814585, 41.19655913728826 -1.2994403682322258 M-0.9588039657101817 48.874583558783755 C10.10721946966001 35.8403951779691, 22.196899327775725 23.771892207920015, 41.85240058563255 0.8231126590027458 M-1.3761909573573021 52.98715006694506 C16.347134915038193 33.105781387105935, 35.22386531252541 10.783737324944425, 47.17716877437222 0.8477057505574273 M0.42688421558110434 55.22882297676365 C17.69744031015559 35.10053248970597, 35.85130487160193 15.596245361483966, 47.31890815119284 0.7491642588924812 M0.027806189013531935 60.51354082068096 C20.32769415238275 38.332845101384, 38.13635283554482 16.0378109664275, 53.83777275843984 1.6218771371467717 M-0.5722359073256342 61.88150843279104 C14.14832161455464 45.822068078387666, 26.672160819032737 30.54252670308858, 53.57011682795799 -0.39754315228772086 M-1.17951525287247 69.08035782868932 C14.00452194455355 50.6632565746681, 32.16280484857046 32.17163276626578, 56.77891172291638 1.4801858230751002 M0.6913192551069827 68.13289250484625 C19.13681668349326 44.896292541819236, 40.15706783926491 21.762567505301313, 57.20232530599387 0.07725455661080716 M1.6799374373814473 71.5212093818411 C19.19209847561366 51.21637570293251, 39.22619673478431 30.179768005968953, 64.03200304218907 -1.789485106009387 M0.8523379799163351 72.46779808340965 C15.0451277143289 56.928444589487995, 28.423251162570853 40.94683854448289, 63.64212307882835 0.31480350834564064 M0.6227205182005235 77.78344188667563 C24.21005034299379 51.95704301834904, 46.7075850031815 25.93938839335079, 68.87336859968319 -0.09330486856739384 M0.03348614466828792 78.8509971121299 C21.133628547424642 57.51822940805183, 41.621204638949386 33.09563043813566, 68.36666821152731 0.9722584590654506 M-0.3412330110279811 84.58267280384109 C21.938210899968265 61.63595896097095, 40.377771535014105 38.54076026855781, 75.13520701978597 -0.1316716289506985 M0.9064704303907263 84.47549352626459 C21.784165528424033 60.98420840694562, 43.51404270719276 36.39001746393545, 73.62090957261863 -0.7837438434721662 M1.6054143581211733 90.37796728987679 C19.554566110113416 67.97459400373184, 41.19806176878905 44.437739970138246, 78.01962143592266 1.5759641443799666 M0.912316089649515 91.83144989446238 C17.330989222079133 71.84780681705931, 34.7263206906705 52.022666495507664, 79.63786460216818 -0.20815801811856716 M-1.2576821539552583 97.0263711356537 C34.83826074304434 60.83726688374333, 66.84993775107867 19.719785486708048, 85.40959172248051 1.5909230370728267 M-0.6774698505179657 98.45447035720363 C26.456235187865534 67.0053279528251, 52.25673423550758 35.23500661836526, 85.35584154370383 -0.983956692116152 M-1.0942267018605207 104.9845395070428 C29.894004119866008 71.39553501129633, 59.84580584275799 38.245173939836164, 90.68300226288477 -1.4695266693328364 M0.739674324425664 103.22097936746869 C21.13557218702139 78.49162245336483, 42.345066524387306 56.24611679109937, 89.63871721229145 -0.1532038593162639 M1.5830400978306258 110.51036568558337 C33.23569659277965 68.38895107389195, 71.71543122145412 26.74665036448711, 94.02361418152273 -0.0323456391888044 M-0.40206207045373077 109.64360043140621 C31.56773272684401 73.63670708839612, 63.28632285399864 37.851199324337685, 95.99315922645897 -0.12348152196130968 M-1.4327456304945585 117.31751400692364 C24.511784048488874 87.40478397093935, 48.33351787078592 59.763313151755725, 99.23509311181957 -0.5935468409557885 M0.22430108337173493 114.61943904677382 C30.476130097047452 79.70371231784888, 60.25041113864608 44.25961449732459, 99.78890377627218 0.4010369510973746 M-1.2285432534108338 121.5505965026029 C29.72303618672719 90.92937296385581, 56.07950228299445 57.36114729167512, 107.05198142816258 -0.8183721889855846 M0.05881247596792605 121.49900934472015 C30.0198894972924 87.8057018116447, 57.25428491571912 54.60382136747006, 106.975977855259 0.41316018261736787 M6.788036835393115 120.64731961648717 C42.934997711521454 78.10404153428377, 82.2924595348945 33.4775768259387, 111.953726013977 -0.5661159017389039 M5.620283832786782 122.04213080622061 C42.93815254291662 77.18309033109381, 81.30972811967928 33.926791535493905, 111.30497702848531 -0.3283945712526659 M11.95734428741848 120.42669077189792 C48.55803484078616 80.70664362168574, 80.70775675284207 39.1592243245054, 114.8195914646596 1.764408436655252 M9.981150986970121 121.59988482920606 C36.89607262827164 89.0990345816148, 66.41008259911635 58.55800551762431, 116.38822863548847 -0.5507184825323534 M17.42407772705252 119.87581180448336 C43.582533778424995 88.83371015751993, 74.77840028773737 52.67911316313095, 123.0229830006071 -1.5635033829321685 M17.230112807045828 120.99515816143406 C55.483005434981294 76.74990324099494, 94.12485104873781 30.293619897402877, 122.20036470330587 -0.17133241074137118 M19.70284028772045 122.16273224578276 C63.47511330315258 75.96450435145553, 104.91031354246725 26.969883051612356, 128.52576938024475 -0.4228174539618479 M20.443936733079738 121.62924618405327 C57.472747738693975 79.87759194409894, 94.21950468803699 39.05261716639876, 126.57889485950335 -0.0028081622310267562 M25.98911184380956 121.53627268144439 C47.49830215142958 97.79535961878835, 68.06152002441837 70.16606604696244, 134.53319610295983 -1.1682288157855822 M26.404681008599773 121.47542626982133 C54.01082153638383 91.02948920966925, 79.74778253953511 62.14925150346298, 132.28536953510883 -0.004485551743741212 M30.97327677874508 120.30120139300746 C61.44246596543666 86.91006599696279, 94.98862201256577 50.01476199971556, 138.3079131771776 0.33901518813588893 M32.819972448671784 122.14788442488683 C64.98302264761489 83.32962435937392, 99.06266862876473 45.136956160986685, 137.22565773268818 0.786454239369121 M38.15159621691426 119.71805771612026 C78.80292483465053 75.11157466711452, 115.12410624851825 31.52812904395897, 142.48094735228526 -0.36906173154916644 M37.04022867182364 120.89528864700742 C71.11785055861867 81.13323020812302, 105.87359932682526 39.988138347187714, 144.16716925826924 -0.7514379786347973 M40.640235791742356 120.97832868232203 C85.55558895343111 75.10983989346167, 124.49122911273713 25.316460016027364, 149.86572988670807 -1.3919881683015092 M43.27893586812124 121.66971556733174 C74.69006614607805 82.96470900734667, 107.21795334035775 45.59666222073268, 148.9591324894179 0.2450472378931181 M46.486237877616624 120.10427237726097 C76.20636566540797 92.21531553276229, 102.45441768634682 60.18927706706332, 154.76906877983333 -1.5610216614729069 M47.329871031092445 121.12022380861734 C83.01299329155887 80.89383772886828, 117.15833229144312 42.07598940023385, 154.24981660716207 -0.3826486757895253 M51.4815493579623 120.92409458247641 C83.04066867899792 86.7067222765269, 112.73272628480082 53.07327883405267, 157.80517654008622 -1.4639720545240777 M53.78737972580313 121.66178062701294 C76.09756202772611 92.75695627735028, 100.08403246253756 66.05312664390522, 159.70680936406757 0.2540743489659292 M60.47399385716663 121.97177213361653 C94.36735806299117 79.3295701967909, 126.96946827040918 40.32340653821973, 165.20664241685404 1.4546218631931964 M58.763598320781156 121.46883527027609 C98.47961927529511 72.8125008717468, 140.36883816636208 24.737852040772495, 163.7342393161623 -0.9154516275829252 M64.18129950865489 121.46222956222064 C96.62857915870362 86.87635547488107, 126.60600228263911 48.85322064261676, 167.638460168562 -0.13133100178180257 M63.108731756092425 121.54424561955548 C93.69820273996449 87.43455293674089, 121.74111984058871 54.498914268360224, 169.69305359101213 1.1477640882125684 M68.50207118681432 120.19116245393694 C107.39430697652892 75.7626819747991, 147.95257285257432 29.713675079090592, 175.5090002945974 1.4703493111991577 M69.12827577526481 121.71285154760868 C90.17852016515637 95.92259984828239, 112.62279960099046 71.57924373212086, 175.61824011964495 0.5859441816100173 M75.32981827507014 122.51021409030471 C113.86125101049007 72.31742945782307, 157.700558134649 25.743356290746746, 181.78403780338544 -0.05470954132468364 M73.80329469336415 121.69040156058435 C101.96042469593792 89.929317078727, 129.99985227010507 57.803088110476935, 180.43910540462662 0.7134699712580357 M79.86392689780965 123.22679880697218 C112.69315976155522 83.15714608592236, 145.96417138136525 47.643879905774085, 185.29772444431345 -0.12760884870505151 M79.50764362891837 121.07712615624008 C112.45548753031258 83.21018543763253, 144.50945772748702 44.94591633806799, 185.69649675198505 -0.9895452325857264 M83.42368768845805 120.57927863547863 C111.29946909289731 90.60715292371418, 141.0728551497123 57.55447213457097, 189.5666164758066 -0.30100220440272096 M85.2282462719933 122.42666446572454 C115.05117841760192 88.48969354128722, 144.0619122072916 53.768435092969156, 189.76308003928608 -0.8083294862726689 M90.75926802140263 123.13678666147227 C125.60536866754981 80.62006059461999, 160.04234175624663 41.87808452900455, 198.10064689725215 0.640727852230583 M91.28231711611686 121.23963761179532 C130.4232038915486 74.79679649698332, 171.60814696383335 27.670685740242163, 195.56056194755757 0.20012114545485815 M94.86573978006861 122.77440366649239 C118.37074338162964 95.78758008902354, 138.15713909448596 69.04997865208483, 201.21715321707535 1.6566464777340997 M96.53763922635487 121.03257535060106 C117.09858882278027 94.92857978503099, 139.96993622228587 70.13341313067914, 200.7799677293654 0.2759692312454689 M101.63799255985276 122.32769106640997 C128.2040731318339 88.94137014451763, 158.7332216935389 57.73666281897907, 207.35184968466348 0.34908988275606134 M100.47372744224475 122.08619901012214 C137.9376316635308 78.36797999367928, 174.8847572988089 33.57597753043599, 207.5988634407375 -0.04989066864322922 M105.96505658115183 120.794319652096 C137.52143809298968 86.21673353253536, 165.85461601611203 51.15445146163766, 213.87285505844176 -0.061158026164250145 M105.68240129082386 120.74080023083891 C134.78962463474224 90.4880100886873, 162.01793624247108 57.682714118133184, 212.90163370923966 0.1130946394374206 M109.82442560239105 120.53569833008976 C149.41191637291132 78.4466305268669, 190.64773666188773 33.30952355348663, 218.39166483779746 -1.8350422883786024 M111.36835789965806 121.69161970640005 C142.48760209022242 85.61814728240165, 174.05316539225058 49.18031185480551, 217.99670396589983 -0.9912896592549743 M116.9369701229577 120.93150706103944 C157.99440447478423 75.9240752838348, 196.87363539987035 32.15827816883197, 221.57717903115585 -1.7400602473477562 M116.41033519977528 121.73713012206309 C137.92666884586168 96.27611983678922, 159.3700174489053 71.73999790833258, 222.83681821328386 0.3029002539282004 M123.58096515127701 121.35487350148438 C150.54119931058858 86.82667533467989, 182.5369035673745 54.112892926903, 226.46667438790413 -2.1504381924234366 M121.58138969374133 121.84796279647676 C156.03416112193855 80.77774712403232, 191.4147436959981 40.57860430710869, 227.7362612574196 0.07734018924459463 M125.90306243673625 122.07219636207275 C155.8859542039607 87.17840739834779, 182.3492139335623 58.13473469997663, 233.2798321664676 -0.07195471706640433 M127.26611868758413 122.16048103989861 C160.42621383576966 82.5285327488161, 194.1220266951981 44.071861367616094, 233.591136475873 0.8983645903428226 M130.73231823776064 123.21832204934384 C167.3209864031451 78.02604242755169, 206.3534768676003 34.33753518239689, 238.07365133724295 -1.4874077804056611 M131.68093805886951 122.04570679597731 C167.15505038785602 84.31160151323213, 198.86505850196278 45.26116031790883, 238.9405290206813 -0.43475052729674246 M138.89116555373744 121.69636802394588 C158.32451788608842 94.9025158594319, 180.83444584072794 72.60050799624462, 242.83677149562698 1.845014033429777 M138.59130448862538 121.10289399997045 C167.48556006465938 87.76113220657405, 196.28019716659708 55.69967636049343, 243.467078731382 -0.5944088356937414 M144.0094418930919 122.15289944241815 C173.8923059205095 85.0102316387586, 206.27402834648163 49.185560778841364, 247.5837957750449 1.5933602559791922 M143.5319932294176 121.22845522052668 C180.5961198690749 78.88313188423271, 217.6228992103794 35.75368285072662, 248.4975530480409 -0.42931495369951733 M147.83536150521127 121.87775251540886 C186.58248110082928 80.37103674963487, 224.59958709238072 38.96768339286464, 255.010204049884 0.5064514728908023 M149.52432033727405 121.60953501790361 C172.69545798671197 93.39226978011665, 199.06184432763234 63.862731618112946, 255.06401021418594 -0.21619150855647717 M155.0495431485208 121.7792111494573 C186.8040447598042 84.38361221310106, 218.0491365634449 48.78839764484211, 259.3063807035695 1.389055965703875 M153.2964204397606 122.79293658574989 C186.32388091925534 85.93938641852733, 219.0608466190107 48.57755792159081, 259.12407704488294 -0.5908524941159783 M160.57598232240778 123.2838303052117 C188.7578555990915 82.79581234860368, 223.50097477042547 48.88322192496345, 263.4685868604887 -1.9982869299333004 M159.00046896790516 121.67869510932312 C201.5932628821058 76.21561125230447, 241.63576892038984 29.245199970754427, 264.2781711586598 -0.5546299126203564 M164.3960790352974 123.3116126392113 C199.98909226978762 81.81104478706547, 234.72713984776766 39.895649323253195, 268.11298815406684 0.03590981751844424 M164.43295992427355 121.58900440727193 C194.82247619230623 87.53485751761869, 223.69533509023563 54.30683507357712, 270.98977874558244 -0.4054471329210685 M170.85961003657695 123.17583186210435 C209.31367043312252 74.75896124918114, 251.83357296546464 27.70131530303614, 276.7866269586911 0.013904293707383886 M170.7519281148937 121.26179028985392 C207.62394666090069 77.66055315681058, 246.27051693466 33.99067609376762, 275.30267679917864 0.2557544677395356 M175.49875658467164 123.55820938043016 C202.0444824512312 92.76683966424127, 226.14609458084954 58.876702645632164, 280.12539112879625 -0.9813881396043769 M174.69722691733142 120.9196372007178 C206.78929284473114 86.21509976458614, 238.7796930850907 48.38163072650953, 279.4051518555238 0.34865172573293535 M180.33907667896872 121.40873765483687 C215.07027130470476 83.22348177225037, 250.97305365532912 43.798078194638535, 278.54075011482655 8.612266834567919 M180.3077505126146 121.26336157512108 C203.1307295634332 95.40684761011039, 225.03913999961742 67.51102838286434, 279.7229861092028 6.325951370153263 M184.71353282789352 120.92085684186382 C212.21010075023372 92.03015321058021, 241.3951536547548 59.14245353170945, 278.8428452531407 14.226826686204191 M185.1417116533092 121.54093848171247 C212.78687578237466 90.36168671749489, 239.29548860616663 61.017402189398105, 279.94879770321495 13.657544220589813 M192.5734642808332 122.43127815215925 C216.14259325377387 92.52463986228041, 239.0981874800791 63.62292035531949, 282.4302814181261 17.15798700095266 M191.99386389544298 120.54107498074958 C222.13589171288646 86.63190079825762, 251.24731175692068 52.49274249772503, 280.63808238108834 17.91827014980018 M195.30261479621308 121.39516049226236 C223.45874254380888 89.23992474998226, 252.80270547135933 55.89217212606323, 278.69656799320785 26.257391060352617 M197.1157793665819 120.662136765881 C214.46517680296625 100.79977871068527, 235.3187119463006 77.6322024996369, 281.0219044578886 24.573877663933033 M203.02810487342035 121.28593382282142 C221.65996524961332 98.39859349531034, 245.5234021343345 72.73627789677248, 281.6850320737828 29.587162780275023 M201.9330709977538 120.90572152236436 C219.71243818024635 102.03180493511857, 238.42397103722905 79.59605684302272, 279.06806002315324 31.729306840968704 M207.4344595208803 120.57047580037572 C229.53369353316464 96.40926896666095, 251.40612607166105 68.92042308667266, 282.18314138024766 35.62153545159087 M207.26567029152454 120.94558556884833 C226.27527982676705 100.82357876077461, 243.34556641369306 80.62650888710081, 279.98164985391963 37.424068071387566 M212.41852145898963 122.36364471579626 C225.2489520037973 105.81183184974738, 238.83877328864435 90.79266747221217, 281.8168271710277 44.44848048083948 M212.3889905249315 122.87592679581329 C235.2378789123898 94.00347631648201, 260.0455482062668 67.63844239952512, 279.7056523277536 43.927620798838305 M216.1837740331451 121.62990823495394 C240.3798108728915 95.94757787308113, 261.66118691146426 67.86051600575561, 279.7053974455101 49.424240328669 M218.53449966251205 121.50676340623951 C240.79547141319168 95.89403578474332, 263.6836196998263 69.90826948031098, 279.98208662568305 49.487656458578456 M223.33466412677205 122.38497213938813 C242.18985500712128 99.68200564607514, 258.60586068370316 79.52118861534026, 279.2755647121202 56.14850515161875 M223.39029326933212 121.65931265627573 C240.73472216911213 99.88953683296725, 260.8717371147503 77.64833473364479, 280.5722905002739 56.399025119256706 M229.53151536425764 121.35031326474702 C242.42106686820722 105.56301852911854, 254.13839595832204 92.42438900678184, 278.9163591912547 60.11894574055974 M229.16225771391953 120.91427379367953 C238.44448109565474 108.1458043084864, 251.1477146479888 96.37458769446725, 280.31808347856344 62.75201842135344 M234.30455587902713 120.92835614256987 C242.81512310192977 108.20273703046186, 256.06438750879704 97.67260465559679, 282.0734517283104 65.9328422613629 M233.79434793634016 122.68075469959953 C248.17821226935524 105.0094250340133, 261.41226772544707 88.92461360066793, 280.6423397750891 66.72774831784896 M238.36489054546783 120.1022963585049 C254.82212620958583 101.00965695510253, 270.5817589822244 84.00762561365687, 281.34347670671247 72.48871299556752 M239.68580968012193 122.18984524679334 C248.53496715311874 110.04290792391828, 259.4595468999372 98.39530606006011, 280.04956120491676 73.89352581489196 M244.4185287470049 123.41127719409145 C258.1787418596221 104.58774456449599, 273.18166713227043 87.94349650081588, 279.12894525084823 80.64084727882188 M242.91145726033065 121.56354394140966 C258.8803643761997 105.95356092828067, 272.18589417465694 88.24119587025508, 280.18704038657427 79.95114391024005 M250.47735660802567 119.85021298497766 C256.67583105454025 114.77069253690256, 261.426622447574 103.52581261777422, 280.4522729941429 86.17448214266518 M249.93889579549426 121.80833128120601 C260.3513369926962 109.71841481692178, 269.467466469157 98.16919205956839, 281.0651385101275 85.80580423504183 M254.6731647619553 119.84496576270286 C262.84490913118236 112.07948102224927, 269.26043580206573 103.42535617103833, 281.6106932819932 91.46033525296845 M254.84879897567853 121.88409639733109 C259.66672239938407 114.93489931724295, 267.0242860281652 109.00712796061197, 279.1184485401138 92.3143999922777 M260.56862058318114 122.15216861291526 C263.6721586409725 114.80987334437782, 267.70831196314373 110.30449863377734, 282.27058008479594 98.65623365060269 M260.0521312944115 120.6977104125425 C265.9120304197709 114.87554494137572, 270.18696811985205 109.29026834393987, 279.7063681285706 97.58089469742804 M265.97129595512837 122.83440231715413 C268.7807447793249 117.67963012349946, 273.0056838927292 112.60899113655057, 279.56177091097635 104.90874249210712 M265.51042581675887 122.17195308298888 C267.67719636853275 118.11869548052164, 271.4353409267915 114.881982601315, 280.6136725280638 105.25170091914144 M271.8731289457509 121.97394911683718 C272.337349548496 118.14777420739966, 275.3995849012246 116.15848765681244, 279.1992306852684 111.52954764879853 M271.2794041275492 121.28324970085727 C273.8777059926755 118.36081530954986, 276.30729301586047 115.57645963153368, 280.983629023793 110.22174657095768 M276.22734977002466 121.70671207530393 C277.2352415029519 120.41927888280244, 277.58073832388953 119.31928606643855, 280.2068809757306 116.7968568369457 M275.69369117608505 121.47272401603838 C277.04179229794767 120.16108258385577, 278.11478929649155 118.90733388396096, 280.28219832124364 116.64044209645962" stroke="#7950f2" stroke-width="0.5" fill="none"></path><path d="M-1.2410977805657388 0.6040258659765004 C77.44223206330553 1.8228478342442531, 157.6141804899909 1.336884366152849, 280.7634447293293 -1.2076574684846588 M0.5536115191399427 0.20420641190360528 C92.95977462010691 -0.21325763527316288, 186.90865035901663 -0.452752302506778, 280.1776191347952 -0.44265266766343003 M278.8590186828685 -1.3950089756399393 C280.9924930598068 44.29166785168096, 278.0003391172218 90.55922198307901, 278.6962165230823 121.33884021206029 M278.8840359229532 0.21218715328723192 C281.29767639391554 35.99082444743086, 280.1394760405315 73.10196315301248, 278.9757495600668 120.6780684910176 M280.8916365418821 121.02465921792705 C198.68618837104285 120.26227763523231, 116.81558641849803 121.25831376656969, 1.4538043201174269 122.55905564214522 M279.28100167871287 120.6386807909132 C182.34314881070367 121.3798312751093, 86.34030893073168 121.80802271543047, -0.2667321869009733 121.84952288572458 M-1.648742949590087 122.88598456545003 C-0.6096448307082778 73.23668194571421, 2.9439737791969653 26.357587684743038, -1.9281337019056082 -0.9419246856123209 M0.3007001904770732 120.45579874733664 C0.8359277043639126 81.83368676145173, -0.6699575092495975 44.696480972161055, -0.3674376280978322 -0.5817459104582667" stroke="transparent" stroke-width="1" fill="none"></path></g><g><g transform="translate(242.76578385100584 746.1795993802867) rotate(0 439.4516611001163 -1.0593000249210291)"><path d="M-0.3066087450832128 0.48926608823239803 C146.30855699872868 -0.10920228043010705, 732.4968697699853 -2.3197726015652655, 879.2099309453157 -2.6078661380744506" stroke="#5f3dc4" stroke-width="2.5" fill="none" stroke-dasharray="3 6"></path></g></g><g><g transform="translate(315.03201106611596 86.91030690874368) rotate(0 189.1898432175335 -1.3450171982142933)"><path d="M-0.47026064135134216 -0.7514186706393957 C62.611483876987236 -1.1507642039786938, 315.43409725717675 -1.5362500966246748, 378.84994707641863 -1.9386157257891683" stroke="#5f3dc4" stroke-width="2.5" fill="none" stroke-dasharray="3 6"></path></g></g><g transform="translate(477.3630696929358 666.0169585650393) rotate(0 35 12)"><text x="35" y="19" font-family="Cascadia, Segoe UI Emoji" font-size="20px" fill="#5f3dc4" text-anchor="middle" style="white-space: pre;" direction="ltr">offset</text></g><g transform="translate(406.40180667210007 53.04007054420572) rotate(0 111.5 12)"><text x="111.5" y="19" font-family="Cascadia, Segoe UI Emoji" font-size="20px" fill="#5f3dc4" text-anchor="middle" style="white-space: pre;" direction="ltr">top: - offset value</text></g><g transform="translate(656.5413442940007 1098.4286246776278) rotate(0 35 12)"><text x="35" y="19" font-family="Cascadia, Segoe UI Emoji" font-size="20px" fill="#000000" text-anchor="middle" style="white-space: pre;" direction="ltr">fig. 1</text></g><g><g transform="translate(227.46673111895143 876.9808188265638) rotate(0 43.17539254638086 0.04979487396775539)"><path d="M-0.1343623850494624 -1.0066887225955725 C14.013677269936489 -0.8050890650600195, 71.15880914837562 0.9734703931957482, 85.86531933863989 1.106278470531106 M-1.6640413665398956 1.0791957527026534 C12.756741140418635 0.9810029786452652, 73.07878169190579 -0.42188086215406656, 88.01482645930133 -0.43550008121877903" stroke="#087f5b" stroke-width="2" fill="none"></path></g><g transform="translate(227.46673111895143 876.9808188265638) rotate(0 43.17539254638086 0.04979487396775539)"><path d="M58.28776130254626 8.42035941543377 C72.51717745724501 8.125182693095535, 81.02228820349652 0.12101209316842976, 88.64490704560063 -1.8155188276991248 M60.81730897060841 10.215844443499511 C69.72859361416246 5.919804837250058, 80.26123740603974 2.1985531082462018, 88.58772885282866 0.13593787647783762" stroke="#087f5b" stroke-width="2" fill="none"></path></g><g transform="translate(227.46673111895143 876.9808188265638) rotate(0 43.17539254638086 0.04979487396775539)"><path d="M58.00987487962895 -12.098967608662262 C72.32761638192567 -4.567280665185713, 80.93871952651648 -4.744898744986004, 88.64490704560063 -1.8155188276991248 M60.5394225476911 -10.303482580596521 C69.38993543964324 -7.2978646583084625, 80.02143855816647 -3.719274849413549, 88.58772885282866 0.13593787647783762" stroke="#087f5b" stroke-width="2" fill="none"></path></g></g><g transform="translate(41.32957567698031 864.8960448903936) rotate(0 82 12)"><text x="82" y="19" font-family="Cascadia, Segoe UI Emoji" font-size="20px" fill="#087f5b" text-anchor="middle" style="white-space: pre;" direction="ltr">flex container</text></g><g><g transform="translate(259.9477816508661 950.5778932946491) rotate(0 43.239383836255456 -0.31739108565264473)"><path d="M-0.0895244088023901 0.967262699827552 C14.604850204260037 0.9036236669868232, 73.50474408850513 0.39896538518369196, 88.07443112527362 0.3413310673087835 M-1.5956634527631104 0.42947167189791813 C13.048279865262048 -0.07321010498329983, 72.99633247560331 -1.2980009993724524, 87.72372193391777 -1.6020448711328208" stroke="#5c940d" stroke-width="2" fill="none"></path></g><g transform="translate(259.9477816508661 950.5778932946491) rotate(0 43.239383836255456 -0.31739108565264473)"><path d="M61.36407906675833 11.13775416102962 C68.43301445554067 6.745486250376653, 77.0773924220981 4.156880036332593, 89.0969897279457 -0.5923593491874635 M60.6370728483622 9.820585961572391 C65.55332429120526 5.690547108452458, 73.28527339302283 3.853262961449114, 88.71645639873452 -1.3166937018372118" stroke="#5c940d" stroke-width="2" fill="none"></path></g><g transform="translate(259.9477816508661 950.5778932946491) rotate(0 43.239383836255456 -0.31739108565264473)"><path d="M60.93816159187723 -9.379034005991805 C68.25525527140717 -7.77292944730371, 77.02414962422483 -4.363480942091188, 89.0969897279457 -0.5923593491874635 M60.211155373481105 -10.696202205449033 C65.3690760293234 -10.181980935300702, 73.19749181516224 -7.372387135368654, 88.71645639873452 -1.3166937018372118" stroke="#5c940d" stroke-width="2" fill="none"></path></g></g><g transform="translate(85.31062620889497 938.4931193584787) rotate(0 70.5 12)"><text x="70.5" y="19" font-family="Cascadia, Segoe UI Emoji" font-size="20px" fill="#5c940d" text-anchor="middle" style="white-space: pre;" direction="ltr">flex columns</text></g><g transform="translate(10 10) rotate(0 685.2415024580919 576.4633955915542)"><path d="M-0.2059095598757267 -0.2603647612035275 C443.29107246154024 -0.09629187325839794, 887.008442513962 0.02589180727596485, 1371.1029694703448 -0.09100610241293908 M0.0038172412663698197 0.2620531689375639 C521.5110374272747 -5.117111995266346, 1043.4763802481707 -5.419449677513508, 1370.3320861273485 -0.2008558738976717 M1370.8046198991167 -0.12315885052084924 C1374.174369374601 255.84097446997146, 1373.4917757666983 510.57023001336415, 1370.5317658332217 1153.0650175111537 M1370.6921358519273 -0.24060072787106038 C1372.2642867426719 392.1298673296964, 1371.8245790223923 785.037641219173, 1370.255666499682 1152.6740882208737 M1369.9378168967594 1152.95590553453 C899.8521263215716 1149.9630288213361, 427.73443119926486 1150.6714414447415, 0.25664282068610195 1152.5323885219339 M1370.5589748912532 1152.8734577467833 C926.8777354642881 1155.4545977645855, 483.4046430862732 1155.740554302309, 0.22359982021152974 1152.71371261386 M0.7743210814893247 1152.5797157542947 C3.4833048533981996 782.817323744011, 3.810649294812079 412.26072778475276, -0.4421563364565373 0.6714829064905644 M0.3149910975247622 1153.0620598009023 C0.9564883872754344 756.029713510012, 0.7665357634312877 359.9092580119683, -0.14799421541392804 0.17122775427997114" stroke="transparent" stroke-width="2" fill="none"></path></g></svg>