<svg version="1.1" xmlns="http://www.w3.org/2000/svg" viewBox="0 0 1390.4830049161837 1172.9267911831084">
  <!-- svg-source:excalidraw -->
  <defs>
    <style>
      @font-face {
        font-family: "Virgil";
        src: url("https://excalidraw.com/FG_Virgil.woff2");
      }
      @font-face {
        font-family: "Cascadia";
        src: url("https://excalidraw.com/Cascadia.woff2");
      }
    </style>
  </defs>
  <rect x="0" y="0" width="1390.4830049161837" height="1172.9267911831084" fill="#ffffff"></rect><g transform="translate(373.78588268149633 304.9478236273104) rotate(0 139.8152212078653 264.65089796665654)"><path d="M0.9875772855886571 0.8160114267629792 C88.82702155893885 -0.5537883038483808, 179.38259778620835 -0.16501033124911846, 279.7819581277121 0.4262652284546048 M-0.049737327402677056 0.6093819053470263 C59.675526844280114 -0.9739272636970301, 120.33538986022431 -1.3518357228407698, 279.1622023989599 0.6526794801042665 M280.05728844533985 -0.5153047226369382 C278.31188239889667 110.34573609200123, 278.9260066254668 220.5957760826648, 279.3636503828627 529.3835773780116 M279.8743498722029 0.056831384822726254 C281.75451079524476 190.1199308326194, 281.6273206225725 379.75019451076275, 279.6684019127798 529.6446780073562 M279.1207815682449 528.4380841989689 C191.42252612252528 529.6513535818285, 103.09709456219194 528.5187487843455, -1.3695495905551516 528.7560087385574 M278.89523133182195 529.6575498519709 C167.89924196485202 531.4943684222379, 56.53417951845401 531.2795433430286, -0.6972761131247536 528.63312769984 M-0.4399699665606022 529.9115400864848 C-2.6546130958664875 318.71048234219745, -1.790218788729952 108.27972260206037, 0.14376471266150476 0.46644488349556923 M-0.3554859828203917 529.6379192101875 C-0.43243664205405885 333.31528581078226, -0.2745689839157837 137.8390891026612, -0.33204169981181625 0.01510838381946087" stroke="#862e9c" stroke-width="1" fill="none"></path></g><g transform="translate(317.4588110522827 250.21705022595654) rotate(0 372.6137149909123 400.62627745631846)"><path d="M0.42542363181710247 -0.37586855664849284 C264.611901144848 -1.76903471973885, 528.9775877948417 -1.8394792797898145, 745.4496613080765 -0.671650478988886 M0.31769832484424115 -0.3841614436358214 C182.6984046363564 -0.06190412914981708, 365.0568342602465 -0.0508748499177919, 745.5677012889798 -0.36373229734599594 M744.7121252591874 -0.6742664076387883 C746.5435958119741 215.93246970834235, 746.1341365786901 431.7184317459544, 745.3092114265229 801.7246719574136 M745.2842613666471 0.10777677781879902 C745.9222603676188 316.6624798349766, 745.5254353043902 633.4017459567095, 745.5703120558675 801.3131510497583 M744.7771380241181 801.2094644760293 C477.64716883215254 800.1150389833416, 209.49489510527485 799.548477785107, -0.2845435284078121 802.0518951391382 M745.4129005759175 801.3036023856653 C582.1283521118937 798.6890866344847, 418.80470567118516 798.0325858539023, -0.34860696680843833 801.6456601025117 M0.6097441531717778 800.6125726675195 C-0.8205571184632134 484.85792451111735, -0.4429573307511162 168.15823469822107, 0.46644488349556923 0.5609712146222592 M0.33612327687442306 801.4592529179108 C0.33497890784852696 537.053439332304, 0.7647049005281229 271.7931507253347, 0.01510838381946087 -0.30320465080440046" stroke="#087f5b" stroke-width="1" fill="none"></path></g><g transform="translate(348.03535599610495 274.6239121104569) rotate(0 165.42749297752812 368.9934162007686)"><path d="M-0.6407289483230855 0.7652263390319155 C121.3296946727412 -0.08894604248874294, 242.2845663165966 -0.8208568021218635, 329.7100487225287 -0.7505138283652596 M-0.6548655199089931 0.24368872579522421 C118.06924286114783 -1.8839710102105003, 236.5922212004951 -1.211758224037244, 330.2349452301078 -0.20750033669002002 M330.1807195474174 -0.3137631319463253 C332.3698775205608 258.20363160670604, 332.1632276687618 517.9354893885712, 331.3271029998329 738.748700816565 M330.96276273287503 0.09284209124743939 C332.63557747221546 234.95347136777596, 332.69295036411836 470.85779075355737, 330.91558209217754 738.2229673847638 M330.7815313134215 737.9553549851729 C225.41033623672524 735.6789749652811, 119.25123817296127 736.2319674403019, 1.3626051278277933 736.8823364398847 M330.9420046564864 738.1787271698261 C201.6155864841981 739.0338551228575, 70.75764425414111 738.4386220120977, 0.6701115867065096 738.6356617145564 M-0.639982245117426 738.2038783382707 C1.8478722718884548 493.2935422798586, 1.7672249225308498 247.87740559278456, 0.5609712146222592 0.24150103107094767 M0.2066980052739382 737.9062449798071 C2.988005407659895 526.5087668469062, 2.2913980444358653 314.34753253419575, -0.30320465080440046 0.008301020786166192" stroke="#2b8a3e" stroke-width="1" fill="none"></path></g><g transform="translate(701.6080385803734 275.94282011607504) rotate(0 165.42749297752812 367.3362973810796)"><path d="M0.7652263390319155 0.2547388449918302 C121.66059410166659 1.1945964970900271, 241.47853732620928 -0.08499539653537602, 330.10447212669095 0.7933577586386322 M0.24368872579522421 -0.43493428198842904 C97.01953704550657 1.7505221381419853, 194.80345200328856 1.5466144989710064, 330.6474856183662 0.3467668705923033 M330.54122282310993 -0.06014218106865883 C328.23886230146155 259.33399641291686, 329.0438661113904 519.6736939363458, 331.61685437008407 734.822856571836 M330.9478280463037 -0.01941339485347271 C330.96852759259144 265.2377689078226, 331.61539263861573 530.4602149586677, 331.09112093828287 734.7443700961151 M330.82350853869195 734.4212476073184 C241.54935006381427 733.3339379349128, 153.83474974066664 735.9136857178551, -1.104495961652439 735.9290264327758 M331.0468807233451 735.1720254081592 C263.3035427452044 734.3408190073554, 195.15589045843933 735.6306120612606, 0.6488293130191363 734.8933444836101 M0.21704593673348427 734.8970068241783 C-1.6451658713132455 554.8188156649852, -1.773366712263258 375.2384783571104, 0.24150103107094767 -0.1037291742861271 M-0.08058742173016072 735.0371604255714 C-2.1202670288634855 579.2302269837579, -2.45429721599346 424.148737954176, 0.008301020786166192 -0.10142563097178936" stroke="#2b8a3e" stroke-width="1" fill="none"></path></g><g transform="translate(424.8719871793046 495.5353643776301) rotate(0 88 48)"><text x="88" y="19" font-family="Cascadia, Segoe UI Emoji" font-size="20px" fill="#5f3dc4" text-anchor="middle" style="white-space: pre;" direction="ltr"></text><text x="88" y="43" font-family="Cascadia, Segoe UI Emoji" font-size="20px" fill="#5f3dc4" text-anchor="middle" style="white-space: pre;" direction="ltr"></text><text x="88" y="67" font-family="Cascadia, Segoe UI Emoji" font-size="20px" fill="#5f3dc4" text-anchor="middle" style="white-space: pre;" direction="ltr">Become fixed as</text><text x="88" y="91" font-family="Cascadia, Segoe UI Emoji" font-size="20px" fill="#5f3dc4" text-anchor="middle" style="white-space: pre;" direction="ltr">it reached top</text></g><g transform="translate(728.3044044511598 303.5960855655127) rotate(0 139.8152212078653 334.7027422873415)"><path d="M1.249823647811924 0.1515157119816647 C71.17736160495122 -1.6890642448405473, 140.65770184469704 0.49193820410990274, 279.530967760925 1.2187638106940526 M-0.10370576545508108 -0.46824001677051896 C57.68600359408579 0.6708182838987354, 113.83316532441043 1.758686613099508, 280.0398122903445 -0.4942068452340321 M278.9072200505001 -0.26679203286767006 C278.66205005351793 144.87405849994735, 279.3421370238472 288.95414472001823, 280.11825732867544 669.5191473443284 M279.32645944374923 0.037959497049450876 C280.5948145405777 218.918833054949, 280.4880674497612 437.7882491696113, 279.49758780020596 669.1803385958299 M278.46241869466246 668.0359349841278 C196.7016972278143 670.5432854785824, 113.62172881181347 670.4238173010106, -1.4704221678169245 670.1169924119986 M279.6315405894245 668.7082084615582 C191.50403459076082 671.7309386902253, 105.4450369971 671.2253090863446, -0.4219564844253021 669.9902642615388 M0.5946457244455815 669.5492492873445 C-0.260013818774651 522.6957635309033, -0.4849576711992726 374.76037088359305, -0.7109719656407834 0.6722465537488461 M0.34913857094943523 669.0734428748711 C0.5545650047584868 433.68943995621845, 0.5477576417251921 198.4783790083909, 0.0833673607558012 0.22587104327976704" stroke="#862e9c" stroke-width="1" fill="none"></path></g><g stroke-opacity="0.6" fill-opacity="0.6" transform="translate(288.62198934776916 425.8624866675776) rotate(0 403.16580048179867 205.3480353551207)"><path d="M0.07899198755621911 0.22223132625222208 C286.4733154287089 -3.0672574829185724, 574.7553364711799 -2.6788468431556938, 806.966997613286 -0.7683228872716428 M-0.24411468021571636 0.3402713071554899 C270.35288137043005 0.31423010203181967, 541.6366499583073 0.649378305404775, 806.0739486022791 -0.33713320381939416 M805.9655717727302 0.11220123670571339 C806.8098900837645 108.14641693384658, 806.3683161356457 214.87158580025223, 806.4875422454937 410.9918025306805 M806.3836800449757 0.4704220241359179 C806.3053499150911 133.06526053893583, 806.3206873759888 265.3003116494472, 806.0227086792934 410.666511436158 M805.6175928729525 410.41152718183355 C567.0926239540627 407.59309202095, 326.99202255836616 407.47442105670893, 0.3709411881864071 410.79816565629795 M805.9680794163546 410.3474637434329 C542.132928079957 411.0813076259213, 277.2775424448532 410.48070219770244, 0.3048720765858889 410.3760795876827 M0.1972400782930164 411.33601651917337 C0.13739600528343554 276.6760911595676, -0.7745493137210806 141.01802166067284, 0.9222983890756732 0.5671646398964836 M-0.45554941581269803 410.7167988760914 C-2.470169221314216 295.7728725660917, -2.193335574636403 180.94127406791353, 0.30988704693843644 -0.24540306907909756" stroke="#1864ab" stroke-width="4" fill="none"></path></g><g stroke-opacity="0.2" fill-opacity="0.2" transform="translate(370.6825376631832 307.8570171154721) rotate(0 139.8152212078653 60.67845211426828)"><path d="M0 0 C0 0, 0 0, 0 0 M0 0 C0 0, 0 0, 0 0 M-0.6959728702576706 6.27371807922899 C1.322096906958837 4.046487633783499, 2.3969906152316973 3.2363470967965458, 5.563292451533026 0.22928238993857442 M-0.19759525839703773 6.659420203839533 C1.2646993084775726 4.603454329035682, 3.0792262246857116 2.743226052500596, 5.0006235941820805 0.4408692024496608 M1.3521228843461381 11.703928865909159 C1.9288318224334562 9.682685181346567, 7.324437673090939 3.2654071522743777, 9.716800683689248 0.9844132612541081 M-0.09709617038260832 11.650938054591 C3.530441104937565 8.01756200329143, 5.56720994604868 5.423434121891994, 10.904307507676018 -0.07368607343288647 M-0.5279428186407547 19.83251827294069 C3.045554494598917 14.672885937520999, 4.902300414264825 9.295307221901561, 15.920310331046064 0.3379552612942627 M-0.5849084612494568 18.043983908277625 C3.9270903502160692 13.268772187742336, 9.67309743966751 7.301556092918597, 14.94526945473947 0.13981506572337654 M0.910368127953193 22.34026161552882 C3.4919690868228583 17.786647121451292, 8.264995556650264 11.569493831810542, 22.682233508953715 -0.1090675001800534 M0.34366222212084274 24.879481182149707 C9.14794710628527 15.047111747168014, 15.188998524555064 6.401210015801336, 20.366862121315563 0.5986798186018589 M-0.0527813368896588 29.33258247352039 C6.403741632034594 22.874227757241147, 9.78475638283006 18.924635581227662, 26.33365086526832 1.5974936014053167 M0.990110529637839 30.765871622365168 C7.293379375979576 21.594884087822557, 15.356189644855275 12.224724777933758, 26.570327773366483 0.2285244077455939 M1.2508138119149486 38.354148708098876 C13.130261025143884 22.839966112336125, 22.985001719033583 10.144865814047456, 31.220310829064644 0.31986247201107787 M-1.0400111015048346 35.94475302174811 C8.234574658892667 26.204887086243417, 17.633889786452798 17.184490630757814, 31.072160689576364 -1.0355207667440887 M1.151467974451279 40.631268805447746 C9.520544821361252 32.76701527670386, 19.0657480098041 20.96872726639566, 37.163335088455426 0.18324196348902788 M0.16842007838646111 41.92627786062263 C13.953176353332244 25.457262006456162, 29.741522848660455 10.171703308619911, 36.355439345167326 0.24781770362523403 M-1.3890721611679382 49.39852061741881 C16.77002648873791 29.283713774017908, 32.80274905044072 9.027266085064639, 43.64519082251542 0.6006372317998654 M-1.0968299554661698 48.222032047481164 C16.21010788386718 29.343496465571516, 32.092877497123425 12.055475063314752, 42.14954864382349 0.4570295939548856 M-1.2477144158679394 54.67828429997276 C11.655666720074795 39.50841817705832, 27.060157922865752 24.393893850294425, 49.49871846935737 0.37303237879539 M-0.5516887993785886 54.53081785742502 C15.884007993316343 38.265926569918676, 29.68199309954956 20.894830323504486, 48.212957685766995 -0.5857523122627093 M0.5490066484640153 59.3809189549614 C20.252847862047922 39.409445256708565, 40.04682598893906 14.444711584956089, 53.093103958056034 -0.28578618956369084 M0.8670001468713195 61.24508057394664 C10.526921671595654 48.056007555097395, 22.580132157393987 34.92673468215197, 52.61294199968195 -0.1836788649262182 M0.35484293191218086 66.08429556856821 C11.97335154589215 52.43478538370052, 23.703674632848287 36.22092148729544, 60.02290647672416 0.3509468785744154 M0.6251408829771847 67.63669142737011 C14.973641512556995 50.119154995549536, 30.408133884572763 32.116680482118056, 58.50836131079049 -0.25875790554322364 M-1.1268442904391875 73.36042575197665 C22.264883110187313 48.86185408858358, 41.34792581810744 24.452030420127187, 63.294030704436494 -0.4522007608295908 M0.654457721132637 72.58982633551953 C13.521921427687152 56.409002728855704, 28.134258003497283 39.93349482302037, 64.42938177277674 0.07921909098759983 M-1.87376145547735 78.10209048203853 C23.486762272901647 51.30548245127677, 50.48098133972771 21.682373209768414, 67.01275457930579 -1.7926825059239135 M0.41556819905979125 80.33384464438734 C24.715670464747422 50.817740295437076, 51.027985283626414 20.57389083757476, 69.06025373586282 1.0391036581586732 M-1.0147695091275466 84.30237303971455 C24.161573746541418 54.16822830212486, 48.78647541673093 28.036261273335306, 74.5717015304068 -1.105149450747831 M-0.4783537170572174 85.62907206657485 C27.504534923272494 55.34246069576915, 52.36573104886445 24.327088469289336, 73.51903397873285 -0.4205363039286567 M-1.1408561382770372 93.15483565185652 C24.158220298687986 61.59680871915541, 45.96936982749007 37.727829998200804, 80.33886824585227 1.9387262565504244 M-0.4787998644962741 91.2732273230745 C29.221842128768916 57.005885962687735, 57.016539293122996 25.66914111823351, 80.14036347660897 -0.08498988678199737 M1.224777432158433 99.83305242964789 C31.161051563690407 65.63659521177213, 58.922691753291254 33.21007927706536, 85.84359690471695 -0.544925228068422 M0.5217353189362512 97.28720508171037 C28.462814557377772 66.21194204284589, 57.46425742003843 31.97132314010237, 84.75518963317529 -1.0523298152999985 M0.5960393522631193 103.81723810927215 C27.533970510769876 75.0437045819871, 50.2545934492757 47.487218201914175, 91.46560294511357 -0.5519948027525885 M0.2528277079339887 102.64795469780657 C29.376488569430755 68.57294195499904, 61.07360496242217 34.748208270750865, 89.47354404865393 0.7730141940097468 M1.4932700601497615 109.2208767925811 C31.12599624203571 73.5696303994016, 60.46716098841554 37.79745335416095, 96.62094729611695 -0.1655710615413568 M0.12919640271905308 110.02135895485551 C36.545720210535286 68.17448834675761, 72.85677551945724 26.406344070210068, 94.96426475172908 0.11132879124858164 M1.9731554848931196 115.57025488553545 C28.51004112188476 84.39594447569232, 58.40195594487543 47.78672859565654, 99.45106414583975 0.544236347417062 M0.8743669319755796 115.94801700295857 C41.47612255565021 70.07659052566517, 81.16059333494033 23.0210278812865, 101.23777396762276 0.81404363490892 M1.3177548146059337 121.90463773998698 C29.02130186824796 84.69205971093704, 60.544943657376386 50.68518868905329, 105.00873317335677 1.5451200800833718 M-0.696550979074317 121.34967100060811 C30.00167622754853 89.57179265178024, 58.392160533822015 55.324064449191184, 105.92580035001916 -0.7051952499079093 M5.468944960287018 122.76341637011423 C44.358362502448315 77.9579535178567, 79.53032288464249 34.926907542865436, 112.94710731678076 -1.0572482616906385 M5.851331055177553 120.92260283112331 C48.35687104629817 73.60089604015494, 87.87036526051222 27.2534040549138, 111.0641567491404 -0.9640988297094921 M10.972031628125066 122.39931401955117 C44.485308847949156 83.55587059458398, 81.17201077159395 45.284609321766894, 117.04962597619595 -0.2396851917214704 M11.610041153029258 121.75709066977878 C40.84364173532815 86.99941743253993, 70.8773954327184 52.9065609182755, 116.71640341468009 0.7740478758282947 M16.907138247194837 122.6901795942585 C42.50381979470767 89.67073928079635, 71.73242814211338 59.96047786514868, 120.19933792668661 -1.7348665988256755 M16.35388609316493 120.65545241667581 C56.17055173193387 75.86972556349855, 95.9776876129253 30.471187727722167, 121.03692090883186 -0.7667354654704752 M19.329761505609042 121.27684094608799 C55.953853860744914 80.92484427900769, 89.42426097561577 41.17246643647806, 127.34822423136546 2.2953009938485636 M22.07375685080666 122.67614898030683 C47.918144338020284 90.80866024695742, 74.3055836870937 60.02415894787665, 127.33398301931783 0.8577542423866404 M27.456743582442478 121.5879282310004 C50.76830487220567 93.38298369699086, 75.13249164685229 64.90026822746262, 131.0471114443073 -1.9607866327380492 M27.256850829638616 120.56485763577322 C64.81975042969172 77.46336778155839, 103.18058244152284 33.03488563732563, 132.69341996232214 -1.0023135379990293 M31.35529991580787 120.94005055084747 C62.555840850765605 89.14340817140818, 92.21537154649727 55.43747556667826, 137.13469937862484 0.13574524826624668 M31.669449629882898 121.26089866656733 C65.40699590332991 83.05545019924256, 98.57813589189223 44.908602182519246, 137.76139615056692 -0.584376335635099 M38.12899143477996 120.56261931158997 C62.07612226395653 92.4785387142499, 83.55911462946821 64.9624754074976, 142.92353333839284 -0.30092633217778086 M36.63664128022363 121.32830872279055 C77.3505090224314 76.8088968813816, 116.85980761571918 30.45623542685918, 144.02413242523627 0.7175946870798242 M43.606752327471526 121.69802486507965 C81.53379485079495 79.97586554306685, 116.39002397373406 35.640568243320175, 146.88903188672404 -1.5811453972183926 M41.82509800588295 121.46226746293527 C79.91089491248579 77.68179843119108, 118.42483833068403 32.74031057890792, 147.59068382405232 -0.14047862386189536 M48.528862272957305 119.62645986727719 C78.33304847883798 88.90368607410771, 105.60852593536598 55.41988374219963, 154.85545907769324 0.5850463341051437 M47.52279846054498 121.9201709121028 C87.63936967047057 77.88836214920558, 125.29982805576758 30.84549813351363, 154.47266181319924 0.5782919441410996 M54.23597420935004 119.76609592003445 C76.77605131003682 92.93784519602929, 103.1308387810648 65.4176926223782, 157.6849522244131 -0.8119139113553899 M53.421805494431844 121.02805810378561 C76.05321281862572 95.95070060287117, 95.39008184895559 73.1396490276787, 158.36701205539907 0.898187612081216 M58.85508656572448 119.69790692931207 C93.50902891132012 80.03668637003625, 129.16472856372792 40.622238427570025, 165.46349413095845 -0.05628660263927543 M58.89798838622765 120.61168443808498 C94.89166699576008 79.91919861884705, 130.74965828368244 38.441044595338084, 163.935736641836 -0.43804403244020307 M64.98857103019338 121.2658457469619 C104.76400419608302 72.39184135915397, 147.21877839615212 27.61463824027092, 169.189940860442 -0.606853262894731 M63.79380061115455 122.50294832349337 C103.88654613682377 73.70752412176572, 144.3023672448615 28.07089640826159, 168.58867186023213 -0.46276239343075076 M67.90014478183151 120.60166752894462 C91.86054505055961 98.34489861910419, 113.05931650986098 73.80418933191123, 174.9619939669385 0.9279068888389759 M68.69800207289667 121.97096453511209 C111.8381717828858 73.70969816018791, 152.18205649098857 25.814002298139158, 175.7632104267716 0.4476394917109303 M75.20389825875158 120.22510637711201 C118.22383218437018 75.0549707584102, 157.12151710533772 26.35880519113182, 181.66522826356072 0.8899935794135843 M73.7284368716761 122.22849085643355 C109.86066068659146 77.73937340284594, 147.5537925435293 35.06727143910007, 180.7070792541765 0.07916159397720435 M79.05026739002838 123.06869869742481 C105.94387916842312 92.48518502074975, 131.0225920204502 65.12992606349312, 187.15906405438344 0.5967088397898692 M80.811755536177 121.8630014375591 C109.85808096276074 87.6818152103371, 139.60376268867722 52.64518231457603, 185.75806168363104 -1.1887297490305286 M83.81506136377462 120.57795984173478 C124.64016628018054 74.79286402975337, 163.94536417685072 29.590731915885016, 189.96579490251935 0.4408336468195557 M84.46619279162147 121.34311343698116 C121.14504189432856 81.19070446179887, 156.11106026770682 41.780886680732706, 190.12677525285727 1.1233248086800813 M90.28543485906509 122.73620746600265 C115.49131846784056 96.91931323770393, 138.3717157076931 68.96764690892914, 195.4565598620432 -0.08454871853658119 M90.08128979169366 120.44966037980105 C121.39672364087356 85.02004392942335, 151.53615803617922 49.51653828567346, 197.17639392803932 0.025650979710434285 M95.3489158140125 122.1647381720802 C119.9780540937587 94.80831878338044, 144.09427483519966 66.61016644078052, 201.54037124606776 -0.28587602942680235 M94.70067188661567 120.78211879951118 C121.65592318326281 92.82860631575741, 147.35445179348264 62.90709659397612, 202.2054258718993 0.5659674850528944 M99.52331862870113 120.90236044615092 C134.09331002410926 83.34818823670557, 165.96108446143768 45.73023675615761, 208.8500868586678 -2.2442837548903753 M100.64571182608114 121.94439117643567 C135.8125938851452 83.59827959084849, 168.00712675540893 44.95641964585961, 207.7274356756214 0.2604594123088191 M105.92606707821523 122.73202339939829 C147.67050102024302 77.79017675952271, 185.32034474182865 28.867525358907244, 210.43143776295602 -0.7154284180755184 M105.5786026722837 122.27768467839863 C142.6393858131564 78.71834676896506, 179.59877975722304 36.80427363448328, 211.25382212692767 0.6002048574706151 M113.24351722566752 123.5074455086741 C141.14394603575334 85.08421230636075, 173.35393552717935 52.265137698859576, 217.92900051300722 0.895335761978501 M111.56543071294544 122.59338990139247 C133.41558433893806 97.17379134821266, 155.36949900961176 73.22496408281975, 218.5735404420023 -0.51775171686036 M117.2608706251328 119.93264755493902 C157.82546201093396 74.33186190212461, 199.4925462651782 28.644795527671292, 223.27522492193415 0.6331335121234218 M117.69983866425055 121.3588638080185 C140.69838727024546 93.15112359345767, 163.93236241129256 66.08062609087821, 223.5358800335674 0.7160271603082577 M120.55120208972377 123.66212926504491 C152.17695432394325 88.02616397179246, 182.38487163321528 54.29099913064512, 228.87640629381153 -1.9816081366799807 M121.8858034389211 122.20385636926918 C143.689232702814 95.49777729614732, 166.89261714872208 69.87990482018652, 227.33018674280706 0.4544453265778685 M126.66143192351522 121.32569266995243 C169.73950919529486 74.51284228516501, 207.5486516038933 28.374632371317745, 233.30171319175213 0.14701679242003252 M128.11735837814126 122.3515839227458 C151.58576949597173 94.88799623533637, 174.44828735399312 69.57576616722947, 232.26864060744344 0.7002996279408364 M133.80135368961987 120.62861874651338 C161.22121734219178 90.30636712500399, 193.6152084947438 56.049901319249486, 236.81310064084016 -1.5300738393930402 M132.2613710196331 122.1251558144408 C167.20597580851216 80.36251562972481, 203.2961401409227 40.54015993610973, 238.40991906467013 0.49206285722128484 M137.02960644211248 122.37649077568848 C163.89913676279954 95.63724288351477, 184.4335843679467 69.73639082606803, 242.33463304115992 -0.8803215459357148 M137.33726532958076 121.37864775695552 C173.80112242860508 82.42516721549754, 209.65322103696778 41.285058041233, 244.6222698641808 -0.3632375052566772 M141.9427024941058 122.57537098432951 C184.0814667823094 77.01829117025363, 226.30031226128105 29.43327428897348, 250.42180708082412 -0.7628984753562094 M143.29979947070638 121.00352847128235 C166.80227134015752 96.90517573190913, 188.44777567536636 73.09213305073831, 248.64658398119752 -0.5571405510006429 M146.86099964967457 120.45662390339719 C185.11912638445014 82.27021265538045, 217.30073830088122 44.335074248283775, 254.79146493890755 1.7508255283061942 M148.31878803419409 121.35973304502265 C189.7985816424666 74.01192299807026, 232.23775677117095 26.22673449106304, 254.72005881940447 0.906030995090731 M152.51772897193155 120.5770930097433 C195.59132662329563 74.70371784505949, 233.7003789464656 30.522540523073047, 258.01082205352293 -0.5225404330967365 M154.561879807766 121.78208957416882 C192.93472627911098 76.46287947344669, 233.12118083334536 29.63248516799746, 260.35897597902374 1.215597416509837 M160.24496701495153 120.84392408432856 C184.88920928741098 95.33152305607933, 205.42038385323607 69.05729655204144, 263.68343935374503 1.1464150463957878 M159.47428000760627 121.01139252132222 C187.8895618723288 89.47943644903009, 216.66679935151012 55.81822662922593, 264.6384234887395 -0.8144046366419104 M165.66266359184718 122.61474185400475 C203.51536610693316 74.86134278142947, 243.66794064587413 29.181930636155997, 268.13825102768664 -0.4999176813645647 M163.56152804643696 122.70082935747523 C189.63427808252123 93.82075374849327, 213.68559107262828 64.25193769334467, 270.97507357377384 -0.23879550587221843 M168.86461400669333 122.72247334973257 C192.15250491386888 96.58781096774146, 218.52146307610903 67.99951303186155, 276.6155367544224 1.3186540395829809 M169.66921976544228 121.84705392022919 C194.85499599286385 93.16948870801718, 219.4794551365356 64.35241304961835, 275.40690488781087 -0.5501791660796869 M176.10748682260265 123.57552454836386 C210.4000227652656 81.76408864784611, 243.28108180556643 42.09576507639446, 278.2998904430746 0.2750113913130292 M174.76578520234426 122.29661305557656 C207.0272765681683 87.6118970117435, 237.24060508536422 52.340099911788, 280.7199212520822 1.5821929964509138 M181.99679609364992 121.18260373085926 C218.13034874375148 79.65501102264204, 255.23147654781718 35.656748583592204, 279.881956348775 5.978385761122837 M181.22221082332706 121.1770199761186 C204.1653593703111 97.1972312127406, 226.24401822858766 70.84290393273209, 280.103637771329 6.762333863157465 M187.17592913294794 123.2528981240706 C218.73640025572996 84.68817751514757, 248.92814364972705 47.72667887078681, 281.0565193625698 14.489762939304825 M186.59481729111286 122.40318090284778 C213.5562093668671 91.6367368205707, 240.88573014031152 59.373452336992365, 279.74292112370676 13.789174780973013 M192.5121187445714 121.22089725895862 C216.41570554159705 93.98829828374579, 239.22903625119835 65.4459816513743, 281.58729666353395 17.44089808181971 M190.90498169688573 121.10846842336545 C223.4076606090487 85.19699231478731, 254.57070032580347 49.126506316982656, 279.9765312128999 18.1818305249989 M196.7854709916331 120.34656961237502 C226.29995003192937 84.37093048039358, 259.0401847923025 50.78005413051437, 281.5883786897799 24.85152529051929 M196.42191532836782 121.15114813366395 C222.4817433187491 91.26499492199149, 247.95052986632427 62.98440712512343, 280.6723121391302 25.40305887872755 M202.87493742820774 119.74018596528057 C218.88817140141953 102.43559019945066, 237.182628473938 80.69178765062219, 281.05414234139215 31.90889055158702 M202.94238590174322 121.54545199634467 C220.25147006028342 99.18889722189435, 239.63954565543628 78.8574141190074, 280.85085540209155 31.04504357248304 M207.4473428674081 122.46249604452707 C229.66619475045425 95.03870744005475, 250.2439056072915 70.89747033782109, 278.82857389345486 35.2943804762064 M207.5734953297341 121.96800498240002 C224.1572607059292 100.80643439104722, 242.4516481283897 80.84349481240605, 280.7485728139775 37.56227302408949 M210.4872985843184 120.30426146129801 C232.79738029756055 96.31596430174808, 256.7115318293617 71.73213591629153, 281.57459190908077 43.510151041229236 M211.35634292453403 121.94360800965413 C227.88281809139292 102.52461260255852, 245.11391624445884 83.6088841730941, 280.8807694125101 44.004419079539346 M216.2665252290229 120.11288445177681 C235.40602720681346 104.18132680296782, 254.04714083165317 81.10801057053341, 281.3039604423446 49.65866052761619 M218.32909831083666 122.57811668343103 C238.29479310587448 97.64854944999715, 260.07263521278367 73.66034184639028, 280.66530666387354 49.202119951433886 M224.3131757396344 120.1190366178153 C232.88756614404792 106.4695993837614, 247.54553395105577 94.98046894919167, 281.06631680635917 53.54284616221908 M223.59007433886416 121.2913200372232 C236.94755077633178 105.20557793696588, 250.64434274295957 90.13979533357568, 280.20538023078996 55.27340686076555 M228.9417485452276 120.7161918653742 C247.80804140503227 97.11448867244575, 267.6939952192595 77.59859429540387, 280.4790847762087 62.44565705622141 M228.9213902873006 122.00272347113197 C240.50412547121465 106.4133166734198, 253.99870487452404 91.77425842694055, 280.91318317545296 62.80948697535847 M234.94211533391524 120.56080304630527 C244.48825525069805 107.79039969589381, 253.94188143426894 94.70022206575604, 280.69679750197747 69.4566829458066 M233.5717496313681 121.63797539364973 C245.85408720569566 106.35885922204267, 258.10299690420027 91.62621364331066, 280.5729788725562 66.6076221505367 M237.76549328477213 122.59712531656922 C252.20862751516938 103.59176641358675, 268.77976150971597 88.35163320655647, 279.3804204217782 73.79878293282648 M238.53616227475086 121.5599405798778 C253.39016997681574 102.66534232220693, 269.1083526250868 84.97265539937285, 279.4041739223217 74.40400766979268 M243.21347283591095 122.1573927780179 C254.00667337118307 108.58158725167287, 266.9594593158017 92.14461445379408, 282.2272644646856 79.60761842324179 M243.3387223176709 122.07512681330867 C251.69251358458047 112.42791837241676, 261.27120394012485 100.27630260637441, 279.6849813534337 79.05955518322777 M247.62398991640652 120.98664183661192 C257.7912244299157 114.45229077780738, 265.1988945793889 104.75726284469769, 278.6600138188125 84.03182976890425 M250.31233028881246 121.86475824404359 C260.14984712160685 110.04770064439373, 269.4008709951209 98.75339868686855, 280.5351983911143 85.06631934933434 M253.56035371437147 123.34288784420315 C263.86350128596035 110.96301169271104, 270.92093000910046 100.49405637741509, 281.35663913424304 92.01256920599737 M255.38147091339752 122.49120203057501 C261.9662231025788 113.28131771353229, 267.73559259288027 105.1446226415809, 279.53986966005704 92.7332807734365 M261.9972189088807 122.02194845675228 C269.1795014701423 111.37530217157892, 275.2794894539352 101.75257283977628, 281.2197204360616 96.61012959570466 M260.34193534511036 121.82904169800429 C265.100385983904 114.80700350011362, 270.343720716006 108.83296231480864, 280.81236009745567 98.91922474835842 M264.00961343804687 122.45762027611109 C269.89172989118657 117.59105672806419, 271.5819114604987 112.38916348193807, 280.3457700373809 105.33057316487786 M265.643598934173 122.5715037798238 C269.99543861933176 116.04405703316353, 274.8155855032633 109.46586996628312, 280.05742786603224 104.76561999509242 M269.4088323673213 120.91381173971662 C272.8952784328718 119.37027475212814, 274.6545801581044 114.42038355677293, 281.31622998453383 109.2027224910593 M270.6922569135649 121.60008346563758 C275.0393548975133 116.77675301121735, 277.66314613828354 112.13706217603354, 281.0460363455553 110.68557535863094 M275.8982983612942 122.46616124788268 C276.4230739148052 120.32344012172271, 278.98583223058597 119.01666916987112, 280.9480943415611 116.10723884009657 M276.01729045827153 121.43367443953609 C277.5743403878446 119.63199065884164, 278.86171119559947 117.94049575906179, 280.2695526120084 116.6194116030996" stroke="#7950f2" stroke-width="0.5" fill="none"></path><path d="M-1.288302822541336 -0.844490908296156 C107.55736649113443 -0.6954583269013718, 214.54809754014468 -2.069715285874179, 280.1788478031077 -0.9787908842281545 M-0.6976803560472785 -0.2334829035526196 C80.4996607342085 -1.4157206431581155, 159.724738676876 -2.4717507549640345, 279.3295255392142 -0.057679808210058164 M280.8107350276721 1.904671037569642 C279.60138375015185 26.655605136774568, 279.50988615007327 51.41101959791797, 280.0946528719676 121.2598372542692 M279.7819327585337 0.5903374580666423 C279.92504692681996 26.852326625293816, 279.1827436447975 54.31506328245019, 279.60736055895063 121.17259561302342 M281.16366885148403 120.11410661094042 C218.4399621677438 119.12338848704778, 155.13347324070918 120.78964049685325, 0.431846505806676 122.48083992147434 M280.3844633559577 122.08697799289902 C195.94967699275864 119.06514780455687, 112.35690858394945 118.87332453406984, 0.20815952765776488 121.57212829369823 M1.4024280365556479 121.96065680621393 C-0.477408441539134 74.15185751694224, 1.4625308785482989 31.535160659921516, -0.40293710865080357 1.8228283170610666 M-0.7580116270110011 121.37765678050198 C0.7538247416691033 74.56565733256541, 1.5720664272979943 26.910399026901786, 0.43459795136004686 0.4777101008221507" stroke="transparent" stroke-width="1" fill="none"></path></g><g><g stroke-opacity="0.6" fill-opacity="0.6" transform="translate(282.5815405533913 307.60116568613887) rotate(0 189.68601715962268 -1.3326586161944647)"><path d="M0.6709555294364691 -0.3056385722011328 C63.823666768356105 -0.6704149374496107, 315.3969160585798 -1.9098875702078961, 378.701078789809 -2.3596786601878192" stroke="#5f3dc4" stroke-width="2.5" fill="none" stroke-dasharray="3 6"></path></g></g><g transform="translate(109.27086274623343 293.861820408924) rotate(0 76 12)"><text x="76" y="19" font-family="Cascadia, Segoe UI Emoji" font-size="20px" fill="#5f3dc4" text-anchor="middle" style="white-space: pre;" direction="ltr">top: - offset</text></g><g><g transform="translate(204.54560232956737 836.2231485339232) rotate(0 83.73365880313031 -0.4669167067855682)"><path d="M1.0961892988532782 -1.046355053409934 C28.660009940423922 -0.8971666660159825, 138.66916183758954 -0.07394206188619137, 166.37112830740725 0.11252163983881469" stroke="#5f3dc4" stroke-width="2.5" fill="none" stroke-dasharray="12 8"></path></g><g transform="translate(204.54560232956737 836.2231485339232) rotate(0 83.73365880313031 -0.4669167067855682)"><path d="M136.36401911265497 9.163994249299362 C149.1675242827051 6.621013247926655, 159.9071390871024 1.1068075561443198, 167.75076644842838 0.6252268709242343" stroke="#5f3dc4" stroke-width="2.5" fill="none"></path></g><g transform="translate(204.54560232956737 836.2231485339232) rotate(0 83.73365880313031 -0.4669167067855682)"><path d="M136.5102617866273 -11.356693250542085 C149.12402044720685 -6.052245849158071, 159.80771931088185 -3.7203590519690524, 167.75076644842838 0.6252268709242343" stroke="#5f3dc4" stroke-width="2.5" fill="none"></path></g></g><g transform="translate(34.56318045456919 816.7768594714223) rotate(0 88 24)"><text x="88" y="19" font-family="Cascadia, Segoe UI Emoji" font-size="20px" fill="#5f3dc4" text-anchor="middle" style="white-space: pre;" direction="ltr">Aligned to</text><text x="88" y="43" font-family="Cascadia, Segoe UI Emoji" font-size="20px" fill="#5f3dc4" text-anchor="middle" style="white-space: pre;" direction="ltr">viewport bottom</text></g><g transform="translate(655.1031542150231 1100.5995980415864) rotate(0 35 12)"><text x="35" y="19" font-family="Cascadia, Segoe UI Emoji" font-size="20px" fill="#000000" text-anchor="middle" style="white-space: pre;" direction="ltr">fig. 2</text></g><g transform="translate(10 10) rotate(0 685.2415024580919 576.4633955915542)"><path d="M0.10918060317635536 -0.14310407415032386 C379.5510447211623 1.821601289578112, 760.2080066479862 0.6092850864607414, 1370.7199548226822 -0.5910634256899358 M-0.27321084626019004 -0.16075982563197613 C407.2320643489196 1.7499519880450065, 814.4396966455399 2.148286717716485, 1370.399222673573 -0.2526330780237913 M1370.5295012933243 -0.37337906137108806 C1367.0605723740296 445.9904905360795, 1366.1754799009993 892.873478633286, 1370.1012502414214 1152.4468857230786 M1370.6519094602245 0.3912453819066286 C1368.9953075549317 242.2452854332979, 1369.07793729517 485.49011413520185, 1370.4130433098453 1152.6100916115734 M1369.855712483548 1152.893775409663 C1029.4769757884344 1154.2764974329314, 688.8961982302836 1154.1035138103803, 0.524007449299097 1152.8903762998227 M1370.2189069763797 1152.655138894746 C853.483053590794 1150.1120553492424, 336.5655485175863 1149.9384166597242, -0.2859585512429476 1152.6215641347858 M0.7567839004099369 1152.4424478711728 C-0.4900075494220786 811.168614821253, 0.2249472797939248 469.1552576929639, -0.6728877447545529 0.6356729529798031 M-0.3670547235757113 1153.2282294599506 C-2.3680701105681425 840.7065184519481, -2.9661647050467495 527.8787455085208, -0.38481262810528283 -0.09037127010524273" stroke="transparent" stroke-width="2" fill="none"></path></g></svg>