<svg version="1.1" xmlns="http://www.w3.org/2000/svg" viewBox="0 0 1390.4830049161837 1172.9267911831084">
  <!-- svg-source:excalidraw -->
  <defs>
    <style>
      @font-face {
        font-family: "Virgil";
        src: url("https://excalidraw.com/FG_Virgil.woff2");
      }
      @font-face {
        font-family: "Cascadia";
        src: url("https://excalidraw.com/Cascadia.woff2");
      }
    </style>
  </defs>
  <rect x="0" y="0" width="1390.4830049161837" height="1172.9267911831084" fill="#ffffff"></rect><g transform="translate(364.3851597582152 235.02608243541454) rotate(0 139.8152212078653 264.65089796665654)"><path d="M0.9452719826949155 -0.4289615303484455 C111.40154880560398 -0.9837049979134312, 223.83885091694142 -0.29547427677985794, 280.5653399962318 -0.9673517773119616 M-0.21736328542662678 0.5128522513521281 C75.668695661801 -1.9973348107490732, 151.20026143927723 -2.0346592670222656, 279.16260169574304 -0.021260941315262842 M280.2875189749462 -0.6574100948870183 C278.7604536690814 178.17106758887996, 278.7149936118228 357.6427604520903, 279.13675892035786 529.1057908057342 M279.5904586555374 0.343911724165082 C280.4453140972641 121.82012134523208, 280.12815326438215 243.25651658946802, 279.6791739107979 529.6197943355063 M280.73411936222084 530.3999111926503 C216.28412996992785 529.9083496344904, 153.61745392016655 529.9011261274111, 1.120922860992664 528.1138254312814 M279.5563984406044 528.9568408616278 C205.3860348420589 527.8662894497394, 131.62163385050664 526.5860756200551, 0.7647484276000222 529.2001311455913 M-0.2949757002294064 528.9297701596388 C-1.5121479034057297 380.6335936576632, -2.589250111543242 233.382927257006, 0.40777529254555706 0.5211464665830136 M0.3205955158919096 529.5679435516813 C-1.5749995868774556 406.2743139207126, -1.38633690291368 282.8760505769752, 0.015062571689486505 -0.11460197679698468" stroke="#862e9c" stroke-width="1" fill="none"></path></g><g transform="translate(311.0416549393458 39.98684998233557) rotate(0 372.6137149909123 400.62627745631846)"><path d="M-0.22363703027367593 0.016911659389734268 C157.56401473261664 -1.2624805082416777, 315.1441248390128 -1.3488844741916897, 744.7231057862904 -0.23324262127280238 M0.2673730541020632 -0.03530543930828572 C255.51722108455388 0.7023985513581693, 511.24384409364336 0.6005949267281949, 745.2163456923481 0.1502626907080412 M744.5700198869373 0.5573097087442875 C746.2872687011619 186.87180969908695, 747.0848447709938 372.22623659983003, 745.0314248542454 800.6890415479941 M745.5713417059894 0.16283717267215253 C745.4736580484489 264.8975500991845, 745.403094004927 530.1524790138561, 745.5454283840176 800.9534271800471 M745.799927089658 801.0604471494955 C521.0528155681085 803.3666714475883, 296.5082698119399 803.9809495495093, -0.6193427063524723 800.9607765724463 M745.0475893146511 800.963709791894 C487.76007449961674 800.6374375967722, 229.2681090772826 801.3635766296129, -0.05300244800746441 801.1713871443225 M-0.37202577367424966 801.5964338829322 C-1.4266403411475979 489.9026229840446, -0.6273293469993434 180.4269128236825, 0.5211464665830136 -0.538911571353674 M0.266147618368268 801.2642411673022 C1.8856339274665161 501.0293492277072, 1.6220515428801818 200.42050823720894, -0.11460197679698468 0.04797803275287152" stroke="#087f5b" stroke-width="1" fill="none"></path></g><g transform="translate(341.6181998831644 62.39371186683593) rotate(0 165.42749297752812 368.9934162007686)"><path d="M0.028828667744389577 0.584205492800305 C125.54183087349296 1.8265001287423877, 249.95822276702614 -0.2290504630712651, 330.45738605799437 0.588839001287477 M-0.06018385043907113 -0.3901304573245637 C123.04596225205839 -1.9312747176994025, 246.16062113143525 -1.526868333908795, 331.1111330950246 -0.45967382855364386 M331.41229566380053 -0.5030492044985294 C333.79140484944674 257.6776914236435, 332.7858717025885 514.5703239890415, 330.2914725904134 738.2332077261143 M331.0178231277284 0.3131620574742556 C330.40558740952315 220.0974231983938, 330.60864256480045 440.0276487710761, 330.5558582224664 737.9920525573276 M330.5275070987778 738.611020747833 C233.02479141650272 740.2190315209717, 136.2926865539455 738.5454926857518, -0.49738352875482456 738.6137060262743 M330.36260257483394 738.5956979083361 C263.74273335866127 736.4436553132942, 198.4264790992955 736.8821869361863, -0.13836363247193603 738.584581930172 M0.3438789702951908 737.3686075206929 C0.35521767539630356 498.15726466127137, 1.4962162057841821 258.48667116098085, -0.538911571353674 0.5995391868054867 M0.011686254665255547 738.0940313480877 C-2.165603753923039 557.3847085478701, -2.350890120862584 376.9807495934777, 0.04797803275287152 -0.05238098613917828" stroke="#2b8a3e" stroke-width="1" fill="none"></path></g><g transform="translate(695.1908824674329 65.71261987245407) rotate(0 165.42749297752812 367.3362973810796)"><path d="M0.584205492800305 0.9781493989218345 C120.83354875700601 0.7831692755755209, 238.4156987601375 -0.44529043937025614, 331.4438249563437 0.9905472966869133 M-0.3901304573245637 -0.24223742553331182 C89.45996488765986 -0.21665695383075734, 179.74763751299997 0.45526840988579637, 330.3953121265026 0.33250391093007975 M330.3519367505577 0.5118496514856815 C328.73460691922213 280.2501125228317, 328.24407492630985 560.9240786717656, 331.10136127963335 734.6558874230213 M331.1681480125305 -0.15432366020977498 C333.6242091566235 213.1067667113822, 333.69960954486436 425.8169427000396, 330.86020611084666 734.6547349228837 M331.47917430135203 734.6216417919604 C208.4196518489059 735.127038435785, 83.69301021821789 733.6334711714313, 0.6268736247370733 733.3246548246418 M331.46385146185514 734.1144182397477 C234.26256220890266 733.7231650908858, 138.637552982056 732.9051561662077, 0.5977495286348224 734.8445848953655 M-0.6182248808443547 733.9393715243168 C1.5476718156222038 541.7674120109723, 1.8877321689013176 347.50776710334065, 0.5995391868054867 -0.4439137123525143 M0.10719894655048848 734.8729437007883 C-2.1116970517996894 455.4026940228453, -2.069915590560828 176.1506461729053, -0.05238098613917828 0.31741807572543623" stroke="#2b8a3e" stroke-width="1" fill="none"></path></g><g transform="translate(386.4712642560198 425.61362318573265) rotate(0 117 48)"><text x="117" y="19" font-family="Cascadia, Segoe UI Emoji" font-size="20px" fill="#5f3dc4" text-anchor="middle" style="white-space: pre;" direction="ltr">sticky content block</text><text x="117" y="43" font-family="Cascadia, Segoe UI Emoji" font-size="20px" fill="#5f3dc4" text-anchor="middle" style="white-space: pre;" direction="ltr"></text><text x="117" y="67" font-family="Cascadia, Segoe UI Emoji" font-size="20px" fill="#5f3dc4" text-anchor="middle" style="white-space: pre;" direction="ltr">Become fixed as</text><text x="117" y="91" font-family="Cascadia, Segoe UI Emoji" font-size="20px" fill="#5f3dc4" text-anchor="middle" style="white-space: pre;" direction="ltr">it reached top</text></g><g transform="translate(721.8872483382193 96.36588532189216) rotate(0 139.8152212078653 334.7027422873415)"><path d="M1.3455886652518618 0.9348975805014231 C83.51290779704911 -1.98623487323625, 169.6230907952974 -0.42426807103741715, 279.19571584487716 1.0257045027042562 M-0.47630587381434053 -0.4678407199873221 C81.39975288003944 1.0504088758163348, 162.32479484256132 1.1363268115383822, 280.26061660032843 -0.6304940644761513 M279.9249692810637 -0.4936834953725338 C277.7507178056402 246.8914039627802, 278.1930982577963 494.89312731570834, 279.5504748953444 670.0933080230132 M279.87304042968276 0.04873149506747723 C282.0447648062632 227.77354175965843, 281.7319865598604 456.12747914522106, 279.9181407490683 669.6917331285998 M280.3255662386921 670.5264074356757 C201.26823653882005 668.7656597121957, 125.9873405169299 667.808599193061, -0.14808795025187496 668.7155744313125 M279.0353343968035 670.170233002283 C215.83211712903127 667.4935213717497, 152.909719341081 667.842736700722, -0.282898649725328 669.0486904762078 M0.1810861133038998 669.8132598672286 C2.590362096271718 439.27061903773756, 2.668754816494191 209.76966293114685, 0.6411910317838192 0.532295236736536 M-0.15638343803584576 669.4205471463724 C-0.8321976044122373 466.67610649326633, -0.7699766137544309 264.1681904220693, -0.31206665746867657 0.2303773295134306" stroke="#862e9c" stroke-width="1" fill="none"></path></g><g stroke-opacity="0.6" fill-opacity="0.6" transform="translate(282.05780488602704 659.7508416295286) rotate(0 403.16580048179867 205.34803535512071)"><path d="M0.48740435615181926 -0.5043241955339909 C276.20851604292625 -2.482844771990754, 553.4645985854136 -3.0549159189557806, 806.8663470718017 -0.07061087861657143 M-0.24390650875866415 -0.011084289476275445 C195.91530903284652 1.7326239930548522, 391.72514827745465 2.3308191048064084, 806.0028959161541 0.27865485437214377 M805.654284746867 -0.26891207163286945 C807.0005157408647 97.72179794782004, 807.7507141816716 194.65784691378866, 807.2752702986439 411.1428843419354 M806.3984588435634 0.43628251039125443 C805.0516556000455 155.36958970641516, 805.4375451571669 311.11956756863236, 806.7243238101194 410.56428819719895 M806.9159887048354 410.0767280038889 C527.2340005043227 412.5248820557896, 247.92921948764763 412.079936458141, -0.3596813343465328 410.11838046875556 M806.7302988774081 410.6430682622339 C492.35025422038706 408.54502856295045, 178.63213697730632 408.04688502113754, -0.18601288683712483 410.868010195389 M0.5594532144825802 411.41106514780535 C1.3263438315514202 320.0476121341079, 1.456677519145364 228.63375194485576, 0.7302901541361809 0.03206625245451253 M0.020665313235269357 410.5388408695002 C-1.0630628113389022 276.4088381119663, -0.6934006446825318 141.83719085045092, 0.3160695115577709 -0.3511228302361751" stroke="#1864ab" stroke-width="4" fill="none"></path></g><g transform="translate(414.58949078449314 973.6371946016434) rotate(0 94 24)"><text x="94" y="19" font-family="Cascadia, Segoe UI Emoji" font-size="20px" fill="#5f3dc4" text-anchor="middle" style="white-space: pre;" direction="ltr">constrained by</text><text x="94" y="43" font-family="Cascadia, Segoe UI Emoji" font-size="20px" fill="#5f3dc4" text-anchor="middle" style="white-space: pre;" direction="ltr">parent container</text></g><g><g transform="translate(506.77611695103496 955.1746676206267) rotate(0 0.27987253601622797 -93.91225961538464)"><path d="M0.5181428108364343 0.8716218855232001 C0.6480136680743385 -30.519424311874012, 0.0662982449637298 -156.85339699714234, 0.022738850126438614 -188.69614111629247" stroke="#5f3dc4" stroke-width="2.5" fill="none" stroke-dasharray="12 8"></path></g><g transform="translate(506.77611695103496 955.1746676206267) rotate(0 0.27987253601622797 -93.91225961538464)"><path d="M11.82263475233581 -161.10363539498684 C9.337030324862614 -167.341446847279, 4.403995433222285 -174.54800253932328, -1.2188600297920176 -189.9156736600858" stroke="#5f3dc4" stroke-width="2.5" fill="none"></path></g><g transform="translate(506.77611695103496 955.1746676206267) rotate(0 0.27987253601622797 -93.91225961538464)"><path d="M-8.698476937832792 -161.0405688787906 C-6.321225628836939 -167.38193176045783, -6.391588656502618 -174.60343166110528, -1.2188600297920176 -189.9156736600858" stroke="#5f3dc4" stroke-width="2.5" fill="none"></path></g></g><g transform="translate(652.4015201885868 1109.6668328900712) rotate(0 35 12)"><text x="35" y="19" font-family="Cascadia, Segoe UI Emoji" font-size="20px" fill="#000000" text-anchor="middle" style="white-space: pre;" direction="ltr">fig. 4</text></g><g transform="translate(10 10) rotate(0 685.2415024580919 576.4633955915542)"><path d="M-0.6221269987523557 -0.29235677495598794 C281.0931643564277 -2.9394346438567958, 562.2145691454456 -2.075273796192916, 1370.1117551309096 -0.5983849741518498 M0.09394136779010297 0.2437645960599184 C438.72911496148936 -0.7499274631524123, 876.705512844129 -0.587194540121559, 1370.532848276295 0.3888359237462282 M1369.8376101953017 -0.2485717035830021 C1372.4137566368242 317.28051631751697, 1372.950038675513 632.8814572133728, 1371.1609826785552 1153.1913586082105 M1370.2812870160717 -0.32475631944835187 C1372.8381086524007 307.92411662375144, 1372.9308519180295 615.5030360299639, 1370.2290114418645 1153.2077923027966 M1369.7911285144316 1152.161002201045 C888.4842905033222 1156.5870129748528, 407.89142725417537 1157.288162653083, 0.6020626403391361 1152.6925029935483 M1370.2759395615237 1152.8750563828441 C1049.6194709426711 1154.439995799762, 728.4577178236963 1154.4756771786035, 0.2965317975729704 1153.2131918279622 M0.16989768519997597 1152.4579534711484 C-0.0632878760151826 793.3454424104881, -0.21211478508042914 434.3211416464585, -0.7636191748082638 0.13881283029913902 M-0.3481874216347933 1152.771761450002 C1.1700783588818902 830.8005626024894, 1.3809254147939078 509.02505963205215, 0.2171296250075102 0.26412873752415184" stroke="transparent" stroke-width="2" fill="none"></path></g></svg>