<svg version="1.1" xmlns="http://www.w3.org/2000/svg" viewBox="0 0 1756.6743607954545 983.0149147727273">
  <!-- svg-source:excalidraw -->
  <defs>
    <style>
      @font-face {
        font-family: "Virgil";
        src: url("https://excalidraw.com/FG_Virgil.woff2");
      }
      @font-face {
        font-family: "Cascadia";
        src: url("https://excalidraw.com/Cascadia.woff2");
      }
    </style>
  </defs>
  <rect x="0" y="0" width="1756.6743607954545" height="983.0149147727273" fill="#ffffff"></rect><g stroke-opacity="0.4" fill-opacity="0.4" transform="translate(96.48430841619302 362.26704545454413) rotate(0 778.03955078125 155.8380126953125)"><path d="M0.027009616792202 -0.21878782361745835 C544.3572189237415 -2.756293516847836, 1087.8021117634057 -4.079108124468076, 1555.36878336519 0.2302976503968239 M-0.2841085009276867 0.19855171963572504 C447.2508876353399 -4.392312628356558, 894.1194233529063 -4.286140233604056, 1555.7245338149369 -0.13974261954426767 M1557.0491519245707 0.750859456315183 C1556.0529832623058 100.75462209306752, 1556.8882347064898 199.11669056680762, 1554.6759768189374 312.71505387722704 M1555.6885756695617 -0.18933560870383134 C1557.0645405527366 116.5925251851845, 1556.0335815217195 233.78034847577857, 1556.0243509683053 311.4176410760296 M1555.7898715361953 311.85342563539746 C1174.2585506736227 317.80690152470214, 793.0000188125148 317.8024554473553, 0.5198502406477928 310.96699170023203 M1555.7585884995758 311.38996497914195 C1121.7796950705103 307.22364288558003, 687.0623197383687 307.16499136675833, 0.3703207202255726 311.4275113992393 M0.25276291559406433 311.9713282094394 C1.1384392149397657 220.4739712794258, 0.34794542636333026 126.2859560211436, -1.214490078074645 0.9768606416174701 M0.39880838499067583 311.9233903731967 C0.03235813942307714 193.1026802837885, 0.01743337550020102 75.53447587645445, 0.4895768543996767 0.22887522972548613" stroke="#1864ab" stroke-width="2" fill="none"></path></g><g transform="translate(1408.0504705255685 177.59297318892004) rotate(0 105.74951171875 76.3702392578125)"><path d="M0 0 C0 0, 0 0, 0 0 M0 0 C0 0, 0 0, 0 0 M1.5327307918201791 13.02823054534155 C4.101202971721631 9.705396211563384, 7.2988428850181855 5.026545494230252, 11.891994725120199 1.375987174649513 M0.25814565653909316 12.329165392040789 C2.727655153974802 9.42987241308541, 5.741258480002784 6.848101023005576, 10.631523922038209 0.3898516039445761 M0.11792666112997274 22.39821659186399 C7.376881670463534 17.258902077361917, 13.713534238103685 7.058875882398066, 23.142561452740694 0.38110704106981785 M-0.03558609427891035 24.18400024966812 C4.325029653599447 19.330328663275576, 9.299674546271333 12.710786073079829, 20.713804878571892 -0.12748466113810508 M-1.2304489706736526 37.31837037373458 C10.343762340868368 23.58036503772842, 22.568503991130925 10.86099628192424, 33.681652051812804 -0.27797425154007627 M0.22980440770271215 37.2091979792354 C11.370930808384685 22.961142441715886, 24.101643091096122 11.127136286586857, 31.675764623514212 -0.47002565290189935 M1.2603360805659705 46.98375735492341 C16.82986480790943 29.437362261168953, 31.872148569860908 14.266985716477592, 42.18155426587515 1.4004116494535452 M0.5151779651641064 49.45636879154377 C12.974972042054914 34.29131120758571, 24.23180355340044 20.47787588173589, 41.91845747697704 -0.5446852512330764 M-1.5527156907041757 59.14188496721576 C16.96732189068465 42.10487862583692, 32.391770626090995 26.717359565308804, 53.77642336836523 0.22546884561318237 M-0.2629536501039951 61.24534677853475 C19.062655769098498 39.78696980066452, 36.98509070509307 16.573221006693267, 53.610157364741625 0.3992079305871137 M1.6208009889534125 72.94570731217412 C19.572863056744136 52.08962869931925, 34.37514485615353 36.032819742393386, 62.75275838272054 -0.20844231149866488 M0.7355584876796613 73.4049283269271 C20.806395104536968 46.8947839228528, 43.77637083578676 21.723882649069182, 64.49921633758922 -0.936502845722579 M0.2236351429762351 83.333334741361 C26.75539543866856 54.10067926474419, 56.16777925436587 21.478899084962123, 74.92440208237859 0.10319477968050705 M-0.5690585707036746 85.21508169843958 C27.540773494811496 53.69178331064113, 52.55538998878861 25.25244275644956, 73.72656457130107 -0.711302443443401 M-0.430179484188713 97.40774343656167 C31.393035733639383 65.03339257163606, 58.244887181068826 30.720360739956206, 86.00754099077687 1.2000529707131875 M-0.020058678463257706 98.3491566100137 C29.373551034629138 65.57274976692699, 57.36120305294726 32.704300286503226, 85.63821036665843 -0.7585038508566129 M1.8439116888770783 111.04293708889307 C20.916136119948078 87.18305886403871, 40.664189495518684 63.7007102257387, 95.9957053813529 -1.2180386368381164 M-0.7874404768368279 109.04254591292263 C37.9853667511096 67.27798816975198, 76.8288077668841 22.904473747230355, 95.59774014944256 0.6022518187565424 M0.5396299066206041 121.03720438014051 C21.778700330490786 97.73603900870849, 45.13793775431305 70.48762930474157, 107.53476927754414 -0.1660946914108976 M0.5081984309663596 121.80844307410797 C38.746724234730756 75.86519483193514, 79.49226508137603 31.88045073812522, 105.79881847043467 -0.24750467288517797 M1.4590991924793713 133.71928066186643 C30.498721702378855 98.26260375797935, 61.49554420572971 62.452496774973014, 115.64189142379763 -0.9942640112198902 M0.23239759572756213 133.6065038552884 C31.243949786493157 96.35620207263042, 63.4580198656031 60.87356977885382, 116.42162897642555 -0.28286110884025817 M0.4317873198908586 145.3280575356334 C29.746327153379855 109.16636940170343, 61.66723691253186 72.32897258145717, 128.70475140153184 -0.7816679051481472 M0.8932746932280082 145.78505589318272 C30.405379538507447 111.70887863194955, 61.046755289434216 78.56734499015975, 126.06961052617743 0.3331378621644987 M4.176045200792367 154.66241320126787 C34.84645982020629 117.6940826442783, 69.68086908840826 79.02530096401041, 138.77010748174175 -0.13010919586694564 M3.5202615567611555 154.33341217064626 C38.96922045076158 114.66217652346518, 75.16821678084082 74.02939446096931, 137.63362987968793 0.002202064854663399 M13.396237097324066 154.5419815811233 C55.192670350877705 103.66022170732259, 100.74565534667921 55.38767041970312, 147.3879328580403 1.078841009397431 M13.756472203991422 154.6875355210022 C55.61988615208539 108.4979682625205, 95.93678130300269 60.25780513030257, 148.72103353190784 -0.26061073064819107 M23.914375665761312 153.84582951221776 C59.928673939585344 113.3229436856537, 98.6203741823956 71.16500576696869, 157.5130095595647 0.9925111907054943 M23.494701652720128 155.60562600125616 C76.53516922801596 93.94137868441187, 127.38703168018685 34.75668256306372, 159.0046622136535 1.0612167116571678 M35.453020676611864 156.2559991771684 C67.96390602677312 118.76565978738428, 98.84421950573876 82.38555903181154, 169.5331443880727 -1.4404110005755535 M35.59125638488082 154.2148330279121 C86.27924811884856 96.58467246829059, 134.72985660246397 40.02865165447477, 169.58714764123349 -0.02145767610033969 M45.86437768163356 154.78619947734242 C79.68728593099826 114.43172627095862, 116.82371716867524 72.56695460934667, 179.62523492657218 0.4505038056714747 M45.06053874178211 155.06625390809893 C99.56806022186682 93.93834931457589, 152.31302931174977 33.06036063998068, 179.35769489033143 0.539174428833193 M56.15728302402123 157.16514675074382 C101.06934121485719 103.70022485446849, 144.66415060274832 52.644690081075886, 189.00917418087747 -0.674783927879636 M56.083582465519505 155.8983945138733 C93.11275510043653 114.93122566166329, 127.5851061375605 73.97220465883498, 190.17569480147108 -0.1622712536038377 M64.54824238762957 153.96849918686476 C98.54916958793628 119.92935352369122, 131.1336200812477 82.41550684987806, 202.4810547219562 -1.539729818179291 M66.63654248710368 156.37807610179436 C111.29366439911333 102.9988295239749, 156.8037771195636 49.49821882779099, 201.34886474224243 -0.22802858207456955 M75.31839917168928 154.86880623034196 C112.50809221086212 113.06405543127669, 149.93332718011604 72.53377514139117, 212.73883798109372 0.7133301067386298 M76.86415664261504 154.77459728739223 C109.60423977643441 118.74706873341148, 142.71605918664565 81.86286084184565, 211.26048959196532 -0.8106391093772554 M85.5469000014113 156.9610790400111 C131.31275087097873 105.15800855014615, 176.3900499372137 54.88247988800349, 213.51190046653977 13.279914865532618 M88.03849672066139 154.82631396076613 C137.72384482520988 99.22911886279641, 186.53481882003126 41.82143321922403, 212.03364467867544 12.39477886658321 M98.31007354726077 155.0099216365614 C126.45476510807467 121.621873397185, 153.41947531450361 90.66830857884304, 210.21505376540023 25.55308073236415 M97.8142572773713 155.46275780176603 C136.55022014692707 109.11971648934346, 176.77221452083796 62.11316828396615, 211.29707442626255 25.772401217732522 M108.30529894247547 153.43358494234013 C135.6784267859729 120.97994384864973, 164.8261374053257 88.07349431374249, 213.5098091535539 35.67060089226392 M107.90114645041422 154.588640653386 C138.06036151216318 123.81707158912718, 167.08915491112623 89.44454102662635, 212.2003602762044 37.26384235474792 M120.94016896049288 154.14283555890992 C155.60289407840824 115.51684526896928, 190.43142038716462 73.70409964274478, 211.8937941254478 49.989357777017204 M119.89321941557137 154.84135265234485 C146.78506439380928 123.72331052420553, 174.35733876653117 91.64156816809381, 212.21470150029177 48.50924886957094 M130.52462012475053 156.08359633783326 C151.45431311737863 129.23754729599807, 173.68465568394998 107.28711105279501, 212.79803895451946 59.77168048818652 M129.08960947362402 154.68445581036136 C147.63374972019443 133.96963372945774, 165.25256248885375 115.64746596795308, 211.48493452430588 60.90772964892034 M138.64593270868593 154.86194638067255 C163.45539534797425 126.63637989277373, 190.35860592859703 99.75734033030366, 212.30591766420633 73.56505437733432 M140.30702805035347 155.59518401415417 C168.78382628854067 123.5046085060205, 195.89881655491808 89.41251143561664, 211.985973899028 73.55956545451482 M152.54373073573655 154.36912103899041 C173.2555976606121 128.0673711376741, 197.03052439634357 101.5156517205813, 212.87208899895543 85.58183062624593 M151.6922646965409 155.25194302544216 C172.23194173188247 130.8481147798115, 192.912495745638 107.42584900859069, 210.67925327124888 85.20841850329597 M163.48498197933992 154.40651191434927 C175.92318770240848 137.52312223418522, 190.97983983850548 122.88841030851884, 212.3217325401853 96.30538792603829 M162.5346870879676 154.721810480944 C180.35803624851718 133.4458715569253, 198.50710426714485 113.29870215994964, 211.9494614997308 98.40999414653697 M173.13899796293353 154.31066685831163 C186.59124022373325 137.85057095049737, 204.52466766867127 120.49632015139673, 210.2891945323429 108.64338995849664 M173.0787410254148 155.64803589237843 C187.1389402923989 140.9203214557706, 199.80647186574777 125.33602713529231, 211.48068848126445 109.24779835117931 M183.95243395995485 156.57828997244002 C192.57647817331582 144.99332422859476, 201.2384263649387 132.40638369690635, 213.21722399886573 120.53394707518353 M182.33645043466376 155.43754064646424 C193.3563909608592 141.78825840425438, 205.83147648909298 130.59176322951203, 212.69316126663114 121.5017993789418 M193.5242889938414 154.49124160829692 C202.01782330364023 146.06638796313575, 208.02220302024398 139.23437489987367, 212.07591371319126 133.3253258776614 M193.8999173664957 154.44841800492017 C201.5227612891508 147.45439796616967, 209.47738956714602 137.26149907916093, 211.89968503161202 134.59063736654312 M204.70089342435762 155.46231795309689 C206.15515750576998 153.74525891652627, 208.85750710685238 150.15183653983945, 211.85379005031533 147.5542717676431 M204.0259973116213 155.15206005845795 C205.76303965643677 153.8285542585858, 207.44481326116744 152.19365279155468, 211.51303363334262 147.20126807715818" stroke="#7950f2" stroke-width="1" fill="none"></path><path d="M0.3200939842863093 -1.6287966874380804 C75.62644265247238 2.7800557916892656, 147.99465759295353 -0.24858924968935958, 210.43151860477224 1.231971570139195 M0.4506049664348968 0.49371430624805646 C61.50949427249179 -0.2043120761824585, 125.15880796995226 -0.6893816594841643, 210.85982586741463 -0.021712055703898957 M213.4314032457769 1.905725333839655 C210.1005862387309 49.35097332992814, 212.70980972372388 94.70281083407326, 212.96720358356833 151.26430938020349 M211.02997695095837 0.6570481490343809 C212.19421090654498 44.89125951724123, 212.44496854118472 89.81069541852914, 210.84517710097134 152.92396794073284 M211.4376321779078 152.35917363951242 C163.97204225545622 154.2127628841525, 118.8228424082024 155.52387791963028, -1.3181981838603318 151.52452492479327 M211.14490817112144 152.19139776932525 C128.08509008545835 151.39099519771017, 43.18725211311097 151.13724575662943, -0.5542634591288981 153.2954677639602 M1.0811727903783321 154.03224286809564 C-2.5161987602176623 121.92317905210143, -2.733536249345775 86.05590982228887, 1.9888527058064938 -0.09103801473975182 M0.7422187197953463 152.38030175678432 C0.5756830095677969 94.7640513934341, 0.5028436898618338 37.429094899102424, 0.09834675677120686 -0.7037038970738649" stroke="#5f3dc4" stroke-width="2" fill="none"></path></g><g transform="translate(385.961847478693 601.9429487748566) rotate(0 105.74951171875 76.3702392578125)"><path d="M0 0 C0 0, 0 0, 0 0 M0 0 C0 0, 0 0, 0 0 M0.9861033656727183 10.775742981254636 C2.8655899304470713 9.738689202862336, 5.519266375808722 5.7646229260308575, 11.701678334128989 -1.3865223620936513 M-0.11753049855123887 12.465483026623309 C2.8366762010896664 7.930624276177194, 7.051400294415956 3.9068717752136544, 10.652594593119753 -0.10778461889477953 M-0.25973933542154093 24.082897053747534 C6.866052554417228 18.749417468931398, 12.303877338048295 8.664460249094745, 21.136553781384492 0.3848030058830503 M1.0342703109792684 23.222538467212676 C8.060190640870317 15.147566901072762, 13.897564832527774 7.7267555103612935, 21.234428800919915 0.9098710002541068 M1.6979916001576463 36.07316497136031 C11.227816555568669 22.723131704625658, 24.37706988847917 8.676089419380851, 31.361145479089416 -1.4507461822346563 M-0.4619129785430154 37.31924651172136 C6.980644404183839 29.466664795358355, 13.211638233713145 20.97553253802302, 31.038086238733328 0.15666258905671882 M-1.1765034999699182 50.30036530704133 C12.286479087965276 36.16287736603914, 23.410090379582066 23.78906184622364, 41.82828707303457 0.8397460420011527 M0.4717988967894726 49.505359279596135 C11.995192552245324 35.23037372765285, 24.524363486797313 21.089773889653493, 41.93082639444225 0.515329711916948 M-1.1980971413572519 60.93388049257587 C14.938486196592354 42.061487317993155, 30.272083133182267 25.142011710496263, 55.000258836657466 -0.012641219847022711 M0.2128552087674649 61.01477336277853 C14.646373017629443 44.37855886095643, 28.093851023319523 29.300934414003834, 53.29186069382793 -0.09939374444645566 M-1.7482590505668512 73.04853962952642 C19.573192533193854 52.337013415321366, 33.44908205593273 33.53196417091906, 62.99168479339559 1.0083273837833175 M0.812342383172215 73.84034764798729 C17.091524755981816 52.85884355575566, 35.162827199660136 33.23306384763961, 63.830478687671615 0.4283979816852579 M0.44388479583878393 87.00432806945548 C22.846841983184845 60.02992085455764, 41.44033026794969 35.234189965732384, 73.94453271668645 0.829043454454677 M1.1514249707849729 84.67611289694116 C17.12899446007371 65.83640035909477, 33.74488435276906 47.44858335782031, 75.39854805175456 -0.3967174729691578 M1.0204931423066483 98.82609699414834 C23.03346136817803 71.99357759611931, 47.375678747575876 42.543852520603664, 86.40311412996755 -0.08894515627045507 M0.0977866183964835 96.85948132658169 C22.622325587976995 70.29188326565804, 44.4046907092603 43.975242006009545, 84.80301458685801 -0.49399059669096346 M0.9942455702552522 108.80972509472193 C22.211514806797595 84.69778460342364, 48.245782801753066 59.176133055534734, 95.68908430667639 -2.1239343468295715 M-1.057633815230993 110.53990828818203 C34.879931369306135 70.33464846303045, 69.73312818689205 28.321306839764176, 95.61840221876324 -0.019000002761401902 M1.1869883241315904 121.67537605296155 C38.88681845286268 74.23995652383584, 80.00000070807796 28.422899829994265, 108.27644227025044 1.1309362343398348 M-0.7244964333067117 122.39464974868378 C23.02588358319527 94.73320792312951, 46.05122782462818 68.47977483783603, 105.99931299825144 -0.17615242946171605 M-0.7710295726268299 135.17366022042967 C35.0350604315105 94.2362312088456, 71.61336772336522 52.79700108451743, 115.51047176513674 -0.7526072309769702 M-0.5763241850494154 133.7974239698056 C37.04537759348797 92.00178050013798, 75.32562142145727 47.872120481388976, 115.83686807211342 0.72352684014961 M-0.7222153465825301 144.46534419868883 C47.57995728434528 89.59271249518137, 97.86077563245817 32.65955314851365, 126.60697737275376 1.5681889483369602 M-0.39406189467787556 146.76062108826633 C40.61778629040859 96.59284977637117, 82.6983008349544 48.30201499572931, 127.19544379911139 -0.5689443426542269 M4.8036364589367455 154.75939508857027 C31.916317352959037 120.22031456893622, 59.63236370097527 88.65269463986441, 138.92234153224453 1.2461426236864295 M2.4435155005954603 154.2034149963737 C56.83224143497366 93.51570053998884, 109.09437578574044 33.3978208903658, 138.11798170956962 -0.43469771714492467 M13.995053047240905 156.58446001688762 C50.30620298331481 114.86470510747573, 83.69608114817294 71.92036809777855, 147.83574306515928 0.4051888500689702 M14.328388045103559 154.67942184495962 C42.577377262249755 121.2061714921383, 72.66086230020994 89.55621284074802, 147.49798918289545 -0.5667019069959237 M24.429124178544363 156.61433006285023 C75.74196120396934 98.02737898880555, 126.33170069665626 38.937576326934526, 158.60512816939365 1.3265662439014476 M24.58309686181322 154.53540413399045 C54.48506011518946 118.90548716981013, 85.36407826738073 83.22499648454819, 159.08677196895022 0.34977463900816563 M34.337698998354874 155.78646803407528 C70.47127526110835 113.07634458584505, 109.86536391581808 71.03713137744849, 170.57341302170536 -0.23143691844893616 M34.91456874515799 154.16553596747013 C75.49249924620374 109.0026681961757, 115.89228422053624 62.533662080649705, 169.0481120965424 0.03224454049626371 M44.094652433430284 154.62386345693 C75.10311422970504 123.47209694450909, 100.00562430976643 92.94548752245187, 179.31842458010232 -1.2346106418649938 M46.09803634894649 154.47772934002757 C74.70166117717825 120.67092916460128, 104.08252570364591 86.93046115671157, 180.02585495385568 0.8915208077222768 M54.11357778676175 157.21891259822362 C87.7529137639191 118.49038804705243, 119.76023423778379 81.19050313548597, 189.47249748322372 1.1577740269671275 M55.37082861978005 155.1414724244001 C88.92212330945557 117.62638122733318, 121.30924090637265 79.84740685890873, 190.27781044505963 0.39037880895233373 M66.01006955730978 157.1926180204713 C112.71886288689548 103.02854156437385, 155.80441474796731 50.314411567019825, 202.5601886962812 -1.428629576619881 M66.02125846929086 156.18888265895504 C97.77690931341868 120.45018170589515, 129.97840463522476 84.54773478380511, 200.63913921717557 -0.7604882841149558 M77.24081626178575 156.13854467722362 C115.57647380145828 113.46683725359672, 154.46489663147693 70.90695661594813, 212.01704224712404 -0.41771074409087605 M76.15491999442807 154.70141025417507 C120.31754931320204 104.36241776349976, 165.40022173987148 53.04809061887229, 212.5720187368173 0.659103240099082 M85.63125487888323 156.8553694872462 C121.65353302361176 118.48694867888199, 152.81819460348416 83.86415306113422, 212.660784762957 13.073787221947413 M88.38185929047035 155.2809212090724 C122.11741474196006 113.09153181881611, 159.74141893070598 71.98356830995621, 212.17274546869925 12.92901410561214 M99.05356233586551 155.95723637578868 C127.76034891719134 120.99356827408536, 157.74203765858522 88.603859500714, 212.01184150420028 26.294020349521134 M97.75468863380135 156.0247640368887 C126.28785655330513 124.383471855788, 154.829316513003 91.18479027577584, 211.45682798728245 25.23654520920286 M110.27090992346302 155.44124819230962 C134.07056643145611 124.01290080609195, 162.6180174942106 93.58961163156414, 210.97061361598676 38.16280698891309 M108.85637120284036 156.24266501595008 C142.52576773719588 113.168285131009, 178.34784981680323 73.55002921298828, 212.4469287175954 37.369076739284665 M119.01901541511324 154.1400465383716 C154.58247028683115 114.32477824595851, 189.11753714421974 75.99768981161841, 212.86285359276349 47.45890457190856 M119.99189967336861 156.23607678297535 C150.94902478726155 120.92043801155428, 181.0752491161816 87.8128529081468, 211.07518443142885 48.88081778779909 M130.4359403342537 155.4214292655371 C151.10178632596794 129.9748346015325, 174.98512349276496 104.4491809802953, 212.44771670796794 61.366517200070064 M130.92134484616736 154.38262384968326 C148.221947402452 133.66033267221488, 167.05732553805774 112.22608291397484, 211.69736905456406 61.33493974146489 M141.43708995432192 154.8133504753686 C164.89452385497142 128.8104787935693, 186.17840113297888 98.74578284689821, 213.63670198503763 71.85500522496005 M140.6723556470179 156.32360260279248 C162.53639164271436 130.26488031509837, 185.09510796858837 103.59776080013059, 212.24933463778228 72.24578586200079 M151.09021329875534 155.62892051942865 C168.47702702907904 137.25252809629725, 180.1165786908249 121.91011916416804, 211.21259316841955 84.05859482836385 M151.3526591267014 156.15148130402187 C171.77365339482458 131.96673909788686, 191.89604729352163 107.77221971514899, 211.40345232787425 85.02108086634834 M162.99040314099153 156.5914059992797 C179.9145486849973 132.893764569608, 198.9622582269808 111.71416185898349, 211.82869483953223 96.8825397013984 M161.9625604609992 155.5974000900901 C178.71468624796606 135.53977425923705, 196.99349809596572 113.82715697792813, 211.00534848360226 97.13059260578075 M171.63509600446795 155.45922976648424 C188.41254192830294 138.55614748675632, 201.97928732731953 121.98924675386964, 212.44747824282263 111.15637852584894 M172.20744295069252 155.21867097271596 C185.7073618880223 137.68498862424698, 201.68395244097226 122.0585743119614, 211.950050501757 109.8218895472395 M184.79907216262208 156.6509709226048 C192.7951486970827 144.0657029375716, 201.63597148712196 135.70540689665023, 213.33981740172828 122.24009665327802 M182.31026802156256 155.58627783861817 C191.39421071929638 146.73825935917884, 197.82991881423848 137.60207785403168, 212.61872293311978 122.28900245244338 M193.90945563889144 154.8703648192039 C197.09154975810253 150.28945756343552, 203.89960655641914 141.00542461042042, 211.80393008968662 132.40383568524808 M192.8240752243906 154.4723764495155 C200.79883914093983 147.454758946108, 207.10785473145006 141.77597088427902, 212.03510845347176 133.6146339581111 M204.39278802713318 154.90668853281642 C205.1212342311908 154.40282373124924, 207.1642109155252 152.3975441986302, 211.74526274757332 147.03284110834898 M204.40586044266757 155.6252587941719 C206.1413202444091 152.78863350668033, 207.77056734227762 151.74959797578143, 211.27097026597582 146.76046191480086" stroke="#7950f2" stroke-width="1" fill="none"></path><path d="M-1.167084613339465 0.1017073813091689 C47.30478923073157 -1.2635441919360373, 90.07611425513583 -0.8739935502052898, 210.80365062055284 -0.5317907540766966 M-0.4874959446692174 -0.26550577623266325 C65.1317387301941 -1.4336536685656829, 131.56752561106526 -1.5605256328448256, 210.9772194955863 -0.4288766241802839 M212.46802863106132 -1.1503016017377377 C213.01155895654563 49.01623378744921, 212.42484433118705 96.9052766534428, 211.27538963779807 153.71333310380578 M212.42357145436108 0.8573219012469053 C210.9396609479037 50.52525800383297, 211.8456386142817 101.86499090512508, 212.3997441995889 153.43238530866802 M211.98508970783018 154.45876849165265 C168.20693227747032 153.17546988852027, 125.22138527559781 150.63553883778786, -0.4313389514755431 153.86554348030862 M211.36204716557927 152.09940920463436 C136.13574218433018 150.84942554785204, 61.742870117848035 151.77403962652113, -0.31769686553790977 152.05239899065077 M1.975616779178381 153.73802623525262 C-0.8639767682024058 121.19364306348211, -0.38369768018208106 88.80072244664325, 0.8355214260518551 -0.5452430509030819 M-0.8031058441847563 152.01827387325466 C0.2213540548735864 103.11637089719011, -0.5727300768440955 51.685459055769115, -0.9153997432440519 0.7389938663691282" stroke="#5f3dc4" stroke-width="2" fill="none"></path></g><g transform="translate(647.521906072443 442.93415971235663) rotate(0 105.74951171875 76.3702392578125)"><path d="M0 0 C0 0, 0 0, 0 0 M0 0 C0 0, 0 0, 0 0 M1.120242045177113 12.183941337883054 C5.42945294500724 7.565302585772235, 7.800741668268262 3.3661606607945145, 10.454792843711507 -0.9960303042933583 M-0.2685186005104674 12.118813352703631 C2.0010218691916175 9.581725561653883, 3.9473161988339265 7.488929778509383, 10.534257247996461 -0.3697710652753948 M-0.3667470773496415 22.71218644240415 C5.792469667111735 16.517036844388766, 14.232812139820318 10.473276302944024, 20.555463092679048 -1.4438314946204898 M0.4129904752782796 23.42358934478378 C5.000345798172615 18.470211575394874, 10.876077793958588 12.04415024934204, 20.924348153451348 -0.9930629549384591 M1.543109407545952 35.75484541226302 C8.6448455714926 25.136989078415954, 18.96487402245488 15.467726385362198, 31.460940105325378 -0.26434314611710263 M-1.0920314678084573 36.86965117957567 C7.351377549965978 27.76447754171438, 16.235607543700297 18.04294165552927, 31.688771429887808 -0.618475193040144 M1.2616089973597937 48.428723909565136 C15.628982105072168 28.028520669448742, 32.492588036763685 11.465915214921765, 40.97639865483694 -0.6660887758851999 M-0.012983441352922398 48.57711480804615 C11.65688213706864 35.54048131318059, 24.436563089753438 21.30769930957094, 42.270670978907276 -0.8467335767717117 M-0.8620583134611337 61.864141866095764 C14.107289031919992 42.488015588170725, 29.927263762788648 27.588360021602917, 52.47818151465124 0.7929482176377185 M0.6330525764356167 60.36190807213674 C20.483810872351796 36.54397320243312, 41.55848505703185 12.947722801487586, 52.529726976291 -1.0560729694144122 M-1.2952997514793267 73.84686588341741 C19.370397442218632 54.374116165522906, 35.409175639977775 30.511161680867467, 65.24497520820577 1.5899406860141525 M0.3776317613384137 73.9239211085662 C14.893487269070926 55.67908695986122, 30.222597091269964 39.00126664458423, 64.53069772282024 0.7014436407505045 M0.3968212067427146 83.19781881309257 C23.28781609359028 57.86015818171059, 46.019571955677485 35.68436629916817, 72.83281000893804 0.8622177308066057 M0.45738741413671846 84.78921592905328 C22.159076466368685 60.434857449458924, 43.69233822883378 35.29413230784158, 74.35591964427623 -1.1125748595582081 M-0.7294741943480147 98.15278933690652 C32.79038151586913 60.23503000969239, 60.82151981823229 25.580885954413333, 85.45005994028554 -0.9677352964224326 M-1.029528068378724 98.25223600053951 C23.135569094372848 71.32044941898398, 44.796482109593946 46.82432305751539, 85.91780729144023 -0.3353477086218106 M-1.9974438733330047 108.9685936459762 C21.108366735736002 84.67030464962292, 42.86579382058416 62.69292679044089, 96.33244277568579 1.4327232058895447 M-0.6867070774456536 109.54446792429806 C32.92361684201029 71.13019531813467, 66.83650874738089 32.41671602965732, 94.7713533400935 0.08457773027845406 M1.3288209142347398 120.07633292208692 C37.261757148484925 77.86241705040008, 75.84731514616625 36.299492346472064, 108.11802003857625 -2.0686089106949552 M0.05665903372667458 121.5501989172705 C38.68374490520775 79.03905909272555, 77.7891387275165 34.296127828610366, 105.92662859101725 -0.725174031138657 M1.0436316917927257 134.68755501680113 C34.91600349856197 89.31969870684718, 72.08481201318364 49.61724522740059, 114.56613797340395 -0.6890679643906665 M-0.6174839340804823 132.97517849117554 C31.78743762752637 98.28561852855285, 62.44398503248509 59.771014418356444, 117.00522294100227 0.3814029740683722 M1.7186437327784319 147.17396403168138 C42.80723525144211 97.60734602442965, 81.40979061804605 52.35524869754636, 125.55666366158738 1.8750372359193577 M0.24038794491410442 146.28882803273197 C40.70782191682066 99.62553936297692, 82.9051481938107 51.52569830821972, 126.67698149881079 0.7373578471727384 M1.8473938162193844 155.6029484788157 C39.571685314671974 115.43078372964618, 74.95213132328311 73.13235708865835, 137.52933281500324 -0.3219673304895194 M2.812166718270669 155.79850339638955 C46.96110817774948 106.06223330945019, 90.74324435979013 54.57526363836297, 136.64439755874506 -0.3426021688441815 M15.29650160783165 153.85352829269215 C47.129864219647416 116.83566403586825, 79.48644856516526 78.50864546809596, 146.66214097114798 0.6975488302802281 M14.128944610831745 155.27412611030138 C66.64057106146927 94.5192387775694, 118.75584513314256 34.387008762325515, 147.60606399828794 0.21871190409168467 M24.366970065490086 155.85009881991695 C78.25163600989744 93.56372288095764, 129.87827802257266 33.31172590764252, 157.8044010091592 0.23653456670303766 M24.65310391719595 154.53037451368158 C59.61983549751467 114.70312774778643, 94.8678972422143 74.48466805911617, 159.11676229841132 -0.010391944343923293 M35.68460302220246 153.80180318060735 C64.65117356417441 116.37061332181545, 98.66312956241138 80.55581987036933, 168.21621379329466 -0.6317115323538891 M34.51378658804683 154.81475005428405 C63.797196090079126 121.69745455349646, 90.95086872662947 88.26243133007476, 169.2175946441737 -0.564338750772085 M45.75718009222659 155.3299212136305 C81.61553164214152 115.4580092170824, 114.70262024816493 74.14509649759374, 180.53190096906218 0.8692808407266353 M45.47190543344299 155.32502707048772 C96.89514359063095 98.9868757420674, 146.1826326819812 42.72088098434038, 179.64335158000867 -0.6309981611888941 M56.70010504867705 155.35619811177983 C101.80376805249557 105.17816033620596, 145.8551569157919 53.77748882987028, 190.61154857324266 1.7486443312185123 M54.74854001901572 155.02387132979925 C87.42663494418916 118.11169179579747, 120.96787845043471 79.90897731183676, 190.30619999652768 0.2236897226416133 M66.72189657396446 154.1493405586338 C98.60272359676952 118.25589828715944, 129.65290116026372 83.15618787680465, 200.35942985168404 0.062120474405795684 M66.39058532482383 156.02238369143092 C101.16489322445386 115.50416342543716, 134.15957729039735 77.36076139004483, 200.9089898125874 -0.45015235990168945 M75.42458624304311 154.3792955504417 C116.80289947739541 107.66413469794756, 155.82077966564847 63.714249728850625, 212.69955023089906 1.6772028610333114 M76.48498392554546 154.91720282178434 C130.4700663242937 92.98593391383291, 184.67935081950765 31.343158686904143, 212.56349129389753 0.1985244594554759 M88.67981812084184 154.0516220717036 C130.86558378667323 107.9533658743515, 171.89986210139068 59.029316207291316, 212.57388810501328 10.485211620369654 M88.15575538860725 155.01947437546187 C117.09117779431106 121.12409245469243, 145.34701792856356 85.75269218723007, 211.74673235663107 12.850081462675433 M98.03545229901553 154.76764759061717 C127.14463512046034 122.83049451008795, 153.0769436357599 92.68285305651449, 210.14171883307296 25.60256236268947 M97.8592236174363 156.03295907949888 C139.50629775319044 108.00711127532833, 182.30045020758024 58.2204087195055, 211.86621450289982 24.733040575299356 M109.19418324842945 156.7679176468842 C146.16805278155965 108.33358922851633, 189.46828885544892 62.755148989103574, 211.80188407230085 36.41900372620252 M108.57462612666086 156.12609275509345 C148.92234391838304 107.84114929630482, 188.2509739107868 62.1167491249894, 211.17401466558582 36.534872184726865 M121.30579124252108 155.09601134206727 C153.21772665083785 116.34998496009561, 189.44331173509838 72.4363067074933, 212.54419881714398 49.674230642694084 M119.83742434206215 155.55735928896442 C149.58298473786638 119.32217256586813, 179.1276961252152 84.59753641545667, 212.70773836647982 49.89181663289949 M129.17240030472794 155.0806640277289 C149.56882762173439 131.17805730717578, 172.0651802895463 104.8716748275508, 213.04188084103984 62.26338471372668 M129.51315781442145 155.78641444283053 C151.64768704814932 129.2259551345241, 172.41676577465844 104.52725839336208, 212.80362828136307 61.574076556536 M141.62347820848757 155.96076730543146 C159.5744362051634 134.6607751178216, 179.91527957250162 112.30868622084839, 213.37049166742594 73.61676379086276 M139.60994421952003 154.66158585341046 C169.932001211091 122.78373126019505, 197.83680828089774 89.72637453754321, 212.25300521101684 73.4280264673551 M151.8908364772374 154.5103690267376 C165.6200715233248 139.40654153636066, 181.21956920488077 121.48808490146365, 210.72687754074926 86.07953155588766 M152.0909793581391 155.60737303242306 C173.83224418681118 129.2545749073958, 196.8244345375719 104.26659105781121, 211.45870905223185 86.31842233229835 M159.983630384415 156.66367329320974 C180.64845443123437 131.45067086507282, 199.93836355468358 109.48295227372549, 212.42840554242835 97.5178791999183 M162.68703715605994 154.811947366587 C182.17959670394563 134.90466519261903, 199.98555998094258 111.8314181128826, 210.8718349137704 98.29706325263896 M171.06335895345782 157.1400404564104 C181.96130238305912 145.2910200704379, 192.86093314900143 132.56997607937407, 210.35160941691015 109.47228290473993 M172.7089696640638 154.41465211762105 C185.07106832981674 141.30665581427326, 196.6839320221585 126.21874671627228, 210.8678789424232 110.31854894531841 M181.81886495780336 155.06898711790205 C193.81780302841085 144.0130283818006, 204.582222916464 133.88989672740954, 213.9314256876322 123.7636655219151 M182.8602070579319 155.69350242224397 C191.27009277110477 146.46691648781, 199.20654395559407 136.77647797683346, 212.18347443897153 122.4089414220555 M194.84133492088912 153.61518612924723 C199.8621326443867 151.48671882152283, 201.3758587618244 146.61261113861343, 211.88013462803195 134.87310615300626 M193.04925763844548 154.2526852921745 C198.40309189950128 149.5709047340343, 202.9639051919486 145.54952589864774, 213.07283282919656 133.60797456956894 M204.71100972732467 155.38637847660686 C205.7044145950911 152.69612748133085, 208.14296368813794 150.568038353636, 210.65735308484977 146.54551178028882 M204.27260952070293 155.17000463877451 C206.7539169589515 152.97658267397196, 207.95871922048605 150.02595160972774, 212.06418895613274 146.31985448028968" stroke="#7950f2" stroke-width="1" fill="none"></path><path d="M0.5513626762977071 0.3505111447450081 C50.355563554180314 -0.9733811866224807, 99.49826845763532 -1.409419507708404, 212.00345291762784 0.2749029617752198 M0.4049143453263255 0.5035418212778205 C79.45661521100216 0.7610314465695487, 158.69598124108205 1.9963056706299744, 211.47517425887236 0.8724139412801192 M210.47124275192618 -0.0014733336865901947 C212.24211250446285 31.44546439553892, 212.9390206208035 62.60880608594607, 212.3091594837606 150.81756756082177 M212.21770070679486 -0.7295338679105043 C212.34516091127728 38.977370080826184, 210.82740582008694 78.86888821108143, 210.6453314293176 152.17355154268444 M211.9515586612504 153.04405635919971 C151.73293664564648 150.04911624144293, 91.35923991838703 149.77889459576707, 0.30716034660458225 153.9269458404148 M210.89649448427448 152.32664115520316 C168.3238101211226 153.10558289508458, 124.43490255668618 153.64857669932516, -0.1887320852342385 153.5260246580723 M0.9668222330510616 154.21649012342095 C0.9580503622502192 99.17452056067191, 0.2781045357197627 49.8247850372295, 1.025739636272192 1.4779824949800968 M0.5974916089326143 152.25793330185115 C-2.1130297157679934 109.84325755779287, -1.1987665269290346 66.76395283119062, 0.5828959215432405 0.9690288137644529" stroke="#5f3dc4" stroke-width="2" fill="none"></path></g><g transform="translate(903.7535955255682 339.69929643110663) rotate(0 105.74951171875 180.39855957031256)"><path d="M0 0 C0 0, 0 0, 0 0 M0 0 C0 0, 0 0, 0 0 M-0.4812760135997428 10.905726120292723 C3.8563196134063533 8.114781516719702, 7.173706225094992 2.027718348752046, 10.332797490012776 1.366251304288185 M0.3003724479209291 12.258612184643328 C3.6764967352270737 8.770121575742516, 5.452769296236425 5.144989574329615, 10.408650615763795 0.47248443170336496 M0.2800141016206954 22.52105651953733 C9.071115101548457 15.73327558609864, 14.373616970986829 8.07124171335261, 23.16319991862204 0.6204935996025327 M-0.04745409430942793 23.303770776554106 C4.12550691499324 19.102880399155165, 7.989960972643381 13.551155783939985, 21.061479725221062 0.48503794094319375 M1.549710979582695 38.419329197892296 C7.955921133551886 25.807131171044066, 17.330437257167432 20.29699181036576, 30.516652089959777 -1.9911328590229864 M-0.9175158628356179 36.9124188235042 C11.37877798848869 23.32650201814035, 23.95598797520832 10.398281617729602, 31.87578016840557 0.480341797812212 M1.2532951030879431 47.1087335130655 C14.098243448010154 36.6652513161576, 22.820703096526103 22.17133009007795, 42.33189243878775 -1.62564368654499 M-0.41652035713203617 49.44665323444538 C14.311687823671168 32.13911219764786, 29.38431670545116 14.044127757443924, 43.118762938860584 -0.5997346706361526 M1.904018966583422 59.180526896842224 C18.56269625384685 37.6944694594898, 38.906495261032475 16.07800374290173, 52.39932623854345 -1.6300847814009778 M0.29391919459204985 60.05443310131918 C15.13434442679129 43.73367622304973, 31.533833432773495 25.973479412356063, 52.38057696236736 -0.67639507768315 M-0.5514621564933648 71.63141345078496 C14.743352457214392 58.17066122205419, 29.912134848806545 42.3407133774619, 64.66170251266439 -1.56634579202845 M-0.5241732818821063 72.89267981084434 C24.786153363469005 44.76949267487168, 47.5297887691645 18.541879895748252, 64.33144928970714 0.7803288383899698 M0.9858507572950828 84.24325352645621 C22.423176729166876 62.447430174730926, 43.83425240611765 35.33964937989829, 75.58911403458806 -1.586160116864903 M-0.028695735773254682 85.06948662473962 C16.33433652076276 66.72470412085336, 30.742857411232656 49.41784149824607, 74.53418509666118 -0.06092278569803966 M-1.5137585476042403 95.96277330564126 C32.17157225236383 59.45396038684764, 64.05746036682874 20.018802814242235, 84.55399732775197 1.1938950956521523 M0.3589729797093497 98.58632825994655 C22.402065427583764 71.68835434541317, 46.522539216127896 46.58836524238678, 85.25666768401072 -0.20533793822843904 M1.790514510227176 109.50772647945703 C36.54357567067609 67.21337334489655, 73.06865007628139 24.20292341508471, 96.20613266559363 0.3173989470852234 M-0.609290776672033 110.50672256773831 C24.51497156380789 81.82761718558157, 48.21205392567183 54.19927982683182, 95.28435847753704 -0.6444327324824712 M1.0486411752363267 123.52015172968885 C39.18552855998469 78.45320188895425, 74.95041387830591 35.6042009135852, 106.84764407155049 -0.38691321100318277 M-0.13220960812665794 122.67198801505646 C22.824959037306453 94.44336773472583, 45.16132119776726 67.54942807797573, 105.73279702802134 -1.1685514067413791 M-0.2810045291392811 133.17253440789915 C31.25413896653084 94.99549606709309, 63.53938011968515 58.91819697492592, 118.1519402900696 1.5745598031721997 M1.077631036126732 133.8699053636197 C28.9851177232789 100.40436750218615, 57.940032863050526 65.54173905994033, 117.20404198225441 -0.42465674406364684 M0.28729517053783127 146.5475161156505 C48.34442991041864 89.59988727750101, 98.07008306175143 31.53523101164477, 126.16295090256943 -0.03355331927168237 M-0.049776168130634346 145.77692725014683 C30.661469519382763 110.7597827731283, 62.885794781223375 74.06566711571483, 126.22340719899847 0.2523316068239225 M-1.8070721441502209 157.2250493830859 C54.303322041734866 96.04134313193232, 105.76545309251713 34.731781960587234, 135.94397734989818 0.01600858295584151 M0.16185030307370674 158.88812332930598 C50.6702724631212 99.50602169812561, 102.05623900265822 41.02223379466811, 137.16456086876343 0.5262357276208778 M1.5195312651900201 171.70579383973006 C49.31412776689903 113.10098320920987, 99.21165881610335 57.285958407727655, 149.33082869227673 -0.9653893630446642 M0.7007630662288479 170.75992098498426 C31.241997637816077 135.58587254877045, 60.83667704440607 99.05219809968284, 148.40188454077972 -0.4976550755089274 M0.7238017317598897 184.1132594270841 C57.90710123155103 116.69930278580007, 115.74045299900702 50.23712069574851, 157.90962751346697 1.8211848078951236 M-0.08673454954818671 183.4268004049219 C45.594380172815406 133.63758083422292, 89.3065434877121 82.25637248923414, 158.2634544285416 0.6505303745366071 M1.2812471218435533 194.6114691487857 C54.97756702441455 133.92441327865822, 108.68468050493357 69.57491881192314, 168.62724429147175 -0.28411802480583553 M0.8369177665458113 194.48847957147973 C59.92725337430519 125.20071523853031, 119.8766822506577 55.140854762565105, 169.4155399182428 0.8386290409777104 M0.9249912095376764 205.72449362565996 C54.991748645847366 146.67531248104748, 110.22322046590548 84.9964182333966, 181.56976786210654 0.43005898545890336 M0.45708915890780066 207.15479487092477 C69.95745849341493 129.44822366843414, 138.4175287659588 50.42209997444496, 180.31797360467104 0.05222151594084763 M0.9808444643192189 219.40613255991343 C44.7975892893749 167.56534243291074, 89.66476371652351 115.40977005773777, 189.77561391133747 1.1424483064225583 M0.38112680459708603 220.4796777128323 C71.30969854299296 136.05120559895275, 144.91308230438568 52.37084028444297, 190.24865466518762 0.3163542060833558 M1.3362952687359735 231.03321115493068 C61.29579726099464 162.35866004096715, 120.9363315554084 92.42615770177868, 202.43928011788282 1.5040513552663461 M-0.21456659794360688 232.3460334648999 C40.738354562329874 184.39048281346638, 81.83553159453099 137.23944714573048, 201.9441007257935 0.40923661137819023 M-1.268885616799345 242.79558727273692 C58.80471788663816 175.15298549593274, 115.92622898142803 108.77181709621138, 213.14086436518897 0.195796768842481 M0.4481102440400978 243.25940985348555 C85.01148916271733 144.8431619902913, 169.2110495583643 47.72839498603732, 212.5059242964267 0.023812745110052755 M-0.7808382393974898 256.99579563155226 C65.36842619573781 177.62705624232166, 133.2412718813294 102.14015586492437, 212.42620064004873 12.306447917260488 M0.41917609386545884 255.39188616734856 C80.93190755786954 161.01162257214577, 163.41285789463504 68.18050530436327, 211.79610566034054 12.506004022057466 M-0.46209053257208166 268.49233199331576 C78.50060937271111 178.32112033879127, 156.61558781059685 90.79975091846616, 211.05265913331777 25.074369879754016 M0.42839564071065106 267.2451761241115 C71.08154377919622 185.6291968196046, 142.67894890179218 105.421328612132, 211.33544980197496 24.610994231349178 M-0.5903515135201762 281.7498852229452 C65.3831677376494 205.0993756577105, 131.9050954847854 128.6471112253331, 213.0515819828145 36.57940852994855 M0.2520270906411146 280.84839549261454 C64.9522246807038 208.62282197122704, 128.43232175247195 135.97032182213923, 211.2868462391505 37.5330189251036 M0.18535895828170346 293.702644965339 C79.34357707482077 202.57158682792362, 156.8565039417131 111.60716171946991, 212.76650811779692 47.8874136602849 M-0.17576989152357558 292.5784592147127 C70.8426593769333 209.7142018545387, 142.2828075847955 127.0292931970771, 212.41671380305667 49.04581163377251 M-0.20259696598877613 303.5678622975064 C61.96537431941606 232.97956164122596, 123.22750168450236 164.1835170138498, 213.03912828903117 59.766649102758095 M0.7271145268137768 305.47926896953646 C47.661953212005756 248.69142617960188, 96.22644835213154 192.7731540034834, 211.644632539584 61.045378738204064 M-0.1950608719762031 317.9127677722794 C61.02899774338375 247.31438967686447, 119.2281163161417 178.33716956708565, 212.29857703274772 73.18396443832513 M0.34665739550663044 317.33068463613836 C82.38797885079816 222.4752945542229, 165.1011638883495 127.33230049495667, 212.3736635626485 72.78700767838846 M0.8317991219757653 328.90873042161195 C58.49816386763785 265.4805545666624, 114.65201726956788 201.4980508411121, 211.11568641368802 87.0214291834728 M0.8166516433117389 329.1804078303931 C84.44996912890983 232.30386874943736, 167.03923840525985 137.27698574317685, 211.19438802722388 85.24428977236819 M0.7749361337045488 342.623279356818 C40.98614466847532 294.23834340870366, 85.20019426949152 243.88695584762613, 210.9234685879341 97.56282400841678 M-0.11315458780502244 341.36065976829826 C61.82630679962777 273.61242273050965, 123.09344235955047 202.97362699001394, 211.50260170287507 97.53299772338713 M-0.908440862550794 353.50277890764994 C63.38183963472354 279.42140132623354, 126.68206475969062 205.2360203151921, 211.72052003523038 111.12856384025763 M0.37846139670054285 354.08170162892634 C66.64089655736704 276.0522532904203, 135.08276535630367 198.48519440562754, 212.47419743467216 109.47003709514654 M2.6848505766489925 362.29527518945474 C84.35127174848623 268.8892665240823, 165.67884224203 176.62499359704898, 210.78567986215714 121.3031960148169 M3.1747820183444158 362.8103884692389 C55.603847578730154 305.70566876669363, 106.40530812378681 246.48110448341203, 211.56416993112273 122.17627665317144 M13.51508826281647 361.62371507792466 C70.55607158155891 298.65944940550867, 128.43267912010543 235.93342551206217, 212.0609326607956 134.51672488720433 M13.8940578343415 363.0418445627838 C65.5403663739163 302.7760379107132, 116.33134274136458 244.85026673411164, 212.07320498331404 134.0830147742264 M25.007429523995487 363.1789635484877 C59.51452186814807 320.47940615837115, 99.1377769468789 277.9090819464061, 210.25697441075133 148.23528797393956 M23.450247118225118 362.99829940704774 C80.91839289356855 297.9031938106109, 136.86124502193476 232.35365274331474, 211.17813906697083 146.6763243448273 M33.065574403035086 361.38886736586045 C90.75984294767527 297.9499103950522, 149.01801615589008 234.04652672773477, 212.53212988698027 158.47022601338765 M34.93747108897599 363.15630241917376 C104.40985299261078 283.8461112665164, 173.63337530861384 204.92798627439905, 212.42456939663245 158.11694043370733 M45.40222865053169 363.3741343725887 C102.86559456992647 298.344987222053, 161.04448519290037 231.9190620297519, 212.48062505979118 170.69176016406615 M45.022135505967064 363.2659066936533 C98.2781064678496 300.7035251230843, 152.10278555821273 238.22935297933455, 211.08874848347176 170.16360464900336 M54.786779044667185 364.8467233651427 C108.47242944564768 300.1407546699395, 161.0689385091294 239.8969692599884, 212.77260143696395 184.33832126409663 M55.379200934129734 363.962349611893 C87.77413542169099 323.3642558505717, 121.59922222322353 284.9487964760171, 212.28696358456864 183.02763948996753 M65.44312695598575 361.9532463205269 C101.38279078303378 323.14626214446247, 136.2456260187494 281.95080158020124, 210.76322656968907 195.76889603118164 M65.77573159918462 363.0802149730427 C124.63327178417472 296.8833439399635, 182.3330558504797 230.5374892255803, 212.7192556770531 195.27845440028258 M75.03559628243924 363.06727765536937 C119.40918847127193 315.8082016246212, 162.09793734750454 264.94452011462255, 213.28120155045426 208.88138592088504 M76.43540527929261 362.9221279643313 C124.87940955040713 307.88396317191354, 171.79711155272088 254.2993988044147, 210.89969381243583 207.17966163353705 M85.96425289769712 365.18616366653964 C122.49614752642327 324.4593430391979, 151.98822834638045 287.53313007281633, 209.89098050515958 218.0358870958209 M87.23719111007694 363.18661345250234 C115.22425824114566 331.42230268340074, 143.4180161145599 298.50058525497866, 211.88614956918963 218.8417768904239 M96.6644038300212 363.070428778959 C125.31406566109517 329.7223838608069, 155.59277165390642 298.2314699246561, 210.43655986792263 230.67748562486128 M98.58123665519017 362.507732510177 C136.37849260120657 319.438222086692, 173.89600760539747 275.5689603396708, 212.5002050724518 230.89515345224396 M106.46416032264801 362.0146952646694 C134.5473444729463 330.9513634764687, 165.7874957214956 298.0065601839455, 213.37507975192594 244.9509849412552 M109.26454802366766 363.5294111839405 C141.5450609238952 323.8951392173709, 175.93307478711085 284.55444587281477, 212.4875229811095 243.69810086062168 M118.76720889901503 361.37113597523336 C149.52439009777106 327.2118738840127, 184.35319353089236 289.3223964760084, 209.57526140161644 258.2796737267879 M118.28938351629063 362.2620864855117 C139.7440586965855 338.46115054216824, 162.0448075056967 312.9632676166834, 211.5400056919534 256.45131258249853 M131.25457983255978 362.15208001221333 C153.74179434527738 334.31374091742316, 179.63296672963014 309.50888059757096, 211.5263468984127 268.10786817257633 M128.67557955884035 363.22986730160926 C151.67283884978752 338.4373379134651, 173.73224583524433 312.14220358200134, 211.64781081374585 269.2925252191477 M138.25964714671983 362.65501272717177 C158.5468799814564 341.5523066653788, 181.36056464840573 316.6665976603084, 211.77674498676168 280.0541694604058 M139.27305070209815 362.6580343939519 C157.61246773051886 341.46166374679444, 174.5091111925317 321.3093848091079, 210.97549699327755 281.01227598751075 M149.14312861493255 362.08757572167127 C167.1243987456911 344.91684255316284, 183.85448789609313 324.20763556004994, 211.93326719010093 292.5176254418388 M150.57428962184514 363.6605403992584 C162.13528834651308 348.96818383219835, 175.07563997187935 332.95870509164223, 212.29876003132978 293.22256439930646 M162.66808576063553 364.19256684727424 C177.0974700789971 342.74322001670845, 192.40016024423932 327.9481290853432, 212.38006878186792 305.05744021843776 M160.52686711886267 363.4275098292475 C174.30156463781267 348.29847364211247, 187.94117956039966 332.58640355661964, 212.16087385368377 304.2990618412535 M173.37492385726625 364.8729402055433 C181.5969761880556 349.630053114829, 192.0859009644611 339.9017664332384, 209.99758975650963 318.772683721988 M172.34593211893196 362.41273907063805 C186.30568833565417 346.928627037604, 199.59725577200368 331.8682425327956, 212.02913148213025 317.3233211552934 M181.95639192826212 363.81680614804077 C193.09962577978254 351.6327793909716, 205.96397175488457 339.38832093665263, 211.1617909454445 328.9084533936065 M182.32671167283416 363.52119638514864 C192.0012977178277 352.4807718701008, 201.23707979104836 342.3422474207585, 210.73158115043142 330.2514383176994 M193.63258274706084 364.12243127632934 C199.66328823310442 357.0226392222882, 201.1438806160747 353.47443793970086, 210.18279984311965 341.0091316650786 M193.65701095635075 363.29652190949815 C199.08681416504353 357.4614726306681, 205.1329529948033 350.7234428927677, 212.33317213037816 341.6298099204131 M204.31471625772207 363.48773530336956 C206.62012455325393 360.6260081897735, 209.46444166700232 355.7426490396399, 210.93072792840022 354.82591483589744 M204.1369845176199 362.9989088314299 C207.16678865270012 359.9576365906956, 210.0169365415083 356.5643341654542, 212.2917344032677 354.36946316320933" stroke="#7950f2" stroke-width="1" fill="none"></path><path d="M0.490010716396845 -1.656988042268053 C63.3532963983392 -0.9751264036786673, 127.82785312336485 -0.0730123941576084, 211.2286289315888 1.3528841826445062 M-0.8279713815051932 0.5112842378144914 C45.255485341874 1.7611207879465587, 91.0697528887828 1.7524608251725076, 211.4901001746691 0.8608194790531666 M212.73529200928132 -1.0773625904256716 C211.53503556200803 92.88151535410644, 210.81455701874978 186.27221651513628, 212.73949834951048 360.53764997053406 M210.99145749603153 0.2713569980365708 C210.7938777230005 124.34938371554126, 211.05410742300373 248.03377624021488, 212.05877227692858 360.4643853759368 M212.76946852278832 361.11548251442474 C132.8228047601421 361.82490001103235, 55.17274731210983 359.90505276604614, -1.6282795668942276 361.8457668940436 M211.2357927613156 360.9171015395758 C135.11049278062634 361.5540862265004, 59.6549796081352 360.6095045314985, -0.13120791592486153 360.26521494178945 M-0.38239608733003094 360.3662115662897 C1.890690513046186 253.11217666114786, 0.2763388687903741 144.35637757105087, -0.6257857737225632 0.256811462365125 M-0.30055712412695246 361.08129298955316 C-0.24512164347581986 250.5919469787491, -0.5467188746378825 139.71043249653417, 0.036618656332566245 -0.5975385329990113" stroke="#5f3dc4" stroke-width="2" fill="none"></path></g><g transform="translate(1156.3231756036932 280.65998979048163) rotate(0 105.74951171875 76.3702392578125)"><path d="M0 0 C0 0, 0 0, 0 0 M0 0 C0 0, 0 0, 0 0 M1.0759334781299938 10.965101406395018 C2.25730973699813 7.932012130418138, 6.839581393423838 3.1258184559202453, 10.676118431937827 1.0114389683201672 M0.23199032778848283 12.185291271328508 C3.171630220027511 9.818115985260432, 5.023340414376401 6.335819569564537, 9.880684450221192 -0.1822924752637981 M-0.22043066823861857 25.55157064059293 C6.237387811620865 15.227626358968262, 11.41570925693415 10.553529461317583, 22.760262625569368 -1.565579345992255 M0.4822396880201314 24.15233760671234 C5.345609305959551 19.82281874009349, 9.32491185105204 15.084353716338752, 21.075470306256676 -0.1756248889327523 M0.27870117676439676 37.50513735581313 C10.664253009360396 23.18707504297464, 23.78629424413177 8.93346647876356, 33.14942417801062 0.5503294431849604 M-0.6430730112921914 36.54330567624544 C10.364195899300451 24.518564124637482, 20.252880673474966 14.142901998529894, 32.6913435491238 0.5402924475505237 M0.4232681188731604 48.876178481289074 C9.944488726206439 35.02826726555657, 25.12997960244632 21.720648163157193, 44.028328009504605 -0.9842096130968088 M-0.6915789246559925 48.09454028555088 C12.198315592591843 36.36030570168249, 23.685792914995087 21.45469624077905, 42.12719550598018 -0.551287240502333 M1.8866789025346549 62.15829519880603 C11.375812013151581 48.32439260700101, 24.691698210338252 35.62197821156751, 52.972535643488825 -0.23889866327506226 M0.9387805947194607 60.159078651570184 C21.552877044054913 37.72848424082352, 41.40135014205195 14.395638011658889, 53.42434697760707 -0.8539894413725726 M-0.5992549488136163 72.6255353599265 C22.262507239447352 47.611504194077355, 45.10674024965684 19.982309601221303, 63.33495235340078 -1.1232836057873001 M-0.5387986523845782 72.9114202860221 C21.71674502791177 49.52537322158207, 41.104746986605484 24.142895487691796, 62.89169688978572 0.492232231658555 M-1.525378161734153 84.71210306621299 C18.122725239375107 66.18281522909365, 32.37515006669063 49.763611282188165, 74.62082716267797 -1.7617540890710188 M-0.14354274018685942 85.2897365756254 C15.892093252320196 68.441616541566, 30.881504922243373 51.935024686715046, 74.91822229329738 -0.20140395969019664 M1.1137492582200395 96.39206824945077 C20.891908340942955 70.52191853173288, 47.029202020976065 45.83233339070375, 84.86275284475789 1.131456488436271 M0.029341353103362167 96.93808036232159 C32.165448097702566 63.26882331383023, 62.630292437238296 27.0489303568789, 85.78547836392329 0.014992121299911787 M-1.1809118575325286 111.78552835075678 C32.86478056374812 68.8453815258631, 65.37219136061401 31.949254871600928, 96.99566592307806 -0.12272902170292355 M-0.7545981387516534 110.37504762238385 C37.22323531019715 67.96338313628888, 72.80150136866624 26.219976917675638, 95.48009840244472 -0.0825175136523626 M-0.9742340145448622 121.31186580191633 C41.079503160088954 77.24840509889651, 80.26557272653163 33.23387992160443, 105.23184667107594 -0.5432315179260954 M0.007088056038838886 122.70953494775375 C36.03101926801542 81.02437565815296, 70.82501259051205 41.42271297116878, 105.50629383464289 -0.7041989778282627 M2.1023130606205456 134.29590970449186 C43.13339744630301 83.97605687842545, 82.04707236012173 36.86678054057178, 116.77986008319857 1.8908939315520215 M0.49048636325609607 133.80940122515 C38.391679405550214 88.63165732271037, 78.09064183610059 43.03424488623658, 116.04229518230858 0.8955630707137274 M-0.9303966085988264 147.34764541004594 C29.94034829673667 115.88370865853781, 55.637266549371446 83.45645908311425, 128.84379199086442 -1.1533802321516262 M-0.29823866631865315 146.2436772162914 C37.49143754166271 102.83605587292647, 73.80534954405704 61.628614205254834, 126.37708817920401 0.5869271082468046 M4.431365368710573 156.75743878095403 C44.923243712388526 105.18148408290068, 90.33388002234605 56.17304619683894, 138.8964523644732 -0.15387486663854444 M3.8195227959297995 155.40468808025844 C46.91758923807049 104.22095446494558, 92.27485340310669 51.928190523949766, 136.86767240524878 0.9964734129281458 M15.206461317213707 155.15529987397477 C47.58381232918081 118.04206270894339, 79.26014544714172 82.23767750061086, 146.68563389723536 0.5585039941739278 M14.39182462152005 154.93464204546726 C43.867449548260055 122.61662579387729, 72.9179737264799 87.37408170482627, 148.88299981639508 0.1143877532742904 M24.748800612427075 155.2103500153048 C53.56747842043136 122.98714849418629, 80.55571984937197 90.21797751966938, 157.55081764877806 -0.05193439064960059 M23.940380231518898 155.4663831967265 C52.73725217430413 120.08554001451485, 81.07918269913323 86.50890856182089, 159.1630213806023 0.295204496955992 M34.28906849360844 155.13985341881136 C68.28550708995643 114.86423605986475, 101.93624682713735 77.42041590074167, 167.7037308896091 -1.0337953384919278 M34.651024623484886 154.54675868491503 C63.85270025647645 120.23073170037473, 94.01507769307518 85.0320898486949, 170.090359829804 0.4772168104771711 M47.31143098126563 154.4184260171116 C93.18281910776837 97.01708977710597, 140.51896564824136 44.14047121296094, 180.40214667148624 0.37894255201413374 M45.047251154351635 155.6419210515368 C84.72061647237618 110.19537263312402, 122.45295917835584 65.50736438714662, 180.6639337553088 0.781185750966734 M56.746616145739495 154.2010076130473 C99.10594928746092 108.4023646771835, 141.24229445016832 57.9570772891494, 190.2355715917147 1.2972633956222848 M56.29866426258693 155.6844695556727 C100.24094057999848 102.82625502136395, 145.6753818788718 52.089552759683386, 189.89980671451372 0.00284802655384761 M67.55531951378661 153.95953591360154 C94.04525079431397 123.26144344160582, 124.06400387786033 89.44001426260502, 203.06819468767168 -0.013025567402284999 M65.76950719297467 155.59709640015885 C102.15458881951054 114.18632332917564, 138.1967271410727 74.28875506093863, 202.00519526816575 0.23681466268043627 M77.06654024764644 155.68775255818196 C122.62220686410444 106.58569932764084, 162.71765782240954 56.92054839278227, 213.21307794236125 -0.9200963488518566 M77.16269719203079 155.17940373531496 C116.91838352860961 109.5331556324971, 156.27771526078791 65.45345614691172, 211.96618140535432 0.8046281906244851 M86.78176578605638 157.16736964269512 C133.05323701482502 101.95253428850725, 177.3636478111537 51.90887638769938, 212.95074955806962 13.964412102738123 M86.89474146353172 154.61629705450468 C119.00401321785773 117.73786394544464, 152.0412542171299 80.10103255051122, 212.76308697708777 11.303965527826648 M96.94212942589999 154.97923943040752 C141.6729647748915 103.30771802491842, 183.87528672963228 54.62248688284909, 210.65912517748671 25.324213559169266 M97.77546532285393 154.93632129406416 C138.7084178762711 108.06675662751162, 180.8107098497184 58.955525652923455, 211.40461235150593 24.73559064081678 M108.52753807917134 157.13895238828587 C140.55402236847138 120.24167104803294, 170.9364023721887 86.726719601189, 212.74975230025953 34.966235519606144 M109.6120321539779 154.75243737627494 C135.00520675728274 125.29415748227693, 160.66369294636942 95.39855488882364, 211.3756300587476 36.71151549670425 M117.63699076930789 154.42836886789277 C141.8127158823152 126.18472242714256, 165.1880205679317 102.22287432889144, 212.03666467083508 50.49345416583404 M118.74654400768486 155.67273856285587 C151.89401468306127 116.3797752263659, 184.64671657192469 78.89846024642101, 211.0828862456035 48.65508981243059 M129.89683026974717 156.03950547079071 C149.2619875445333 129.4378685301547, 171.92646068511107 108.0566415695319, 212.89229881265086 61.78929234941546 M129.91368105975607 155.4439899905257 C146.80146694618492 134.94651792197013, 164.93249185290193 114.68211437890113, 212.29426421285493 60.06112559971456 M138.83574310392672 157.19953504854212 C161.96992073095677 129.6166097967917, 184.14991153736077 103.84274142193884, 212.96643499914438 73.39732917191287 M140.05320161097282 155.13912867100308 C168.47566693715893 122.97385816015452, 194.91666809474106 91.52783598460144, 211.2952253862831 72.43810674527487 M152.25975954528397 154.7957867027096 C164.41302283517928 140.30986270216158, 174.48507380268967 128.889713259546, 212.90513822476262 84.9010095651116 M152.1224420871163 154.3447634910069 C172.6407081396827 129.85430721608873, 192.1203343640173 106.75326628310295, 212.04525028767878 85.25039859105308 M162.62725361725649 155.00074578485555 C178.7347647925959 138.29244522588985, 194.0873003782172 117.15590351279337, 213.34999432092414 99.52980597012856 M160.9088170389678 154.34867521225578 C174.9225385567737 140.48696045634526, 188.59695950539336 125.25281802875011, 212.61457465080426 98.0869096133224 M173.42394309328174 156.89705389654253 C179.45408743257062 145.43016665741112, 191.91441218402582 135.73666117634588, 213.37675578207586 108.31247581874902 M172.84231914230858 155.32731647146855 C182.38016885843234 144.2875028390238, 193.10728570554977 131.3907837058589, 211.0603352474502 110.37684890402431 M181.5378894967972 156.10250888933302 C195.45324421300464 141.704889248139, 205.15062851957438 130.95237094509554, 211.49457788165535 122.68322321253552 M183.80801919791983 155.53331178036393 C193.66534150627714 142.1187927811337, 203.28252652581062 129.9278598518349, 211.86330600339795 121.55838784987762 M195.63449810124038 156.39506486478953 C200.99628947535226 146.40530003847672, 207.3199216833658 140.91067157171264, 211.3649596431 134.8614085030505 M192.95856613158284 154.48295752566068 C197.12737183442488 150.1282178827304, 201.8171358858911 145.75735329973813, 213.08433896942864 135.020869712601 M203.3537300749676 154.14027954696323 C205.3613989555152 152.02280183980363, 209.18097492895433 151.03947208757657, 211.54526405291506 146.49585125854313 M204.45107306018411 154.58351893399487 C206.66318820633632 151.72239563053094, 210.09281207753534 148.79554908302114, 211.54533031772695 146.39451999392435" stroke="#7950f2" stroke-width="1" fill="none"></path><path d="M1.6761943529998424 0.6073019757140388 C63.70661044075423 0.19892151803801716, 129.80288164968616 -1.4519398313058347, 210.1285819758406 -0.4187431986075998 M-0.1750164043670669 0.48799162543824093 C58.36825657892582 1.0127051463846402, 118.0497291583715 2.441571598991428, 212.17814545473823 0.008048688018561154 M210.1254059933126 -1.887648370116949 C213.9429429060791 32.44218369457599, 214.465538430867 62.623307415763065, 211.5692912004888 152.63566574826837 M211.4845340717584 0.5838262867182493 C212.52350553266217 50.334248994495965, 211.72336938373257 101.23602172363599, 210.59431849606335 153.7282504271716 M211.33302035679944 151.43013269031167 C133.28157631947036 154.0881098210703, 52.941744561003624 153.25227355151395, 0.9310307827745802 152.2092011086393 M212.02610173792866 152.33376097170384 C145.01430188566306 150.90518327331773, 77.59896606970123 151.95196576960734, -0.783246974332237 152.40380859452415 M-0.751122985035181 151.28286788240075 C-0.6354912082196051 113.96678716547535, 0.5192835768222039 78.8918906831691, -1.8091374970972538 -0.8761223815381527 M-0.769872261211276 152.23655758611858 C-2.1068574278534697 100.6571720400782, -1.7939450233162688 50.110362101337614, -0.6842234265059233 -0.1490208674222231" stroke="#5f3dc4" stroke-width="2" fill="none"></path></g><g transform="translate(125.74456232244324 739.8457808061073) rotate(0 105.74951171875 76.3702392578125)"><path d="M0 0 C0 0, 0 0, 0 0 M0 0 C0 0, 0 0, 0 0 M0.0379140117298471 13.52743880492407 C1.869543776721469 9.975854254188485, 6.3208685233659025 5.746802397344418, 10.631424771201742 0.40374157681015754 M0.13280776972879038 11.744031171917497 C2.3476485728836263 8.883786785531457, 5.245031983582423 6.120914808121018, 10.36176770026697 -0.21272951559277753 M-0.28926771486184855 22.718493090658544 C5.356101385656598 19.691099433552033, 11.711930937235989 10.47643140458152, 19.483009593838716 -1.8466740162879702 M-0.20166931094608564 23.181048508449553 C8.075358773399346 15.986212545842807, 15.53525733407266 6.240317570852245, 21.712047376016045 0.0361094655632499 M-1.97734213816938 36.03828218747054 C7.799118370775501 29.347218689475156, 14.71888659723701 20.88626850314841, 33.78567288578192 0.9117022716685419 M0.13646365319374 37.55763707663988 C8.89436629539401 24.612393250329696, 19.286746031880142 14.801540927546778, 32.82987946592907 -0.1924674453899975 M-1.9163437690586633 49.47073612422578 C13.546561623889797 32.30116809919494, 32.44345612591823 12.49892632677384, 43.35749740209036 1.3515398938535697 M0.7837642431258374 48.384592282258794 C14.627130747804975 32.57217566732328, 26.820431726663223 15.995794894800724, 42.3809104846751 0.5244493417768723 M0.21166738691728426 59.677424832709534 C16.943176694157824 42.7635217735282, 33.01134721568756 21.76333397887258, 54.54357591620153 -0.553894548170387 M-0.011224519359060992 60.46221696724783 C16.434389042409762 42.07040163025751, 34.141640505562414 22.287679890842114, 53.99044560803539 -0.7070000362173907 M-1.0919658968040338 72.9753649144843 C19.940812135523892 52.06412381430107, 35.27541901592398 29.51954488473759, 64.59134495155294 -1.796178202840828 M1.0486775415202985 73.97477626832573 C16.669643940137473 54.20942726181981, 32.95500851791092 33.37201593454754, 63.98886813679118 0.045496432345963456 M0.5764429032148826 85.71672922111259 C27.471328179383924 51.221714439880586, 56.88082866664337 18.98234975368304, 76.02558478158208 -0.7067319685952498 M-0.5342712734548343 84.43270719721124 C27.697396256083127 55.674445362848246, 53.84912439908788 24.332500593409918, 75.22413949672374 0.7279226341856884 M1.2418650314210282 96.66855643437967 C19.555834000656915 76.07454351448578, 38.26028082422014 53.213333405852545, 87.02341942972646 -1.331820493871163 M0.10370643250628575 98.61482822084591 C28.24395121589188 65.61072871446603, 54.757804510515655 35.30881910415003, 84.8742992386143 0.48743433102052336 M-0.4502074307670867 111.61891274540247 C26.666133224674244 78.85227595633688, 52.57728697583143 50.490323307381495, 93.78931666942358 -1.8075521771060608 M-0.37535673183408136 110.7370009405029 C36.79671859374332 69.2330916717843, 72.73909604865221 27.346466416741023, 96.25996503824413 -1.1401408404307745 M-0.7951157389024672 123.53014933596631 C34.495839332915935 84.15618584404214, 70.19498795598236 44.87511984612877, 104.93008802411092 1.2651208332625643 M0.36497288031480934 122.16788757312378 C31.27352495418327 87.87164490760281, 61.65692349082289 52.65336475052801, 106.65683269639445 -1.042803368449448 M1.9702016304523937 133.14506405763365 C35.378969160832526 96.35445031882851, 66.40463668302462 56.831672639596405, 115.1738297382355 1.200112219019978 M0.772266069734215 133.59761263042725 C36.54807885765666 92.72362940946283, 71.57996507305381 51.866375057771876, 116.45211710985603 -0.5901722860939813 M1.3861499507349748 145.36661101196702 C29.780242568618185 111.563210565829, 60.86448820330315 78.36407108318896, 126.3691588932158 1.8323631712831272 M0.5616717622053642 146.97997249913212 C41.02307323295037 97.00156281421332, 82.19869021863883 48.16029015291083, 127.58128838739111 0.5351765079088224 M3.690968461032922 153.9895082730891 C46.661244079781646 107.88498252854161, 87.6898662040013 57.64189203270357, 137.88173425302966 1.5232076432272164 M3.14077197978724 155.62748206279045 C51.75498973168495 98.82861284209767, 102.83714239809476 41.70580593669247, 137.41840105451456 0.0808621207256732 M14.490162879842453 156.51262952617452 C62.55069862051142 98.33359137163212, 109.87441299463903 43.31270111070647, 147.84324407543417 -1.3026641708565516 M13.502250455234059 155.68246125436343 C52.352559430097656 109.8025435731592, 92.28446434651565 65.87496073284449, 149.03607649491195 1.1496964408539223 M25.009301441260654 154.15529864104582 C64.42163891885966 110.15868079158903, 102.61236993363643 66.77591501268881, 158.31217550626764 1.6189644891502422 M24.093797043702757 155.087484123686 C66.5374652909739 107.85264954948187, 109.10107649412366 57.50802285134282, 159.00720737010855 0.872143952891947 M35.60484422829529 155.64986248782017 C67.27390594030322 117.59319731228499, 99.75114197175637 80.25906079023568, 170.08732565978787 0.24375596211479983 M35.72721557087688 154.6303002435121 C86.34371836361653 95.29532968770226, 136.91580408786 35.636561970167655, 170.0679377401629 0.5914877452186682 M46.323267105204195 153.93340465536482 C97.33672904214149 92.11834779868732, 152.75261187134953 31.66154346091811, 181.31695243150267 1.3884243056543086 M45.94206072181503 154.38639207722068 C73.73379853973724 120.88421247553194, 102.91042507861597 86.18748092948417, 180.17752002450865 -0.2315337031620081 M54.79747346793021 155.1015110809971 C97.04117152471242 104.55793214969428, 141.95677725573756 55.00297739356092, 189.61841810786447 -0.1356051393469021 M55.31593128967784 155.53264066084918 C94.65121940389716 112.69173637492055, 132.05792663742233 68.5555045209401, 191.26644457991563 0.6057720422352336 M64.55133330321519 157.21448062000198 C92.74261369398556 124.76788842327998, 120.09823166799004 91.98797601695682, 201.31895512403779 -0.45867853799311487 M66.35254331949108 154.821482673964 C103.77981380563028 112.00236637832401, 140.82600212218455 68.82910126449835, 201.9404067217383 0.19471486254227272 M76.04798150065075 154.51793712935137 C127.18307423750224 96.01986209379919, 175.85403859389172 36.343439442251935, 212.19350409684412 -1.2512333053084703 M77.59929262566314 155.51220460248027 C113.83105650846139 112.64383306358225, 149.15211486921922 71.86997234147167, 212.65660409150667 0.4817178501794673 M87.92883678997026 155.43179956956737 C130.92913739547097 104.93921468466732, 173.69012242865568 56.8984592055633, 213.48645047531357 12.783388385811548 M87.94336305843757 154.62930475494795 C113.71887687187173 125.87005693229199, 137.9610110582102 96.92007635347909, 211.42839825400046 12.544613380247455 M98.21095412244082 154.41616615293407 C132.5518192915829 115.05564444939974, 167.0515725376025 72.01971043161646, 209.63213154517013 23.314588005084488 M97.18871666324318 155.9917732236334 C126.04441408608787 124.24241190170694, 152.4422796332361 92.23513757456172, 212.02189468249577 25.570989851269815 M110.64284791365162 157.25997258615422 C132.20336395585892 126.59455187352833, 158.4362086836184 93.90027290358964, 211.9355768136949 37.90132355805066 M108.71797720469431 155.8259805076264 C132.84423882868703 127.46940273291095, 158.52714405611528 98.6443112432197, 211.46630678365833 37.76770366284576 M117.34304843704012 153.53804797079042 C153.16658233871158 114.83552684356985, 190.00797865508198 75.28524237490213, 211.3553512753349 50.814539976495354 M118.83223110857216 155.87478549364582 C150.4474354249907 120.55607436464264, 179.1295825630024 88.50261012974715, 212.0648650792789 49.755370156916825 M129.08242971604386 156.11037765840516 C148.42603912949403 133.86650061820316, 167.71953931028557 114.02224145469691, 211.53342270352763 59.480628861981074 M130.66264292565802 154.58221894341037 C157.99973109762777 124.06483881153598, 185.06256314051745 91.30231281349006, 211.9194372451387 60.78856697020177 M141.65920952410036 156.74710325056085 C164.67778393216332 127.73698041414204, 186.43718635067384 98.27134617503957, 210.5141026217106 72.86113806607028 M139.98295533173317 156.28098349363873 C159.29047241478565 134.91198391215437, 176.24670585945617 113.76749879403046, 212.08696908201904 72.6980436144193 M150.27394938464707 153.75352259882013 C171.11392351150477 130.5093435709856, 191.80090015688816 108.38550261502144, 210.4629872743308 87.8324812705483 M151.0219891275788 154.37995365604976 C174.73484311101325 127.02876751473603, 198.87020034707012 101.055196503583, 211.7359254867106 85.832931056511 M159.90455457112154 155.59508980474538 C172.9854846121477 138.31861108351262, 186.93143276330065 125.60981224724506, 210.66619374280677 97.79209966653207 M162.2761432389762 154.55167581736214 C172.3680918845319 142.68484834296584, 184.08613667248798 129.05130120697143, 212.58302656797574 97.22940339775005 M171.68127410696124 156.52241521989916 C184.68161136666913 138.6759727680482, 201.09714894109678 122.67120782408531, 209.96900577158544 108.81171943580682 M172.32189471670662 155.91986823929463 C181.32174687613738 145.63088969824204, 188.75396101256604 136.01347634839328, 212.7693934726051 110.32643535507793 M181.26170076560365 156.19626544584395 C188.83779920958153 149.33326998468127, 195.55413050162113 140.91354137132328, 211.77510988410438 120.24351342993512 M183.62829873655127 154.246921058566 C189.55942192527135 147.73330532428432, 195.0662031445878 140.66895771585277, 211.29728450137998 121.13446394021346 M193.2057710704863 155.31256333414225 C197.23925405972963 150.5752420754967, 201.98548894911923 144.4022874747553, 213.765536353801 133.0998107504794 M194.36948859929143 155.12139628689496 C199.23359216718268 148.12281048661526, 204.65671094381167 142.98022958126256, 211.18653608008157 134.17759803987533 M203.8043161257164 155.17953524349835 C207.062180654931 152.40922691986603, 209.01727561754487 149.14627772205424, 210.49856750326103 146.60670290997325 M204.29184186533033 155.1345121470524 C205.66087321722512 152.99942289241764, 207.58862712923522 151.97034085295354, 211.0559394587191 146.6083648267023" stroke="#7950f2" stroke-width="1" fill="none"></path><path d="M0.6958928250027593 0.9704916300703277 C71.33139939476087 1.4164360023534794, 140.33772604848866 0.05343710554063019, 212.1243016898731 -0.702413299062173 M-0.7591065360025934 0.5190092242801655 C79.3102329635738 -2.500940965913963, 159.83775904945117 -2.016522280263515, 211.23068160299667 0.025338950945840377 M210.7385719679296 0.24711236730217934 C210.59079497959362 57.59824208277792, 211.1208634963249 112.3425335719353, 210.2322199009359 150.86696502938867 M210.96685622818768 -0.24336071498692036 C212.34821520569233 42.65507458871866, 210.84332327368168 85.0169326676928, 212.10495142824948 153.49051998369396 M211.50983362200117 153.120897352191 C164.00008573986761 155.7423343449951, 117.51454730957836 155.13522428709405, 1.6773428476779295 152.41509172227984 M212.17471971078436 152.97623722115964 C150.5811496348054 151.0722768552247, 89.07041229622352 151.73920140426415, -0.4364234741391164 153.29501489711558 M0.7931724451482296 151.96757826581597 C-0.8606528373410356 102.89886689612536, -1.5336101384808671 51.76164737824138, 1.029305424541235 1.6021480299532413 M-0.3522969614714384 153.0138513278216 C0.35094107423799414 96.2410576993309, 0.11302835975664038 42.30119368204622, -0.1515453588217497 0.7539843153208494" stroke="#5f3dc4" stroke-width="2" fill="none"></path></g><g stroke-opacity="0.3" fill-opacity="0.3" transform="translate(181.66476640800306 491.56517383225673) rotate(0.1231156796210457 100.5 25.5)"><text x="100.5" y="41" font-family="Cascadia, Segoe UI Emoji" font-size="42.92866854974358px" fill="#1864ab" text-anchor="middle" style="white-space: pre;" direction="ltr">viewport</text></g><g transform="translate(1466.5570623224426 116.60640092329504) rotate(0 41 17)"><text x="41" y="27" font-family="Cascadia, Segoe UI Emoji" font-size="28px" fill="#5f3dc4" text-anchor="middle" style="white-space: pre;" direction="ltr">Above</text></g><g transform="translate(424.682306463068 542.8671431107941) rotate(0 65.5 17)"><text x="65.5" y="27" font-family="Cascadia, Segoe UI Emoji" font-size="28px" fill="#5f3dc4" text-anchor="middle" style="white-space: pre;" direction="ltr">Entering</text></g><g transform="translate(675.1679021661923 386.12251420454413) rotate(0 74 17)"><text x="74" y="27" font-family="Cascadia, Segoe UI Emoji" font-size="28px" fill="#5f3dc4" text-anchor="middle" style="white-space: pre;" direction="ltr">Contained</text></g><g transform="translate(935.0106756036932 279.57954545454413) rotate(0 65.5 17)"><text x="65.5" y="27" font-family="Cascadia, Segoe UI Emoji" font-size="28px" fill="#5f3dc4" text-anchor="middle" style="white-space: pre;" direction="ltr">Covering</text></g><g transform="translate(1201.1161443536932 223.25019975142004) rotate(0 57.5 17)"><text x="57.5" y="27" font-family="Cascadia, Segoe UI Emoji" font-size="28px" fill="#5f3dc4" text-anchor="middle" style="white-space: pre;" direction="ltr">Leaving</text></g><g transform="translate(178.16912286931824 688.1732954545444) rotate(0 41 17)"><text x="41" y="27" font-family="Cascadia, Segoe UI Emoji" font-size="28px" fill="#5f3dc4" text-anchor="middle" style="white-space: pre;" direction="ltr">Below</text></g><g><g transform="translate(400.3749251867339 218.57506314239617) rotate(0 483.5880579573384 -39.46344611350071)"><path d="M0 0 C3.5676315813310673 -4.8173197199789115, 7.255093287084955 -21.889070089390106, 21.405789487986404 -28.90391831987347 C35.556485688887854 -35.91876655035683, 39.94072146403658 -39.75414033239688, 84.90417720540869 -42.08908938290017 C129.8676329467808 -44.42403843340346, 234.4044914479103 -41.65259657727637, 291.18652393621903 -42.9136126228932 C347.9685564245278 -44.174628668510024, 393.1519871678478 -42.94931933227995, 425.5963721352611 -49.655185656601134 C458.04075710267443 -56.36105198092232, 465.4051312118538 -82.96183039633083, 485.8528337406989 -83.1488105688203 C506.30053626954395 -83.33579074130976, 519.3152094226031 -57.47720668378398, 548.2825873083316 -50.777066691537925 C577.2499651940601 -44.07692669929187, 603.6011161021052 -44.082378716057896, 659.6571010550699 -42.947970615343934 C715.7130860080347 -41.81356251462997, 836.4007115450512 -46.3073158978522, 884.6184970261202 -43.97061808725414 C932.8362825071891 -41.63392027665608, 935.204210793391 -36.95987315660104, 948.9638139414837 -28.927783751755555 C962.7234170895765 -20.89569434691007, 964.140732252478 -1.3030320071102892, 967.1761159146768 4.221918341818764" stroke="#5f3dc4" stroke-width="4.5" fill="none" stroke-dasharray="3 6"></path></g></g><g transform="translate(841.6295720880682 78.85127397017004) rotate(0 49 17)"><text x="49" y="27" font-family="Cascadia, Segoe UI Emoji" font-size="28px" fill="#5f3dc4" text-anchor="middle" style="white-space: pre;" direction="ltr">OnView</text></g><g transform="translate(10 10) rotate(0 868.3371803977273 481.5074573863636)"><path d="M0.4160792447626591 -0.2387760616838932 C604.0409040277802 -0.15098488329812487, 1206.5387856040109 -1.0809478759662767, 1736.9691721731288 0.44001171812415124 M-0.24638939984142783 0.1372802544385195 C479.066176000656 -1.1937183615658626, 957.2993846354063 -1.2364503738377437, 1736.8347530571236 -0.10513697378337383 M1736.0085648351771 0.5632014535367489 C1740.5368348783131 320.9998960893198, 1739.8484663432712 642.5204064904838, 1736.0657980972392 963.0849092245779 M1736.849762841822 -0.36781979314982893 C1738.7027272749558 228.76987928038955, 1738.4503617454186 458.2125027466291, 1736.9457546321166 962.6668042924932 M1737.206747155772 962.6369136572562 C1059.7099398083728 962.2867750513456, 383.7159255823118 961.7460469829938, 0.10212954059243202 963.3099687100134 M1736.944995984198 962.8461106088689 C1356.7335058078493 958.4839350587828, 977.460212576691 958.5544347054465, -0.135581349208951 963.1676071074537 M0.3405334331095219 962.5042644024572 C-0.6564211922904761 622.536484989145, -0.8399572688361915 283.99700376308874, -0.5892984293401241 0.3755173228681088 M-0.3234951484948397 962.7806017783216 C-0.73680254420714 650.6796099710457, -0.7699412365861378 337.6601294705325, 0.24345840327441692 -0.019415540620684624" stroke="transparent" stroke-width="1" fill="none"></path></g><g transform="translate(774.111268939394 895.1735913825762) rotate(0 129 12)"><text x="0" y="19" font-family="Cascadia, Segoe UI Emoji" font-size="20px" fill="#000000" text-anchor="start" style="white-space: pre;" direction="ltr">v-view-position-helper</text></g></svg>