<?xml version="1.0" encoding="UTF-8"?>
<svg width="80px" height="80px" viewBox="0 0 80 80" version="1.1" xmlns="http://www.w3.org/2000/svg" xmlns:xlink="http://www.w3.org/1999/xlink">
    <!-- Generator: Sketch 63.1 (92452) - https://sketch.com -->
    <title>Arrow</title>
    <desc>Created with Sketch.</desc>
    <g id="Crea" stroke="none" stroke-width="1" fill="none" fill-rule="evenodd">
        <g id="d_OAP_HairDiag_Error-(1)" transform="translate(-922.000000, -490.000000)">
            <g id="Error" transform="translate(0.000000, 80.000000)">
                <g id="Arrow" transform="translate(922.000000, 410.000000)">
                    <circle id="Oval" fill="#3D3835" cx="40" cy="40" r="40"></circle>
                    <g id="reload" transform="translate(13.684211, 11.578947)" fill="#F8BDA1" fill-rule="nonzero">
                        <path d="M10.579549,11.4135607 C18.9690603,3.72703853 31.5243178,3.60950761 40.0298666,10.6261036 L33.2880878,10.8846716 C32.4178066,10.9199309 31.7447891,11.6486226 31.7796003,12.5301045 C31.8144116,13.3880802 32.5106366,14.0580065 33.3461066,14.0580065 C33.3693141,14.0580065 33.3809178,14.0580065 33.4041253,14.0580065 L43.7546704,13.6701544 C44.6017441,13.6348951 45.2631579,12.9414627 45.2631579,12.083487 L45.2631579,11.9659561 C45.2631579,11.9424499 45.2631579,11.9306968 45.2631579,11.9071906 L45.2631579,11.8954375 L45.2631579,11.8954375 L44.8802341,1.52921031 C44.8454229,0.647728404 44.1143866,-0.0339509356 43.2557091,0.00130834056 C42.3854279,0.0365676168 41.7124104,0.765259325 41.7472216,1.64674123 L41.9909004,8.14620114 C37.7787391,4.6555328 32.5918628,2.63400096 27.0452703,2.35192675 C20.1758503,1.99933399 13.5733165,4.38521168 8.47927022,9.06294232 C1.47060519,15.4918837 -1.49995483,25.2704563 0.727965182,34.5789052 C0.902021433,35.3075969 1.54022769,35.7894737 2.24805644,35.7894737 C2.37569769,35.7894737 2.49173519,35.7777206 2.61937644,35.7424613 C3.45484645,35.5309057 3.9770152,34.6729299 3.7681477,33.8267073 C1.81871769,25.6465552 4.4179577,17.0550449 10.579549,11.4135607 Z" id="Path"></path>
                        <path d="M51.9061431,22.2628935 C51.6980014,21.4166313 50.8538709,20.8877175 50.0213038,21.099283 C49.1887367,21.3108486 48.6683822,22.1688643 48.876524,23.0151265 C50.830744,31.1956606 48.2289718,39.7875722 42.0887896,45.4293199 C37.7756295,49.3902969 32.3639434,51.3414013 26.9753842,51.3414013 C21.8296571,51.3414013 16.6954934,49.5666015 12.5557848,46.0640165 L19.3550827,45.4410735 C20.2107766,45.358798 20.8467654,44.5948114 20.7658214,43.7132883 C20.6848773,42.8317652 19.9332543,42.1970686 19.0659969,42.2793441 L8.78610605,43.2196354 C7.93041209,43.3019108 7.29442335,44.0658975 7.37536737,44.9474206 L8.30044191,55.3964074 C8.3698225,56.2191623 9.05206498,56.8421053 9.84994177,56.8421053 C9.8961955,56.8421053 9.94244922,56.8421053 9.98870295,56.8303516 C10.8443969,56.7480761 11.4803856,55.9840895 11.3994416,55.1025664 L10.8443969,48.7438466 C15.0419226,52.1994171 20.1876498,54.2092897 25.6802799,54.4913771 C26.1196903,54.5148843 26.5591007,54.526638 26.9869477,54.526638 C33.3583986,54.526638 39.4176368,52.1524025 44.1817707,47.7800481 C51.1660835,41.3508064 54.126322,31.5835308 51.9061431,22.2628935 Z" id="Path"></path>
                    </g>
                </g>
            </g>
        </g>
    </g>
</svg>