<?xml version="1.0" encoding="UTF-8"?>
<svg width="22px" height="22px" viewBox="0 0 22 22" version="1.1" xmlns="http://www.w3.org/2000/svg" xmlns:xlink="http://www.w3.org/1999/xlink">
    <!-- Generator: sketchtool 49.3 (51167) - http://www.bohemiancoding.com/sketch -->
    <title>22F55212-B8E8-438C-97C0-47CD2B7F6531-black</title>
    <desc>Created with sketchtool.</desc>
    <defs></defs>
    <g id="Page-1" stroke="none" stroke-width="1" fill="none" fill-rule="evenodd">
        <g id="loreal_d_pdp_dream_length" transform="translate(-1304.000000, -4014.000000)" fill="#FFFFFF">
            <g id="Desktop---Footer" transform="translate(0.000000, 3764.000000)">
                <g id="Desktop---Footer-Copy" transform="translate(0.000000, 65.000000)">
                    <g id="social" transform="translate(1290.000000, 171.000000)">
                        <g id="Instagram">
                            <path d="M25.0000208,14.5 C27.8516288,14.5 28.2091999,14.5120871 29.3291366,14.5631866 C30.4467391,14.614161 31.2100216,14.7916753 31.877899,15.0512572 C32.5683668,15.3195502 33.1539265,15.6785801 33.737694,16.262306 C34.3214199,16.8460735 34.6804498,17.4316332 34.9487844,18.122101 C35.2083247,18.7899784 35.385839,19.5532609 35.4368134,20.6708634 C35.4879129,21.7908001 35.5,22.1483712 35.5,25.0000208 C35.5,27.8516288 35.4879129,28.2091999 35.4368134,29.3291366 C35.385839,30.4467391 35.2083247,31.2100216 34.9487844,31.877899 C34.6804498,32.5683668 34.3214199,33.1539265 33.737694,33.737694 C33.1539265,34.3214199 32.5683668,34.6804498 31.877899,34.9487844 C31.2100216,35.2083247 30.4467391,35.385839 29.3291366,35.4368134 C28.2091999,35.4879129 27.8516288,35.5 25.0000208,35.5 C22.1483712,35.5 21.7908001,35.4879129 20.6708634,35.4368134 C19.5532609,35.385839 18.7899784,35.2083247 18.122101,34.9487844 C17.4316332,34.6804498 16.8460735,34.3214199 16.262306,33.737694 C15.6785801,33.1539265 15.3195502,32.5683668 15.0512572,31.877899 C14.7916753,31.2100216 14.614161,30.4467391 14.5631866,29.3291366 C14.5120871,28.2091999 14.5,27.8516288 14.5,25.0000208 C14.5,22.1483712 14.5120871,21.7908001 14.5631866,20.6708634 C14.614161,19.5532609 14.7916753,18.7899784 15.0512572,18.122101 C15.3195502,17.4316332 15.6785801,16.8460735 16.262306,16.262306 C16.8460735,15.6785801 17.4316332,15.3195502 18.122101,15.0512572 C18.7899784,14.7916753 19.5532609,14.614161 20.6708634,14.5631866 C21.7908001,14.5120871 22.1483712,14.5 25.0000208,14.5 Z M25.0000208,16.3918885 C22.1963864,16.3918885 21.8642816,16.4026002 20.757099,16.4531162 C19.7333593,16.4997976 19.1773923,16.6708515 18.8074005,16.8146469 C18.3172876,17.0051236 17.9675106,17.2326538 17.600103,17.600103 C17.2326538,17.9675106 17.0051236,18.3172876 16.8146469,18.8074005 C16.6708515,19.1773923 16.4997976,19.7333593 16.4531162,20.757099 C16.4026002,21.8642816 16.3918885,22.1963864 16.3918885,25.0000208 C16.3918885,27.8036136 16.4026002,28.1357184 16.4531162,29.242901 C16.4997976,30.2666407 16.6708515,30.8226077 16.8146469,31.1925995 C17.0051236,31.6827124 17.2326954,32.0324894 17.600103,32.399897 C17.9675106,32.7673462 18.3172876,32.9948764 18.8074005,33.1853531 C19.1773923,33.3291485 19.7333593,33.5002024 20.757099,33.5468838 C21.8641565,33.5973998 22.196178,33.6081115 25.0000208,33.6081115 C27.803822,33.6081115 28.1358851,33.5973998 29.242901,33.5468838 C30.2666407,33.5002024 30.8226077,33.3291485 31.1925995,33.1853531 C31.6827124,32.9948764 32.0324894,32.7673462 32.399897,32.399897 C32.7673462,32.0324894 32.9948764,31.6827124 33.1853531,31.1925995 C33.3291485,30.8226077 33.5002024,30.2666407 33.5468838,29.242901 C33.5973998,28.1357184 33.6081115,27.8036136 33.6081115,25.0000208 C33.6081115,22.1963864 33.5973998,21.8642816 33.5468838,20.757099 C33.5002024,19.7333593 33.3291485,19.1773923 33.1853531,18.8074005 C32.9948764,18.3172876 32.7673462,17.9675106 32.399897,17.600103 C32.0324894,17.2326538 31.6827124,17.0051236 31.1925995,16.8146469 C30.8226077,16.6708515 30.2666407,16.4997976 29.242901,16.4531162 C28.1357184,16.4026002 27.8036136,16.3918885 25.0000208,16.3918885 Z M25.0000208,19.6081115 C27.9778769,19.6081115 30.3918885,22.0221231 30.3918885,25.0000208 C30.3918885,27.9778769 27.9778769,30.3918885 25.0000208,30.3918885 C22.0221231,30.3918885 19.6081115,27.9778769 19.6081115,25.0000208 C19.6081115,22.0221231 22.0221231,19.6081115 25.0000208,19.6081115 Z M25.0000208,28.5 C26.9330057,28.5 28.5,26.9330057 28.5,25.0000208 C28.5,23.0669943 26.9330057,21.5 25.0000208,21.5 C23.0669943,21.5 21.5,23.0669943 21.5,25.0000208 C21.5,26.9330057 23.0669943,28.5 25.0000208,28.5 Z M31.8649366,19.3950859 C31.8649366,20.0909722 31.3008003,20.6550668 30.6049141,20.6550668 C29.9090695,20.6550668 29.3449332,20.0909722 29.3449332,19.3950859 C29.3449332,18.6991997 29.9090695,18.1350634 30.6049141,18.1350634 C31.3008003,18.1350634 31.8649366,18.6991997 31.8649366,19.3950859 Z" id="Instagram-Copy"></path>
                        </g>
                    </g>
                </g>
            </g>
        </g>
    </g>
</svg>