<?xml version="1.0" encoding="UTF-8"?>
<svg width="60px" height="60px" viewBox="0 0 60 60" version="1.1" xmlns="http://www.w3.org/2000/svg" xmlns:xlink="http://www.w3.org/1999/xlink">
    <title>44432DBE-59CD-4E3B-B6C2-CAD491F75335</title>
    <g id="PdP" stroke="none" stroke-width="1" fill="none" fill-rule="evenodd">
        <g id="OAP_320_PDP_Player_Pause" transform="translate(-162.000000, -154.000000)">
            <g id="img-slider" transform="translate(-1474.000000, 56.000000)">
                <g id="icons-/-player-/-play" transform="translate(1636.000000, 98.000000)">
                    <path d="M22.5,18 C23.2124684,18 23.8167615,18.4478597 23.9662335,19.0669126 L23.9911754,19.2020863 L24,19.3457944 L24,40.6542056 C24,41.3974673 23.3284271,42 22.5,42 C21.7875316,42 21.1832385,41.5521403 21.0337665,40.9330874 L21.0088246,40.7979137 L21,40.6542056 L21,19.3457944 C21,18.6025327 21.6715729,18 22.5,18 Z M37.5,18 C38.2124684,18 38.8167615,18.4478597 38.9662335,19.0669126 L38.9911754,19.2020863 L39,19.3457944 L39,40.6542056 C39,41.3974673 38.3284271,42 37.5,42 C36.7875316,42 36.1832385,41.5521403 36.0337665,40.9330874 L36.0088246,40.7979137 L36,40.6542056 L36,19.3457944 C36,18.6025327 36.6715729,18 37.5,18 Z" id="Combined-Shape" fill="#FFFFFF"></path>
                </g>
            </g>
        </g>
    </g>
</svg>
