<?xml version="1.0" encoding="UTF-8"?>
<svg width="60px" height="60px" viewBox="0 0 60 60" version="1.1" xmlns="http://www.w3.org/2000/svg" xmlns:xlink="http://www.w3.org/1999/xlink">
    <title>10540D7F-E65D-46D6-8FCD-002916F6B51B</title>
    <g id="PdP" stroke="none" stroke-width="1" fill="none" fill-rule="evenodd">
        <g id="OAP_1440_PDP_Full" transform="translate(-150.000000, -1482.000000)">
            <g id="imgs" transform="translate(0.000000, 72.000000)">
                <g id="play" transform="translate(150.000000, 1410.000000)">
                    <path d="M24.5070882,17.25 C22.1559633,17.25 20.25,19.1133639 20.25,21.4119399 L20.25,39.3373283 C20.25,40.0544185 20.4395146,40.7593441 20.8001697,41.3837603 C21.9562213,43.3852771 24.5530302,44.0916082 26.6003047,42.9613951 L42.8353798,33.9987008 C43.5101203,33.6262053 44.0680704,33.0807257 44.4490817,32.421066 C45.6051333,30.4195493 44.8826543,27.8807805 42.8353798,26.7505674 L26.6003047,17.7878731 C25.9616134,17.4352788 25.2405721,17.25 24.5070882,17.25 Z M24.5070882,19.6282514 C24.8214384,19.6282514 25.1304561,19.7076566 25.404181,19.8587684 L41.6392561,28.8214626 C42.5166594,29.3058397 42.8262933,30.3938834 42.3308426,31.2516764 C42.167552,31.5343877 41.9284306,31.7681646 41.6392561,31.9278056 L25.404181,40.8904998 C24.5267776,41.3748768 23.4138595,41.0721635 22.9184088,40.2143706 C22.7638424,39.9467636 22.6826218,39.6446527 22.6826218,39.3373283 L22.6826218,21.4119399 C22.6826218,20.4268359 23.4994632,19.6282514 24.5070882,19.6282514 Z" id="Triangle" fill="#FFFFFF"></path>
                </g>
            </g>
        </g>
    </g>
</svg>
