<?xml version="1.0" encoding="UTF-8"?>
<svg width="22px" height="22px" viewBox="0 0 22 22" version="1.1" xmlns="http://www.w3.org/2000/svg" xmlns:xlink="http://www.w3.org/1999/xlink">
    <!-- Generator: sketchtool 49.3 (51167) - http://www.bohemiancoding.com/sketch -->
    <title>544648FA-774A-4C35-BE4F-575B21B04292-black</title>
    <desc>Created with sketchtool.</desc>
    <defs></defs>
    <g id="Page-1" stroke="none" stroke-width="1" fill="none" fill-rule="evenodd">
        <g id="loreal_d_pdp_dream_length" transform="translate(-1588.000000, -4014.000000)" fill="#FFFFFF">
            <g id="Desktop---Footer" transform="translate(0.000000, 3764.000000)">
                <g id="Desktop---Footer-Copy" transform="translate(0.000000, 65.000000)">
                    <g id="social" transform="translate(1290.000000, 171.000000)">
                        <g id="Pinterest" transform="translate(284.000000, 0.000000)">
                            <path d="M25.0006468,14 C18.9259717,14 14,18.9246781 14,25.0006468 C14,29.5036162 16.708767,33.3740225 20.5856412,35.0750867 C20.5545952,34.3079908 20.5804669,33.3843711 20.7757982,32.5487152 C20.9879461,31.6561416 22.1909802,26.555536 22.1909802,26.555536 C22.1909802,26.555536 21.8404187,25.8531193 21.8404187,24.8143706 C21.8404187,23.1844535 22.7860293,21.96719 23.961898,21.96719 C24.9618392,21.96719 25.44564,22.7187629 25.44564,23.619098 C25.44564,24.6242136 24.8040219,26.1286529 24.4741577,27.5218439 C24.1986241,28.6899512 25.0588581,29.6407362 26.2101488,29.6407362 C28.2941142,29.6407362 29.6976539,26.9643088 29.6976539,23.7924384 C29.6976539,21.3824896 28.0742047,19.5779385 25.1209502,19.5779385 C21.7847945,19.5779385 19.7060034,22.0655024 19.7060034,24.844123 C19.7060034,25.8039631 19.9880049,26.4792144 20.430411,27.0018228 C20.6347974,27.2437232 20.6619627,27.3394485 20.5882284,27.6162757 C20.536485,27.8167813 20.414888,28.3057565 20.3644382,28.4985006 C20.2907038,28.7766214 20.06562,28.877521 19.8146645,28.7740342 C18.276592,28.1466455 17.5612395,26.4636914 17.5612395,24.5711766 C17.5612395,21.4471688 20.1962721,17.6983595 25.4223555,17.6983595 C29.622626,17.6983595 32.3870171,20.7395778 32.3870171,24.0007056 C32.3870171,28.3161051 29.9887105,31.5397189 26.4507556,31.5397189 C25.2645381,31.5397189 24.1468807,30.8981008 23.7639795,30.1698124 C23.7639795,30.1698124 23.1249486,32.7039454 22.9904157,33.1929206 C22.7575704,34.0402187 22.3009349,34.8888105 21.883107,35.5485388 C22.8726995,35.840889 23.9179162,36 25.0006468,36 C31.0753219,36 36,31.0753219 36,25.0006468 C36,18.9246781 31.0753219,14 25.0006468,14" id="Pinterest-Copy"></path>
                        </g>
                    </g>
                </g>
            </g>
        </g>
    </g>
</svg>