<svg id="Layer_1" data-name="Layer 1" xmlns="http://www.w3.org/2000/svg" viewBox="0 0 100 100"><title>SCORE_B</title><path d="M36.3,49.994l-.375-.162-.161-.325.215-.488v-.325l-.375-.108-.322-.217-.16-.325.107-.27-.482-.163-.375.054h-.321l.161-.324.053-.217h-.375l-.321.217-.482.162-.7.054-.535.163-.375.379-.215.541v.542l.268.216h.964l.375-.325.267.054v.217l.268-.054.268-.217.268.109-.054.325.054.216.268.054.321.325-.107.379-.214.271-.268.163v.379l.16.162-.214.108-.535.054-.375.217-.214.325.214.271.375.054.321-.217.482.163.375.487.642.108.375-.162.107-.217-.214-.162-.214-.217s.375-.108.428-.108h.322l.107-.325-.268-.324-.161-.326.054-.325.268-.162.374.434.107.107.108-.162.161-.325.267-.271.161-.379-.375-.162H36.3Z" style="fill:#b3b5b5"/><line x1="2.037" y1="53.472" x2="19.333" y2="58.947" style="fill:none;stroke:#fff;stroke-width:1.2610000371932983px"/><path d="M39.853,35.089a21.712,21.712,0,0,1,6.025-1l0-.067v-.049L45.34,12.76a43.306,43.306,0,0,0-39.6,28.52l20.533,6.484A21.575,21.575,0,0,1,39.853,35.089" style="fill:#e9e9e7"/><path d="M27.022,49.16l.331-1.055-1.078-.341c-.143.36-.31.71-.431,1.077l-.034-.011c-.121.36-.221.729-.324,1.1l1.178.372Z" style="fill:#e9e9e7"/><path d="M33.227,72.539a21.018,21.018,0,0,1-7.741-22.613L4.993,43.456A42.161,42.161,0,0,0,20.587,89.94l3.718-4.956Z" style="fill:#e9e9e7"/><path d="M69.812,91.745,58.788,73.5l.321-.195,1.646-1L71.5,90.091A42.714,42.714,0,0,0,87.74,43.552L67.178,50.065a21.365,21.365,0,0,1-8.357,22.843l.253.352a21.731,21.731,0,0,1-19.415,2.819,21.432,21.432,0,0,1-4.582-2.174L22.565,91.357A42.807,42.807,0,0,0,32.6,96.3a43.438,43.438,0,0,0,37.207-4.554" style="fill:#e9e9e7"/><path d="M68.385,47.27l26.038-8.247C87.575,18.865,69.971,4.546,47.416,3.9l.7,27.885A23.654,23.654,0,0,1,68.385,47.27" style="fill:#e9e9e7"/><path d="M53.387,77.934a23.673,23.673,0,1,1,15.359-29.7,23.642,23.642,0,0,1-15.359,29.7" style="fill:#fff"/><path d="M47.441,4.936A50.66,50.66,0,0,1,93.962,39.168l3.476-1.1A54.161,54.161,0,0,0,47.352,1.386Z" style="fill:#8acf2e"/><polygon points="12.706 69.829 12.706 63.82 17.187 63.82 17.187 64.996 14.005 64.996 14.005 66.215 16.806 66.215 16.806 67.391 14.005 67.391 14.005 68.652 17.23 68.652 17.23 69.829 12.706 69.829" style="fill:#757779"/><path d="M45.756,91.632H43.439V85.623h2.317a2.977,2.977,0,0,1,3.158,2.987v.018a2.991,2.991,0,0,1-3.158,3m1.791-3a1.717,1.717,0,0,0-1.791-1.812h-1.01v3.623h1.01a1.7,1.7,0,0,0,1.791-1.794Z" style="fill:#757779"/><path d="M78.305,68.62a3.016,3.016,0,0,1-3.047-3.089v-.017A3.192,3.192,0,0,1,80.7,63.333l-.832.971a2.178,2.178,0,0,0-1.52-.679,1.772,1.772,0,0,0-1.723,1.87v.019A1.776,1.776,0,0,0,78.347,67.4a2.13,2.13,0,0,0,1.562-.7l.833.85a3.025,3.025,0,0,1-2.437,1.072" style="fill:#757779"/><path d="M20.656,63.469a26.837,26.837,0,1,1,33.6,17.2,26.718,26.718,0,0,1-33.6-17.2M71.721,47.294a26.731,26.731,0,1,0-17.5,33.27,26.611,26.611,0,0,0,17.5-33.27" style="fill:#427dbc"/><path d="M20.591,63.593a27.134,27.134,0,1,1,33.97,17.39,27.016,27.016,0,0,1-33.97-17.39M71.656,47.418a26.434,26.434,0,1,0-17.307,32.9,26.315,26.315,0,0,0,17.307-32.9" style="fill:#b3b5b5"/><path d="M68.286,55.984v-.149l-.245-.346V54.55l.2.049.049-.346c0,.3.049.593.049.889a5.145,5.145,0,0,0-.049.842M37.957,76.167l-.049-.149h.245l.244-.148v-.346l.049-.2.342.049.245.2.244-.248.245-.2-.1-.247-.294-.248-.1-.4.147.05.391.05.392.1.391-.049.244-.544.245-.1.244-.3.147-.544.049-.545.245-.247.734-.346.586-.148.343-.347v-.247l.2-.2.293-.247v-.4l.147-.1.049-.347-.1-.4V68.8l.294-.149.2-.4.392-.445.2-.544v-.694l-.294-.345h-.245l-.294-.149-.1-.148-.392-.347h-.391l-.44-.148-.538-.247-.049-.2-.392-.148H41.43l-.244-.3-.245-.2-.244.1-.245.3v-.247l.342-.4v-.5l-.342-.147-.1-.348-.391-.394-.392-.149h-.538l-.2-.148h-.49l.1-.2-.147-.4h-.782l.1-.148.342-.149-.245-.3-.684-.048-.637.048-.44-.148-.146-.247h-.489l-.245-.247-.44.2-.343.2-.342.247-.147.3-.245.2-.342-.3-.392-.05-.489.05-.294-.3-.2-.4.049-.494v-.445l-.343-.2-.587-.1H30.57l.049-.247.2-.4.293-.593.05-.347-.294-.248-.489.1-.147.395-.294.347-.538.3-.44-.049-.2-.3-.342-.248-.049-.445v-.743l.1-.494.147-.346.1-.446.391-.444.587-.15h.49l.439.15h.44v-.348h.294l.44.05.343.2.293.3.1.346.1.446.245.346.293-.149v-.4l.146-.691.05-.545.1-.643.148-.3.342-.3.44-.345.147-.149-.245-.347.05-.494.048-.495.147-.05.049.347.293.148.1-.395.245-.347.245-.445h.391l.343-.148.147-.3-.1-.446.392-.494.392-.247.489-.248-.2.248v.3l.294.1.342-.346.636-.3.538-.3.146-.2-.048-.3h-.245l-.2.148-.391.247h-.244l-.147-.148-.1-.3.147-.346.1-.247h-.245l-.293-.149.1-.3.343-.1h.538l.195.1.587-.148.147-.346.245-.346.2-.15.391-.1.293-.049.147-.149v-.2l-.2-.3-.342-.2-.343-.247-.244-.3-.294-.149.2-.346-.146-.149-.2-.3.048-.2.05-.495-.147-.3h-.293l-.245.2-.2.347-.343.148-.2-.2-.2-.248v-.346l-.147-.049-.244-.1-.1-.248-.342-.1h-.49l-.44.1-.048.3.2.3-.147.345-.293.2.048.3.245.345v.3l-.2.444-.342.445-.244.3-.294.2-.049.247.1.4-.1.346-.146.2-.147.2-.245-.1-.1-.3-.1-.4.048-.4.049-.346.2-.4-.147-.049-.343.148-.244.05-.343-.248-.194-.1L32.82,45l-.2-.2h-.343l-.293-.247-.049-.446.049-.345.1-.2.195-.346.489-.149.344-.247.1-.247.147-.248.245-.2.146-.346v-.248l.2-.2h.342l.245-.247.244-.2.294-.05.2-.148.2-.148.244-.05.1-.247-.147-.247.048-.3.147-.2-.1-.247h-.342l-.2.148-.146.1v.2l-.1.247-.2.247-.294.2h-.2l-.147-.2.147-.346.1-.3-.1-.049-.392.4h-.684l-.245.149-.147.147-.1.2-.146.3-.294.1-.1-.3H31.94l-.293.2h-.294l-.392.148-.244.2-.245.2-.2.2-.293-.149-.244-.149h-.294l-.1.2-.244.1h-.2l-.049-.2L28.809,41H28.76c.147-.149.245-.346.392-.495l.147.1.44.1.244-.148.392-.1.293-.2.2-.2h.489l.391-.05.293-.248v-.3l-.2-.05-.294-.148-.1-.2.048-.2v-.3l-.146-.247-.1.048a20.056,20.056,0,0,1,1.565-1.285l.1.1h.537v.2l-.147.2-.244.1-.391.148-.392.346-.195.3-.05.248.2.148.245-.05.2-.1h.2l-.05.247v.247l-.293.2h.636l.2-.1.293-.148.244-.248.05-.3-.2-.2-.2-.2v-.246l.2-.149.343-.1.195-.2v-.3h-.147l-.2-.247-.05-.3-.342-.05-.1-.048c.049-.05.1-.05.148-.1l.342-.248a.252.252,0,0,1,.2-.1l.147.05.2.1-.1.346v.248l.147.1h.244l.2-.1.294-.049.294-.1.343-.05.293-.1.244-.05.245-.149.1-.247v-.4l.293-.1.244-.247-.1-.248.2-.2.244-.1.245-.346.1-.2a6.908,6.908,0,0,1,1.859-.742l-.2.247-.734.3-.391.346.244.3v.593h.343l.782-.2.979-.049.783,1.187-.1.693-.147.346.147.4-.147.445.1.594h.293l.392-.2v.346l-.538.347-.147.3.049.4.146.2V40.5l.245.4.294.791.538.841.635-.049.2.3.244-.05.2-.4.2-.543.245-.693.147-.693.2-.445.342-.148h.489l.245-.05.293-.3.343-.545.635-.346.343-.347.734-.2.489-.1.2-.1v-.2l-.146-.148h-.538l-.294-.149-.049-.247.1-.149.39-.049.489.049.147-.345-.293-.248.44-.495v-.84l.294-.3v-.2l-.2-.148.293-.149.148-.2-.245-.2-.343-.149-.146-.247.2-.2.391-.247A22.284,22.284,0,0,1,54,34.168a21.935,21.935,0,0,1,5.625,3.216l-.539.1-.244.247-.343.4v.2l-.244.445-.1.247-.147.446-.293.247-.245.148V40.2l-.293.248-.245.148-.147.3-.489.347-.391.345-.2.4.1.3.147.1v.89l.293.1.441-.2.342-.2h.2l.2.1.146.3.2.346v.544l.1.2.244-.149.2-.248h.342l.2-.048s-.049-.3,0-.3-.2-.3-.2-.3l-.1-.149.293-.247.391-.2.147-.346-.2-.346-.342-.2.049-.445.2-.347.294-.4a2.411,2.411,0,0,0,.147-.347v-.445l.391-.4h.343l.293.347-.245.444-.293.149.049.495-.147.446.049.593.2.4.441.049L61,42.33l.44-.2.392.049.245.248v.247l-.245.1-.294.049h-.342l-.391-.1-.147.248.293.4v.346l-.245.1-.293-.2-.245.049-.146.445-.1.347-.1.346-.343.149L58.747,45l-.685.1-.489.049-.2.05-.293-.347.146-.346.1-.4-.049-.395-.294-.2-.343.2.05.395-.05.4.147.346.1.3-.1.2L56.5,45.5l-.293-.148-.342.347-.147.4-.489.347-.2.1v.347l-.293.05-.343-.1-.2.3-.049.2h-.391l-.294.2.2.4.391.4.342.248.2.1-.049.3-.2.4h-.979l-.147.1h-.831l-.147.3.1.4.146.248-.244.346v.989l.244.2.3-.05.244.148.342-.05.245-.048.2.048.392-.147.244-.2.294-.4.147-.444.2-.347.342-.3.245-.444.294-.149.44-.05.391-.346.343-.1h.342l.147.3.245.5.244.3.391.346.245.051.147.444.048.495h.147v-.544l.147-.2h.147l.2.1-.1-.247-.293-.2-.2-.049L58.7,50l-.293-.4-.245-.148-.2-.2-.048-.4.146-.148.391.148.245.149s.2.4.244.4a2.033,2.033,0,0,1,.343.247l.49.247.244.247.2.149-.1.3-.1.346.2.3.148.347.147.445H60.7l.392-.2.294-.148.048-.249-.44-.3V50.79l.294-.3.93-.394.146-.4.293-.4.05-.446.146-.3.293-.2h.245l.147.445.342-.3.539-.148.293-.2.1.3-.049.445.147.346.293.2.294.3.342.348-.147.247-.44.147-.147.051-.391-.2H64.47l-.391-.3-.391-.149-.2.2.049.247-.342.049h-.343l-.489-.049-.391.4v.347l-.147.247.049.544.293.2.244.2.2.1.343.1.2-.247.2.05.147.2h.294l.2-.247.343.1.1.2-.1.4.1.347-.294.395-.1.148.1.347-.049.049-.293-.049-.441.148H63l-.343.049-.342-.049-.147-.148h-.293l-.2.1-.245-.2-.342-.347-.392-.149-.538.149v.5l-.293.2-.342-.05-.343-.2-.342-.446-.489-.049-.343-.148-.2-.247-.245-.3.147-.2v-.3l.048-.247-.1-.3-.391.048-.245.2-.539.049-.2-.2-.489.05h-.685l-.391.148-.343.3-.146.247-.489-.1-.392-.1-.2.05v.247l-.294.3-.44.248-.441.3v.247l.1.644-.146.3-.294.2-.245.446h-.245l-.244.643-.391.346-.1.347-.293.494v.544l.048.4.05.248L50.089,59v.3l-.2.446-.2.247.2.3.2.545.2.395.391.841.3.149.194.5.294.345.44.347.49-.05.244-.2.392.2.391-.1.49-.15.684-.2h.44l.2-.148.392.148.048.3.147.05.049.247h.685l.147.2-.05.4v.445l-.147.3.05.247-.2.3.2.4.2.248.146.247.1.445.049.3.147.247v.148l-.2.347.244.3-.2.5.1.346-.245.5-.245.5-.1.692-.05.445.147.4.245.3-.1.445-.244.2.147.347.049.544v.693l.146.346.147.594a22.189,22.189,0,0,1-11.1,2.968,26.129,26.129,0,0,1-7.974-1.682m-7.582-4.946c-.049-.051-.049-.051-.1-.1-.489-.494-.977-1.038-1.418-1.583a21.91,21.91,0,0,1-2.544-3.858l-.391-.743c-.293-.593-.538-1.187-.783-1.78l-.244-.792a24.116,24.116,0,0,1-1.126-7.174V54.45h.05l.2.494v.348l.294.147v.3l-.147.3.245.1s0,.345-.049.345v.346l.146.2.343.2.293.148.1-.2-.1-.4-.147-.445-.146-.495v-.4l-.2-.495.342.2.147.4.343.494.342.495-.048.4.048.4.441.247v.3l-.2.3v.2l.441.1.146.247.147.247.342.3.391.1.2.1.489-.1h.49l.342.1.245.3.244.3.391.148.342.05.343.247.391.4.1.545.343.048.2.2s.2.2.2.248.245.049.245.049l.391-.049.2.2.2-.2.245.147.146.4v.394l.048.447-.244.4-.44.4-.294.346-.146.494.244.3-.1.149-.2.3.1.247.245.3.293.3.49.3.1.4.2.3.294.494.2.346.1.248.2.1.145.3.636.4.392.248.049.345-.147.446.147.247.1.346-.049.446v.444l-.147.3.1.247.146.2.1.2-.2.544.2.149v.248l-.05.395v.693l-.049.247a20.007,20.007,0,0,1-3.815-2.572c-.147-.1-.294-.248-.44-.346-.147-.149-.343-.3-.49-.446M67.944,55.341l-.147-.347-.1-.346.194-.148.147.05Zm-.832,6.133-.538.149-.392-.1-.1-.3.049-.247-.2-.248-.342-.394-.245-.495L65.3,59.3l-.343-.445-.048-.643-.294-.644-.2-.494v-.445l-.2-.494-.293-.347v-.347l.342.05.245.346.342.693.342.347-.048.543.195.742.245.4.44.247V60.04l.2.445.244.2.44-.1.441-.051.048-.049-.293.989a10.755,10.755,0,0,0,.343-1.187l.2-.1.244-.792c-.146.694-.293,1.386-.489,2.03Zm-.1-18.5A28.749,28.749,0,0,0,65.351,40.4a24.145,24.145,0,0,0-10.615-8.063,24.535,24.535,0,0,0-5.968-1.484,24.113,24.113,0,0,0-15.948,3.76l-.342.247c-.147.1-.342.247-.489.346a23.408,23.408,0,0,0-4.158,3.809q-.368.446-.88,1.04A26.242,26.242,0,0,0,23.966,45.1a2.792,2.792,0,0,1-.2.4l-.048.149c-.1.2-.146.346-.245.544l-.2.594a24.818,24.818,0,0,0,0,16.818l.245.644c.294.692.587,1.386.929,2.077l.294.545a25.634,25.634,0,0,0,2.593,3.907,17.583,17.583,0,0,0,1.565,1.732l.1.1.294.3.048.049.245.2a4.877,4.877,0,0,0,.588.494c.146.15.292.248.439.4a24.016,24.016,0,0,0,15.409,5.59A24.294,24.294,0,0,0,70.243,55.984v-.842a24.72,24.72,0,0,0-3.229-12.168" style="fill:#b3b5b5"/><path d="M68.385,89.383a40.553,40.553,0,0,1-22.4,6.4A40.135,40.135,0,0,1,24.21,89.062l-1.645,2.3A42.9,42.9,0,0,0,32.6,96.3a43.431,43.431,0,0,0,37.207-4.555Z" style="fill:#fecb14"/><path d="M85.05,44.4A39.95,39.95,0,0,1,70.02,87.641L71.5,90.09A42.716,42.716,0,0,0,87.74,43.551Z" style="fill:#f3e866"/><path d="M7.811,67.7A39.379,39.379,0,0,1,7.69,44.3l-2.7-.848A42.165,42.165,0,0,0,20.586,89.942l1.656-2.208A39.432,39.432,0,0,1,7.811,67.7" style="fill:#ff7822"/><path d="M5.742,41.28l2.666.839a40.506,40.506,0,0,1,37-26.518l-.071-2.841a43.306,43.306,0,0,0-39.6,28.52" style="fill:#008a3b"/><path d="M28.023,31.533l-.554-1.347H24.9l-.554,1.347h-1.36l2.6-6.051h1.231l2.6,6.051ZM26.186,27.07l-.806,1.948h1.612Z" style="fill:#757779"/><path d="M70.252,30.559H64.861V19.333h5.262c2.315,0,3.74,1.139,3.74,2.9v.032a2.608,2.608,0,0,1-1.49,2.421,2.749,2.749,0,0,1,2.121,2.759v.031c0,2.053-1.684,3.08-4.242,3.08m1.134-7.906c0-.738-.583-1.155-1.635-1.155H67.29v2.374h2.3c1.1,0,1.8-.353,1.8-1.187Zm.631,4.49c0-.754-.567-1.219-1.845-1.219H67.29v2.47h2.962c1.1,0,1.765-.385,1.765-1.219Z" style="fill:#4e4f51"/></svg>