<svg width="80" height="80" viewBox="0 0 80 80" xmlns="http://www.w3.org/2000/svg"><defs><linearGradient x1="2.717%" y1="49.685%" x2="97.283%" y2="49.685%" id="a"><stop stop-color="#C5A266" offset="0%"/><stop stop-color="#876939" offset="48.71%"/><stop stop-color="#6A4A20" offset="100%"/></linearGradient><linearGradient x1="2.717%" y1="49.756%" x2="97.283%" y2="49.756%" id="b"><stop stop-color="#C5A266" offset="0%"/><stop stop-color="#876939" offset="48.71%"/><stop stop-color="#6A4A20" offset="100%"/></linearGradient><linearGradient x1="2.717%" y1="50.912%" x2="97.283%" y2="50.912%" id="c"><stop stop-color="#C5A266" offset="0%"/><stop stop-color="#876939" offset="48.71%"/><stop stop-color="#6A4A20" offset="100%"/></linearGradient><linearGradient x1="2.717%" y1="51.064%" x2="97.283%" y2="51.064%" id="d"><stop stop-color="#C5A266" offset="0%"/><stop stop-color="#876939" offset="48.71%"/><stop stop-color="#6A4A20" offset="100%"/></linearGradient><linearGradient x1="2.717%" y1="50.936%" x2="97.283%" y2="50.936%" id="e"><stop stop-color="#C5A266" offset="0%"/><stop stop-color="#876939" offset="48.71%"/><stop stop-color="#6A4A20" offset="100%"/></linearGradient><linearGradient x1="2.717%" y1="51.469%" x2="97.283%" y2="51.469%" id="f"><stop stop-color="#C5A266" offset="0%"/><stop stop-color="#876939" offset="48.71%"/><stop stop-color="#6A4A20" offset="100%"/></linearGradient><linearGradient x1=".321%" y1="50%" x2="100.166%" y2="50%" id="g"><stop stop-color="#C5A266" offset="0%"/><stop stop-color="#876939" offset="48.71%"/><stop stop-color="#6A4A20" offset="100%"/></linearGradient><linearGradient x1="-.167%" y1="50%" x2="100.239%" y2="50%" id="h"><stop stop-color="#C5A266" offset="0%"/><stop stop-color="#876939" offset="48.71%"/><stop stop-color="#6A4A20" offset="100%"/></linearGradient><linearGradient x1=".252%" y1="50%" x2="101.569%" y2="50%" id="i"><stop stop-color="#C5A266" offset="0%"/><stop stop-color="#876939" offset="48.71%"/><stop stop-color="#6A4A20" offset="100%"/></linearGradient><linearGradient x1="0%" y1="50%" x2="102.128%" y2="50%" id="j"><stop stop-color="#C5A266" offset="0%"/><stop stop-color="#876939" offset="48.71%"/><stop stop-color="#6A4A20" offset="100%"/></linearGradient><linearGradient x1="-2.128%" y1="50%" x2="100%" y2="50%" id="k"><stop stop-color="#C5A266" offset="0%"/><stop stop-color="#876939" offset="48.71%"/><stop stop-color="#6A4A20" offset="100%"/></linearGradient><linearGradient x1="-1.569%" y1="50%" x2="99.748%" y2="50%" id="l"><stop stop-color="#C5A266" offset="0%"/><stop stop-color="#876939" offset="48.71%"/><stop stop-color="#6A4A20" offset="100%"/></linearGradient><linearGradient x1="-.211%" y1="50.395%" x2="99.69%" y2="50.395%" id="m"><stop stop-color="#C5A266" offset="0%"/><stop stop-color="#876939" offset="48.71%"/><stop stop-color="#6A4A20" offset="100%"/></linearGradient><linearGradient x1="-.023%" y1="49.895%" x2="99.238%" y2="49.895%" id="n"><stop stop-color="#C5A266" offset="0%"/><stop stop-color="#876939" offset="48.71%"/><stop stop-color="#6A4A20" offset="100%"/></linearGradient><linearGradient x1=".305%" y1="50.373%" x2="100.76%" y2="50.373%" id="o"><stop stop-color="#C5A266" offset="0%"/><stop stop-color="#876939" offset="48.71%"/><stop stop-color="#6A4A20" offset="100%"/></linearGradient><linearGradient x1="-.289%" y1="50.81%" x2="98.464%" y2="50.81%" id="p"><stop stop-color="#C5A266" offset="0%"/><stop stop-color="#876939" offset="48.71%"/><stop stop-color="#6A4A20" offset="100%"/></linearGradient><linearGradient x1=".551%" y1="49.19%" x2="99.481%" y2="49.19%" id="q"><stop stop-color="#C5A266" offset="0%"/><stop stop-color="#876939" offset="48.71%"/><stop stop-color="#6A4A20" offset="100%"/></linearGradient><linearGradient x1="-.76%" y1="50.674%" x2="99.692%" y2="50.674%" id="r"><stop stop-color="#C5A266" offset="0%"/><stop stop-color="#876939" offset="48.71%"/><stop stop-color="#6A4A20" offset="100%"/></linearGradient><linearGradient x1="-.183%" y1="50.611%" x2="99.074%" y2="50.611%" id="s"><stop stop-color="#C5A266" offset="0%"/><stop stop-color="#876939" offset="48.71%"/><stop stop-color="#6A4A20" offset="100%"/></linearGradient><linearGradient x1=".042%" y1="50.308%" x2="100.167%" y2="50.308%" id="t"><stop stop-color="#C5A266" offset="0%"/><stop stop-color="#876939" offset="48.71%"/><stop stop-color="#6A4A20" offset="100%"/></linearGradient><linearGradient x1="-1.82%" y1="51.206%" x2="98.947%" y2="51.206%" id="u"><stop stop-color="#C5A266" offset="0%"/><stop stop-color="#876939" offset="48.71%"/><stop stop-color="#6A4A20" offset="100%"/></linearGradient><linearGradient x1="-1.478%" y1="52.859%" x2="100.459%" y2="52.859%" id="v"><stop stop-color="#C5A266" offset="0%"/><stop stop-color="#876939" offset="48.71%"/><stop stop-color="#6A4A20" offset="100%"/></linearGradient><linearGradient x1=".152%" y1="49.966%" x2="101.469%" y2="49.966%" id="w"><stop stop-color="#C5A266" offset="0%"/><stop stop-color="#876939" offset="48.71%"/><stop stop-color="#6A4A20" offset="100%"/></linearGradient><linearGradient x1=".244%" y1="50.123%" x2="99.46%" y2="50.123%" id="x"><stop stop-color="#C5A266" offset="0%"/><stop stop-color="#876939" offset="48.71%"/><stop stop-color="#6A4A20" offset="100%"/></linearGradient><linearGradient x1="-.199%" y1="50.308%" x2="99.686%" y2="50.308%" id="y"><stop stop-color="#C5A266" offset="0%"/><stop stop-color="#876939" offset="48.71%"/><stop stop-color="#6A4A20" offset="100%"/></linearGradient><linearGradient x1=".33%" y1="49.637%" x2="99.877%" y2="49.637%" id="z"><stop stop-color="#C5A266" offset="0%"/><stop stop-color="#876939" offset="48.71%"/><stop stop-color="#6A4A20" offset="100%"/></linearGradient><linearGradient x1="-1.835%" y1="48.616%" x2="99.753%" y2="48.616%" id="A"><stop stop-color="#C5A266" offset="0%"/><stop stop-color="#876939" offset="48.71%"/><stop stop-color="#6A4A20" offset="100%"/></linearGradient><linearGradient x1="3.069%" y1="49.966%" x2="102.289%" y2="49.966%" id="B"><stop stop-color="#C5A266" offset="0%"/><stop stop-color="#876939" offset="48.71%"/><stop stop-color="#6A4A20" offset="100%"/></linearGradient><linearGradient x1=".072%" y1="49.19%" x2="102.832%" y2="49.19%" id="C"><stop stop-color="#C5A266" offset="0%"/><stop stop-color="#876939" offset="48.71%"/><stop stop-color="#6A4A20" offset="100%"/></linearGradient><linearGradient x1="-2.138%" y1="49.668%" x2="99.447%" y2="49.668%" id="D"><stop stop-color="#C5A266" offset="0%"/><stop stop-color="#876939" offset="48.71%"/><stop stop-color="#6A4A20" offset="100%"/></linearGradient><linearGradient x1=".452%" y1="49.469%" x2="99.713%" y2="49.469%" id="E"><stop stop-color="#C5A266" offset="0%"/><stop stop-color="#876939" offset="48.71%"/><stop stop-color="#6A4A20" offset="100%"/></linearGradient><linearGradient x1=".366%" y1="50.041%" x2="101.029%" y2="50.041%" id="F"><stop stop-color="#C5A266" offset="0%"/><stop stop-color="#876939" offset="48.71%"/><stop stop-color="#6A4A20" offset="100%"/></linearGradient><linearGradient x1=".777%" y1="46.762%" x2="101.103%" y2="46.762%" id="G"><stop stop-color="#C5A266" offset="0%"/><stop stop-color="#876939" offset="48.71%"/><stop stop-color="#6A4A20" offset="100%"/></linearGradient><linearGradient x1=".55%" y1="50.769%" x2="99.382%" y2="50.769%" id="H"><stop stop-color="#C5A266" offset="0%"/><stop stop-color="#876939" offset="48.71%"/><stop stop-color="#6A4A20" offset="100%"/></linearGradient><linearGradient x1="1.884%" y1="49.723%" x2="99.457%" y2="49.723%" id="I"><stop stop-color="#C5A266" offset="0%"/><stop stop-color="#876939" offset="48.71%"/><stop stop-color="#6A4A20" offset="100%"/></linearGradient><linearGradient x1="-1.103%" y1="50.674%" x2="99.223%" y2="50.674%" id="J"><stop stop-color="#C5A266" offset="0%"/><stop stop-color="#876939" offset="48.71%"/><stop stop-color="#6A4A20" offset="100%"/></linearGradient></defs><g fill-rule="nonzero" fill="none"><path d="M41 46c-.556 0-1 .402-1 .905v16.19c0 .503.444.905 1 .905s1-.402 1-.905v-16.29c0-.403-.444-.805-1-.805z" fill="url(#a)"/><path d="M41 16c-.556 0-1 .402-1 .905v16.19c0 .503.444.905 1 .905s1-.402 1-.905v-16.19c0-.503-.444-.905-1-.905z" fill="url(#b)"/><path d="M41 9c-.556 0-1 .381-1 .762v2.476c0 .476.444.762 1 .762s1-.381 1-.762V9.762C42 9.38 41.556 9 41 9z" fill="url(#c)"/><path d="M41 0c-.556 0-1 .4-1 .9v3.2c0 .5.444.9 1 .9s1-.4 1-.9V.9c0-.5-.444-.9-1-.9z" fill="url(#d)"/><path d="M41 75c-.556 0-1 .4-1 .9v3.2c0 .5.444.9 1 .9s1-.4 1-.9v-3.2c0-.5-.444-.9-1-.9z" fill="url(#e)"/><path d="M41 67c-.556 0-1 .381-1 .762v2.476c0 .476.444.762 1 .762s1-.381 1-.762v-2.476c0-.381-.444-.762-1-.762z" fill="url(#f)"/><path d="M64 39c0-.556-.402-1-.905-1h-16.19c-.503 0-.905.444-.905 1s.402 1 .905 1h16.19c.503 0 .905-.444.905-1z" fill="url(#g)"/><path d="M34 39c0-.556-.404-1-.91-1H16.91c-.506 0-.91.444-.91 1s.404 1 .91 1h16.281c.405 0 .809-.444.809-1z" fill="url(#h)"/><path d="M12.238 38H9.762C9.286 38 9 38.444 9 39s.381 1 .762 1h2.476c.476 0 .762-.444.762-1s-.286-1-.762-1z" fill="url(#i)"/><path d="M4.2 38H.9c-.5 0-.9.444-.9 1s.4 1 .9 1h3.2c.5 0 .9-.444.9-1s-.3-1-.8-1z" fill="url(#j)"/><path d="M79.1 38h-3.2c-.5 0-.9.444-.9 1s.4 1 .9 1h3.2c.5 0 .9-.444.9-1s-.4-1-.9-1z" fill="url(#k)"/><path d="M71 39c0-.556-.381-1-.762-1h-2.476c-.476 0-.762.444-.762 1s.381 1 .762 1h2.476c.381 0 .762-.444.762-1z" fill="url(#l)"/><path d="M37.485 45.143c-.43-.297-1.076-.099-1.291.297l-9.039 14.272c-.322.396-.107.99.323 1.189.108.099.323.099.538.099.323 0 .646-.198.861-.496l9.039-14.27c.215-.298 0-.794-.43-1.09z" fill="url(#m)"/><path d="M43.475 34.902c.107.098.32.098.535.098.32 0 .641-.196.855-.392l8.98-13.333c.321-.393.107-.883-.32-1.177-.428-.196-1.07-.098-1.39.294l-8.98 13.333c-.321.393-.107.883.32 1.177z" fill="url(#n)"/><path d="M53.393 16.906c.177.094.266.094.443.094.266 0 .531-.188.708-.471l1.328-2.262c.266-.377.089-.942-.265-1.13-.443-.284-.886-.095-1.151.282l-1.328 2.262c-.266.47-.089.942.265 1.225z" fill="url(#o)"/><path d="M58.408 8.905c.087.095.261.095.435.095.261 0 .522-.19.696-.381l1.393-2.38c.174-.382 0-.858-.348-1.144-.348-.19-.87-.095-1.045.286l-1.392 2.38c-.261.477-.174.953.26 1.144z" fill="url(#p)"/><path d="M21.567 71.095c-.349-.19-.872-.095-1.046.286l-1.395 2.38c-.262.382-.087.858.261 1.144.088.095.262.095.436.095.262 0 .524-.19.698-.381l1.395-2.38c.174-.477.087-.953-.349-1.144z" fill="url(#q)"/><path d="M26.607 63.136c-.443-.283-.886-.094-1.151.283l-1.328 2.356c-.266.377-.089.942.265 1.13.177.095.266.095.443.095.266 0 .531-.188.708-.471l1.328-2.262c.266-.377.089-.848-.265-1.13z" fill="url(#r)"/><path d="M19.439 27.873l14.142 9.02c.099.107.295.107.491.107.295 0 .59-.215.786-.537.295-.43.098-1.074-.294-1.288l-14.143-9.02c-.393-.322-.982-.107-1.179.322-.392.537-.294 1.181.197 1.396z" fill="url(#s)"/><path d="M45.392 43.961l13.333 8.933c.099.106.295.106.393.106.294 0 .588-.213.784-.532.196-.425.098-1.063-.294-1.382l-13.333-8.932c-.393-.32-.883-.107-1.177.319-.196.638-.098 1.17.294 1.488z" fill="url(#t)"/><path d="M66.547 54.475l-2.274-1.345c-.378-.27-.947-.09-1.136.269-.284.448-.095.897.284 1.166l2.273 1.345c.095.09.284.09.474.09.284 0 .568-.18.758-.449.19-.358 0-.807-.38-1.076z" fill="url(#u)"/><path d="M74.641 58.565l-2.395-1.435c-.384-.27-.863-.09-1.15.269-.192.358-.096.897.287 1.076l2.396 1.435c.096.09.287.09.383.09.288 0 .575-.18.67-.449.288-.269.192-.717-.19-.986z" fill="url(#v)"/><path d="M5.381 20.52l2.38 1.393c.191 0 .382.087.477.087.286 0 .572-.174.667-.435.19-.349.095-.871-.286-1.046l-2.38-1.393c-.382-.261-.858-.087-1.144.261-.19.436-.095.871.286 1.132z" fill="url(#w)"/><path d="M13.415 25.565l2.238 1.345c.093.09.28.09.466.09.28 0 .56-.18.746-.449.28-.448.094-.897-.28-1.166l-2.331-1.255c-.373-.27-.933-.09-1.12.269-.28.448-.093.897.28 1.166z" fill="url(#x)"/><path d="M20.329 52.787l14.232-8.932c.395-.319.593-.85.296-1.382-.197-.426-.79-.638-1.186-.32L19.44 51.087c-.395.319-.593.85-.296 1.382.197.32.494.532.79.532.1 0 .198-.106.396-.213z" fill="url(#y)"/><path d="M46.31 37.787l13.257-8.085c.39-.213.585-.85.292-1.276-.195-.426-.78-.532-1.17-.32l-13.256 8.192c-.39.213-.585.85-.292 1.276.195.32.487.426.78.426.097-.106.292-.106.39-.213z" fill="url(#z)"/><path d="M65.716 24.123l-2.292 1.308c-.382.261-.573.697-.286 1.133.19.262.477.436.764.436.19 0 .286 0 .382-.087l2.292-1.308c.382-.262.573-.697.286-1.133-.19-.436-.764-.61-1.146-.35z" fill="url(#A)"/><path d="M69.88 22c.094 0 .28 0 .374-.087l2.331-1.394c.374-.26.56-.696.28-1.132-.186-.348-.746-.522-1.119-.261l-2.331 1.393c-.374.262-.56.697-.28 1.133.28.174.466.348.746.348z" fill="url(#B)"/><path d="M7.895 58.083L5.48 59.456c-.483.257-.58.686-.387 1.115.193.257.387.429.676.429.097 0 .29 0 .387-.086l2.415-1.373c.386-.257.58-.686.29-1.115-.097-.429-.58-.515-.966-.343z" fill="url(#C)"/><path d="M15.716 53.123l-2.292 1.308c-.382.261-.573.697-.286 1.133.19.262.477.436.764.436.19 0 .286 0 .382-.087l2.292-1.308c.382-.262.573-.697.286-1.133-.19-.436-.764-.61-1.146-.35z" fill="url(#D)"/><path d="M42.865 45.438c-.32-.394-.855-.591-1.39-.296-.427.197-.641.788-.32 1.182l8.98 14.184c.214.295.535.492.855.492.214 0 .321 0 .535-.098.427-.197.641-.788.32-1.182l-8.98-14.282z" fill="url(#E)"/><path d="M34.387 34.609c.215.293.43.391.753.391.107 0 .322 0 .43-.098.43-.195.538-.782.322-1.173L27.72 20.434c-.215-.39-.86-.586-1.29-.293-.43.196-.538.782-.322 1.173l8.28 13.295z" fill="url(#F)"/><path d="M25.412 16.517c.176.29.442.483.707.483.177 0 .265 0 .442-.097.442-.193.53-.772.354-1.158l-1.327-2.316c-.265-.386-.707-.58-1.149-.29-.442.193-.53.773-.354 1.159l1.327 2.22z" fill="url(#G)"/><path d="M20.52 8.619a.771.771 0 00.696.381c.174 0 .261 0 .436-.095.348-.19.435-.668.26-1.049L20.52 5.473c-.26-.476-.696-.572-1.132-.38-.348.19-.522.762-.261 1.143l1.393 2.383z" fill="url(#H)"/><path d="M59.5 71.419c-.258-.377-.688-.566-1.118-.283-.344.189-.516.754-.258 1.131l1.376 2.356c.172.283.43.377.688.377.172 0 .258 0 .43-.094.344-.189.516-.754.258-1.131L59.5 71.419z" fill="url(#I)"/><path d="M54.588 63.419c-.265-.377-.707-.566-1.149-.283-.442.189-.53.754-.354 1.131l1.327 2.262c.176.283.442.471.707.471.177 0 .265 0 .442-.094.442-.189.53-.754.354-1.131l-1.327-2.356z" fill="url(#J)"/></g></svg>
