<svg id="Layer_1" data-name="Layer 1" xmlns="http://www.w3.org/2000/svg" viewBox="0 0 360 360">
  <defs>
    <style>.cls-1{fill:#231f20;}</style>
  </defs>
  <path class="cls-1" fill="#fff"
        d="M188.05,190.55V131.93A24.21,24.21,0,0,0,178.76,113V49.05c0-7-2.92-12.86-8-16s-11.6-3.16-17.89,0a7.64,7.64,0,0,0-1.75,1.17s-8.38,7.4-20,17.86c-12.53,11.32-17,18.92-17,29.05V113a24.2,24.2,0,0,0-9.28,18.94v58.62h0a8,8,0,0,0-8,8V321.33a8,8,0,0,0,8,8h83.15a8,8,0,0,0,8-8V198.55A8,8,0,0,0,188.05,190.55Zm-67.14-58.62a8.06,8.06,0,0,1,3.54-6.54H139.9a8,8,0,0,0,0-16h-9.71V81.08c0-3.74.86-7.39,11.69-17.17,9.27-8.36,16.47-14.76,18.93-16.94a9.33,9.33,0,0,1,1.45-.39,4.43,4.43,0,0,1,.5,2.47v68.34a8,8,0,0,0,4.57,7.23,8.17,8.17,0,0,1,4.72,7.31v58.62H120.91Zm-8,181.4V206.55h67.15V313.33Z"/>
  <path class="cls-1" fill="#fff" d="M164,216.43a8,8,0,0,0-8,8v43.12a8,8,0,0,0,16,0V224.43A8,8,0,0,0,164,216.43Z"/>
  <path class="cls-1" fill="#fff" d="M164,278.21a8,8,0,0,0-8,8v11.1a8,8,0,0,0,16,0v-11.1A8,8,0,0,0,164,278.21Z"/>
  <path class="cls-1" fill="#fff"
        d="M253.29,150.71c-6.15-3.66-13.57-3.8-20.49,0l-33.2,22.35a8,8,0,0,0,8.94,13.28l32.54-22a4.08,4.08,0,0,1,6,3.58V313.33h-35a8,8,0,0,0,0,16h43a8,8,0,0,0,8-8V168A19.89,19.89,0,0,0,253.29,150.71Z"/>
</svg>
