<svg xmlns="http://www.w3.org/2000/svg" viewBox="0 0 360 360">
  <path fill="#fff" d="M325.48,178.08h-1.93V166.17a27.85,27.85,0,0,0-27.82-27.82H139.49A27.7,27.7,0,0,0,111.82,166v12.07h-1.93a8,8,0,0,0,0,16H317.48V248.6a64.88,64.88,0,0,1-64.8,64.81H197.32a8,8,0,0,0,0,16h55.36a80.9,80.9,0,0,0,80.8-80.81V186.08A8,8,0,0,0,325.48,178.08Zm-197.66,0V166a11.68,11.68,0,0,1,11.67-11.66H295.73a11.83,11.83,0,0,1,11.82,11.82v11.91Z"/>
  <path fill="#fff" d="M197.32,243.14a8,8,0,0,0,0,16h98.36a8,8,0,0,0,8-8V213.9a8,8,0,0,0-8-8H197.32a8,8,0,0,0,0,16h90.36v21.24Z"/>
  <path fill="#fff" d="M158.18,205.9H43.86a17.35,17.35,0,0,0-17.34,17.34v20.47a17.16,17.16,0,0,0,2.5,8.83,15.86,15.86,0,0,0-2.5,8.5v52.38a16,16,0,0,0,16,16h117a16,16,0,0,0,16-16V261a15.86,15.86,0,0,0-2.5-8.5,17.16,17.16,0,0,0,2.5-8.83V223.24A17.35,17.35,0,0,0,158.18,205.9ZM42.52,223.24a1.34,1.34,0,0,1,1.34-1.34H158.18a1.34,1.34,0,0,1,1.34,1.34v20.47a1.34,1.34,0,0,1-1.34,1.34H43.86a1.34,1.34,0,0,1-1.34-1.34Zm0,90.18,0-52.37h117v52.37Z"/>
  <path fill="#fff" d="M109.31,279.23h-45a8,8,0,1,0,0,16h45a8,8,0,0,0,0-16Z"/>
</svg>
