<svg xmlns="http://www.w3.org/2000/svg" viewBox="0 0 360 360">
  <path fill="#fff" d="M295.34,221.47,269.51,206,263.75,38.32a8,8,0,0,0-8-7.73H229.91a8,8,0,0,0-8,7.73L216.15,206l-25.83,15.5a8,8,0,0,0-3.88,6.86v31.76a7.89,7.89,0,0,0,5.91,7.58v53.74a8,8,0,0,0,16,0V268.09h69v53.32a8,8,0,0,0,16,0V267.67a7.88,7.88,0,0,0,5.92-7.58V228.33A8,8,0,0,0,295.34,221.47Zm-92.9,11.39,25.67-15.4a8,8,0,0,0,3.87-6.59l5.65-164.28H248l5.64,164.28a8,8,0,0,0,3.88,6.59l25.67,15.4v19.23H202.44Z"/>
  <path fill="#fff" d="M221.59,275.73a8,8,0,0,0-8,8v37.68a8,8,0,0,0,16,0V283.73A8,8,0,0,0,221.59,275.73Z"/>
  <path fill="#fff" d="M242.83,275.73a8,8,0,0,0-8,8v37.68a8,8,0,0,0,16,0V283.73A8,8,0,0,0,242.83,275.73Z"/>
  <path fill="#fff" d="M264.07,275.73a8,8,0,0,0-8,8v37.68a8,8,0,0,0,16,0V283.73A8,8,0,0,0,264.07,275.73Z"/>
  <path fill="#fff" d="M177.38,30.59H68.78a8,8,0,0,0-8,8V72.33c0,.27.13.49.15.74h-.11l17.69,188v47.33a21,21,0,0,0,21,21H146.7a21,21,0,0,0,21-21V261.13l17.69-188h-.11a5.7,5.7,0,0,0,.15-.74V38.59A8,8,0,0,0,177.38,30.59Zm-100.6,16h92.6V64.33H76.78Zm6.36,93h31.94V179H86.85ZM152.37,252.8H93.8L88.36,195h34.72a8,8,0,0,0,8-8V131.59a8,8,0,0,0-8-8H81.64L77.57,80.33h91Zm-.72,55.66a5,5,0,0,1-5,5H99.53a5,5,0,0,1-5-5V268.8h57.14Z"/>
</svg>
