<?xml version="1.0" encoding="UTF-8"?>
<svg width="10px" height="17px" viewBox="0 0 10 17" version="1.1" xmlns="http://www.w3.org/2000/svg" xmlns:xlink="http://www.w3.org/1999/xlink">
    <!-- Generator: sketchtool 49.3 (51167) - http://www.bohemiancoding.com/sketch -->
    <title>0AAAC9D4-01DB-4704-8D85-C764AC39778E-black</title>
    <desc>Created with sketchtool.</desc>
    <defs></defs>
    <g id="Page-1" stroke="none" stroke-width="1" fill="none" fill-rule="evenodd">
        <g id="loreal_d_pdp_dream_length" transform="translate(-1665.000000, -4017.000000)" fill="#FFFFFF">
            <g id="Desktop---Footer" transform="translate(0.000000, 3764.000000)">
                <g id="Desktop---Footer-Copy" transform="translate(0.000000, 65.000000)">
                    <g id="social" transform="translate(1290.000000, 171.000000)">
                        <g id="Tumblr" transform="translate(355.000000, 0.000000)">
                            <path d="M29.1632068,30.5790113 C28.83967,30.7297756 28.2209291,30.8609491 27.7595432,30.8722351 C26.3665588,30.9086485 26.0962002,29.9162231 26.0849761,29.1967919 L26.0849761,23.9046018 L29.5791515,23.9046018 L29.5791515,21.3305351 L26.0970719,21.3305351 L26.0970719,17 L23.5489882,17 C23.5070341,17 23.4338052,17.0358811 23.4234529,17.1269146 C23.2743797,18.4522779 22.6397289,20.7784779 20,21.7086171 L20,23.9044954 L21.7609816,23.9044954 L21.7609816,29.4588195 C21.7609816,31.3607286 23.1967919,34.0626682 26.9871522,33.9988915 C28.2660433,33.9774906 29.6863796,33.4545002 30,33.0029525 L29.1632068,30.5790113" id="Tumblr-Copy"></path>
                        </g>
                    </g>
                </g>
            </g>
        </g>
    </g>
</svg>