<?xml version="1.0" encoding="UTF-8"?>
<svg viewBox="0 0 17 16" version="1.1"
  xmlns="http://www.w3.org/2000/svg"
  xmlns:xlink="http://www.w3.org/1999/xlink">
  <!-- Generator: Sketch 51.1 (57501) - http://www.bohemiancoding.com/sketch -->
  <title>Twitter</title>
  <desc>Created with Sketch.</desc>
  <defs></defs>
  <g id="Page-1" stroke="none" stroke-width="1" fill="none" fill-rule="evenodd">
    <g id="d_footer_02_1200px" transform="translate(-425.000000, -248.000000)" fill="#000000">
      <g id="social" transform="translate(421.000000, 118.000000)">
        <g id="Twitter" transform="translate(4.000000, 130.000000)">
          <path d="M16.2538878,2.43113278 C15.6585132,2.73045761 15.0258015,2.92370593 14.3552482,3.01350338 C15.0384154,2.5555889 15.5631523,1.83458365 15.8113932,0.970742686 C15.1721224,1.39189797 14.4647366,1.69384846 13.7109318,1.86976744 C13.1110162,1.14823706 12.2502458,0.697674419 11.3037011,0.697674419 C9.4807448,0.697674419 8.00290394,2.35183796 8.00290394,4.39669917 C8.00290394,4.68394599 8.03166356,4.96804201 8.08666003,5.23533383 C5.3484414,5.08829707 2.91295562,3.61005251 1.28425289,1.37666917 C1.00119768,1.92175544 0.839235603,2.5555889 0.839235603,3.23563391 C0.839235603,4.51590398 1.42098723,5.65491373 2.30799448,6.30817704 C1.76610268,6.28507127 1.25700694,6.12805701 0.812494202,5.84816204 L0.812494202,5.89909977 C0.812494202,7.68769692 1.95026516,9.18012003 3.45989297,9.52565641 C3.18339697,9.60915229 2.89125977,9.64748687 2.58802237,9.64748687 C2.37610937,9.64748687 2.17479203,9.63225806 1.97095191,9.58132033 C2.38922779,11.0564141 3.60924118,12.1276819 5.05327687,12.1492123 C3.92357879,13.1459115 2.50073439,13.731958 0.954274086,13.731958 C0.686860069,13.731958 0.42348249,13.7151538 0.166159567,13.6804951 C1.62634101,14.7344336 3.35797291,15.3488372 5.2258346,15.3488372 C11.2961328,15.3488372 14.6176167,9.71102776 14.6176167,4.8252063 C14.6176167,4.66871718 14.6140848,4.51012753 14.6065165,4.35153788 C15.2508329,3.82325581 15.8113932,3.17104276 16.2538878,2.43113278" id="Fill-13"></path>
        </g>
      </g>
    </g>
  </g>
</svg>
