<?xml version="1.0" encoding="utf-8"?>
<!-- Generator: Adobe Illustrator 22.1.0, SVG Export Plug-In . SVG Version: 6.00 Build 0)  -->
<svg version="1.1" id="Layer_1" xmlns="http://www.w3.org/2000/svg" xmlns:xlink="http://www.w3.org/1999/xlink" x="0px" y="0px"
	 viewBox="0 0 19 15" style="enable-background:new 0 0 19 15;" xml:space="preserve">
  <style type="text/css">
    .st0{fill:#FFFFFF;}
  </style>
  <path class="st0" d="M13,14H9.5c-0.6,0-1-0.4-1-1s0.4-1,1-1H13c1.7,0,3-1.3,3-3s-1.3-3-3-3H3.9c-0.6,0-1-0.4-1-1s0.4-1,1-1H13
    c2.8,0,5,2.2,5,5S15.8,14,13,14z"/>
  <path class="st0" d="M4.6,9C4.3,9,4,8.9,3.8,8.6L0.7,5l3.1-3.6c0.4-0.4,1-0.5,1.4-0.1s0.5,1,0.1,1.4L3.3,5l2,2.4
    c0.4,0.4,0.3,1.1-0.1,1.4C5,8.9,4.8,9,4.6,9z"/>
</svg>
