<?xml version="1.0" encoding="utf-8"?>
<svg version="1.1" xmlns="http://www.w3.org/2000/svg" xmlns:xlink="http://www.w3.org/1999/xlink" x="0px"
     y="0px"
     viewBox="0 0 12.1 12" xml:space="preserve">
  <style type="text/css">
    .path1 {
      fill: none;
      stroke: #ffffff;
    }
    .path2 {
      fill: #ffffff;
    }
  </style>
  <path class="path1" d="M6,0.5L6,0.5c3,0,5.5,2.5,5.5,5.5l0,0c0,3-2.5,5.5-5.5,5.5l0,0c-3,0-5.5-2.5-5.5-5.5l0,0
	C0.5,3,3,0.5,6,0.5z"/>
  <g>
	  <path class="path2" d="M5.3,5.7H6c0.4,0,0.8-0.3,0.8-0.7c0-0.4-0.3-0.7-0.7-0.7S5.4,4.6,5.3,4.9H4.1c0.1-1,0.7-1.7,2-1.7
		C7.2,3.2,8,3.9,8,5c0,0.8-0.6,1.4-1.5,1.5l0,0.5h-1L5.3,5.7z M5.2,8.1c0-0.4,0.3-0.7,0.7-0.7c0.4,0,0.7,0.3,0.7,0.7
		S6.3,8.8,5.9,8.8C5.5,8.8,5.2,8.5,5.2,8.1z"/>
  </g>
</svg>
