<?xml version="1.0" encoding="utf-8"?>
<!-- Generator: Adobe Illustrator 24.0.0, SVG Export Plug-In . SVG Version: 6.00 Build 0)  -->
<svg version="1.1" id="Layer_1" xmlns="http://www.w3.org/2000/svg" xmlns:xlink="http://www.w3.org/1999/xlink" x="0px" y="0px"
	 viewBox="0 0 121.7 97" enable-background="new 0 0 121.7 97" xml:space="preserve">
<title>Group 44</title>
<desc>Created with Sketch.</desc>
<g>
	<g>
		
			<linearGradient id="SVGID_1_" gradientUnits="userSpaceOnUse" x1="63.4246" y1="26.8207" x2="121.175" y2="26.8207" gradientTransform="matrix(1 0 0 -1 0 98)">
			<stop  offset="0" style="stop-color:#C5A266"/>
			<stop  offset="0.5" style="stop-color:#876939"/>
			<stop  offset="1" style="stop-color:#6A4A20"/>
			<stop  offset="1" style="stop-color:#000000"/>
		</linearGradient>
		<path fill="url(#SVGID_1_)" d="M121.1,61.7c-0.1-0.2-0.3-0.3-0.5-0.4c-1.9-0.5-5.8-1-9.9,0.7c-0.4,0.2-0.7,0.3-1.1,0.5
			c0.2-0.3,0.4-0.7,0.6-1c1.4-0.7,6-3.3,7-8.7c0.6-2.9-0.2-5.4-0.9-7c-0.1-0.2-0.3-0.4-0.5-0.4c-0.2-0.1-0.5,0-0.7,0.1
			c-1.8,1.4-4.2,3.9-5.6,7.7c-0.8,2.4-1.1,5-0.7,7.5c-0.2,0.3-0.4,0.6-0.6,0.9c0.2-2-0.2-4-1.1-5.8c-1.2-2.1-2.9-3.3-4.1-3.9
			c-0.2-0.1-0.4-0.1-0.6,0s-0.4,0.3-0.5,0.5c-0.6,1.7-1.5,5.2-0.3,9.2c0.6,1.9,1.6,3.7,3,5.3c-0.4,0.5-0.8,0.9-1.1,1.4
			c-0.8,1-1.7,1.9-2.6,2.8c0.7-2,0.7-4.2,0.1-6.1c-0.7-2.3-2.2-3.8-3.3-4.6c-0.2-0.1-0.4-0.2-0.6-0.2s-0.4,0.2-0.5,0.4
			c-1,1.6-2.5,4.8-2.1,8.9c0.2,2,0.8,4,1.9,5.7c-1.6,1.2-3.1,2.3-4.6,3.3c1-1.8,1.6-3.7,1.4-5.7c-0.2-2.4-1.2-4.2-2.1-5.3
			c-0.1-0.2-0.3-0.3-0.6-0.3c-0.2,0-0.4,0.1-0.6,0.2c-1.3,1.3-3.6,4.1-4.2,8.2c-0.3,2-0.1,4,0.4,6c-0.2,0.1-0.4,0.2-0.6,0.3
			c-1.6,0.7-3.1,1.3-4.5,1.8c1.4-1.5,2.3-3.3,2.6-5.3c0.3-2.3-0.3-4.3-0.9-5.6c-0.1-0.2-0.3-0.4-0.5-0.4c-0.2-0.1-0.4,0-0.6,0.1
			c-1.5,1-4.3,3.2-5.8,7.1c-0.7,1.9-1,3.9-0.8,5.9c-1.8,0.4-3.3,0.6-4.4,0.8c-0.4,0-0.7,0.1-1.1,0.1c1.8-1.2,3.2-2.8,4-4.7
			c0.9-2.2,0.7-4.3,0.4-5.7c0-0.2-0.2-0.4-0.4-0.5c-0.2-0.1-0.4-0.1-0.6-0.1c-1.7,0.6-5,2.1-7.2,5.6c-1.1,1.7-1.9,3.7-2.2,5.7
			c-0.1,0.3-0.1,0.8-0.1,1.2c1.1,4.4,4,7.8,7.8,8.8c0.9,0.2,1.7,0.3,2.5,0.3c1.4,0,2.6-0.3,3.5-0.6c0.2-0.1,0.4-0.2,0.5-0.4
			c0.1-0.2,0.1-0.4,0-0.6c-0.9-1.8-2.9-5.1-6.8-7.2c-0.3-0.1-0.6-0.3-0.8-0.4c0.2,0,0.4,0,0.6-0.1c1.1-0.1,2.7-0.4,4.6-0.8
			c2.1,4,5.8,6.6,9.7,6.7c0.1,0,0.2,0,0.3,0c2.4,0,4.3-0.9,5.5-1.7c0.2-0.1,0.3-0.3,0.4-0.5c0-0.2,0-0.4-0.2-0.6
			c-1.2-1.6-4-4.3-8.3-5.4c-0.4-0.1-0.8-0.2-1.2-0.2c1.5-0.5,3-1.1,4.6-1.9c0.2-0.1,0.5-0.2,0.7-0.3c2.5,2.9,5.8,4.6,9.1,4.6
			c0.6,0,1.1,0,1.7-0.1c2.5-0.4,4.3-1.8,5.3-2.8c0.2-0.2,0.2-0.4,0.2-0.6s-0.1-0.4-0.3-0.6c-1.5-1.3-4.8-3.4-9.2-3.6
			c-0.4,0-0.8,0-1.2,0c1.6-1,3.2-2.1,4.9-3.5c2.3,1.7,5,2.6,7.5,2.6c1.4,0,2.8-0.3,4-0.8c2.3-1,3.7-2.7,4.5-4
			c0.1-0.2,0.1-0.4,0.1-0.6c-0.1-0.2-0.2-0.4-0.4-0.5c-1.8-0.9-5.4-2.2-9.8-1.3c-0.3,0.1-0.6,0.1-0.9,0.2c0.8-0.8,1.6-1.6,2.3-2.5
			c0.4-0.5,0.8-1,1.2-1.5c1.8,0.8,3.7,1.2,5.6,1.2c2.2,0,4.3-0.6,6.1-1.8c2.1-1.5,3.1-3.4,3.6-4.8C121.2,62.2,121.2,61.9,121.1,61.7
			z M111.1,53.8c1-2.9,2.7-5,4.2-6.3c0.4,1.3,0.8,3.1,0.4,5.1c-0.7,3.9-3.7,6.2-5.3,7.1C110.2,58.1,110.3,56,111.1,53.8z M87.2,75.7
			c0.4-3,1.9-5.3,3.1-6.6c0.6,0.9,1.1,2.2,1.2,3.7c0.2,2.9-1.3,5.8-4,7.8C87.1,79,87,77.3,87.2,75.7z M77.2,80
			c1.1-2.9,3-4.7,4.4-5.8c0.4,1,0.6,2.4,0.4,3.8c-0.4,2.9-2.5,5.4-5.6,6.8C76.3,83.2,76.6,81.6,77.2,80z M66.8,81.7
			c1.7-2.6,4-3.9,5.6-4.6c0.1,1.1,0.1,2.4-0.4,3.8c-1.1,2.7-3.7,4.7-7,5.4C65.2,84.7,65.8,83.1,66.8,81.7z M70.2,89.5
			c3,1.6,4.8,3.9,5.7,5.6c-1.1,0.3-2.6,0.4-4.2,0c-3.1-0.8-5.5-3.5-6.6-7.1C66.8,88.2,68.6,88.7,70.2,89.5z M82.3,86.8
			c3.3,0.8,5.5,2.8,6.8,4.2c-1,0.5-2.5,1-4.1,1c-3.2-0.1-6.2-2.2-8.1-5.4C78.7,86.3,80.5,86.4,82.3,86.8z M93.6,81.3
			c3.4,0.1,6,1.5,7.5,2.7c-0.9,0.7-2.2,1.5-3.8,1.8c-3.1,0.6-6.5-0.8-9-3.6C90,81.5,91.8,81.2,93.6,81.3z M103.6,73.1
			c3.3-0.7,6.2,0.1,8,0.8c-0.7,0.9-1.8,2-3.3,2.6c-2.9,1.3-6.5,0.8-9.6-1.3C100.1,74.2,101.8,73.5,103.6,73.1z M96,69.2
			c-0.3-3.1,0.6-5.6,1.4-7.1c0.8,0.8,1.6,1.8,2.1,3.3c0.9,2.8,0.1,6-2,8.6C96.7,72.5,96.2,70.9,96,69.2z M103.1,61.2
			c-0.9-2.9-0.5-5.6,0-7.3c0.9,0.6,1.9,1.5,2.7,2.8c1.4,2.6,1.3,5.8-0.3,8.8C104.4,64.2,103.6,62.7,103.1,61.2z M116.6,65.9
			c-2.6,1.8-6.2,2-9.7,0.6c1.2-1.3,2.8-2.4,4.4-3.1c3.1-1.3,6.1-1.2,8-0.8C118.8,63.8,117.9,65,116.6,65.9z"/>
		
			<linearGradient id="SVGID_2_" gradientUnits="userSpaceOnUse" x1="0.2754" y1="26.9707" x2="58.2743" y2="26.9707" gradientTransform="matrix(1 0 0 -1 0 98)">
			<stop  offset="0" style="stop-color:#C5A266"/>
			<stop  offset="0.5" style="stop-color:#876939"/>
			<stop  offset="1" style="stop-color:#6A4A20"/>
			<stop  offset="1" style="stop-color:#000000"/>
		</linearGradient>
		<path fill="url(#SVGID_2_)" d="M58.2,86.6c-0.3-2.1-1-4-2.2-5.7c-2.3-3.5-5.5-5-7.2-5.6c-0.2-0.1-0.4-0.1-0.6,0.1
			c-0.2,0.1-0.3,0.3-0.4,0.5c-0.3,1.4-0.5,3.5,0.4,5.7c0.8,1.9,2.1,3.6,4,4.7c-0.4,0-0.7-0.1-1.1-0.1c-1.1-0.1-2.6-0.4-4.4-0.8
			c0.1-2-0.1-4-0.8-5.9c-1.4-3.9-4.2-6.1-5.8-7.1c-0.2-0.1-0.4-0.2-0.6-0.1c-0.2,0.1-0.4,0.2-0.5,0.4c-0.6,1.3-1.3,3.3-0.9,5.6
			c0.3,2,1.2,3.8,2.6,5.3c-1.4-0.5-3-1.1-4.5-1.8c-0.2-0.1-0.4-0.2-0.6-0.3c0.6-1.9,0.7-4,0.4-6c-0.6-4.1-2.9-6.9-4.2-8.2
			c-0.2-0.2-0.4-0.2-0.6-0.2s-0.4,0.1-0.6,0.3c-0.9,1.1-1.9,2.9-2.1,5.3c-0.1,2,0.4,3.9,1.4,5.7c-1.5-0.9-3-2-4.6-3.3
			c1-1.8,1.7-3.7,1.9-5.7c0.4-4.1-1.2-7.4-2.1-8.9c-0.1-0.2-0.3-0.3-0.5-0.4c-0.2,0-0.5,0-0.6,0.2c-1.1,0.9-2.6,2.4-3.3,4.6
			c-0.6,2-0.6,4.1,0.1,6.1c-0.9-0.9-1.7-1.8-2.6-2.8c-0.4-0.5-0.8-0.9-1.1-1.4c1.4-1.5,2.4-3.3,3-5.3c1.2-4,0.3-7.4-0.3-9.2
			c-0.1-0.2-0.2-0.4-0.5-0.5c-0.2-0.1-0.4-0.1-0.6,0c-1.3,0.6-3,1.8-4.1,3.9c-1,1.7-1.3,3.7-1.1,5.8c-0.2-0.3-0.4-0.6-0.6-0.9
			c0.3-2.5,0.1-5.1-0.7-7.5c-1.3-3.9-3.8-6.3-5.6-7.7c-0.2-0.1-0.4-0.2-0.7-0.1c-0.2,0.1-0.4,0.2-0.5,0.4c-0.7,1.6-1.4,4.1-0.9,7
			c1,5.4,5.6,8,7,8.7c0.2,0.3,0.4,0.7,0.6,1c-0.4-0.2-0.7-0.4-1.1-0.5c-4.1-1.7-7.9-1.2-9.9-0.7c-0.2,0.1-0.4,0.2-0.5,0.4
			s-0.1,0.4,0,0.6c0.5,1.4,1.6,3.4,3.6,4.8c1.7,1.2,3.8,1.8,6.1,1.8c1.8,0,3.7-0.4,5.6-1.2c0.4,0.5,0.8,1,1.2,1.5
			c0.8,0.9,1.5,1.7,2.3,2.5c-0.3-0.1-0.6-0.2-0.9-0.2c-4.3-0.9-8,0.4-9.8,1.3C8.2,73,8,73.2,8,73.4c-0.1,0.2,0,0.4,0.1,0.6
			c0.8,1.3,2.2,3,4.5,4c1.3,0.6,2.6,0.8,4,0.8c2.5,0,5.2-0.9,7.5-2.6c1.7,1.3,3.3,2.5,4.9,3.5c-0.4,0-0.8,0-1.2,0
			c-4.4,0.2-7.7,2.3-9.2,3.6c-0.2,0.1-0.3,0.3-0.3,0.6c0,0.2,0.1,0.4,0.2,0.6c1.1,1.1,2.8,2.4,5.3,2.8c0.6,0.1,1.1,0.1,1.7,0.1
			c3.3,0,6.7-1.7,9.1-4.6c0.2,0.1,0.5,0.2,0.7,0.3c1.6,0.7,3.1,1.4,4.6,1.9c-0.4,0.1-0.8,0.1-1.2,0.2c-4.3,1.1-7,3.9-8.3,5.4
			c-0.1,0.2-0.2,0.4-0.2,0.6s0.2,0.4,0.4,0.5c1.2,0.8,3.1,1.7,5.5,1.7c0.1,0,0.2,0,0.3,0c3.9-0.1,7.5-2.7,9.7-6.7
			c1.9,0.4,3.5,0.7,4.6,0.8c0.2,0,0.4,0,0.6,0.1c-0.3,0.1-0.6,0.3-0.8,0.4c-3.9,2.1-6,5.4-6.8,7.2c-0.1,0.2-0.1,0.4,0,0.6
			s0.3,0.4,0.5,0.4c0.9,0.3,2.1,0.6,3.5,0.6c0.8,0,1.6-0.1,2.5-0.3c3.8-1,6.8-4.4,7.9-8.8C58.2,87.5,58.3,86.7,58.2,86.6z
			 M39.5,78.1c-0.2-1.5,0.1-2.8,0.4-3.8c1.4,1,3.3,2.9,4.4,5.8c0.6,1.5,0.8,3.2,0.8,4.9C42,83.5,39.9,81,39.5,78.1z M29.9,72.8
			c0.1-1.5,0.7-2.7,1.2-3.7c1.2,1.3,2.6,3.5,3.1,6.6c0.2,1.6,0.1,3.3-0.3,4.9C31.2,78.6,29.7,75.7,29.9,72.8z M11.1,59.7
			c-1.6-1-4.6-3.2-5.3-7.1c-0.4-2-0.1-3.7,0.4-5.1c1.4,1.2,3.2,3.3,4.2,6.3C11.1,56,11.2,58.1,11.1,59.7z M4.8,65.9
			c-1.3-1-2.2-2.2-2.7-3.2c1.9-0.3,4.9-0.5,8,0.8c1.7,0.7,3.2,1.7,4.4,3.1C11.1,68,7.4,67.8,4.8,65.9z M15.7,56.7
			c0.7-1.3,1.8-2.2,2.7-2.8c0.5,1.7,0.9,4.3,0,7.3c-0.5,1.6-1.3,3.1-2.4,4.3C14.4,62.5,14.2,59.2,15.7,56.7z M13.2,76.6
			c-1.5-0.7-2.6-1.7-3.3-2.6c1.8-0.7,4.7-1.5,8-0.8c1.8,0.4,3.4,1.1,4.9,2.1C19.7,77.4,16.1,77.9,13.2,76.6z M21.9,65.4
			c0.5-1.4,1.3-2.5,2.1-3.3c0.8,1.6,1.7,4.1,1.4,7.1c-0.2,1.6-0.7,3.2-1.4,4.7C21.8,71.4,21.1,68.2,21.9,65.4z M24.1,85.8
			c-1.6-0.3-2.9-1.1-3.8-1.8c1.6-1.1,4.2-2.5,7.5-2.7c1.8-0.1,3.6,0.2,5.3,0.9C30.6,85,27.2,86.3,24.1,85.8z M36.5,92
			c-1.6,0.1-3.1-0.4-4.1-1c1.3-1.4,3.5-3.3,6.8-4.2c1.7-0.4,3.6-0.5,5.4-0.3C42.7,89.8,39.6,91.9,36.5,92z M49.6,80.9
			c-0.5-1.4-0.6-2.8-0.4-3.8c1.6,0.7,3.9,2.1,5.6,4.6c0.9,1.4,1.5,2.9,1.8,4.6C53.2,85.6,50.6,83.7,49.6,80.9z M49.8,95.1
			c-1.6,0.4-3.1,0.3-4.2,0c0.9-1.7,2.7-4.1,5.7-5.6c1.6-0.8,3.4-1.3,5.2-1.5C55.3,91.6,52.9,94.3,49.8,95.1z"/>
	</g>
	<g>
		<g>
			
				<linearGradient id="SVGID_3_" gradientUnits="userSpaceOnUse" x1="54.2507" y1="91.55" x2="67.1842" y2="91.55" gradientTransform="matrix(1 0 0 -1 0 98)">
				<stop  offset="0" style="stop-color:#C5A266"/>
				<stop  offset="0.5" style="stop-color:#876939"/>
				<stop  offset="1" style="stop-color:#6A4A20"/>
				<stop  offset="1" style="stop-color:#000000"/>
			</linearGradient>
			<path fill="url(#SVGID_3_)" d="M60.7,12.9c-3.6,0-6.5-2.9-6.5-6.5s3-6.4,6.5-6.4c3.6,0,6.5,2.9,6.5,6.5S64.3,12.9,60.7,12.9z
				 M60.7,1.6c-2.7,0-4.9,2.2-4.9,4.9s2.2,4.9,4.9,4.9s4.9-2.2,4.9-4.9S63.4,1.6,60.7,1.6z"/>
		</g>
		<g>
			
				<linearGradient id="SVGID_4_" gradientUnits="userSpaceOnUse" x1="54.2507" y1="39.9" x2="67.1842" y2="39.9" gradientTransform="matrix(1 0 0 -1 0 98)">
				<stop  offset="0" style="stop-color:#C5A266"/>
				<stop  offset="0.5" style="stop-color:#876939"/>
				<stop  offset="1" style="stop-color:#6A4A20"/>
				<stop  offset="1" style="stop-color:#000000"/>
			</linearGradient>
			<path fill="url(#SVGID_4_)" d="M60.7,64.6c-3.6,0-6.5-2.9-6.5-6.5s2.9-6.5,6.5-6.5c3.6,0,6.5,2.9,6.5,6.5
				C67.2,61.7,64.3,64.6,60.7,64.6z M60.7,53.2c-2.7,0-4.9,2.2-4.9,4.9S58,63,60.7,63s4.9-2.2,4.9-4.9S63.4,53.2,60.7,53.2z"/>
		</g>
		<g>
			
				<linearGradient id="SVGID_5_" gradientUnits="userSpaceOnUse" x1="72.5626" y1="84" x2="85.4963" y2="84" gradientTransform="matrix(1 0 0 -1 0 98)">
				<stop  offset="0" style="stop-color:#C5A266"/>
				<stop  offset="0.5" style="stop-color:#876939"/>
				<stop  offset="1" style="stop-color:#6A4A20"/>
				<stop  offset="1" style="stop-color:#000000"/>
			</linearGradient>
			<path fill="url(#SVGID_5_)" d="M79,20.5c-3.6,0-6.5-2.9-6.5-6.5s2.9-6.5,6.5-6.5s6.5,2.9,6.5,6.5S82.6,20.5,79,20.5z M79,9.1
				c-2.7,0-4.9,2.2-4.9,4.9s2.2,4.9,4.9,4.9c2.7,0,4.9-2.2,4.9-4.9S81.7,9.1,79,9.1z"/>
		</g>
		<g>
			
				<linearGradient id="SVGID_6_" gradientUnits="userSpaceOnUse" x1="35.734" y1="84" x2="48.6676" y2="84" gradientTransform="matrix(1 0 0 -1 0 98)">
				<stop  offset="0" style="stop-color:#C5A266"/>
				<stop  offset="0.5" style="stop-color:#876939"/>
				<stop  offset="1" style="stop-color:#6A4A20"/>
				<stop  offset="1" style="stop-color:#000000"/>
			</linearGradient>
			<path fill="url(#SVGID_6_)" d="M42.2,20.5c-3.6,0-6.5-2.9-6.5-6.5s2.9-6.5,6.5-6.5s6.5,2.9,6.5,6.5S45.8,20.5,42.2,20.5z
				 M42.2,9.1c-2.7,0-4.9,2.2-4.9,4.9s2.2,4.9,4.9,4.9s4.9-2.2,4.9-4.9S44.9,9.1,42.2,9.1z"/>
		</g>
		<g>
			
				<linearGradient id="SVGID_7_" gradientUnits="userSpaceOnUse" x1="72.5626" y1="47.5" x2="85.4963" y2="47.5" gradientTransform="matrix(1 0 0 -1 0 98)">
				<stop  offset="0" style="stop-color:#C5A266"/>
				<stop  offset="0.5" style="stop-color:#876939"/>
				<stop  offset="1" style="stop-color:#6A4A20"/>
				<stop  offset="1" style="stop-color:#000000"/>
			</linearGradient>
			<path fill="url(#SVGID_7_)" d="M79,57c-3.6,0-6.5-2.9-6.5-6.5S75.4,44,79,44s6.5,2.9,6.5,6.5S82.6,57,79,57z M79,45.7
				c-2.7,0-4.9,2.2-4.9,4.9s2.2,4.9,4.9,4.9c2.7,0,4.9-2.2,4.9-4.9S81.7,45.7,79,45.7z"/>
		</g>
		<g>
			
				<linearGradient id="SVGID_8_" gradientUnits="userSpaceOnUse" x1="35.734" y1="47.5" x2="48.6676" y2="47.5" gradientTransform="matrix(1 0 0 -1 0 98)">
				<stop  offset="0" style="stop-color:#C5A266"/>
				<stop  offset="0.5" style="stop-color:#876939"/>
				<stop  offset="1" style="stop-color:#6A4A20"/>
				<stop  offset="1" style="stop-color:#000000"/>
			</linearGradient>
			<path fill="url(#SVGID_8_)" d="M42.2,57c-3.6,0-6.5-2.9-6.5-6.5s2.9-6.5,6.5-6.5s6.5,2.9,6.5,6.5S45.8,57,42.2,57z M42.2,45.7
				c-2.7,0-4.9,2.2-4.9,4.9s2.2,4.9,4.9,4.9s4.9-2.2,4.9-4.9C47.1,47.9,44.9,45.7,42.2,45.7z"/>
		</g>
		<g>
			
				<linearGradient id="SVGID_9_" gradientUnits="userSpaceOnUse" x1="28.3683" y1="65.8" x2="41.3018" y2="65.8" gradientTransform="matrix(1 0 0 -1 0 98)">
				<stop  offset="0" style="stop-color:#C5A266"/>
				<stop  offset="0.5" style="stop-color:#876939"/>
				<stop  offset="1" style="stop-color:#6A4A20"/>
				<stop  offset="1" style="stop-color:#000000"/>
			</linearGradient>
			<path fill="url(#SVGID_9_)" d="M34.8,38.7c-3.6,0-6.5-2.9-6.5-6.5s2.9-6.5,6.5-6.5s6.5,2.9,6.5,6.5S38.4,38.7,34.8,38.7z
				 M34.8,27.4c-2.7,0-4.9,2.2-4.9,4.9s2.2,4.9,4.9,4.9s4.9-2.2,4.9-4.9S37.5,27.4,34.8,27.4z"/>
		</g>
		<g>
			
				<linearGradient id="SVGID_10_" gradientUnits="userSpaceOnUse" x1="80.1331" y1="65.8" x2="93.0665" y2="65.8" gradientTransform="matrix(1 0 0 -1 0 98)">
				<stop  offset="0" style="stop-color:#C5A266"/>
				<stop  offset="0.5" style="stop-color:#876939"/>
				<stop  offset="1" style="stop-color:#6A4A20"/>
				<stop  offset="1" style="stop-color:#000000"/>
			</linearGradient>
			<path fill="url(#SVGID_10_)" d="M86.6,38.7c-3.6,0-6.5-2.9-6.5-6.5s2.9-6.5,6.5-6.5s6.5,2.9,6.5,6.5S90.2,38.7,86.6,38.7z
				 M86.6,27.4c-2.7,0-4.9,2.2-4.9,4.9s2.2,4.9,4.9,4.9s4.9-2.2,4.9-4.9S89.3,27.4,86.6,27.4z"/>
		</g>
		<g>
			
				<linearGradient id="SVGID_11_" gradientUnits="userSpaceOnUse" x1="54.2251" y1="65.4" x2="67.1586" y2="65.4" gradientTransform="matrix(1 0 0 -1 0 98)">
				<stop  offset="0" style="stop-color:#C5A266"/>
				<stop  offset="0.5" style="stop-color:#876939"/>
				<stop  offset="1" style="stop-color:#6A4A20"/>
				<stop  offset="1" style="stop-color:#000000"/>
			</linearGradient>
			<path fill="url(#SVGID_11_)" d="M60.7,39.1c-3.6,0-6.5-2.9-6.5-6.5s2.9-6.5,6.5-6.5c3.6,0,6.5,2.9,6.5,6.5S64.3,39.1,60.7,39.1z
				 M60.7,27.8c-2.7,0-4.9,2.2-4.9,4.9s2.2,4.9,4.9,4.9s4.9-2.2,4.9-4.9S63.4,27.8,60.7,27.8z"/>
		</g>
		<g>
			
				<linearGradient id="SVGID_12_" gradientUnits="userSpaceOnUse" x1="62.8" y1="59.9" x2="62.8" y2="59.9" gradientTransform="matrix(1 0 0 -1 0 98)">
				<stop  offset="0" style="stop-color:#C5A266"/>
				<stop  offset="0.5" style="stop-color:#876939"/>
				<stop  offset="1" style="stop-color:#6A4A20"/>
				<stop  offset="1" style="stop-color:#000000"/>
			</linearGradient>
			
				<path fill="url(#SVGID_12_)" stroke="#FF0000" stroke-width="1.578" stroke-linecap="round" stroke-linejoin="round" stroke-miterlimit="10" d="
				M62.8,38.1"/>
		</g>
		<g>
			
				<linearGradient id="SVGID_13_" gradientUnits="userSpaceOnUse" x1="42.1984" y1="65.4392" x2="79.1852" y2="65.4392" gradientTransform="matrix(1 0 0 -1 0 98)">
				<stop  offset="0" style="stop-color:#C5A266"/>
				<stop  offset="0.5" style="stop-color:#876939"/>
				<stop  offset="1" style="stop-color:#6A4A20"/>
				<stop  offset="1" style="stop-color:#000000"/>
			</linearGradient>
			<path fill="url(#SVGID_13_)" d="M79.1,25.9c0.2-0.4,0-0.8-0.4-1c0,0-3.8-1.7-6-4c-1.9-2-3.8-6-3.8-6c-0.2-0.4-0.6-0.5-1-0.4
				c-0.1,0-0.2,0.1-0.4,0.1c-1.6,0.6-3.7,1.4-6.7,1.2c-2.7-0.1-5.2-0.9-6.9-1.6c-0.4-0.2-0.8,0-1,0.4c0,0-1.7,3.8-4,6
				c-1.9,1.7-5.4,3.5-6,3.8l0,0h-0.1l0,0l0,0c-0.3,0.2-0.5,0.6-0.3,0.9c0,0.1,0.1,0.2,0.1,0.4c0.6,1.6,1.4,3.7,1.2,6.7
				c-0.1,2.7-0.9,5.2-1.6,6.9c-0.2,0.4,0,0.9,0.4,1c0,0,3.8,1.6,6,3.9c1.8,2,3.1,4.3,3.8,6c0.1,0.3,0.3,0.4,0.6,0.5l0,0h0.1l0,0
				c0.1,0,0.3,0,0.4-0.1c0.7-0.2,4.1-1.4,7-1.3c2.7,0.1,5.2,0.9,6.9,1.6c0.1,0,0.2,0.1,0.3,0.1c0.3,0,0.6-0.2,0.7-0.5
				c0,0,1.7-3.8,4-6c2-1.9,6-3.7,6-3.7c0.4-0.2,0.6-0.6,0.4-1c0-0.1-0.1-0.2-0.1-0.4c-0.6-1.6-1.4-3.7-1.2-6.7
				C77.7,30.2,78.5,27.6,79.1,25.9z M71.4,43.5c-1.6,1.5-2.9,3.5-3.6,5l-2.7-6.7c-0.2-0.4-0.6-0.6-1-0.4c-0.4,0.2-0.6,0.6-0.4,1
				l2.7,6.7c-1.6-0.5-3.6-1-5.7-1.1c-0.1,0-0.3,0-0.5,0c-2,0-4.1,0.5-5.6,0.9l2.8-6.5c0.2-0.4,0-0.9-0.4-1c-0.4-0.2-0.9,0-1,0.4
				l-2.8,6.6c-0.8-1.5-1.9-3.3-3.3-4.9c-1.5-1.6-3.5-2.8-4.9-3.5l6.7-2.7c0.4-0.2,0.6-0.6,0.4-1c-0.2-0.4-0.6-0.6-1-0.4l-6.7,2.7
				c0.5-1.6,1-3.6,1.1-5.7c0.1-2.5-0.4-4.5-0.9-6l6.6,2.8c0.1,0,0.2,0.1,0.3,0.1c0.3,0,0.6-0.2,0.7-0.5c0.2-0.4,0-0.9-0.4-1
				l-6.6-2.8c1.4-0.8,3.5-2,4.9-3.3c1.6-1.4,2.8-3.4,3.6-4.9l2.6,6.6c0.1,0.3,0.4,0.5,0.7,0.5c0.1,0,0.2,0,0.3-0.1
				c0.4-0.2,0.6-0.6,0.4-1L55,16.6c1.6,0.5,3.7,1,5.8,1.1c2.5,0.1,4.4-0.4,5.9-0.9l-2.8,6.5c-0.2,0.4,0,0.9,0.4,1
				c0.1,0,0.2,0.1,0.3,0.1c0.3,0,0.6-0.2,0.7-0.5l2.8-6.7c0.8,1.4,2,3.6,3.3,5c1.4,1.5,3.4,2.8,4.8,3.5l-6.6,2.7
				c-0.4,0.2-0.6,0.6-0.4,1c0.1,0.3,0.4,0.5,0.7,0.5c0.1,0,0.2,0,0.3-0.1l6.8-2.7c-0.5,1.6-1,3.7-1.1,5.8c-0.1,2.5,0.4,4.4,0.9,6
				l-6.6-2.8c-0.4-0.2-0.9,0-1,0.4c-0.2,0.4,0,0.9,0.4,1l6.7,2.9C74.9,41,72.8,42.2,71.4,43.5z"/>
		</g>
	</g>
</g>
</svg>
