<?xml version="1.0" encoding="utf-8"?>
<!-- Generator: Adobe Illustrator 24.0.0, SVG Export Plug-In . SVG Version: 6.00 Build 0)  -->
<svg version="1.1" id="Layer_1" xmlns="http://www.w3.org/2000/svg" xmlns:xlink="http://www.w3.org/1999/xlink" x="0px" y="0px"
	 viewBox="0 0 121.7 97" enable-background="new 0 0 121.7 97" xml:space="preserve">
<title>Group 44</title>
<desc>Created with Sketch.</desc>
<g>
	
		<linearGradient id="SVGID_1_" gradientUnits="userSpaceOnUse" x1="56.6" y1="65.5" x2="65.2" y2="65.5" gradientTransform="matrix(1 0 0 -1 0 98)">
		<stop  offset="0" style="stop-color:#C5A266"/>
		<stop  offset="0.5" style="stop-color:#876939"/>
		<stop  offset="1" style="stop-color:#6A4A20"/>
		<stop  offset="1" style="stop-color:#000000"/>
	</linearGradient>
	<path fill="url(#SVGID_1_)" d="M65.2,32.5c0-2.4-1.9-4.3-4.3-4.3c-2.4,0-4.3,1.9-4.3,4.3s1.9,4.3,4.3,4.3
		C63.3,36.8,65.2,34.8,65.2,32.5z M58.2,32.5c0-1.5,1.2-2.7,2.7-2.7s2.7,1.2,2.7,2.7s-1.2,2.7-2.7,2.7S58.2,34,58.2,32.5z"/>
	
		<linearGradient id="SVGID_2_" gradientUnits="userSpaceOnUse" x1="50.8783" y1="65.5" x2="70.9091" y2="65.5" gradientTransform="matrix(1 0 0 -1 0 98)">
		<stop  offset="0" style="stop-color:#C5A266"/>
		<stop  offset="0.5" style="stop-color:#876939"/>
		<stop  offset="1" style="stop-color:#6A4A20"/>
		<stop  offset="1" style="stop-color:#000000"/>
	</linearGradient>
	<path fill="url(#SVGID_2_)" d="M70.9,32.5c0-5.5-4.5-10-10-10s-10,4.5-10,10s4.5,10,10,10S70.9,38,70.9,32.5z M52.5,32.5
		c0-4.6,3.8-8.4,8.4-8.4s8.4,3.8,8.4,8.4s-3.8,8.4-8.4,8.4S52.5,37.1,52.5,32.5z"/>
	
		<linearGradient id="SVGID_3_" gradientUnits="userSpaceOnUse" x1="67.9262" y1="77.7196" x2="77.8897" y2="77.7196" gradientTransform="matrix(1 0 0 -1 0 98)">
		<stop  offset="0" style="stop-color:#C5A266"/>
		<stop  offset="0.5" style="stop-color:#876939"/>
		<stop  offset="1" style="stop-color:#6A4A20"/>
		<stop  offset="1" style="stop-color:#000000"/>
	</linearGradient>
	<path fill="url(#SVGID_3_)" d="M69.3,23.9c0.9,0.9,2.1,1.4,3.4,1.4s2.5-0.5,3.4-1.4l0,0c0.4-0.4,0.7-0.9,0.9-1.6
		c0.2-0.6,0.3-1.3,0.5-2.3c0.1-0.5,0.1-1,0.2-1.6v-0.1c0.1-0.8,0.1-1.4,0.2-2.1c0-0.2,0-0.5-0.2-0.7s-0.4-0.3-0.7-0.2
		c-0.6,0.1-2.4,0.3-2.4,0.3c-1.4,0.1-2.6,0.3-3.5,0.6c-0.7,0.2-1.3,0.5-1.7,0.9C68.5,18,68,19.2,68,20.5
		C67.9,21.8,68.4,23,69.3,23.9z M70.5,18.3c0.1-0.1,0.4-0.4,1-0.5c0.8-0.3,3.7-0.6,3.7-0.6c0.3,0,0.6-0.1,1-0.1
		c0,0.4-0.1,0.7-0.1,1.1l0,0c-0.1,0.5-0.1,1-0.2,1.5c-0.1,0.8-0.2,1.5-0.4,2c-0.2,0.6-0.4,0.9-0.5,1l0,0c-0.6,0.6-1.4,0.9-2.2,0.9
		c-0.9,0-1.7-0.3-2.3-0.9c-0.6-0.6-0.9-1.4-0.9-2.3C69.5,19.7,69.8,18.9,70.5,18.3z"/>
	
		<linearGradient id="SVGID_4_" gradientUnits="userSpaceOnUse" x1="43.9463" y1="53.85" x2="53.9098" y2="53.85" gradientTransform="matrix(1 0 0 -1 0 98)">
		<stop  offset="0" style="stop-color:#C5A266"/>
		<stop  offset="0.5" style="stop-color:#876939"/>
		<stop  offset="1" style="stop-color:#6A4A20"/>
		<stop  offset="1" style="stop-color:#000000"/>
	</linearGradient>
	<path fill="url(#SVGID_4_)" d="M49.1,39.2c-1.3,0-2.5,0.5-3.4,1.4l0,0c-0.4,0.4-0.7,0.9-0.9,1.6c-0.2,0.6-0.3,1.3-0.5,2.3
		c-0.1,0.5-0.1,1-0.2,1.6l0,0c-0.1,0.8-0.1,1.4-0.2,2.1c0,0.2,0,0.5,0.2,0.7c0.2,0.1,0.4,0.2,0.6,0.2h0.1c0.6-0.1,1.3-0.2,1.9-0.2
		l0.5-0.1c1.4-0.1,2.6-0.3,3.5-0.6c0.7-0.2,1.3-0.5,1.7-0.9c0.9-0.9,1.4-2.1,1.4-3.4c0-1.3-0.5-2.5-1.4-3.4
		C51.6,39.7,50.4,39.2,49.1,39.2z M51.4,46.3c-0.1,0.1-0.4,0.4-1,0.5c-0.8,0.3-1.9,0.4-3.2,0.5l0,0l-0.5,0.1c-0.3,0-0.6,0.1-1,0.1
		c0-0.4,0.1-0.7,0.1-1.1l0,0c0.1-0.5,0.1-1,0.2-1.5c0.1-0.8,0.2-1.5,0.4-2c0.2-0.6,0.4-0.9,0.5-1l0,0c0.6-0.6,1.4-0.9,2.2-0.9
		c0.9,0,1.7,0.3,2.3,0.9c0.6,0.6,0.9,1.4,0.9,2.3C52.3,44.9,52,45.7,51.4,46.3z"/>
	
		<linearGradient id="SVGID_5_" gradientUnits="userSpaceOnUse" x1="67.9803" y1="53.65" x2="77.9716" y2="53.65" gradientTransform="matrix(1 0 0 -1 0 98)">
		<stop  offset="0" style="stop-color:#C5A266"/>
		<stop  offset="0.5" style="stop-color:#876939"/>
		<stop  offset="1" style="stop-color:#6A4A20"/>
		<stop  offset="1" style="stop-color:#000000"/>
	</linearGradient>
	<path fill="url(#SVGID_5_)" d="M69.4,47.5c0.4,0.4,0.9,0.7,1.6,0.9c0.6,0.2,1.3,0.3,2.3,0.5c0.5,0.1,1,0.1,1.6,0.2l0,0
		c0.8,0.1,1.4,0.1,2.1,0.2h0.1c0.2,0,0.4-0.1,0.6-0.2c0.2-0.2,0.3-0.4,0.2-0.7c-0.1-0.6-0.6-5-0.9-5.9c-0.2-0.7-0.5-1.3-0.9-1.7
		c-0.9-0.9-2.1-1.4-3.4-1.4s-2.5,0.5-3.4,1.4s-1.4,2.1-1.4,3.4C68,45.3,68.5,46.5,69.4,47.5C69.4,47.4,69.4,47.5,69.4,47.5z
		 M70.5,41.8c0.6-0.6,1.4-0.9,2.3-0.9s1.7,0.3,2.3,0.9c0.1,0.1,0.4,0.4,0.5,1c0.3,0.8,0.7,4.3,0.7,4.7c-0.4,0-0.7-0.1-1.1-0.1l0,0
		c-0.5-0.1-1-0.1-1.5-0.2c-0.8-0.1-1.5-0.2-2-0.4c-0.6-0.2-0.9-0.4-1-0.5l0,0c-0.6-0.6-1-1.5-1-2.3C69.7,43.1,69.9,42.4,70.5,41.8z"
		/>
	
		<linearGradient id="SVGID_6_" gradientUnits="userSpaceOnUse" x1="44.0014" y1="77.8" x2="54.0327" y2="77.8" gradientTransform="matrix(1 0 0 -1 0 98)">
		<stop  offset="0" style="stop-color:#C5A266"/>
		<stop  offset="0.5" style="stop-color:#876939"/>
		<stop  offset="1" style="stop-color:#6A4A20"/>
		<stop  offset="1" style="stop-color:#000000"/>
	</linearGradient>
	<path fill="url(#SVGID_6_)" d="M44.3,18.1l0.1,0.5c0.1,1.4,0.3,2.6,0.6,3.5c0.2,0.7,0.5,1.3,0.9,1.7c0.9,0.9,2.1,1.4,3.4,1.4
		c1.3,0,2.5-0.5,3.4-1.4s1.4-2.1,1.4-3.4s-0.5-2.5-1.4-3.4l0,0c-0.4-0.4-0.9-0.7-1.6-0.9c-0.6-0.2-1.3-0.3-2.3-0.5
		c-0.5-0.1-1-0.1-1.6-0.2l0,0c-0.8-0.1-1.4-0.1-2.1-0.2c-0.2,0-0.5,0-0.7,0.2s-0.3,0.4-0.3,0.7C44.2,16.8,44.2,17.5,44.3,18.1z
		 M46.9,17.1L46.9,17.1c0.6,0.1,1.1,0.1,1.6,0.2c0.8,0.1,1.5,0.2,2,0.4c0.6,0.2,0.9,0.4,1,0.5l0,0c0.6,0.6,0.9,1.4,0.9,2.2
		c0,0.9-0.3,1.7-0.9,2.3c-0.6,0.6-1.4,0.9-2.3,0.9c-0.9,0-1.7-0.3-2.3-0.9c-0.1-0.1-0.4-0.4-0.5-1c-0.3-0.8-0.4-1.9-0.5-3.2l0,0V18
		c0-0.3-0.1-0.6-0.1-1C46.1,17,46.5,17.1,46.9,17.1z"/>
	
		<linearGradient id="SVGID_7_" gradientUnits="userSpaceOnUse" x1="73.3" y1="65.5" x2="93.4" y2="65.5" gradientTransform="matrix(1 0 0 -1 0 98)">
		<stop  offset="0" style="stop-color:#C5A266"/>
		<stop  offset="0.5" style="stop-color:#876939"/>
		<stop  offset="1" style="stop-color:#6A4A20"/>
		<stop  offset="1" style="stop-color:#000000"/>
	</linearGradient>
	<path fill="url(#SVGID_7_)" d="M76.3,28.9h-2.2c-0.4,0-0.8,0.4-0.8,0.8v5.6c0,0.4,0.4,0.8,0.8,0.8l0,0c0.1,0,0.1,0,0.2,0h2
		c1,2.3,3.3,3.5,6.4,3.5c0.8,0,1.8-0.3,2.8-0.8c0.8-0.4,1.7-1,2.8-1.9c0.6-0.5,1.2-1,1.8-1.5l0.1-0.1c1-0.8,1.9-1.6,2.9-2.3
		c0.2-0.1,0.3-0.4,0.3-0.6c0-0.3-0.1-0.5-0.3-0.6c-1-0.7-1.9-1.5-2.9-2.2c0,0-1.3-1-2-1.5c-2.3-1.8-4.1-2.7-5.5-2.7c0,0,0,0-0.1,0
		C79.6,25.4,77.3,26.7,76.3,28.9z M77.7,29.6c1-2.1,3.3-2.6,5-2.6c0,0,0,0,0.1,0c1.1,0,2.6,0.8,4.6,2.3l0,0c0.6,0.5,1.9,1.5,1.9,1.5
		c0.7,0.6,1.4,1.1,2.1,1.7c-0.7,0.6-1.4,1.1-2.1,1.7l-0.1,0.1c-0.6,0.5-1.2,1-1.8,1.4c-1,0.8-1.8,1.4-2.6,1.7
		c-0.8,0.4-1.5,0.6-2,0.6c-1.7,0-4-0.4-5-2.6c-0.3-0.6-0.8-0.9-1.4-0.9H75v-4h1.4C76.9,30.5,77.5,30.2,77.7,29.6z"/>
	
		<linearGradient id="SVGID_8_" gradientUnits="userSpaceOnUse" x1="28.2629" y1="65.5" x2="48.4089" y2="65.5" gradientTransform="matrix(1 0 0 -1 0 98)">
		<stop  offset="0" style="stop-color:#C5A266"/>
		<stop  offset="0.5" style="stop-color:#876939"/>
		<stop  offset="1" style="stop-color:#6A4A20"/>
		<stop  offset="1" style="stop-color:#000000"/>
	</linearGradient>
	<path fill="url(#SVGID_8_)" d="M28.6,33.2c1,0.7,1.9,1.5,2.9,2.2c0,0,1.3,1,2,1.5c2.3,1.8,4.1,2.7,5.5,2.7c0,0,0,0,0.1,0
		c3.1,0,5.4-1.2,6.4-3.5h2.2c0.4,0,0.8-0.4,0.8-0.8v-5.6c0-0.4-0.4-0.8-0.8-0.8c-0.1,0-0.1,0-0.2,0h-2c-1-2.3-3.3-3.5-6.4-3.5
		c-0.8,0-1.8,0.3-2.8,0.8c-0.8,0.4-1.7,1-2.8,1.9c-0.6,0.5-1.2,1-1.8,1.5l-0.1,0.1c-1,0.8-1.9,1.6-2.9,2.3c-0.2,0.1-0.2,0.3-0.3,0.5
		C28.3,32.7,28.4,33.1,28.6,33.2z M32.5,30.8L32.5,30.8c0.7-0.5,1.3-1,1.8-1.5c1-0.8,1.8-1.4,2.6-1.7c0.8-0.4,1.5-0.6,2-0.6
		c1.7,0,4,0.4,5,2.6c0.3,0.6,0.8,0.9,1.4,0.9h1.4v4h-1.4c-0.6,0-1.2,0.4-1.4,0.9c-1,2.1-3.3,2.6-5,2.6c0,0,0,0-0.1,0
		c-1.1,0-2.6-0.8-4.6-2.3l0,0c-0.6-0.5-1.9-1.5-1.9-1.5c-0.7-0.6-1.4-1.1-2.1-1.7C31.1,32,31.8,31.4,32.5,30.8z"/>
	
		<linearGradient id="SVGID_9_" gradientUnits="userSpaceOnUse" x1="53.7617" y1="42.95" x2="67.9788" y2="42.95" gradientTransform="matrix(1 0 0 -1 0 98)">
		<stop  offset="0" style="stop-color:#C5A266"/>
		<stop  offset="0.5" style="stop-color:#876939"/>
		<stop  offset="1" style="stop-color:#6A4A20"/>
		<stop  offset="1" style="stop-color:#000000"/>
	</linearGradient>
	<path fill="url(#SVGID_9_)" d="M63.8,61.9c0.5-0.6,1-1.2,1.5-1.9c1.8-2.3,2.7-4.1,2.7-5.5c0,0,0,0,0-0.1c0-3.1-1.2-5.4-3.5-6.4
		v-2.2c0-0.4-0.4-0.8-0.8-0.8h-5.6c-0.4,0-0.8,0.4-0.8,0.8c0,0.1,0,0.1,0,0.2v2c-2.3,1-3.5,3.3-3.5,6.4c0,0.8,0.3,1.8,0.8,2.8
		c0.4,0.8,1,1.7,1.9,2.8c0.5,0.6,1,1.2,1.5,1.8l0.1,0.1c0.8,1,1.6,1.9,2.3,2.9c0.1,0.2,0.4,0.3,0.6,0.3l0,0c0.3,0,0.5-0.1,0.6-0.3
		C62.2,63.9,63,62.9,63.8,61.9L63.8,61.9z M62.6,61c-0.6,0.7-1.1,1.4-1.7,2.1c-0.6-0.7-1.1-1.4-1.7-2.1l-0.1-0.1
		c-0.5-0.6-1-1.2-1.4-1.8c-0.8-1-1.4-1.8-1.7-2.6c-0.4-0.8-0.6-1.5-0.6-2c0-1.7,0.4-4,2.6-5c0.6-0.3,0.9-0.8,0.9-1.4v-1.4h4V48
		c0,0.6,0.4,1.2,0.9,1.4c2.1,1,2.6,3.3,2.6,5c0,0,0,0,0,0.1c0,1.1-0.8,2.6-2.3,4.6l0,0C63.6,59.7,63.1,60.3,62.6,61L62.6,61z"/>
	
		<linearGradient id="SVGID_10_" gradientUnits="userSpaceOnUse" x1="53.7617" y1="87.95" x2="67.9788" y2="87.95" gradientTransform="matrix(1 0 0 -1 0 98)">
		<stop  offset="0" style="stop-color:#C5A266"/>
		<stop  offset="0.5" style="stop-color:#876939"/>
		<stop  offset="1" style="stop-color:#6A4A20"/>
		<stop  offset="1" style="stop-color:#000000"/>
	</linearGradient>
	<path fill="url(#SVGID_10_)" d="M57.3,17.1v2.2c0,0.4,0.4,0.8,0.8,0.8h5.6c0.4,0,0.8-0.4,0.8-0.8c0-0.1,0-0.1,0-0.2v-2
		c2.3-1,3.5-3.3,3.5-6.4c0-0.8-0.3-1.8-0.8-2.8c-0.4-0.8-1-1.7-1.9-2.8c-0.5-0.6-1-1.2-1.5-1.8l-0.1-0.1c-0.8-0.9-1.6-1.9-2.3-2.9
		C61.3,0.1,61.1,0,60.8,0l0,0c-0.3,0-0.5,0.1-0.6,0.3c-0.7,1-1.5,1.9-2.2,2.9l0,0c-0.5,0.6-1,1.2-1.5,1.9c-1.8,2.3-2.7,4.1-2.7,5.5
		c0,0,0,0,0,0.1C53.8,13.8,55,16.1,57.3,17.1z M57.7,6.1L57.7,6.1c0.5-0.6,1-1.2,1.5-1.8l0,0c0.6-0.7,1.1-1.4,1.7-2.1
		c0.6,0.7,1.1,1.4,1.7,2.1l0.1,0.1c0.5,0.6,1,1.2,1.4,1.8c0.8,1,1.4,1.8,1.7,2.6c0.4,0.8,0.6,1.5,0.6,2c0,1.7-0.4,4-2.6,5
		c-0.6,0.3-0.9,0.8-0.9,1.4v1.4h-4v-1.4c0-0.6-0.4-1.2-0.9-1.4c-2.1-1-2.6-3.3-2.6-5c0,0,0,0,0-0.1C55.4,9.6,56.1,8.1,57.7,6.1z"/>
	
		<linearGradient id="SVGID_11_" gradientUnits="userSpaceOnUse" x1="63.3" y1="27.0207" x2="121.7414" y2="27.0207" gradientTransform="matrix(1 0 0 -1 0 98)">
		<stop  offset="0" style="stop-color:#C5A266"/>
		<stop  offset="0.5" style="stop-color:#876939"/>
		<stop  offset="1" style="stop-color:#6A4A20"/>
		<stop  offset="1" style="stop-color:#000000"/>
	</linearGradient>
	<path fill="url(#SVGID_11_)" d="M121.6,61.5c-0.1-0.2-0.3-0.3-0.5-0.4c-1.9-0.5-5.8-1-9.9,0.7c-0.4,0.2-0.7,0.3-1.1,0.5
		c0.2-0.3,0.4-0.7,0.6-1c1.4-0.7,6-3.3,7-8.8c0.6-2.9-0.2-5.5-0.9-7c-0.1-0.2-0.3-0.4-0.5-0.4c-0.2-0.1-0.5,0-0.7,0.1
		c-1.8,1.4-4.3,3.9-5.6,7.8c-0.8,2.4-1.1,5-0.7,7.6c-0.2,0.3-0.4,0.6-0.6,0.9c0.2-2.1-0.2-4.1-1.1-5.8c-1.2-2.1-2.9-3.3-4.2-3.9
		c-0.2-0.1-0.4-0.1-0.7,0c-0.2,0.1-0.4,0.3-0.5,0.5c-0.6,1.7-1.5,5.2-0.3,9.2c0.6,1.9,1.6,3.8,3,5.3c-0.4,0.5-0.8,0.9-1.2,1.4
		c-0.9,1-1.7,1.9-2.6,2.8c0.7-2,0.8-4.2,0.1-6.2c-0.7-2.3-2.2-3.8-3.3-4.7c-0.2-0.1-0.4-0.2-0.6-0.2s-0.4,0.2-0.5,0.4
		c-1,1.6-2.5,4.8-2.1,9c0.2,2,0.8,4,1.9,5.8c-1.6,1.3-3.2,2.3-4.7,3.3c1.1-1.8,1.6-3.8,1.4-5.7c-0.2-2.4-1.2-4.2-2.1-5.3
		c-0.1-0.2-0.3-0.3-0.6-0.3c-0.2,0-0.4,0.1-0.6,0.2c-1.3,1.3-3.6,4.1-4.2,8.2c-0.3,2-0.1,4.1,0.4,6c-0.2,0.1-0.4,0.2-0.6,0.3
		c-1.6,0.7-3.1,1.3-4.6,1.8c1.4-1.5,2.3-3.3,2.6-5.3c0.3-2.4-0.3-4.4-0.9-5.7c-0.1-0.2-0.3-0.4-0.5-0.4c-0.2-0.1-0.5,0-0.6,0.1
		c-1.6,1-4.4,3.2-5.8,7.2c-0.7,1.9-1,3.9-0.8,5.9c-1.8,0.4-3.4,0.6-4.4,0.8c-0.4,0-0.7,0.1-1.1,0.1c1.8-1.2,3.2-2.8,4-4.7
		c0.9-2.2,0.7-4.3,0.4-5.7c0-0.2-0.2-0.4-0.4-0.5c-0.2-0.1-0.4-0.1-0.6-0.1c-1.7,0.6-5,2.2-7.3,5.7c-1.2,1.9-2,4.1-2.3,6.3l0,0l0,0
		l0,0l0,0l0,0l0,0l0,0l0,0l0,0l0,0l0,0l0,0c1.1,4.7,4.1,8.2,8.1,9.3c0.9,0.2,1.7,0.3,2.5,0.3c1.4,0,2.7-0.3,3.6-0.6
		c0.2-0.1,0.4-0.2,0.5-0.4c0.1-0.2,0.1-0.4,0-0.6c-0.9-1.8-2.9-5.1-6.9-7.2c-0.3-0.1-0.6-0.3-0.8-0.4c0.2,0,0.4,0,0.6-0.1
		c1.1-0.1,2.7-0.4,4.7-0.8c2.1,4,5.8,6.6,9.7,6.7c0.1,0,0.2,0,0.3,0c2.4,0,4.3-0.9,5.5-1.7c0.2-0.1,0.3-0.3,0.4-0.5
		c0-0.2,0-0.4-0.2-0.6c-1.2-1.6-4-4.4-8.3-5.5c-0.4-0.1-0.8-0.2-1.2-0.2c1.5-0.5,3-1.1,4.7-1.9c0.2-0.1,0.5-0.2,0.7-0.3
		c2.5,3,5.9,4.6,9.2,4.6c0.6,0,1.1,0,1.7-0.1c2.5-0.4,4.3-1.8,5.4-2.9c0.2-0.2,0.2-0.4,0.2-0.6s-0.1-0.4-0.3-0.6
		c-1.6-1.3-4.8-3.4-9.3-3.6c-0.4,0-0.8,0-1.2,0c1.6-1,3.2-2.2,4.9-3.5c2.4,1.7,5,2.6,7.6,2.6c1.4,0,2.8-0.3,4-0.8
		c2.3-1,3.7-2.8,4.5-4c0.1-0.2,0.1-0.4,0.1-0.6c-0.1-0.2-0.2-0.4-0.4-0.5c-1.8-0.9-5.5-2.2-9.9-1.3c-0.3,0.1-0.6,0.1-0.9,0.2
		c0.8-0.8,1.6-1.7,2.4-2.5c0.4-0.5,0.8-1,1.2-1.5c1.9,0.8,3.8,1.3,5.6,1.3c2.2,0,4.4-0.6,6.1-1.8c2.1-1.5,3.1-3.5,3.6-4.9
		C121.8,61.9,121.7,61.7,121.6,61.5z M111.6,53.5c1-3,2.9-5.1,4.2-6.3c0.4,1.3,0.8,3.1,0.4,5.1c-0.7,3.9-3.8,6.2-5.4,7.2
		C110.7,57.8,110.8,55.7,111.6,53.5z M66.9,81.6c1.7-2.6,4-4,5.6-4.7c0.1,1.1,0.1,2.5-0.5,3.9c-1.1,2.7-3.7,4.8-7,5.4
		C65.4,84.6,66,83,66.9,81.6z M70.4,89.5c3,1.6,4.8,4,5.7,5.7c-1.2,0.3-2.6,0.4-4.2,0c-3.1-0.8-5.6-3.5-6.7-7.1
		C67,88.1,68.8,88.6,70.4,89.5z M77.4,79.9c1.1-2.9,3-4.8,4.4-5.8c0.4,1,0.6,2.4,0.4,3.9c-0.4,2.9-2.5,5.5-5.6,6.9
		C76.6,83.1,76.8,81.4,77.4,79.9z M82.5,86.8c3.3,0.8,5.6,2.8,6.9,4.2c-1.1,0.5-2.5,1-4.1,1c-3.2-0.1-6.2-2.2-8.1-5.4
		C78.9,86.2,80.8,86.3,82.5,86.8z M87.8,80.5c-0.4-1.6-0.5-3.3-0.3-5c0.4-3.1,1.9-5.3,3.1-6.6c0.6,0.9,1.1,2.2,1.2,3.7
		C92.1,75.6,90.5,78.5,87.8,80.5z M94,81.2c3.4,0.1,6,1.5,7.6,2.7c-0.9,0.8-2.2,1.5-3.8,1.8c-3.1,0.6-6.5-0.8-9.1-3.6
		C90.4,81.4,92.2,81.1,94,81.2z M96.4,69c-0.3-3.1,0.6-5.6,1.4-7.2c0.8,0.8,1.6,1.9,2.1,3.3c0.9,2.8,0.1,6-2.1,8.6
		C97,72.3,96.5,70.7,96.4,69z M104,73c3.3-0.7,6.2,0.1,8,0.8c-0.7,0.9-1.8,2-3.3,2.7c-2.9,1.3-6.6,0.8-9.7-1.4
		C100.5,74.1,102.2,73.3,104,73z M105.9,65.3c-1.1-1.3-1.9-2.8-2.4-4.4c-0.9-3-0.5-5.6,0-7.3c0.9,0.6,2,1.5,2.7,2.8
		C107.7,59,107.5,62.3,105.9,65.3z M117.1,65.7c-2.6,1.8-6.3,2.1-9.8,0.6c1.3-1.3,2.8-2.4,4.4-3.1c3.1-1.3,6.1-1.2,8-0.8
		C119.3,63.5,118.5,64.8,117.1,65.7z"/>
	
		<linearGradient id="SVGID_12_" gradientUnits="userSpaceOnUse" x1="2.500038e-02" y1="27.15" x2="58.3154" y2="27.15" gradientTransform="matrix(1 0 0 -1 0 98)">
		<stop  offset="0" style="stop-color:#C5A266"/>
		<stop  offset="0.5" style="stop-color:#876939"/>
		<stop  offset="1" style="stop-color:#6A4A20"/>
		<stop  offset="1" style="stop-color:#000000"/>
	</linearGradient>
	<path fill="url(#SVGID_12_)" d="M58.4,87.1c-0.2-2.3-1-4.5-2.3-6.3c-2.3-3.5-5.6-5-7.3-5.7c-0.2-0.1-0.5-0.1-0.6,0.1
		c-0.2,0.1-0.3,0.3-0.4,0.5c-0.3,1.4-0.5,3.5,0.4,5.7c0.8,1.9,2.2,3.6,4,4.7c-0.3,0-0.7-0.1-1.1-0.1c-1.1-0.1-2.6-0.4-4.4-0.8
		c0.1-2-0.1-4-0.8-5.9c-1.4-3.9-4.3-6.2-5.8-7.2c-0.2-0.1-0.4-0.2-0.6-0.1c-0.2,0.1-0.4,0.2-0.5,0.4c-0.6,1.3-1.3,3.3-0.9,5.7
		c0.3,2,1.2,3.8,2.6,5.3c-1.5-0.5-3-1.1-4.6-1.8c-0.2-0.1-0.4-0.2-0.6-0.3c0.6-2,0.7-4,0.4-6c-0.6-4.1-2.9-6.9-4.2-8.2
		c-0.2-0.2-0.4-0.2-0.6-0.2s-0.4,0.1-0.6,0.3c-0.9,1.1-1.9,2.9-2.1,5.3c-0.1,2,0.4,4,1.4,5.7c-1.5-0.9-3.1-2-4.7-3.3
		c1-1.8,1.7-3.8,1.9-5.8c0.4-4.2-1.2-7.4-2.1-9c-0.1-0.2-0.3-0.3-0.5-0.4c-0.2,0-0.5,0-0.6,0.2c-1.1,0.9-2.6,2.4-3.3,4.7
		c-0.6,2-0.6,4.1,0.1,6.2C19.7,69.9,18.9,69,18,68c-0.4-0.5-0.8-0.9-1.2-1.4c1.4-1.5,2.4-3.4,3-5.3c1.2-4,0.3-7.5-0.3-9.2
		c-0.1-0.2-0.2-0.4-0.5-0.5c-0.2-0.1-0.4-0.1-0.7,0c-1.3,0.6-3,1.8-4.2,3.9c-1,1.7-1.4,3.8-1.1,5.8c-0.2-0.3-0.4-0.6-0.6-0.9
		c0.3-2.5,0.1-5.2-0.7-7.6c-1.3-3.9-3.8-6.4-5.6-7.8c-0.3,0-0.5,0-0.7,0.1S5,45.3,4.9,45.5c-0.7,1.6-1.4,4.1-0.9,7
		c1,5.5,5.6,8.1,7,8.8c0.2,0.3,0.4,0.7,0.6,1c-0.4-0.2-0.7-0.4-1.1-0.5c-4.1-1.7-8-1.2-9.9-0.7c-0.2,0.1-0.4,0.2-0.5,0.4
		s-0.1,0.4,0,0.6c0.5,1.4,1.6,3.4,3.6,4.9c1.7,1.2,3.9,1.8,6.1,1.8c1.8,0,3.8-0.4,5.6-1.3c0.4,0.5,0.8,1,1.2,1.5
		c0.8,0.9,1.6,1.7,2.4,2.5c-0.3-0.1-0.6-0.2-0.9-0.2c-4.4-0.9-8.1,0.4-9.9,1.3c-0.2,0.1-0.4,0.3-0.4,0.5c-0.1,0.2,0,0.4,0.1,0.6
		c0.8,1.3,2.2,3,4.5,4c1.3,0.6,2.6,0.8,4,0.8c2.5,0,5.2-0.9,7.6-2.6c1.7,1.3,3.3,2.5,4.9,3.5c-0.4,0-0.8,0-1.2,0
		c-4.5,0.2-7.7,2.3-9.3,3.6c-0.2,0.1-0.3,0.4-0.3,0.6s0.1,0.4,0.2,0.6c1.1,1.1,2.9,2.4,5.4,2.9c0.6,0.1,1.1,0.1,1.7,0.1
		c3.3,0,6.7-1.7,9.2-4.6c0.2,0.1,0.5,0.2,0.7,0.3c1.6,0.7,3.2,1.4,4.7,1.9c-0.4,0.1-0.8,0.1-1.2,0.2c-4.3,1.1-7.1,3.9-8.3,5.5
		c-0.1,0.2-0.2,0.4-0.2,0.6s0.2,0.4,0.4,0.5c1.2,0.8,3.1,1.7,5.5,1.7c0.1,0,0.2,0,0.3,0c3.9-0.1,7.6-2.7,9.7-6.7
		c1.9,0.4,3.5,0.7,4.7,0.8c0.2,0,0.4,0,0.6,0.1c-0.3,0.1-0.6,0.3-0.8,0.4c-4,2.1-6,5.4-6.9,7.2c-0.1,0.2-0.1,0.4,0,0.6
		s0.3,0.4,0.5,0.4c0.9,0.3,2.2,0.6,3.6,0.6c0.8,0,1.6-0.1,2.5-0.3C54.3,95.3,57.3,91.9,58.4,87.1L58.4,87.1
		C58.4,87.2,58.4,87.1,58.4,87.1 M10.9,59.4c-1.6-1-4.6-3.3-5.4-7.2c-0.4-2-0.1-3.8,0.4-5.1c1.4,1.2,3.2,3.3,4.2,6.3
		C10.9,55.7,11,57.8,10.9,59.4z M4.6,65.7c-1.4-1-2.2-2.2-2.7-3.3c1.9-0.3,4.9-0.5,8,0.8c1.7,0.7,3.2,1.8,4.4,3.1
		C10.8,67.8,7.2,67.6,4.6,65.7z M15.8,65.3c-1.6-3-1.7-6.3-0.3-8.9c0.7-1.3,1.8-2.2,2.7-2.8c0.5,1.7,0.9,4.4,0,7.3
		C17.6,62.5,16.8,64,15.8,65.3z M13,76.5c-1.5-0.7-2.6-1.7-3.3-2.7c1.8-0.7,4.7-1.5,8-0.8c1.8,0.4,3.5,1.1,5,2.1
		C19.5,77.2,15.9,77.7,13,76.5z M23.9,73.8c-2.2-2.6-3-5.8-2.1-8.6c0.5-1.4,1.3-2.5,2.1-3.3c0.8,1.6,1.7,4.1,1.4,7.2
		C25.2,70.7,24.7,72.3,23.9,73.8z M23.9,85.7c-1.6-0.3-2.9-1.1-3.8-1.8c1.6-1.1,4.2-2.5,7.6-2.7c1.8-0.1,3.6,0.2,5.3,0.9
		C30.5,84.9,27.1,86.2,23.9,85.7z M33.9,80.5c-2.7-2-4.2-5-4-7.9c0.1-1.5,0.7-2.8,1.2-3.7c1.2,1.3,2.6,3.6,3.1,6.6
		C34.4,77.2,34.3,78.9,33.9,80.5z M36.4,91.9c-1.7,0.1-3.1-0.4-4.1-1c1.3-1.4,3.6-3.4,6.9-4.2c1.7-0.5,3.6-0.5,5.4-0.3
		C42.7,89.8,39.6,91.8,36.4,91.9z M45,84.8c-3.1-1.4-5.2-4-5.6-6.9c-0.2-1.5,0.1-2.8,0.4-3.9c1.4,1.1,3.3,2.9,4.4,5.8
		C44.9,81.4,45.1,83.1,45,84.8z M49.8,95.1c-1.6,0.4-3.1,0.3-4.2,0c0.9-1.7,2.7-4.1,5.7-5.7c1.6-0.8,3.4-1.3,5.2-1.5
		C55.4,91.6,52.9,94.3,49.8,95.1z M49.6,80.8c-0.5-1.4-0.6-2.8-0.5-3.9c1.6,0.7,3.9,2.1,5.6,4.7c0.9,1.4,1.5,3,1.9,4.6
		C53.3,85.6,50.7,83.6,49.6,80.8z"/>
</g>
</svg>
