<?xml version="1.0" encoding="utf-8"?>
<!-- Generator: Adobe Illustrator 24.0.0, SVG Export Plug-In . SVG Version: 6.00 Build 0)  -->
<svg version="1.1" id="Layer_1" xmlns="http://www.w3.org/2000/svg" xmlns:xlink="http://www.w3.org/1999/xlink" x="0px" y="0px"
	 viewBox="0 0 121.7 97" enable-background="new 0 0 121.7 97" xml:space="preserve">
<title>Group 44</title>
<desc>Created with Sketch.</desc>
<g>
	<g>
		<linearGradient id="SVGID_1_" gradientUnits="userSpaceOnUse" x1="62.7135" y1="70.7956" x2="119.7909" y2="70.7956">
			<stop  offset="0" style="stop-color:#C5A266"/>
			<stop  offset="0.5" style="stop-color:#876939"/>
			<stop  offset="1" style="stop-color:#6A4A20"/>
			<stop  offset="1" style="stop-color:#000000"/>
		</linearGradient>
		<path fill="url(#SVGID_1_)" d="M119.7,61.5c-0.1-0.2-0.3-0.3-0.5-0.4c-1.9-0.5-5.7-1-9.7,0.7c-0.4,0.2-0.7,0.3-1.1,0.5
			c0.2-0.3,0.4-0.7,0.6-1c1.4-0.7,5.9-3.2,6.9-8.6c0.5-2.9-0.2-5.3-0.9-6.9c-0.1-0.2-0.3-0.4-0.5-0.4c-0.2-0.1-0.5,0-0.7,0.1
			c-1.8,1.4-4.2,3.8-5.5,7.6c-0.8,2.4-1.1,4.9-0.7,7.4c-0.2,0.3-0.4,0.6-0.6,0.9c0.2-2-0.2-4-1.1-5.7c-1.1-2-2.8-3.2-4.1-3.8
			c-0.2-0.1-0.4-0.1-0.6,0c-0.2,0.1-0.4,0.2-0.4,0.5c-0.6,1.7-1.5,5.1-0.3,9c0.6,1.9,1.6,3.7,2.9,5.2c-0.4,0.5-0.7,0.9-1.1,1.4
			c-0.8,1-1.7,1.9-2.5,2.7c0.7-2,0.7-4.1,0.1-6c-0.7-2.2-2.1-3.7-3.2-4.6c-0.2-0.1-0.4-0.2-0.6-0.2c-0.2,0-0.4,0.2-0.5,0.4
			c-0.9,1.5-2.5,4.7-2.1,8.8c0.2,2,0.8,3.9,1.8,5.6c-1.6,1.2-3.1,2.3-4.6,3.2c1-1.7,1.5-3.7,1.4-5.6c-0.2-2.3-1.2-4.1-2.1-5.2
			c-0.1-0.2-0.3-0.3-0.6-0.3c-0.2,0-0.4,0.1-0.6,0.2c-1.3,1.3-3.5,4-4.1,8c-0.3,1.9-0.1,4,0.4,5.9c-0.2,0.1-0.4,0.2-0.6,0.3
			c-1.5,0.7-3,1.3-4.5,1.8c1.4-1.5,2.3-3.3,2.6-5.2c0.3-2.3-0.3-4.3-0.9-5.5c-0.1-0.2-0.3-0.3-0.5-0.4c-0.2-0.1-0.4,0-0.6,0.1
			c-1.5,1-4.3,3.2-5.7,7c-0.7,1.8-1,3.8-0.8,5.8c-1.8,0.4-3.3,0.6-4.3,0.7c-0.4,0-0.7,0.1-1,0.1c1.8-1.1,3.2-2.7,3.9-4.6
			c0.8-2.2,0.7-4.2,0.4-5.6c0-0.2-0.2-0.4-0.4-0.5c-0.2-0.1-0.4-0.1-0.6-0.1c-1.7,0.6-4.9,2.1-7.1,5.5c-1.2,1.8-2,4-2.2,6.2
			c0,0,0,0,0,0c0,0,0,0,0,0c0,0,0,0,0,0c0,0,0,0,0,0c0,0,0,0,0,0c0,0,0,0,0,0c0,0,0,0,0,0c0,0,0,0,0,0c0,0,0,0,0,0c0,0,0,0,0,0
			c0,0,0,0,0,0c0,0,0,0,0,0c1,4.6,4.1,8.1,7.9,9.1c0.9,0.2,1.7,0.3,2.4,0.3c1.4,0,2.6-0.3,3.5-0.6c0.2-0.1,0.4-0.2,0.5-0.4
			c0.1-0.2,0.1-0.4,0-0.6c-0.8-1.8-2.8-5-6.7-7.1c-0.3-0.1-0.5-0.3-0.8-0.4c0.2,0,0.4,0,0.6-0.1c1.1-0.1,2.7-0.4,4.6-0.8
			c2.1,3.9,5.7,6.5,9.5,6.6c0.1,0,0.2,0,0.3,0c2.3,0,4.2-0.9,5.4-1.6c0.2-0.1,0.3-0.3,0.3-0.5c0-0.2,0-0.4-0.2-0.6
			c-1.2-1.5-3.9-4.3-8.1-5.4c-0.4-0.1-0.8-0.2-1.1-0.2c1.5-0.5,3-1.1,4.5-1.8c0.2-0.1,0.5-0.2,0.7-0.3c2.4,2.9,5.7,4.5,9,4.5
			c0.6,0,1.1,0,1.7-0.1c2.4-0.4,4.2-1.8,5.2-2.8c0.2-0.2,0.2-0.4,0.2-0.6c0-0.2-0.1-0.4-0.3-0.6c-1.5-1.2-4.7-3.3-9.1-3.5
			c-0.4,0-0.8,0-1.2,0c1.5-1,3.2-2.1,4.8-3.4c2.3,1.7,4.9,2.5,7.4,2.5c1.4,0,2.7-0.3,3.9-0.8c2.3-1,3.7-2.7,4.4-4
			c0.1-0.2,0.1-0.4,0.1-0.6c-0.1-0.2-0.2-0.4-0.4-0.5c-1.8-0.8-5.4-2.1-9.6-1.3c-0.3,0.1-0.6,0.1-0.9,0.2c0.8-0.8,1.5-1.6,2.3-2.5
			c0.4-0.5,0.8-1,1.2-1.5c1.8,0.8,3.7,1.2,5.5,1.2c2.2,0,4.3-0.6,6-1.8c2-1.4,3-3.4,3.6-4.8C119.8,61.9,119.8,61.7,119.7,61.5z
			 M109.9,53.6c1-3,2.8-5,4.2-6.2c0.4,1.3,0.7,3,0.4,5c-0.7,3.8-3.7,6.1-5.3,7C109,57.9,109.1,55.9,109.9,53.6z M66.2,81.2
			c1.7-2.5,3.9-3.9,5.5-4.6c0.1,1.1,0.1,2.4-0.4,3.8c-1,2.7-3.6,4.7-6.9,5.3C64.7,84.1,65.3,82.5,66.2,81.2z M69.6,88.8
			c2.9,1.5,4.7,3.9,5.6,5.5c-1.1,0.3-2.6,0.4-4.1,0c-3-0.8-5.5-3.4-6.5-7C66.3,87.5,68,88,69.6,88.8z M76.5,79.5
			c1-2.8,2.9-4.7,4.3-5.7c0.4,1,0.6,2.3,0.4,3.8c-0.4,2.8-2.5,5.4-5.5,6.7C75.7,82.6,75.9,81,76.5,79.5z M81.5,86.2
			c3.2,0.8,5.4,2.7,6.7,4.1c-1,0.5-2.4,1-4,0.9c-3.1-0.1-6.1-2.1-7.9-5.3C78,85.7,79.8,85.8,81.5,86.2z M86.7,80.1
			c-0.4-1.6-0.5-3.2-0.3-4.8c0.4-3,1.9-5.2,3-6.5c0.6,0.9,1.1,2.1,1.2,3.6C90.8,75.2,89.3,78.1,86.7,80.1z M92.7,80.7
			c3.3,0.1,5.9,1.5,7.4,2.6c-0.9,0.7-2.2,1.5-3.8,1.8c-3.1,0.5-6.4-0.8-8.9-3.5C89.1,81,90.9,80.7,92.7,80.7z M95,68.8
			c-0.3-3,0.6-5.5,1.4-7c0.8,0.7,1.6,1.8,2,3.2c0.9,2.7,0.1,5.9-2,8.4C95.7,72,95.2,70.5,95,68.8z M102.5,72.7
			c3.3-0.7,6.1,0.1,7.8,0.8c-0.7,0.9-1.7,2-3.2,2.6c-2.9,1.3-6.4,0.7-9.5-1.3C99.1,73.8,100.7,73.1,102.5,72.7z M104.4,65.2
			c-1.1-1.3-1.8-2.7-2.3-4.3c-0.9-2.9-0.5-5.5,0-7.1c0.9,0.6,1.9,1.5,2.6,2.7C106.1,59,105.9,62.3,104.4,65.2z M115.3,65.6
			c-2.6,1.8-6.1,2-9.5,0.6c1.2-1.3,2.7-2.3,4.3-3c3.1-1.3,6-1.1,7.8-0.8C117.4,63.5,116.6,64.7,115.3,65.6z"/>
		<linearGradient id="SVGID_2_" gradientUnits="userSpaceOnUse" x1="0.7811" y1="70.7955" x2="57.8583" y2="70.7955">
			<stop  offset="0" style="stop-color:#C5A266"/>
			<stop  offset="0.5" style="stop-color:#876939"/>
			<stop  offset="1" style="stop-color:#6A4A20"/>
			<stop  offset="1" style="stop-color:#000000"/>
		</linearGradient>
		<path fill="url(#SVGID_2_)" d="M57.9,86.5C57.9,86.5,57.9,86.5,57.9,86.5C57.9,86.5,57.9,86.5,57.9,86.5c-0.2-2.2-1-4.4-2.2-6.2
			c-2.2-3.4-5.4-4.9-7.1-5.5c-0.2-0.1-0.4-0.1-0.6,0.1c-0.2,0.1-0.3,0.3-0.4,0.5c-0.3,1.4-0.5,3.4,0.4,5.6c0.7,1.9,2.1,3.5,3.9,4.6
			c-0.3,0-0.7-0.1-1-0.1c-1.1-0.1-2.6-0.4-4.3-0.7c0.1-2-0.1-4-0.8-5.8c-1.4-3.8-4.2-6-5.7-7c-0.2-0.1-0.4-0.2-0.6-0.1
			c-0.2,0.1-0.4,0.2-0.5,0.4c-0.6,1.2-1.2,3.2-0.9,5.5c0.3,1.9,1.2,3.7,2.6,5.2c-1.4-0.5-2.9-1.1-4.5-1.8c-0.2-0.1-0.4-0.2-0.6-0.3
			C35.9,79,36,77,35.7,75c-0.6-4-2.8-6.8-4.1-8c-0.2-0.2-0.4-0.2-0.6-0.2c-0.2,0-0.4,0.1-0.6,0.3c-0.9,1.1-1.9,2.9-2.1,5.2
			c-0.1,1.9,0.4,3.9,1.4,5.6c-1.5-0.9-3-2-4.6-3.2c1-1.7,1.6-3.7,1.8-5.6c0.4-4.1-1.1-7.2-2.1-8.8c-0.1-0.2-0.3-0.3-0.5-0.4
			c-0.2,0-0.4,0-0.6,0.2c-1.1,0.9-2.5,2.4-3.2,4.6c-0.6,1.9-0.6,4,0.1,6c-0.9-0.9-1.7-1.8-2.5-2.7c-0.4-0.4-0.8-0.9-1.1-1.4
			c1.3-1.5,2.3-3.3,2.9-5.2c1.2-3.9,0.3-7.3-0.3-9c-0.1-0.2-0.2-0.4-0.4-0.5c-0.2-0.1-0.4-0.1-0.6,0c-1.2,0.6-2.9,1.8-4.1,3.8
			c-1,1.7-1.3,3.7-1.1,5.7c-0.2-0.3-0.4-0.6-0.6-0.9c0.3-2.5,0.1-5-0.7-7.4c-1.3-3.8-3.7-6.2-5.5-7.6c-0.2-0.1-0.4-0.2-0.7-0.1
			c-0.2,0.1-0.4,0.2-0.5,0.4c-0.7,1.6-1.4,4-0.9,6.9c1,5.3,5.5,7.9,6.9,8.6c0.2,0.3,0.4,0.7,0.6,1c-0.3-0.2-0.7-0.4-1.1-0.5
			c-4-1.7-7.8-1.2-9.7-0.7c-0.2,0.1-0.4,0.2-0.5,0.4c-0.1,0.2-0.1,0.4,0,0.6c0.5,1.4,1.5,3.3,3.6,4.8c1.7,1.2,3.8,1.8,6,1.8
			c1.8,0,3.7-0.4,5.5-1.2c0.4,0.5,0.8,1,1.2,1.5c0.8,0.9,1.5,1.7,2.3,2.5c-0.3-0.1-0.6-0.2-0.9-0.2c-4.3-0.9-7.9,0.4-9.6,1.3
			c-0.2,0.1-0.3,0.3-0.4,0.5c-0.1,0.2,0,0.4,0.1,0.6c0.8,1.3,2.2,3,4.4,4c1.2,0.5,2.6,0.8,3.9,0.8c2.5,0,5.1-0.9,7.4-2.5
			c1.6,1.3,3.3,2.4,4.8,3.4c-0.4,0-0.8,0-1.2,0c-4.4,0.2-7.6,2.3-9.1,3.5c-0.2,0.1-0.3,0.3-0.3,0.6c0,0.2,0.1,0.4,0.2,0.6
			c1,1,2.8,2.4,5.2,2.8c0.5,0.1,1.1,0.1,1.7,0.1c3.2,0,6.5-1.6,9-4.5c0.2,0.1,0.5,0.2,0.7,0.3c1.6,0.7,3.1,1.3,4.5,1.8
			c-0.4,0.1-0.8,0.1-1.1,0.2c-4.2,1.1-6.9,3.8-8.1,5.4c-0.1,0.2-0.2,0.4-0.2,0.6c0,0.2,0.2,0.4,0.3,0.5c1.2,0.8,3.1,1.6,5.4,1.6
			c0.1,0,0.2,0,0.3,0c3.8-0.1,7.4-2.7,9.5-6.6c1.9,0.4,3.4,0.7,4.6,0.8c0.2,0,0.4,0,0.6,0.1c-0.3,0.1-0.6,0.3-0.8,0.4
			c-3.9,2-5.9,5.3-6.7,7.1c-0.1,0.2-0.1,0.4,0,0.6c0.1,0.2,0.3,0.4,0.5,0.4c0.9,0.3,2.1,0.6,3.5,0.6c0.8,0,1.6-0.1,2.4-0.3
			c3.8-1,6.9-4.5,7.9-9.1c0,0,0,0,0,0c0,0,0,0,0,0c0,0,0,0,0,0c0,0,0,0,0,0c0,0,0,0,0,0C57.9,86.6,57.9,86.6,57.9,86.5
			C57.9,86.6,57.9,86.6,57.9,86.5C57.9,86.5,57.9,86.5,57.9,86.5z M11.4,59.5c-1.6-0.9-4.5-3.2-5.3-7c-0.4-2-0.1-3.7,0.4-5
			c1.3,1.2,3.1,3.2,4.2,6.2C11.5,55.9,11.6,57.9,11.4,59.5z M5.3,65.6c-1.3-0.9-2.1-2.2-2.6-3.2c1.9-0.3,4.8-0.5,7.8,0.8
			c1.6,0.7,3.1,1.7,4.3,3C11.4,67.6,7.8,67.4,5.3,65.6z M16.2,65.2c-1.6-2.9-1.7-6.2-0.3-8.7c0.7-1.3,1.7-2.2,2.6-2.7
			c0.5,1.7,0.9,4.3,0,7.1C18.1,62.5,17.3,63.9,16.2,65.2z M13.5,76.1c-1.5-0.7-2.5-1.7-3.2-2.6c1.8-0.7,4.6-1.4,7.8-0.8
			c1.7,0.3,3.4,1.1,4.9,2.1C19.9,76.9,16.4,77.4,13.5,76.1z M24.1,73.5c-2.1-2.5-2.9-5.7-2-8.4c0.4-1.4,1.3-2.5,2-3.2
			c0.8,1.5,1.7,4,1.4,7C25.4,70.5,24.9,72,24.1,73.5z M24.2,85.1c-1.6-0.3-2.9-1-3.8-1.8c1.5-1.1,4.1-2.5,7.4-2.6
			c1.8-0.1,3.5,0.2,5.2,0.9C30.6,84.3,27.3,85.7,24.2,85.1z M33.9,80.1c-2.7-2-4.1-4.8-3.9-7.7c0.1-1.5,0.6-2.7,1.2-3.6
			c1.1,1.3,2.6,3.5,3,6.5C34.4,76.8,34.3,78.5,33.9,80.1z M36.4,91.3c-1.6,0.1-3-0.4-4-0.9c1.3-1.4,3.5-3.3,6.7-4.1
			c1.7-0.4,3.5-0.5,5.3-0.2C42.5,89.1,39.5,91.1,36.4,91.3z M44.8,84.3c-3-1.4-5.1-3.9-5.5-6.7c-0.2-1.5,0.1-2.8,0.4-3.8
			c1.4,1,3.3,2.9,4.3,5.7C44.7,81,44.9,82.6,44.8,84.3z M49.5,94.4c-1.6,0.4-3,0.3-4.1,0c0.9-1.6,2.7-4,5.6-5.5
			c1.6-0.8,3.3-1.3,5.1-1.4C55,90.9,52.5,93.6,49.5,94.4z M49.3,80.4c-0.5-1.4-0.6-2.7-0.4-3.8c1.6,0.7,3.8,2,5.5,4.6
			c0.9,1.4,1.5,2.9,1.8,4.5C52.9,85,50.3,83.1,49.3,80.4z"/>
	</g>
	<g>
		<linearGradient id="SVGID_3_" gradientUnits="userSpaceOnUse" x1="47.1458" y1="51.3874" x2="59.6684" y2="51.3874">
			<stop  offset="0" style="stop-color:#C5A266"/>
			<stop  offset="0.5" style="stop-color:#876939"/>
			<stop  offset="1" style="stop-color:#6A4A20"/>
			<stop  offset="1" style="stop-color:#000000"/>
		</linearGradient>
		<path fill="url(#SVGID_3_)" d="M59.2,37.6c-0.4-0.2-0.9,0-1,0.4l-11,26.1c-0.2,0.4,0,0.9,0.4,1c0.1,0,0.2,0.1,0.3,0.1
			c0.3,0,0.6-0.2,0.7-0.5l11-26.1C59.8,38.2,59.6,37.8,59.2,37.6z"/>
		<linearGradient id="SVGID_4_" gradientUnits="userSpaceOnUse" x1="64.3562" y1="12.6067" x2="74.6433" y2="12.6067">
			<stop  offset="0" style="stop-color:#C5A266"/>
			<stop  offset="0.5" style="stop-color:#876939"/>
			<stop  offset="1" style="stop-color:#6A4A20"/>
			<stop  offset="1" style="stop-color:#000000"/>
		</linearGradient>
		<path fill="url(#SVGID_4_)" d="M64.8,23.7c0.1,0,0.2,0.1,0.3,0.1c0.3,0,0.6-0.2,0.7-0.5l8.7-20.8c0.2-0.4,0-0.9-0.4-1
			c-0.4-0.2-0.9,0-1,0.4l-8.7,20.8C64.3,23.1,64.4,23.6,64.8,23.7z"/>
		<linearGradient id="SVGID_5_" gradientUnits="userSpaceOnUse" x1="61.1438" y1="14.2322" x2="62.6973" y2="14.2322">
			<stop  offset="0" style="stop-color:#C5A266"/>
			<stop  offset="0.5" style="stop-color:#876939"/>
			<stop  offset="1" style="stop-color:#6A4A20"/>
			<stop  offset="1" style="stop-color:#000000"/>
		</linearGradient>
		<path fill="url(#SVGID_5_)" d="M61.9,25.9c0.4,0,0.8-0.3,0.8-0.8V3.4c0-0.4-0.3-0.8-0.8-0.8c-0.4,0-0.8,0.3-0.8,0.8v21.8
			C61.1,25.5,61.5,25.9,61.9,25.9z"/>
		<linearGradient id="SVGID_6_" gradientUnits="userSpaceOnUse" x1="51.3349" y1="18.6775" x2="61.3207" y2="18.6775">
			<stop  offset="0" style="stop-color:#C5A266"/>
			<stop  offset="0.5" style="stop-color:#876939"/>
			<stop  offset="1" style="stop-color:#6A4A20"/>
			<stop  offset="1" style="stop-color:#000000"/>
		</linearGradient>
		<path fill="url(#SVGID_6_)" d="M60.8,31.3c0.4-0.1,0.6-0.6,0.5-1L52.8,6.5c-0.1-0.4-0.6-0.6-1-0.5c-0.4,0.1-0.6,0.6-0.5,1
			l8.4,23.9c0.1,0.3,0.4,0.5,0.7,0.5C60.6,31.4,60.7,31.4,60.8,31.3z"/>
		<linearGradient id="SVGID_7_" gradientUnits="userSpaceOnUse" x1="48.9286" y1="2.3023" x2="51.559" y2="2.3023">
			<stop  offset="0" style="stop-color:#C5A266"/>
			<stop  offset="0.5" style="stop-color:#876939"/>
			<stop  offset="1" style="stop-color:#6A4A20"/>
			<stop  offset="1" style="stop-color:#000000"/>
		</linearGradient>
		<path fill="url(#SVGID_7_)" d="M50,4.1c0.1,0.3,0.4,0.5,0.7,0.5c0.1,0,0.2,0,0.3,0c0.4-0.1,0.6-0.6,0.5-1l-1.1-3
			c-0.1-0.4-0.6-0.6-1-0.5C49,0.2,48.8,0.6,49,1L50,4.1z"/>
		<linearGradient id="SVGID_8_" gradientUnits="userSpaceOnUse" x1="40.8585" y1="16.5268" x2="56.3638" y2="16.5268">
			<stop  offset="0" style="stop-color:#C5A266"/>
			<stop  offset="0.5" style="stop-color:#876939"/>
			<stop  offset="1" style="stop-color:#6A4A20"/>
			<stop  offset="1" style="stop-color:#000000"/>
		</linearGradient>
		<path fill="url(#SVGID_8_)" d="M55,25.4c0.2,0.2,0.4,0.3,0.6,0.3c0.2,0,0.4-0.1,0.5-0.2c0.3-0.3,0.4-0.8,0.1-1.1l-14-16.8
			c-0.3-0.3-0.8-0.4-1.1-0.1c-0.3,0.3-0.4,0.8-0.1,1.1L55,25.4z"/>
		<linearGradient id="SVGID_9_" gradientUnits="userSpaceOnUse" x1="41.9398" y1="25.5506" x2="57.7409" y2="25.5506">
			<stop  offset="0" style="stop-color:#C5A266"/>
			<stop  offset="0.5" style="stop-color:#876939"/>
			<stop  offset="1" style="stop-color:#6A4A20"/>
			<stop  offset="1" style="stop-color:#000000"/>
		</linearGradient>
		<path fill="url(#SVGID_9_)" d="M42.1,20.8c-0.2,0.4-0.1,0.8,0.3,1.1l14.2,8.7c0.1,0.1,0.3,0.1,0.4,0.1c0.3,0,0.5-0.1,0.7-0.4
			c0.2-0.4,0.1-0.8-0.3-1.1l-14.2-8.7C42.8,20.3,42.3,20.4,42.1,20.8z"/>
		<linearGradient id="SVGID_10_" gradientUnits="userSpaceOnUse" x1="37.9211" y1="19.2384" x2="40.9968" y2="19.2384">
			<stop  offset="0" style="stop-color:#C5A266"/>
			<stop  offset="0.5" style="stop-color:#876939"/>
			<stop  offset="1" style="stop-color:#6A4A20"/>
			<stop  offset="1" style="stop-color:#000000"/>
		</linearGradient>
		<path fill="url(#SVGID_10_)" d="M38.3,19.4l1.5,0.9c0.1,0.1,0.3,0.1,0.4,0.1c0.3,0,0.5-0.1,0.7-0.4c0.2-0.4,0.1-0.8-0.3-1.1
			l-1.5-0.9c-0.4-0.2-0.8-0.1-1.1,0.3C37.8,18.7,37.9,19.2,38.3,19.4z"/>
		<linearGradient id="SVGID_11_" gradientUnits="userSpaceOnUse" x1="28.2833" y1="28.2299" x2="52.8761" y2="28.2299">
			<stop  offset="0" style="stop-color:#C5A266"/>
			<stop  offset="0.5" style="stop-color:#876939"/>
			<stop  offset="1" style="stop-color:#6A4A20"/>
			<stop  offset="1" style="stop-color:#000000"/>
		</linearGradient>
		<path fill="url(#SVGID_11_)" d="M52.1,31.2c0.4,0,0.7-0.3,0.8-0.6c0.1-0.4-0.2-0.8-0.6-0.9l-23-4.4c-0.4-0.1-0.8,0.2-0.9,0.6
			c-0.1,0.4,0.2,0.8,0.6,0.9l23,4.4C52,31.2,52.1,31.2,52.1,31.2z"/>
		<linearGradient id="SVGID_12_" gradientUnits="userSpaceOnUse" x1="33.4235" y1="35.1601" x2="51.4992" y2="35.1601">
			<stop  offset="0" style="stop-color:#C5A266"/>
			<stop  offset="0.5" style="stop-color:#876939"/>
			<stop  offset="1" style="stop-color:#6A4A20"/>
			<stop  offset="1" style="stop-color:#000000"/>
		</linearGradient>
		<path fill="url(#SVGID_12_)" d="M50.6,33.1l-16.5,2.7c-0.4,0.1-0.7,0.5-0.6,0.9c0.1,0.4,0.4,0.7,0.8,0.7c0,0,0.1,0,0.1,0l16.5-2.7
			c0.4-0.1,0.7-0.5,0.6-0.9C51.4,33.3,51,33,50.6,33.1z"/>
		<linearGradient id="SVGID_13_" gradientUnits="userSpaceOnUse" x1="31.8631" y1="40.7131" x2="59.2095" y2="40.7131">
			<stop  offset="0" style="stop-color:#C5A266"/>
			<stop  offset="0.5" style="stop-color:#876939"/>
			<stop  offset="1" style="stop-color:#6A4A20"/>
			<stop  offset="1" style="stop-color:#000000"/>
		</linearGradient>
		<path fill="url(#SVGID_13_)" d="M59.1,33.5c-0.2-0.4-0.7-0.5-1.1-0.3L32.3,46.9c-0.4,0.2-0.5,0.7-0.3,1.1c0.1,0.3,0.4,0.4,0.7,0.4
			c0.1,0,0.2,0,0.4-0.1l25.8-13.8C59.2,34.3,59.3,33.8,59.1,33.5z"/>
		<linearGradient id="SVGID_14_" gradientUnits="userSpaceOnUse" x1="45.073" y1="44.5222" x2="55.446" y2="44.5222">
			<stop  offset="0" style="stop-color:#C5A266"/>
			<stop  offset="0.5" style="stop-color:#876939"/>
			<stop  offset="1" style="stop-color:#6A4A20"/>
			<stop  offset="1" style="stop-color:#000000"/>
		</linearGradient>
		<path fill="url(#SVGID_14_)" d="M55.2,39.2c-0.3-0.3-0.8-0.3-1.1,0l-8.8,9.5c-0.3,0.3-0.3,0.8,0,1.1c0.1,0.1,0.3,0.2,0.5,0.2
			c0.2,0,0.4-0.1,0.6-0.2l8.8-9.5C55.5,40,55.5,39.5,55.2,39.2z"/>
		<linearGradient id="SVGID_15_" gradientUnits="userSpaceOnUse" x1="39.8489" y1="53.2695" x2="44.3486" y2="53.2695">
			<stop  offset="0" style="stop-color:#C5A266"/>
			<stop  offset="0.5" style="stop-color:#876939"/>
			<stop  offset="1" style="stop-color:#6A4A20"/>
			<stop  offset="1" style="stop-color:#000000"/>
		</linearGradient>
		<path fill="url(#SVGID_15_)" d="M43,51.2l-2.9,3.2c-0.3,0.3-0.3,0.8,0,1.1c0.1,0.1,0.3,0.2,0.5,0.2c0.2,0,0.4-0.1,0.6-0.2l2.9-3.2
			c0.3-0.3,0.3-0.8,0-1.1C43.8,50.8,43.3,50.8,43,51.2z"/>
		<linearGradient id="SVGID_16_" gradientUnits="userSpaceOnUse" x1="60.4095" y1="55.537" x2="61.963" y2="55.537">
			<stop  offset="0" style="stop-color:#C5A266"/>
			<stop  offset="0.5" style="stop-color:#876939"/>
			<stop  offset="1" style="stop-color:#6A4A20"/>
			<stop  offset="1" style="stop-color:#000000"/>
		</linearGradient>
		<path fill="url(#SVGID_16_)" d="M61.2,45.8c-0.4,0-0.8,0.3-0.8,0.8v17.9c0,0.4,0.3,0.8,0.8,0.8s0.8-0.3,0.8-0.8V46.6
			C62,46.2,61.6,45.8,61.2,45.8z"/>
		<linearGradient id="SVGID_17_" gradientUnits="userSpaceOnUse" x1="71.0451" y1="63.7251" x2="73.7122" y2="63.7251">
			<stop  offset="0" style="stop-color:#C5A266"/>
			<stop  offset="0.5" style="stop-color:#876939"/>
			<stop  offset="1" style="stop-color:#6A4A20"/>
			<stop  offset="1" style="stop-color:#000000"/>
		</linearGradient>
		<path fill="url(#SVGID_17_)" d="M72.6,61.9c-0.1-0.4-0.6-0.6-1-0.5c-0.4,0.1-0.6,0.6-0.5,1l1.1,3.2c0.1,0.3,0.4,0.5,0.7,0.5
			c0.1,0,0.2,0,0.3,0c0.4-0.1,0.6-0.6,0.5-1L72.6,61.9z"/>
		<linearGradient id="SVGID_18_" gradientUnits="userSpaceOnUse" x1="61.6025" y1="46.9853" x2="71.4163" y2="46.9853">
			<stop  offset="0" style="stop-color:#C5A266"/>
			<stop  offset="0.5" style="stop-color:#876939"/>
			<stop  offset="1" style="stop-color:#6A4A20"/>
			<stop  offset="1" style="stop-color:#000000"/>
		</linearGradient>
		<path fill="url(#SVGID_18_)" d="M71.4,58.5l-8.3-23.6c-0.1-0.4-0.6-0.6-1-0.5c-0.4,0.1-0.6,0.6-0.5,1L69.9,59
			c0.1,0.3,0.4,0.5,0.7,0.5c0.1,0,0.2,0,0.3,0C71.3,59.4,71.5,58.9,71.4,58.5z"/>
		<linearGradient id="SVGID_19_" gradientUnits="userSpaceOnUse" x1="66.8345" y1="48.8824" x2="82.4319" y2="48.8824">
			<stop  offset="0" style="stop-color:#C5A266"/>
			<stop  offset="0.5" style="stop-color:#876939"/>
			<stop  offset="1" style="stop-color:#6A4A20"/>
			<stop  offset="1" style="stop-color:#000000"/>
		</linearGradient>
		<path fill="url(#SVGID_19_)" d="M68.2,39.9c-0.3-0.3-0.8-0.4-1.1-0.1c-0.3,0.3-0.4,0.8-0.1,1.1l14,16.9c0.2,0.2,0.4,0.3,0.6,0.3
			c0.2,0,0.4-0.1,0.5-0.2c0.3-0.3,0.4-0.8,0.1-1.1L68.2,39.9z"/>
		<linearGradient id="SVGID_20_" gradientUnits="userSpaceOnUse" x1="80.7427" y1="45.0561" x2="83.717" y2="45.0561">
			<stop  offset="0" style="stop-color:#C5A266"/>
			<stop  offset="0.5" style="stop-color:#876939"/>
			<stop  offset="1" style="stop-color:#6A4A20"/>
			<stop  offset="1" style="stop-color:#000000"/>
		</linearGradient>
		<path fill="url(#SVGID_20_)" d="M83.3,44.8L81.9,44c-0.4-0.2-0.8-0.1-1.1,0.3c-0.2,0.4-0.1,0.8,0.3,1.1l1.4,0.9
			c0.1,0.1,0.3,0.1,0.4,0.1c0.3,0,0.5-0.1,0.7-0.4C83.8,45.5,83.7,45,83.3,44.8z"/>
		<linearGradient id="SVGID_21_" gradientUnits="userSpaceOnUse" x1="65.6413" y1="39.1541" x2="79.3252" y2="39.1541">
			<stop  offset="0" style="stop-color:#C5A266"/>
			<stop  offset="0.5" style="stop-color:#876939"/>
			<stop  offset="1" style="stop-color:#6A4A20"/>
			<stop  offset="1" style="stop-color:#000000"/>
		</linearGradient>
		<path fill="url(#SVGID_21_)" d="M65.8,35.1c-0.2,0.4-0.1,0.8,0.3,1.1l12.1,7.3c0.1,0.1,0.3,0.1,0.4,0.1c0.3,0,0.5-0.1,0.7-0.4
			c0.2-0.4,0.1-0.8-0.3-1.1l-12.1-7.3C66.5,34.6,66,34.7,65.8,35.1z"/>
		<linearGradient id="SVGID_22_" gradientUnits="userSpaceOnUse" x1="64.3564" y1="21.6212" x2="77.1998" y2="21.6212">
			<stop  offset="0" style="stop-color:#C5A266"/>
			<stop  offset="0.5" style="stop-color:#876939"/>
			<stop  offset="1" style="stop-color:#6A4A20"/>
			<stop  offset="1" style="stop-color:#000000"/>
		</linearGradient>
		<path fill="url(#SVGID_22_)" d="M64.6,28.2c0.1,0.1,0.3,0.2,0.5,0.2c0.2,0,0.4-0.1,0.6-0.2L77,16.1c0.3-0.3,0.3-0.8,0-1.1
			c-0.3-0.3-0.8-0.3-1.1,0L64.6,27.1C64.3,27.5,64.3,28,64.6,28.2z"/>
		<linearGradient id="SVGID_23_" gradientUnits="userSpaceOnUse" x1="69.3128" y1="21.5753" x2="90.9683" y2="21.5753">
			<stop  offset="0" style="stop-color:#C5A266"/>
			<stop  offset="0.5" style="stop-color:#876939"/>
			<stop  offset="1" style="stop-color:#6A4A20"/>
			<stop  offset="1" style="stop-color:#000000"/>
		</linearGradient>
		<path fill="url(#SVGID_23_)" d="M69.4,27.3c0.1,0.3,0.4,0.4,0.7,0.4c0.1,0,0.2,0,0.4-0.1l20.1-10.7c0.4-0.2,0.5-0.7,0.3-1.1
			c-0.2-0.4-0.7-0.5-1.1-0.3L69.7,26.3C69.3,26.5,69.2,26.9,69.4,27.3z"/>
		<linearGradient id="SVGID_24_" gradientUnits="userSpaceOnUse" x1="62.2451" y1="29.8821" x2="90.4175" y2="29.8821">
			<stop  offset="0" style="stop-color:#C5A266"/>
			<stop  offset="0.5" style="stop-color:#876939"/>
			<stop  offset="1" style="stop-color:#6A4A20"/>
			<stop  offset="1" style="stop-color:#000000"/>
		</linearGradient>
		<path fill="url(#SVGID_24_)" d="M62.3,32c0.1,0.4,0.4,0.7,0.8,0.7c0,0,0.1,0,0.1,0l26.6-4c0.4-0.1,0.7-0.5,0.7-0.9
			c-0.1-0.4-0.5-0.7-0.9-0.7l-26.6,4C62.5,31.2,62.2,31.6,62.3,32z"/>
		<linearGradient id="SVGID_25_" gradientUnits="userSpaceOnUse" x1="70.2306" y1="36.032" x2="91.978" y2="36.032">
			<stop  offset="0" style="stop-color:#C5A266"/>
			<stop  offset="0.5" style="stop-color:#876939"/>
			<stop  offset="1" style="stop-color:#6A4A20"/>
			<stop  offset="1" style="stop-color:#000000"/>
		</linearGradient>
		<path fill="url(#SVGID_25_)" d="M91.4,37.3l-20.2-4c-0.4-0.1-0.8,0.2-0.9,0.6c-0.1,0.4,0.2,0.8,0.6,0.9l20.2,4c0.1,0,0.1,0,0.2,0
			c0.4,0,0.7-0.3,0.8-0.6C92,37.8,91.8,37.4,91.4,37.3z"/>
	</g>
</g>
</svg>
