<?xml version="1.0" encoding="UTF-8"?>
<svg width="24px" height="17px" viewBox="0 0 24 17" version="1.1" xmlns="http://www.w3.org/2000/svg" xmlns:xlink="http://www.w3.org/1999/xlink">
    <!-- Generator: sketchtool 49.3 (51167) - http://www.bohemiancoding.com/sketch -->
    <title>7F0F18DA-F2A1-41B1-867D-C82D1F8ACCC1-black</title>
    <desc>Created with sketchtool.</desc>
    <defs></defs>
    <g id="Page-1" stroke="none" stroke-width="1" fill="none" fill-rule="evenodd">
        <g id="loreal_d_pdp_dream_length" transform="translate(-1517.000000, -4017.000000)" fill="#FFFFFF">
            <g id="Desktop---Footer" transform="translate(0.000000, 3764.000000)">
                <g id="Desktop---Footer-Copy" transform="translate(0.000000, 65.000000)">
                    <g id="social" transform="translate(1290.000000, 171.000000)">
                        <g id="Youtube" transform="translate(213.000000, 0.000000)">
                            <path d="M24.000694,28 L24,21 L30,24.5120676 L24.000694,28 Z M37.76,20.6670814 C37.76,20.6670814 37.52525,19.0015995 36.806,18.2681832 C35.89325,17.3051495 34.87025,17.3006176 34.4015,17.2447239 C31.043,17 26.00525,17 26.00525,17 L25.99475,17 C25.99475,17 20.957,17 17.5985,17.2447239 C17.129,17.3006176 16.10675,17.3051495 15.19325,18.2681832 C14.474,19.0015995 14.24,20.6670814 14.24,20.6670814 C14.24,20.6670814 14,22.6233616 14,24.5788866 L14,26.4128049 C14,28.3690852 14.24,30.3246101 14.24,30.3246101 C14.24,30.3246101 14.474,31.990092 15.19325,32.7235082 C16.10675,33.686542 17.306,33.6563291 17.84,33.7567868 C19.76,33.9425956 26,34 26,34 C26,34 31.043,33.9924468 34.4015,33.7477229 C34.87025,33.6910739 35.89325,33.686542 36.806,32.7235082 C37.52525,31.990092 37.76,30.3246101 37.76,30.3246101 C37.76,30.3246101 38,28.3690852 38,26.4128049 L38,24.5788866 C38,22.6233616 37.76,20.6670814 37.76,20.6670814 L37.76,20.6670814 Z" id="Youtube-Copy"></path>
                        </g>
                    </g>
                </g>
            </g>
        </g>
    </g>
</svg>